M48
; DRILL file {KiCad (6.0.7)} date Sat Sep 24 01:23:55 2022
; FORMAT={-:-/ absolute / inch / decimal}
; #@! TF.CreationDate,2022-09-24T01:23:55-04:00
; #@! TF.GenerationSoftware,Kicad,Pcbnew,(6.0.7)
; #@! TF.FileFunction,MixedPlating,1,2
FMAT,2
INCH
; #@! TA.AperFunction,Plated,PTH,ViaDrill
T1C0.0100
; #@! TA.AperFunction,Plated,PTH,ComponentDrill
T2C0.0394
; #@! TA.AperFunction,Plated,PTH,ComponentDrill
T3C0.0400
; #@! TA.AperFunction,Plated,PTH,ComponentDrill
T4C0.0500
%
G90
G05
T1
X3.975Y-3.785
X4.005Y-3.755
X4.005Y-3.815
X4.01Y-2.175
X4.035Y-3.785
X4.04Y-2.205
X4.065Y-3.755
X4.07Y-2.175
X4.07Y-2.235
X4.095Y-3.785
X4.1Y-2.205
X4.1Y-2.265
X4.1Y-2.445
X4.1Y-2.505
X4.1Y-3.285
X4.1Y-3.345
X4.1Y-3.405
X4.125Y-3.755
X4.13Y-2.175
X4.13Y-2.235
X4.13Y-2.295
X4.13Y-2.475
X4.13Y-2.535
X4.13Y-2.595
X4.13Y-2.655
X4.13Y-2.715
X4.13Y-2.775
X4.13Y-2.835
X4.13Y-2.895
X4.13Y-2.955
X4.13Y-3.015
X4.13Y-3.075
X4.13Y-3.135
X4.13Y-3.195
X4.13Y-3.255
X4.13Y-3.315
X4.13Y-3.375
X4.13Y-3.435
X4.155Y-3.725
X4.155Y-3.785
X4.16Y-2.205
X4.16Y-2.265
X4.16Y-2.325
X4.16Y-2.505
X4.16Y-2.565
X4.16Y-2.625
X4.16Y-2.685
X4.16Y-2.745
X4.16Y-2.805
X4.16Y-2.865
X4.16Y-2.925
X4.16Y-2.985
X4.16Y-3.045
X4.16Y-3.105
X4.16Y-3.165
X4.16Y-3.225
X4.16Y-3.285
X4.16Y-3.345
X4.16Y-3.405
X4.16Y-3.465
X4.185Y-3.695
X4.185Y-3.755
X4.1875Y-2.8975
X4.1875Y-2.95
X4.1875Y-3.01
X4.1875Y-3.09
X4.1875Y-3.15
X4.1875Y-3.205
X4.19Y-2.175
X4.19Y-2.235
X4.19Y-2.295
X4.19Y-2.355
X4.19Y-2.535
X4.19Y-2.595
X4.19Y-2.655
X4.19Y-2.715
X4.19Y-2.775
X4.19Y-2.835
X4.19Y-3.255
X4.19Y-3.315
X4.19Y-3.375
X4.19Y-3.435
X4.19Y-3.495
X4.215Y-3.665
X4.215Y-3.725
X4.215Y-3.785
X4.22Y-2.205
X4.22Y-2.265
X4.22Y-2.325
X4.22Y-2.385
X4.22Y-2.565
X4.22Y-2.625
X4.22Y-2.685
X4.22Y-2.745
X4.22Y-2.805
X4.22Y-2.865
X4.245Y-3.635
X4.245Y-3.695
X4.245Y-3.755
X4.25Y-2.175
X4.25Y-2.235
X4.25Y-2.295
X4.25Y-2.355
X4.25Y-2.415
X4.25Y-2.535
X4.25Y-2.595
X4.25Y-2.655
X4.25Y-2.715
X4.25Y-2.775
X4.25Y-2.835
X4.2525Y-2.9725
X4.2525Y-3.0
X4.2525Y-3.1025
X4.2525Y-3.13
X4.255Y-2.895
X4.255Y-3.205
X4.268Y-2.685
X4.27Y-3.05
X4.275Y-3.605
X4.275Y-3.665
X4.275Y-3.725
X4.275Y-3.785
X4.28Y-2.205
X4.28Y-2.265
X4.28Y-2.325
X4.28Y-2.385
X4.28Y-2.445
X4.28Y-2.565
X4.28Y-2.625
X4.28Y-2.7375
X4.28Y-2.8125
X4.285Y-2.8875
X4.305Y-3.05
X4.305Y-3.635
X4.305Y-3.695
X4.305Y-3.755
X4.31Y-2.175
X4.31Y-2.235
X4.31Y-2.295
X4.31Y-2.355
X4.31Y-2.415
X4.335Y-3.605
X4.335Y-3.665
X4.335Y-3.725
X4.335Y-3.785
X4.34Y-2.205
X4.34Y-2.265
X4.34Y-2.325
X4.34Y-2.385
X4.34Y-2.445
X4.34Y-3.05
X4.365Y-3.575
X4.365Y-3.635
X4.365Y-3.695
X4.365Y-3.755
X4.37Y-2.175
X4.37Y-2.235
X4.37Y-2.295
X4.37Y-2.355
X4.37Y-2.415
X4.37Y-3.05
X4.395Y-3.545
X4.395Y-3.605
X4.395Y-3.665
X4.395Y-3.725
X4.395Y-3.785
X4.4Y-3.05
X4.422Y-3.112
X4.425Y-3.515
X4.425Y-3.575
X4.425Y-3.635
X4.425Y-3.695
X4.504Y-3.27
X4.56Y-2.27
X4.572Y-3.32
X4.574Y-3.624
X4.595Y-2.299
X4.6Y-2.245
X4.626Y-3.266
X4.64Y-2.15
X4.64Y-2.939
X4.64Y-3.308
X4.64Y-3.608
X4.642Y-2.258
X4.658Y-2.963
X4.665Y-3.695
X4.665Y-3.755
X4.67Y-2.165
X4.67Y-2.245
X4.675Y-2.5
X4.695Y-3.665
X4.695Y-3.725
X4.695Y-3.785
X4.699Y-2.525
X4.717Y-2.455
X4.72Y-2.295
X4.72Y-2.355
X4.725Y-3.695
X4.725Y-3.755
X4.725Y-3.815
X4.745Y-2.425
X4.75Y-2.205
X4.75Y-2.265
X4.75Y-2.325
X4.75Y-2.385
X4.753Y-2.53
X4.755Y-2.56
X4.755Y-3.665
X4.755Y-3.725
X4.755Y-3.785
X4.785Y-3.695
X4.785Y-3.755
X4.785Y-3.815
X4.796Y-2.52
X4.805Y-2.5
X4.81Y-2.675
X4.815Y-3.785
X4.828Y-3.585
X4.835Y-2.65
X4.845Y-3.034
X4.845Y-3.056
X4.845Y-3.815
X4.85Y-3.585
X4.875Y-2.705
X4.875Y-2.765
X4.875Y-3.785
X4.905Y-2.735
X4.905Y-3.275
X4.905Y-3.815
X4.919Y-2.345
X4.925Y-2.99
X4.93Y-2.26
X4.93Y-2.882
X4.93Y-2.904
X4.93Y-3.555
X4.935Y-2.705
X4.935Y-3.245
X4.935Y-3.785
X4.94Y-3.414
X4.94Y-3.436
X4.941Y-2.345
X4.965Y-2.675
X4.965Y-2.735
X4.965Y-3.215
X4.965Y-3.275
X4.965Y-3.815
X4.99Y-2.26
X4.995Y-2.705
X4.995Y-3.245
X4.995Y-3.425
X4.995Y-3.785
X5.02Y-2.29
X5.025Y-2.675
X5.025Y-2.735
X5.025Y-2.855
X5.025Y-3.215
X5.025Y-3.275
X5.025Y-3.395
X5.025Y-3.815
X5.05Y-2.26
X5.05Y-2.32
X5.05Y-2.38
X5.055Y-2.645
X5.055Y-2.705
X5.055Y-2.885
X5.055Y-3.185
X5.055Y-3.245
X5.055Y-3.425
X5.055Y-3.485
X5.055Y-3.725
X5.055Y-3.785
X5.08Y-2.29
X5.08Y-2.35
X5.085Y-2.675
X5.085Y-2.735
X5.085Y-2.855
X5.085Y-2.915
X5.085Y-3.215
X5.085Y-3.275
X5.085Y-3.395
X5.085Y-3.455
X5.085Y-3.755
X5.11Y-2.26
X5.11Y-2.32
X5.11Y-2.38
X5.115Y-2.645
X5.115Y-2.705
X5.115Y-2.885
X5.115Y-3.185
X5.115Y-3.245
X5.115Y-3.425
X5.115Y-3.485
X5.115Y-3.725
X5.115Y-3.785
X5.14Y-2.29
X5.14Y-2.35
X5.145Y-2.675
X5.145Y-2.735
X5.145Y-2.855
X5.145Y-2.915
X5.145Y-3.215
X5.145Y-3.275
X5.145Y-3.395
X5.145Y-3.455
X5.145Y-3.755
X5.17Y-2.26
X5.17Y-2.32
X5.175Y-2.705
X5.175Y-3.245
X5.175Y-3.785
X5.2Y-2.29
X5.205Y-2.675
X5.205Y-2.735
X5.205Y-2.855
X5.205Y-3.275
X5.205Y-3.395
X5.23Y-2.26
X5.23Y-2.32
X5.235Y-2.705
X5.235Y-3.245
X5.26Y-2.29
X5.265Y-2.48
X5.265Y-2.675
X5.265Y-2.735
X5.265Y-2.855
X5.265Y-2.985
X5.265Y-3.035
X5.265Y-3.14
X5.265Y-3.56
X5.265Y-3.59
X5.281Y-3.659
X5.285Y-3.089
X5.29Y-2.26
X5.295Y-3.14
X5.296Y-3.035
X5.32Y-2.29
X5.325Y-2.735
X5.325Y-2.855
X5.33Y-2.595
X5.333Y-3.605
X5.335Y-2.94
X5.335Y-3.49
X5.339Y-3.105
X5.34Y-2.408
X5.345Y-2.365
X5.35Y-2.26
X5.358Y-3.645
X5.38Y-2.29
X5.38Y-3.085
X5.386Y-2.966
X5.4Y-3.53
X5.4Y-3.652
X5.4Y-3.765
X5.41Y-2.26
X5.41Y-3.085
X5.41Y-3.115
X5.41Y-3.68
X5.415Y-2.945
X5.42Y-3.552
X5.4275Y-3.22
X5.4275Y-3.51
X5.44Y-2.505
X5.445Y-2.54
X5.454Y-3.115
X5.455Y-3.055
X5.455Y-3.085
X5.455Y-3.565
X5.455Y-3.685
X5.47Y-2.505
X5.475Y-2.6
X5.4775Y-3.705
X5.48Y-3.13
X5.49Y-3.0
X5.5Y-2.29
X5.5Y-2.563
X5.5Y-2.71
X5.5Y-2.89
X5.5Y-3.25
X5.5Y-3.43
X5.505Y-2.605
X5.51Y-3.6
X5.514Y-2.497
X5.52Y-3.652
X5.53Y-2.26
X5.53Y-2.68
X5.53Y-2.74
X5.53Y-2.86
X5.53Y-3.22
X5.53Y-3.4
X5.535Y-3.115
X5.543Y-2.455
X5.555Y-2.483
X5.56Y-2.23
X5.56Y-2.29
X5.56Y-2.71
X5.56Y-2.89
X5.56Y-3.25
X5.56Y-3.37
X5.56Y-3.43
X5.565Y-2.61
X5.565Y-3.085
X5.565Y-3.16
X5.565Y-3.71
X5.57Y-2.98
X5.576Y-2.504
X5.58Y-3.63
X5.585Y-2.45
X5.59Y-2.26
X5.59Y-2.74
X5.594Y-2.42
X5.605Y-3.61
X5.62Y-2.23
X5.62Y-2.71
X5.62Y-3.25
X5.62Y-3.37
X5.624Y-3.528
X5.625Y-3.085
X5.625Y-3.585
X5.63Y-2.495
X5.63Y-2.537
X5.635Y-2.435
X5.64Y-3.665
X5.65Y-2.26
X5.65Y-2.68
X5.65Y-2.74
X5.65Y-2.86
X5.65Y-3.4
X5.68Y-2.23
X5.68Y-2.29
X5.68Y-2.71
X5.68Y-3.25
X5.68Y-3.37
X5.68Y-3.43
X5.68Y-3.79
X5.71Y-2.26
X5.71Y-2.32
X5.71Y-2.68
X5.71Y-2.74
X5.71Y-2.86
X5.71Y-3.4
X5.71Y-3.82
X5.74Y-2.23
X5.74Y-2.29
X5.74Y-2.71
X5.74Y-2.89
X5.74Y-3.25
X5.74Y-3.37
X5.74Y-3.43
X5.74Y-3.79
X5.77Y-2.26
X5.77Y-2.32
X5.77Y-2.38
X5.77Y-2.62
X5.77Y-2.68
X5.77Y-2.74
X5.77Y-2.86
X5.77Y-2.92
X5.77Y-3.22
X5.77Y-3.4
X5.77Y-3.46
X5.77Y-3.76
X5.77Y-3.82
X5.8Y-2.23
X5.8Y-2.29
X5.8Y-2.35
X5.8Y-2.65
X5.8Y-2.71
X5.8Y-2.89
X5.8Y-3.19
X5.8Y-3.25
X5.8Y-3.37
X5.8Y-3.43
X5.8Y-3.73
X5.8Y-3.79
X5.83Y-2.26
X5.83Y-2.32
X5.83Y-2.38
X5.83Y-2.62
X5.83Y-2.68
X5.83Y-2.74
X5.83Y-2.86
X5.83Y-2.92
X5.83Y-3.22
X5.83Y-3.4
X5.83Y-3.46
X5.83Y-3.76
X5.83Y-3.82
X5.86Y-2.23
X5.86Y-2.29
X5.86Y-2.35
X5.86Y-2.71
X5.86Y-2.89
X5.86Y-3.25
X5.86Y-3.37
X5.86Y-3.43
X5.86Y-3.79
X5.89Y-2.26
X5.89Y-2.32
X5.89Y-2.68
X5.89Y-2.74
X5.89Y-2.86
X5.89Y-3.22
X5.89Y-3.4
X5.89Y-3.82
X5.92Y-2.23
X5.92Y-2.29
X5.92Y-2.71
X5.92Y-3.25
X5.92Y-3.37
X5.92Y-3.43
X5.92Y-3.79
X5.95Y-2.26
X5.95Y-2.32
X5.95Y-2.74
X5.95Y-2.86
X5.95Y-3.4
X5.95Y-3.82
X5.95Y-3.95
X5.973Y-3.755
X5.975Y-2.631
X5.98Y-2.29
X5.98Y-2.71
X5.98Y-3.183
X5.98Y-3.205
X5.98Y-3.37
X5.98Y-3.43
X5.98Y-3.645
X5.989Y-2.651
X5.995Y-3.755
X6.01Y-2.32
X6.01Y-2.74
X6.01Y-2.86
X6.01Y-3.1
X6.01Y-3.4
X6.01Y-3.82
X6.024Y-3.78
X6.025Y-3.702
X6.03Y-2.201
X6.04Y-2.29
X6.04Y-2.645
X6.04Y-2.675
X6.04Y-2.71
X6.04Y-3.25
X6.04Y-3.37
X6.04Y-3.43
X6.06Y-2.201
X6.07Y-2.32
X6.07Y-2.74
X6.07Y-2.86
X6.07Y-3.1
X6.07Y-3.4
X6.071Y-3.77
X6.073Y-3.694
X6.09Y-2.201
X6.091Y-2.467
X6.1Y-2.29
X6.1Y-2.35
X6.1Y-2.89
X6.1Y-2.95
X6.1Y-3.005
X6.1Y-3.25
X6.1Y-3.37
X6.1Y-3.43
X6.1Y-3.49
X6.105Y-2.545
X6.107Y-3.546
X6.113Y-2.467
X6.115Y-3.022
X6.12Y-3.685
X6.123Y-3.562
X6.13Y-2.32
X6.13Y-2.86
X6.13Y-2.92
X6.13Y-3.4
X6.13Y-3.46
X6.14Y-2.61
X6.141Y-2.64
X6.152Y-3.171
X6.16Y-2.29
X6.16Y-2.35
X6.16Y-2.41
X6.16Y-2.89
X6.16Y-2.95
X6.16Y-3.25
X6.16Y-3.43
X6.16Y-3.49
X6.17Y-3.575
X6.179Y-3.142
X6.19Y-2.26
X6.19Y-2.32
X6.19Y-2.38
X6.19Y-2.56
X6.19Y-2.62
X6.19Y-3.28
X6.19Y-3.46
X6.22Y-2.53
X6.22Y-2.59
X6.35Y-2.695
X6.35Y-3.335
X6.36Y-2.665
X6.424Y-2.664
X6.44Y-3.29
X6.475Y-2.625
X6.477Y-3.025
X6.48Y-3.475
X6.525Y-2.375
X6.525Y-2.65
X6.525Y-3.0
X6.525Y-3.28
X6.535Y-3.48
T2
X3.6Y-2.05
X3.6Y-2.15
X3.6Y-2.25
X3.6Y-3.75
X3.6Y-3.85
X3.6Y-3.95
X3.7Y-2.05
X3.7Y-2.15
X3.7Y-2.25
X3.7Y-3.75
X3.7Y-3.85
X3.7Y-3.95
X3.8Y-2.05
X3.8Y-2.15
X3.8Y-2.25
X3.8Y-3.75
X3.8Y-3.85
X3.8Y-3.95
X3.9Y-2.05
X3.9Y-2.15
X3.9Y-2.25
X3.9Y-3.75
X3.9Y-3.85
X3.9Y-3.95
X6.3Y-2.1
X6.3Y-2.2
X6.3Y-2.3
X6.3Y-2.4
X6.3Y-2.5
X6.3Y-2.6
X6.3Y-2.75
X6.3Y-2.85
X6.3Y-2.95
X6.3Y-3.05
X6.3Y-3.15
X6.3Y-3.25
X6.3Y-3.4
X6.3Y-3.5
X6.3Y-3.6
X6.3Y-3.7
X6.3Y-3.8
X6.3Y-3.9
X6.4Y-2.1
X6.4Y-2.2
X6.4Y-2.3
X6.4Y-2.4
X6.4Y-2.5
X6.4Y-2.6
X6.4Y-2.75
X6.4Y-2.85
X6.4Y-2.95
X6.4Y-3.05
X6.4Y-3.15
X6.4Y-3.25
X6.4Y-3.4
X6.4Y-3.5
X6.4Y-3.6
X6.4Y-3.7
X6.4Y-3.8
X6.4Y-3.9
T3
X4.0Y-2.0
X4.0Y-2.1
X4.0Y-3.9
X4.0Y-4.0
X4.1Y-2.0
X4.1Y-2.1
X4.1Y-3.9
X4.1Y-4.0
X4.2Y-2.0
X4.2Y-2.1
X4.2Y-3.9
X4.2Y-4.0
X4.3Y-2.0
X4.3Y-2.1
X4.3Y-3.9
X4.3Y-4.0
X4.4Y-2.0
X4.4Y-2.1
X4.4Y-3.9
X4.4Y-4.0
X4.5Y-2.0
X4.5Y-2.1
X4.5Y-3.9
X4.5Y-4.0
X4.6Y-2.0
X4.6Y-2.1
X4.6Y-3.9
X4.6Y-4.0
X4.7Y-2.0
X4.7Y-2.1
X4.7Y-3.9
X4.7Y-4.0
X4.8Y-2.0
X4.8Y-2.1
X4.8Y-3.9
X4.8Y-4.0
X4.9Y-2.0
X4.9Y-2.1
X4.9Y-3.9
X4.9Y-4.0
X5.0Y-2.0
X5.0Y-2.1
X5.0Y-3.9
X5.0Y-4.0
X5.1Y-2.0
X5.1Y-2.1
X5.1Y-3.9
X5.1Y-4.0
X5.2Y-2.0
X5.2Y-2.1
X5.2Y-3.9
X5.2Y-4.0
X5.3Y-2.0
X5.3Y-2.1
X5.3Y-3.9
X5.3Y-4.0
X5.4Y-2.0
X5.4Y-2.1
X5.4Y-3.9
X5.4Y-4.0
X5.5Y-2.0
X5.5Y-2.1
X5.5Y-3.9
X5.5Y-4.0
X5.6Y-2.0
X5.6Y-2.1
X5.6Y-3.9
X5.6Y-4.0
X5.7Y-2.0
X5.7Y-2.1
X5.7Y-3.9
X5.7Y-4.0
X5.8Y-2.0
X5.8Y-2.1
X5.8Y-3.9
X5.8Y-4.0
X5.9Y-2.0
X5.9Y-2.1
X5.9Y-3.9
X5.9Y-4.0
X6.0Y-2.0
X6.0Y-2.1
X6.0Y-3.9
X6.0Y-4.0
X6.1Y-2.0
X6.1Y-2.1
X6.1Y-3.9
X6.1Y-4.0
X6.2Y-2.0
X6.2Y-2.1
X6.2Y-3.9
X6.2Y-4.0
T4
G00X3.34Y-3.5224
M15
G01X3.34Y-3.3665
M16
G05
G00X3.34Y-3.8335
M15
G01X3.34Y-3.6776
M16
G05
T0
M30
