M48
; DRILL file {KiCad 6.0.5} date Mon 04 Jul 2022 07:11:53 PM EDT
; FORMAT={-:-/ absolute / metric / decimal}
; #@! TF.CreationDate,2022-07-04T19:11:53-04:00
; #@! TF.GenerationSoftware,Kicad,Pcbnew,6.0.5
; #@! TF.FileFunction,MixedPlating,1,2
FMAT,2
METRIC
; #@! TA.AperFunction,Plated,PTH,ViaDrill
T1C0.300
; #@! TA.AperFunction,Plated,PTH,ViaDrill
T2C0.600
; #@! TA.AperFunction,Plated,PTH,ComponentDrill
T3C1.000
; #@! TA.AperFunction,Plated,PTH,ComponentDrill
T4C1.016
; #@! TA.AperFunction,Plated,PTH,ComponentDrill
T5C1.270
%
G90
G05
T1
X100.965Y-96.139
X101.727Y-95.377
X101.727Y-96.901
X101.854Y-55.245
X102.489Y-96.139
X102.616Y-56.007
X103.251Y-95.377
X103.378Y-55.245
X103.378Y-56.769
X104.013Y-96.139
X104.14Y-56.007
X104.14Y-57.531
X104.14Y-62.103
X104.14Y-63.627
X104.14Y-83.439
X104.14Y-84.963
X104.14Y-86.487
X104.775Y-95.377
X104.902Y-55.245
X104.902Y-56.769
X104.902Y-58.293
X104.902Y-62.865
X104.902Y-64.389
X104.902Y-65.913
X104.902Y-67.437
X104.902Y-68.961
X104.902Y-70.485
X104.902Y-72.009
X104.902Y-73.533
X104.902Y-75.057
X104.902Y-76.581
X104.902Y-78.105
X104.902Y-79.629
X104.902Y-81.153
X104.902Y-82.677
X104.902Y-84.201
X104.902Y-85.725
X104.902Y-87.249
X105.537Y-94.615
X105.537Y-96.139
X105.664Y-56.007
X105.664Y-57.531
X105.664Y-59.055
X105.664Y-63.627
X105.664Y-65.151
X105.664Y-66.675
X105.664Y-68.199
X105.664Y-69.723
X105.664Y-71.247
X105.664Y-72.771
X105.664Y-74.295
X105.664Y-75.819
X105.664Y-77.343
X105.664Y-78.867
X105.664Y-80.391
X105.664Y-81.915
X105.664Y-83.439
X105.664Y-84.963
X105.664Y-86.487
X105.664Y-88.011
X106.299Y-93.853
X106.299Y-95.377
X106.362Y-73.596
X106.362Y-74.93
X106.362Y-76.454
X106.362Y-78.486
X106.362Y-80.01
X106.362Y-81.407
X106.426Y-55.245
X106.426Y-56.769
X106.426Y-58.293
X106.426Y-59.817
X106.426Y-64.389
X106.426Y-65.913
X106.426Y-67.437
X106.426Y-68.961
X106.426Y-70.485
X106.426Y-72.009
X106.426Y-82.677
X106.426Y-84.201
X106.426Y-85.725
X106.426Y-87.249
X106.426Y-88.773
X107.061Y-93.091
X107.061Y-94.615
X107.061Y-96.139
X107.188Y-56.007
X107.188Y-57.531
X107.188Y-59.055
X107.188Y-60.579
X107.188Y-65.151
X107.188Y-66.675
X107.188Y-68.199
X107.188Y-69.723
X107.188Y-71.247
X107.188Y-72.771
X107.823Y-92.329
X107.823Y-93.853
X107.823Y-95.377
X107.95Y-55.245
X107.95Y-56.769
X107.95Y-58.293
X107.95Y-59.817
X107.95Y-61.341
X107.95Y-64.389
X107.95Y-65.913
X107.95Y-67.437
X107.95Y-68.961
X107.95Y-70.485
X107.95Y-72.009
X108.013Y-75.501
X108.013Y-76.2
X108.013Y-78.803
X108.013Y-79.502
X108.077Y-73.533
X108.077Y-81.407
X108.407Y-68.199
X108.458Y-77.47
X108.585Y-91.567
X108.585Y-93.091
X108.585Y-94.615
X108.585Y-96.139
X108.712Y-56.007
X108.712Y-57.531
X108.712Y-59.055
X108.712Y-60.579
X108.712Y-62.103
X108.712Y-65.151
X108.712Y-66.675
X108.712Y-69.532
X108.712Y-71.438
X108.839Y-73.343
X109.347Y-77.47
X109.347Y-92.329
X109.347Y-93.853
X109.347Y-95.377
X109.474Y-55.245
X109.474Y-56.769
X109.474Y-58.293
X109.474Y-59.817
X109.474Y-61.341
X110.109Y-91.567
X110.109Y-93.091
X110.109Y-94.615
X110.109Y-96.139
X110.236Y-56.007
X110.236Y-57.531
X110.236Y-59.055
X110.236Y-60.579
X110.236Y-62.103
X110.236Y-77.47
X110.871Y-90.805
X110.871Y-92.329
X110.871Y-93.853
X110.871Y-95.377
X110.998Y-55.245
X110.998Y-56.769
X110.998Y-58.293
X110.998Y-59.817
X110.998Y-61.341
X110.998Y-77.47
X111.633Y-90.043
X111.633Y-91.567
X111.633Y-93.091
X111.633Y-94.615
X111.633Y-96.139
X111.76Y-77.47
X112.319Y-79.045
X112.395Y-89.281
X112.395Y-90.805
X112.395Y-92.329
X112.395Y-93.853
X114.402Y-83.058
X115.824Y-57.658
X116.129Y-84.328
X116.18Y-92.05
X116.713Y-58.395
X116.84Y-57.023
X117.5Y-82.956
X117.856Y-54.61
X117.856Y-74.651
X117.856Y-84.023
X117.856Y-91.643
X117.907Y-57.353
X118.313Y-75.26
X118.491Y-93.853
X118.491Y-95.377
X118.618Y-54.991
X118.618Y-57.023
X118.745Y-63.5
X119.253Y-93.091
X119.253Y-94.615
X119.253Y-96.139
X119.355Y-64.135
X119.812Y-62.357
X119.888Y-58.293
X119.888Y-59.817
X120.015Y-93.853
X120.015Y-95.377
X120.015Y-96.901
X120.523Y-61.595
X120.65Y-56.007
X120.65Y-57.531
X120.65Y-59.055
X120.65Y-60.579
X120.726Y-64.262
X120.777Y-65.024
X120.777Y-93.091
X120.777Y-94.615
X120.777Y-96.139
X121.539Y-93.853
X121.539Y-95.377
X121.539Y-96.901
X122.174Y-67.945
X122.301Y-96.139
X122.809Y-67.31
X123.063Y-96.901
X123.825Y-68.707
X123.825Y-70.231
X123.825Y-96.139
X124.587Y-69.469
X124.587Y-83.185
X124.587Y-96.901
X125.095Y-75.946
X125.222Y-57.404
X125.222Y-90.297
X125.349Y-68.707
X125.349Y-82.423
X125.349Y-96.139
X126.111Y-67.945
X126.111Y-69.469
X126.111Y-81.661
X126.111Y-83.185
X126.111Y-96.901
X126.746Y-57.404
X126.873Y-68.707
X126.873Y-82.423
X126.873Y-86.995
X126.873Y-96.139
X127.508Y-58.166
X127.635Y-67.945
X127.635Y-69.469
X127.635Y-72.517
X127.635Y-81.661
X127.635Y-83.185
X127.635Y-86.233
X127.635Y-96.901
X128.27Y-57.404
X128.27Y-58.928
X128.27Y-60.452
X128.397Y-67.183
X128.397Y-68.707
X128.397Y-73.279
X128.397Y-80.899
X128.397Y-82.423
X128.397Y-86.995
X128.397Y-88.519
X128.397Y-94.615
X128.397Y-96.139
X129.032Y-58.166
X129.032Y-59.69
X129.159Y-67.945
X129.159Y-69.469
X129.159Y-72.517
X129.159Y-74.041
X129.159Y-81.661
X129.159Y-83.185
X129.159Y-86.233
X129.159Y-87.757
X129.159Y-95.377
X129.794Y-57.404
X129.794Y-58.928
X129.794Y-60.452
X129.921Y-67.183
X129.921Y-68.707
X129.921Y-73.279
X129.921Y-80.899
X129.921Y-82.423
X129.921Y-86.995
X129.921Y-88.519
X129.921Y-94.615
X129.921Y-96.139
X130.556Y-58.166
X130.556Y-59.69
X130.683Y-67.945
X130.683Y-69.469
X130.683Y-72.517
X130.683Y-74.041
X130.683Y-81.661
X130.683Y-83.185
X130.683Y-86.233
X130.683Y-87.757
X130.683Y-95.377
X131.318Y-57.404
X131.318Y-58.928
X131.445Y-68.707
X131.445Y-82.423
X131.445Y-96.139
X132.08Y-58.166
X132.207Y-67.945
X132.207Y-69.469
X132.207Y-72.517
X132.207Y-83.185
X132.207Y-86.233
X132.842Y-57.404
X132.842Y-58.928
X132.969Y-68.707
X132.969Y-82.423
X133.604Y-58.166
X133.731Y-62.992
X133.731Y-67.945
X133.731Y-69.469
X133.731Y-72.517
X133.731Y-75.819
X133.731Y-77.089
X133.731Y-79.756
X133.731Y-90.424
X133.731Y-91.186
X134.137Y-92.939
X134.239Y-78.461
X134.366Y-57.404
X134.493Y-79.756
X134.518Y-77.089
X135.128Y-58.166
X135.255Y-69.469
X135.255Y-72.517
X135.382Y-65.913
X135.458Y-91.567
X135.509Y-74.676
X135.509Y-88.646
X135.611Y-78.867
X135.636Y-61.163
X135.763Y-60.071
X135.89Y-57.404
X136.093Y-92.583
X136.652Y-58.166
X136.652Y-78.359
X136.804Y-75.336
X137.16Y-89.662
X137.16Y-92.761
X137.16Y-95.631
X137.414Y-57.404
X137.414Y-78.359
X137.414Y-79.121
X137.414Y-93.472
X137.541Y-74.803
X137.668Y-90.221
X137.858Y-81.788
X137.858Y-89.154
X138.176Y-63.627
X138.303Y-64.516
X138.532Y-79.121
X138.557Y-77.597
X138.557Y-78.359
X138.557Y-90.551
X138.557Y-93.599
X138.938Y-63.627
X139.065Y-66.04
X139.129Y-94.107
X139.192Y-79.502
X139.446Y-76.2
X139.7Y-58.166
X139.7Y-65.1
X139.7Y-68.834
X139.7Y-73.406
X139.7Y-82.55
X139.7Y-87.122
X139.827Y-66.167
X139.954Y-91.44
X140.056Y-63.424
X140.208Y-92.761
X140.462Y-57.404
X140.462Y-68.072
X140.462Y-69.596
X140.462Y-72.644
X140.462Y-81.788
X140.462Y-86.36
X140.589Y-79.121
X140.792Y-62.357
X141.097Y-63.068
X141.224Y-56.642
X141.224Y-58.166
X141.224Y-68.834
X141.224Y-73.406
X141.224Y-82.55
X141.224Y-85.598
X141.224Y-87.122
X141.351Y-66.294
X141.351Y-78.359
X141.351Y-80.264
X141.351Y-94.234
X141.478Y-75.692
X141.63Y-63.602
X141.732Y-92.202
X141.859Y-62.23
X141.986Y-57.404
X141.986Y-69.596
X142.088Y-61.468
X142.367Y-91.694
X142.748Y-56.642
X142.748Y-68.834
X142.748Y-82.55
X142.748Y-85.598
X142.85Y-89.611
X142.875Y-78.359
X142.875Y-91.059
X143.002Y-63.373
X143.002Y-64.44
X143.129Y-61.849
X143.256Y-93.091
X143.51Y-57.404
X143.51Y-68.072
X143.51Y-69.596
X143.51Y-72.644
X143.51Y-86.36
X144.272Y-56.642
X144.272Y-58.166
X144.272Y-68.834
X144.272Y-82.55
X144.272Y-85.598
X144.272Y-87.122
X144.272Y-96.266
X145.034Y-57.404
X145.034Y-58.928
X145.034Y-68.072
X145.034Y-69.596
X145.034Y-72.644
X145.034Y-86.36
X145.034Y-97.028
X145.796Y-56.642
X145.796Y-58.166
X145.796Y-68.834
X145.796Y-73.406
X145.796Y-82.55
X145.796Y-85.598
X145.796Y-87.122
X145.796Y-96.266
X146.558Y-57.404
X146.558Y-58.928
X146.558Y-60.452
X146.558Y-66.548
X146.558Y-68.072
X146.558Y-69.596
X146.558Y-72.644
X146.558Y-74.168
X146.558Y-81.788
X146.558Y-86.36
X146.558Y-87.884
X146.558Y-95.504
X146.558Y-97.028
X147.32Y-56.642
X147.32Y-58.166
X147.32Y-59.69
X147.32Y-67.31
X147.32Y-68.834
X147.32Y-73.406
X147.32Y-81.026
X147.32Y-82.55
X147.32Y-85.598
X147.32Y-87.122
X147.32Y-94.742
X147.32Y-96.266
X148.082Y-57.404
X148.082Y-58.928
X148.082Y-60.452
X148.082Y-66.548
X148.082Y-68.072
X148.082Y-69.596
X148.082Y-72.644
X148.082Y-74.168
X148.082Y-81.788
X148.082Y-86.36
X148.082Y-87.884
X148.082Y-95.504
X148.082Y-97.028
X148.844Y-56.642
X148.844Y-58.166
X148.844Y-59.69
X148.844Y-68.834
X148.844Y-73.406
X148.844Y-82.55
X148.844Y-85.598
X148.844Y-87.122
X148.844Y-96.266
X149.606Y-57.404
X149.606Y-58.928
X149.606Y-68.072
X149.606Y-69.596
X149.606Y-72.644
X149.606Y-81.788
X149.606Y-86.36
X149.606Y-97.028
X150.368Y-56.642
X150.368Y-58.166
X150.368Y-68.834
X150.368Y-82.55
X150.368Y-85.598
X150.368Y-87.122
X150.368Y-96.266
X151.13Y-57.404
X151.13Y-58.928
X151.13Y-69.596
X151.13Y-72.644
X151.13Y-86.36
X151.13Y-97.028
X151.13Y-100.33
X151.892Y-58.166
X151.892Y-68.834
X151.892Y-85.598
X151.892Y-87.122
X151.892Y-92.583
X152.654Y-58.928
X152.654Y-69.596
X152.654Y-72.644
X152.654Y-78.74
X152.654Y-86.36
X152.654Y-97.028
X152.908Y-94.234
X153.162Y-55.905
X153.416Y-58.166
X153.416Y-67.183
X153.416Y-67.945
X153.416Y-68.834
X153.416Y-82.55
X153.416Y-85.598
X153.416Y-87.122
X153.416Y-96.266
X153.924Y-55.905
X154.178Y-58.928
X154.178Y-69.596
X154.178Y-72.644
X154.178Y-78.74
X154.178Y-86.36
X154.559Y-94.488
X154.686Y-55.905
X154.94Y-58.166
X154.94Y-59.69
X154.94Y-73.406
X154.94Y-74.93
X154.94Y-82.55
X154.94Y-85.598
X154.94Y-87.122
X154.94Y-88.646
X155.067Y-64.643
X155.448Y-93.599
X155.702Y-58.928
X155.702Y-72.644
X155.702Y-74.168
X155.702Y-86.36
X155.702Y-87.884
X155.956Y-66.294
X155.981Y-67.056
X156.464Y-58.166
X156.464Y-59.69
X156.464Y-61.214
X156.464Y-73.406
X156.464Y-74.93
X156.464Y-82.55
X156.464Y-87.122
X156.464Y-88.646
X156.718Y-90.805
X157.226Y-57.404
X157.226Y-58.928
X157.226Y-60.452
X157.226Y-65.024
X157.226Y-66.548
X157.226Y-83.312
X157.226Y-87.884
X157.988Y-64.262
X157.988Y-65.786
X161.29Y-68.453
X161.29Y-84.709
X161.544Y-67.691
X163.17Y-67.666
X163.576Y-83.566
X164.465Y-66.675
X164.516Y-76.835
X164.592Y-88.265
X165.735Y-60.325
X165.735Y-67.31
X165.735Y-76.2
X165.735Y-83.312
X165.989Y-88.392
T2
X121.92Y-63.5
X123.063Y-77.343
X123.19Y-91.059
X125.222Y-59.563
X125.222Y-73.279
X125.476Y-86.995
X151.892Y-81.407
X152.146Y-67.056
X152.273Y-95.377
X155.194Y-61.468
X155.321Y-76.327
X155.321Y-90.297
T3
X91.44Y-52.07
X91.44Y-54.61
X91.44Y-57.15
X91.44Y-95.25
X91.44Y-97.79
X91.44Y-100.33
X93.98Y-52.07
X93.98Y-54.61
X93.98Y-57.15
X93.98Y-95.25
X93.98Y-97.79
X93.98Y-100.33
X96.52Y-52.07
X96.52Y-54.61
X96.52Y-57.15
X96.52Y-95.25
X96.52Y-97.79
X96.52Y-100.33
X99.06Y-52.07
X99.06Y-54.61
X99.06Y-57.15
X99.06Y-95.25
X99.06Y-97.79
X99.06Y-100.33
X160.02Y-53.34
X160.02Y-55.88
X160.02Y-58.42
X160.02Y-60.96
X160.02Y-63.5
X160.02Y-66.04
X160.02Y-69.85
X160.02Y-72.39
X160.02Y-74.93
X160.02Y-77.47
X160.02Y-80.01
X160.02Y-82.55
X160.02Y-86.36
X160.02Y-88.9
X160.02Y-91.44
X160.02Y-93.98
X160.02Y-96.52
X160.02Y-99.06
X162.56Y-53.34
X162.56Y-55.88
X162.56Y-58.42
X162.56Y-60.96
X162.56Y-63.5
X162.56Y-66.04
X162.56Y-69.85
X162.56Y-72.39
X162.56Y-74.93
X162.56Y-77.47
X162.56Y-80.01
X162.56Y-82.55
X162.56Y-86.36
X162.56Y-88.9
X162.56Y-91.44
X162.56Y-93.98
X162.56Y-96.52
X162.56Y-99.06
T4
X101.6Y-50.8
X101.6Y-53.34
X101.6Y-99.06
X101.6Y-101.6
X104.14Y-50.8
X104.14Y-53.34
X104.14Y-99.06
X104.14Y-101.6
X106.68Y-50.8
X106.68Y-53.34
X106.68Y-99.06
X106.68Y-101.6
X109.22Y-50.8
X109.22Y-53.34
X109.22Y-99.06
X109.22Y-101.6
X111.76Y-50.8
X111.76Y-53.34
X111.76Y-99.06
X111.76Y-101.6
X114.3Y-50.8
X114.3Y-53.34
X114.3Y-99.06
X114.3Y-101.6
X116.84Y-50.8
X116.84Y-53.34
X116.84Y-99.06
X116.84Y-101.6
X119.38Y-50.8
X119.38Y-53.34
X119.38Y-99.06
X119.38Y-101.6
X121.92Y-50.8
X121.92Y-53.34
X121.92Y-99.06
X121.92Y-101.6
X124.46Y-50.8
X124.46Y-53.34
X124.46Y-99.06
X124.46Y-101.6
X127.0Y-50.8
X127.0Y-53.34
X127.0Y-99.06
X127.0Y-101.6
X129.54Y-50.8
X129.54Y-53.34
X129.54Y-99.06
X129.54Y-101.6
X132.08Y-50.8
X132.08Y-53.34
X132.08Y-99.06
X132.08Y-101.6
X134.62Y-50.8
X134.62Y-53.34
X134.62Y-99.06
X134.62Y-101.6
X137.16Y-50.8
X137.16Y-53.34
X137.16Y-99.06
X137.16Y-101.6
X139.7Y-50.8
X139.7Y-53.34
X139.7Y-99.06
X139.7Y-101.6
X142.24Y-50.8
X142.24Y-53.34
X142.24Y-99.06
X142.24Y-101.6
X144.78Y-50.8
X144.78Y-53.34
X144.78Y-99.06
X144.78Y-101.6
X147.32Y-50.8
X147.32Y-53.34
X147.32Y-99.06
X147.32Y-101.6
X149.86Y-50.8
X149.86Y-53.34
X149.86Y-99.06
X149.86Y-101.6
X152.4Y-50.8
X152.4Y-53.34
X152.4Y-99.06
X152.4Y-101.6
X154.94Y-50.8
X154.94Y-53.34
X154.94Y-99.06
X154.94Y-101.6
X157.48Y-50.8
X157.48Y-53.34
X157.48Y-99.06
X157.48Y-101.6
T5
G00X84.836Y-89.47
M15
G01X84.836Y-85.51
M16
G05
G00X84.836Y-97.37
M15
G01X84.836Y-93.41
M16
G05
T0
M30
