G04 #@! TF.GenerationSoftware,KiCad,Pcbnew,5.1.5*
G04 #@! TF.CreationDate,2020-07-27T09:16:47-04:00*
G04 #@! TF.ProjectId,motorBoard,6d6f746f-7242-46f6-9172-642e6b696361,rev?*
G04 #@! TF.SameCoordinates,Original*
G04 #@! TF.FileFunction,Soldermask,Bot*
G04 #@! TF.FilePolarity,Negative*
%FSLAX46Y46*%
G04 Gerber Fmt 4.6, Leading zero omitted, Abs format (unit mm)*
G04 Created by KiCad (PCBNEW 5.1.5) date 2020-07-27 09:16:47*
%MOMM*%
%LPD*%
G04 APERTURE LIST*
%ADD10C,0.100000*%
G04 APERTURE END LIST*
D10*
G36*
X157731903Y-100769587D02*
G01*
X157889068Y-100834687D01*
X158030513Y-100929198D01*
X158150802Y-101049487D01*
X158245313Y-101190932D01*
X158310413Y-101348097D01*
X158343600Y-101514943D01*
X158343600Y-101685057D01*
X158310413Y-101851903D01*
X158245313Y-102009068D01*
X158150802Y-102150513D01*
X158030513Y-102270802D01*
X157889068Y-102365313D01*
X157731903Y-102430413D01*
X157565057Y-102463600D01*
X157394943Y-102463600D01*
X157228097Y-102430413D01*
X157070932Y-102365313D01*
X156929487Y-102270802D01*
X156809198Y-102150513D01*
X156714687Y-102009068D01*
X156649587Y-101851903D01*
X156616400Y-101685057D01*
X156616400Y-101514943D01*
X156649587Y-101348097D01*
X156714687Y-101190932D01*
X156809198Y-101049487D01*
X156929487Y-100929198D01*
X157070932Y-100834687D01*
X157228097Y-100769587D01*
X157394943Y-100736400D01*
X157565057Y-100736400D01*
X157731903Y-100769587D01*
G37*
G36*
X129791903Y-100769587D02*
G01*
X129949068Y-100834687D01*
X130090513Y-100929198D01*
X130210802Y-101049487D01*
X130305313Y-101190932D01*
X130370413Y-101348097D01*
X130403600Y-101514943D01*
X130403600Y-101685057D01*
X130370413Y-101851903D01*
X130305313Y-102009068D01*
X130210802Y-102150513D01*
X130090513Y-102270802D01*
X129949068Y-102365313D01*
X129791903Y-102430413D01*
X129625057Y-102463600D01*
X129454943Y-102463600D01*
X129288097Y-102430413D01*
X129130932Y-102365313D01*
X128989487Y-102270802D01*
X128869198Y-102150513D01*
X128774687Y-102009068D01*
X128709587Y-101851903D01*
X128676400Y-101685057D01*
X128676400Y-101514943D01*
X128709587Y-101348097D01*
X128774687Y-101190932D01*
X128869198Y-101049487D01*
X128989487Y-100929198D01*
X129130932Y-100834687D01*
X129288097Y-100769587D01*
X129454943Y-100736400D01*
X129625057Y-100736400D01*
X129791903Y-100769587D01*
G37*
G36*
X152651903Y-100769587D02*
G01*
X152809068Y-100834687D01*
X152950513Y-100929198D01*
X153070802Y-101049487D01*
X153165313Y-101190932D01*
X153230413Y-101348097D01*
X153263600Y-101514943D01*
X153263600Y-101685057D01*
X153230413Y-101851903D01*
X153165313Y-102009068D01*
X153070802Y-102150513D01*
X152950513Y-102270802D01*
X152809068Y-102365313D01*
X152651903Y-102430413D01*
X152485057Y-102463600D01*
X152314943Y-102463600D01*
X152148097Y-102430413D01*
X151990932Y-102365313D01*
X151849487Y-102270802D01*
X151729198Y-102150513D01*
X151634687Y-102009068D01*
X151569587Y-101851903D01*
X151536400Y-101685057D01*
X151536400Y-101514943D01*
X151569587Y-101348097D01*
X151634687Y-101190932D01*
X151729198Y-101049487D01*
X151849487Y-100929198D01*
X151990932Y-100834687D01*
X152148097Y-100769587D01*
X152314943Y-100736400D01*
X152485057Y-100736400D01*
X152651903Y-100769587D01*
G37*
G36*
X150111903Y-100769587D02*
G01*
X150269068Y-100834687D01*
X150410513Y-100929198D01*
X150530802Y-101049487D01*
X150625313Y-101190932D01*
X150690413Y-101348097D01*
X150723600Y-101514943D01*
X150723600Y-101685057D01*
X150690413Y-101851903D01*
X150625313Y-102009068D01*
X150530802Y-102150513D01*
X150410513Y-102270802D01*
X150269068Y-102365313D01*
X150111903Y-102430413D01*
X149945057Y-102463600D01*
X149774943Y-102463600D01*
X149608097Y-102430413D01*
X149450932Y-102365313D01*
X149309487Y-102270802D01*
X149189198Y-102150513D01*
X149094687Y-102009068D01*
X149029587Y-101851903D01*
X148996400Y-101685057D01*
X148996400Y-101514943D01*
X149029587Y-101348097D01*
X149094687Y-101190932D01*
X149189198Y-101049487D01*
X149309487Y-100929198D01*
X149450932Y-100834687D01*
X149608097Y-100769587D01*
X149774943Y-100736400D01*
X149945057Y-100736400D01*
X150111903Y-100769587D01*
G37*
G36*
X147571903Y-100769587D02*
G01*
X147729068Y-100834687D01*
X147870513Y-100929198D01*
X147990802Y-101049487D01*
X148085313Y-101190932D01*
X148150413Y-101348097D01*
X148183600Y-101514943D01*
X148183600Y-101685057D01*
X148150413Y-101851903D01*
X148085313Y-102009068D01*
X147990802Y-102150513D01*
X147870513Y-102270802D01*
X147729068Y-102365313D01*
X147571903Y-102430413D01*
X147405057Y-102463600D01*
X147234943Y-102463600D01*
X147068097Y-102430413D01*
X146910932Y-102365313D01*
X146769487Y-102270802D01*
X146649198Y-102150513D01*
X146554687Y-102009068D01*
X146489587Y-101851903D01*
X146456400Y-101685057D01*
X146456400Y-101514943D01*
X146489587Y-101348097D01*
X146554687Y-101190932D01*
X146649198Y-101049487D01*
X146769487Y-100929198D01*
X146910932Y-100834687D01*
X147068097Y-100769587D01*
X147234943Y-100736400D01*
X147405057Y-100736400D01*
X147571903Y-100769587D01*
G37*
G36*
X145031903Y-100769587D02*
G01*
X145189068Y-100834687D01*
X145330513Y-100929198D01*
X145450802Y-101049487D01*
X145545313Y-101190932D01*
X145610413Y-101348097D01*
X145643600Y-101514943D01*
X145643600Y-101685057D01*
X145610413Y-101851903D01*
X145545313Y-102009068D01*
X145450802Y-102150513D01*
X145330513Y-102270802D01*
X145189068Y-102365313D01*
X145031903Y-102430413D01*
X144865057Y-102463600D01*
X144694943Y-102463600D01*
X144528097Y-102430413D01*
X144370932Y-102365313D01*
X144229487Y-102270802D01*
X144109198Y-102150513D01*
X144014687Y-102009068D01*
X143949587Y-101851903D01*
X143916400Y-101685057D01*
X143916400Y-101514943D01*
X143949587Y-101348097D01*
X144014687Y-101190932D01*
X144109198Y-101049487D01*
X144229487Y-100929198D01*
X144370932Y-100834687D01*
X144528097Y-100769587D01*
X144694943Y-100736400D01*
X144865057Y-100736400D01*
X145031903Y-100769587D01*
G37*
G36*
X142491903Y-100769587D02*
G01*
X142649068Y-100834687D01*
X142790513Y-100929198D01*
X142910802Y-101049487D01*
X143005313Y-101190932D01*
X143070413Y-101348097D01*
X143103600Y-101514943D01*
X143103600Y-101685057D01*
X143070413Y-101851903D01*
X143005313Y-102009068D01*
X142910802Y-102150513D01*
X142790513Y-102270802D01*
X142649068Y-102365313D01*
X142491903Y-102430413D01*
X142325057Y-102463600D01*
X142154943Y-102463600D01*
X141988097Y-102430413D01*
X141830932Y-102365313D01*
X141689487Y-102270802D01*
X141569198Y-102150513D01*
X141474687Y-102009068D01*
X141409587Y-101851903D01*
X141376400Y-101685057D01*
X141376400Y-101514943D01*
X141409587Y-101348097D01*
X141474687Y-101190932D01*
X141569198Y-101049487D01*
X141689487Y-100929198D01*
X141830932Y-100834687D01*
X141988097Y-100769587D01*
X142154943Y-100736400D01*
X142325057Y-100736400D01*
X142491903Y-100769587D01*
G37*
G36*
X139951903Y-100769587D02*
G01*
X140109068Y-100834687D01*
X140250513Y-100929198D01*
X140370802Y-101049487D01*
X140465313Y-101190932D01*
X140530413Y-101348097D01*
X140563600Y-101514943D01*
X140563600Y-101685057D01*
X140530413Y-101851903D01*
X140465313Y-102009068D01*
X140370802Y-102150513D01*
X140250513Y-102270802D01*
X140109068Y-102365313D01*
X139951903Y-102430413D01*
X139785057Y-102463600D01*
X139614943Y-102463600D01*
X139448097Y-102430413D01*
X139290932Y-102365313D01*
X139149487Y-102270802D01*
X139029198Y-102150513D01*
X138934687Y-102009068D01*
X138869587Y-101851903D01*
X138836400Y-101685057D01*
X138836400Y-101514943D01*
X138869587Y-101348097D01*
X138934687Y-101190932D01*
X139029198Y-101049487D01*
X139149487Y-100929198D01*
X139290932Y-100834687D01*
X139448097Y-100769587D01*
X139614943Y-100736400D01*
X139785057Y-100736400D01*
X139951903Y-100769587D01*
G37*
G36*
X137411903Y-100769587D02*
G01*
X137569068Y-100834687D01*
X137710513Y-100929198D01*
X137830802Y-101049487D01*
X137925313Y-101190932D01*
X137990413Y-101348097D01*
X138023600Y-101514943D01*
X138023600Y-101685057D01*
X137990413Y-101851903D01*
X137925313Y-102009068D01*
X137830802Y-102150513D01*
X137710513Y-102270802D01*
X137569068Y-102365313D01*
X137411903Y-102430413D01*
X137245057Y-102463600D01*
X137074943Y-102463600D01*
X136908097Y-102430413D01*
X136750932Y-102365313D01*
X136609487Y-102270802D01*
X136489198Y-102150513D01*
X136394687Y-102009068D01*
X136329587Y-101851903D01*
X136296400Y-101685057D01*
X136296400Y-101514943D01*
X136329587Y-101348097D01*
X136394687Y-101190932D01*
X136489198Y-101049487D01*
X136609487Y-100929198D01*
X136750932Y-100834687D01*
X136908097Y-100769587D01*
X137074943Y-100736400D01*
X137245057Y-100736400D01*
X137411903Y-100769587D01*
G37*
G36*
X134871903Y-100769587D02*
G01*
X135029068Y-100834687D01*
X135170513Y-100929198D01*
X135290802Y-101049487D01*
X135385313Y-101190932D01*
X135450413Y-101348097D01*
X135483600Y-101514943D01*
X135483600Y-101685057D01*
X135450413Y-101851903D01*
X135385313Y-102009068D01*
X135290802Y-102150513D01*
X135170513Y-102270802D01*
X135029068Y-102365313D01*
X134871903Y-102430413D01*
X134705057Y-102463600D01*
X134534943Y-102463600D01*
X134368097Y-102430413D01*
X134210932Y-102365313D01*
X134069487Y-102270802D01*
X133949198Y-102150513D01*
X133854687Y-102009068D01*
X133789587Y-101851903D01*
X133756400Y-101685057D01*
X133756400Y-101514943D01*
X133789587Y-101348097D01*
X133854687Y-101190932D01*
X133949198Y-101049487D01*
X134069487Y-100929198D01*
X134210932Y-100834687D01*
X134368097Y-100769587D01*
X134534943Y-100736400D01*
X134705057Y-100736400D01*
X134871903Y-100769587D01*
G37*
G36*
X132331903Y-100769587D02*
G01*
X132489068Y-100834687D01*
X132630513Y-100929198D01*
X132750802Y-101049487D01*
X132845313Y-101190932D01*
X132910413Y-101348097D01*
X132943600Y-101514943D01*
X132943600Y-101685057D01*
X132910413Y-101851903D01*
X132845313Y-102009068D01*
X132750802Y-102150513D01*
X132630513Y-102270802D01*
X132489068Y-102365313D01*
X132331903Y-102430413D01*
X132165057Y-102463600D01*
X131994943Y-102463600D01*
X131828097Y-102430413D01*
X131670932Y-102365313D01*
X131529487Y-102270802D01*
X131409198Y-102150513D01*
X131314687Y-102009068D01*
X131249587Y-101851903D01*
X131216400Y-101685057D01*
X131216400Y-101514943D01*
X131249587Y-101348097D01*
X131314687Y-101190932D01*
X131409198Y-101049487D01*
X131529487Y-100929198D01*
X131670932Y-100834687D01*
X131828097Y-100769587D01*
X131994943Y-100736400D01*
X132165057Y-100736400D01*
X132331903Y-100769587D01*
G37*
G36*
X155191903Y-100769587D02*
G01*
X155349068Y-100834687D01*
X155490513Y-100929198D01*
X155610802Y-101049487D01*
X155705313Y-101190932D01*
X155770413Y-101348097D01*
X155803600Y-101514943D01*
X155803600Y-101685057D01*
X155770413Y-101851903D01*
X155705313Y-102009068D01*
X155610802Y-102150513D01*
X155490513Y-102270802D01*
X155349068Y-102365313D01*
X155191903Y-102430413D01*
X155025057Y-102463600D01*
X154854943Y-102463600D01*
X154688097Y-102430413D01*
X154530932Y-102365313D01*
X154389487Y-102270802D01*
X154269198Y-102150513D01*
X154174687Y-102009068D01*
X154109587Y-101851903D01*
X154076400Y-101685057D01*
X154076400Y-101514943D01*
X154109587Y-101348097D01*
X154174687Y-101190932D01*
X154269198Y-101049487D01*
X154389487Y-100929198D01*
X154530932Y-100834687D01*
X154688097Y-100769587D01*
X154854943Y-100736400D01*
X155025057Y-100736400D01*
X155191903Y-100769587D01*
G37*
G36*
X124711903Y-100769587D02*
G01*
X124869068Y-100834687D01*
X125010513Y-100929198D01*
X125130802Y-101049487D01*
X125225313Y-101190932D01*
X125290413Y-101348097D01*
X125323600Y-101514943D01*
X125323600Y-101685057D01*
X125290413Y-101851903D01*
X125225313Y-102009068D01*
X125130802Y-102150513D01*
X125010513Y-102270802D01*
X124869068Y-102365313D01*
X124711903Y-102430413D01*
X124545057Y-102463600D01*
X124374943Y-102463600D01*
X124208097Y-102430413D01*
X124050932Y-102365313D01*
X123909487Y-102270802D01*
X123789198Y-102150513D01*
X123694687Y-102009068D01*
X123629587Y-101851903D01*
X123596400Y-101685057D01*
X123596400Y-101514943D01*
X123629587Y-101348097D01*
X123694687Y-101190932D01*
X123789198Y-101049487D01*
X123909487Y-100929198D01*
X124050932Y-100834687D01*
X124208097Y-100769587D01*
X124374943Y-100736400D01*
X124545057Y-100736400D01*
X124711903Y-100769587D01*
G37*
G36*
X122171903Y-100769587D02*
G01*
X122329068Y-100834687D01*
X122470513Y-100929198D01*
X122590802Y-101049487D01*
X122685313Y-101190932D01*
X122750413Y-101348097D01*
X122783600Y-101514943D01*
X122783600Y-101685057D01*
X122750413Y-101851903D01*
X122685313Y-102009068D01*
X122590802Y-102150513D01*
X122470513Y-102270802D01*
X122329068Y-102365313D01*
X122171903Y-102430413D01*
X122005057Y-102463600D01*
X121834943Y-102463600D01*
X121668097Y-102430413D01*
X121510932Y-102365313D01*
X121369487Y-102270802D01*
X121249198Y-102150513D01*
X121154687Y-102009068D01*
X121089587Y-101851903D01*
X121056400Y-101685057D01*
X121056400Y-101514943D01*
X121089587Y-101348097D01*
X121154687Y-101190932D01*
X121249198Y-101049487D01*
X121369487Y-100929198D01*
X121510932Y-100834687D01*
X121668097Y-100769587D01*
X121834943Y-100736400D01*
X122005057Y-100736400D01*
X122171903Y-100769587D01*
G37*
G36*
X119631903Y-100769587D02*
G01*
X119789068Y-100834687D01*
X119930513Y-100929198D01*
X120050802Y-101049487D01*
X120145313Y-101190932D01*
X120210413Y-101348097D01*
X120243600Y-101514943D01*
X120243600Y-101685057D01*
X120210413Y-101851903D01*
X120145313Y-102009068D01*
X120050802Y-102150513D01*
X119930513Y-102270802D01*
X119789068Y-102365313D01*
X119631903Y-102430413D01*
X119465057Y-102463600D01*
X119294943Y-102463600D01*
X119128097Y-102430413D01*
X118970932Y-102365313D01*
X118829487Y-102270802D01*
X118709198Y-102150513D01*
X118614687Y-102009068D01*
X118549587Y-101851903D01*
X118516400Y-101685057D01*
X118516400Y-101514943D01*
X118549587Y-101348097D01*
X118614687Y-101190932D01*
X118709198Y-101049487D01*
X118829487Y-100929198D01*
X118970932Y-100834687D01*
X119128097Y-100769587D01*
X119294943Y-100736400D01*
X119465057Y-100736400D01*
X119631903Y-100769587D01*
G37*
G36*
X117091903Y-100769587D02*
G01*
X117249068Y-100834687D01*
X117390513Y-100929198D01*
X117510802Y-101049487D01*
X117605313Y-101190932D01*
X117670413Y-101348097D01*
X117703600Y-101514943D01*
X117703600Y-101685057D01*
X117670413Y-101851903D01*
X117605313Y-102009068D01*
X117510802Y-102150513D01*
X117390513Y-102270802D01*
X117249068Y-102365313D01*
X117091903Y-102430413D01*
X116925057Y-102463600D01*
X116754943Y-102463600D01*
X116588097Y-102430413D01*
X116430932Y-102365313D01*
X116289487Y-102270802D01*
X116169198Y-102150513D01*
X116074687Y-102009068D01*
X116009587Y-101851903D01*
X115976400Y-101685057D01*
X115976400Y-101514943D01*
X116009587Y-101348097D01*
X116074687Y-101190932D01*
X116169198Y-101049487D01*
X116289487Y-100929198D01*
X116430932Y-100834687D01*
X116588097Y-100769587D01*
X116754943Y-100736400D01*
X116925057Y-100736400D01*
X117091903Y-100769587D01*
G37*
G36*
X114551903Y-100769587D02*
G01*
X114709068Y-100834687D01*
X114850513Y-100929198D01*
X114970802Y-101049487D01*
X115065313Y-101190932D01*
X115130413Y-101348097D01*
X115163600Y-101514943D01*
X115163600Y-101685057D01*
X115130413Y-101851903D01*
X115065313Y-102009068D01*
X114970802Y-102150513D01*
X114850513Y-102270802D01*
X114709068Y-102365313D01*
X114551903Y-102430413D01*
X114385057Y-102463600D01*
X114214943Y-102463600D01*
X114048097Y-102430413D01*
X113890932Y-102365313D01*
X113749487Y-102270802D01*
X113629198Y-102150513D01*
X113534687Y-102009068D01*
X113469587Y-101851903D01*
X113436400Y-101685057D01*
X113436400Y-101514943D01*
X113469587Y-101348097D01*
X113534687Y-101190932D01*
X113629198Y-101049487D01*
X113749487Y-100929198D01*
X113890932Y-100834687D01*
X114048097Y-100769587D01*
X114214943Y-100736400D01*
X114385057Y-100736400D01*
X114551903Y-100769587D01*
G37*
G36*
X112011903Y-100769587D02*
G01*
X112169068Y-100834687D01*
X112310513Y-100929198D01*
X112430802Y-101049487D01*
X112525313Y-101190932D01*
X112590413Y-101348097D01*
X112623600Y-101514943D01*
X112623600Y-101685057D01*
X112590413Y-101851903D01*
X112525313Y-102009068D01*
X112430802Y-102150513D01*
X112310513Y-102270802D01*
X112169068Y-102365313D01*
X112011903Y-102430413D01*
X111845057Y-102463600D01*
X111674943Y-102463600D01*
X111508097Y-102430413D01*
X111350932Y-102365313D01*
X111209487Y-102270802D01*
X111089198Y-102150513D01*
X110994687Y-102009068D01*
X110929587Y-101851903D01*
X110896400Y-101685057D01*
X110896400Y-101514943D01*
X110929587Y-101348097D01*
X110994687Y-101190932D01*
X111089198Y-101049487D01*
X111209487Y-100929198D01*
X111350932Y-100834687D01*
X111508097Y-100769587D01*
X111674943Y-100736400D01*
X111845057Y-100736400D01*
X112011903Y-100769587D01*
G37*
G36*
X109471903Y-100769587D02*
G01*
X109629068Y-100834687D01*
X109770513Y-100929198D01*
X109890802Y-101049487D01*
X109985313Y-101190932D01*
X110050413Y-101348097D01*
X110083600Y-101514943D01*
X110083600Y-101685057D01*
X110050413Y-101851903D01*
X109985313Y-102009068D01*
X109890802Y-102150513D01*
X109770513Y-102270802D01*
X109629068Y-102365313D01*
X109471903Y-102430413D01*
X109305057Y-102463600D01*
X109134943Y-102463600D01*
X108968097Y-102430413D01*
X108810932Y-102365313D01*
X108669487Y-102270802D01*
X108549198Y-102150513D01*
X108454687Y-102009068D01*
X108389587Y-101851903D01*
X108356400Y-101685057D01*
X108356400Y-101514943D01*
X108389587Y-101348097D01*
X108454687Y-101190932D01*
X108549198Y-101049487D01*
X108669487Y-100929198D01*
X108810932Y-100834687D01*
X108968097Y-100769587D01*
X109134943Y-100736400D01*
X109305057Y-100736400D01*
X109471903Y-100769587D01*
G37*
G36*
X106931903Y-100769587D02*
G01*
X107089068Y-100834687D01*
X107230513Y-100929198D01*
X107350802Y-101049487D01*
X107445313Y-101190932D01*
X107510413Y-101348097D01*
X107543600Y-101514943D01*
X107543600Y-101685057D01*
X107510413Y-101851903D01*
X107445313Y-102009068D01*
X107350802Y-102150513D01*
X107230513Y-102270802D01*
X107089068Y-102365313D01*
X106931903Y-102430413D01*
X106765057Y-102463600D01*
X106594943Y-102463600D01*
X106428097Y-102430413D01*
X106270932Y-102365313D01*
X106129487Y-102270802D01*
X106009198Y-102150513D01*
X105914687Y-102009068D01*
X105849587Y-101851903D01*
X105816400Y-101685057D01*
X105816400Y-101514943D01*
X105849587Y-101348097D01*
X105914687Y-101190932D01*
X106009198Y-101049487D01*
X106129487Y-100929198D01*
X106270932Y-100834687D01*
X106428097Y-100769587D01*
X106594943Y-100736400D01*
X106765057Y-100736400D01*
X106931903Y-100769587D01*
G37*
G36*
X104391903Y-100769587D02*
G01*
X104549068Y-100834687D01*
X104690513Y-100929198D01*
X104810802Y-101049487D01*
X104905313Y-101190932D01*
X104970413Y-101348097D01*
X105003600Y-101514943D01*
X105003600Y-101685057D01*
X104970413Y-101851903D01*
X104905313Y-102009068D01*
X104810802Y-102150513D01*
X104690513Y-102270802D01*
X104549068Y-102365313D01*
X104391903Y-102430413D01*
X104225057Y-102463600D01*
X104054943Y-102463600D01*
X103888097Y-102430413D01*
X103730932Y-102365313D01*
X103589487Y-102270802D01*
X103469198Y-102150513D01*
X103374687Y-102009068D01*
X103309587Y-101851903D01*
X103276400Y-101685057D01*
X103276400Y-101514943D01*
X103309587Y-101348097D01*
X103374687Y-101190932D01*
X103469198Y-101049487D01*
X103589487Y-100929198D01*
X103730932Y-100834687D01*
X103888097Y-100769587D01*
X104054943Y-100736400D01*
X104225057Y-100736400D01*
X104391903Y-100769587D01*
G37*
G36*
X102463600Y-102463600D02*
G01*
X100736400Y-102463600D01*
X100736400Y-100736400D01*
X102463600Y-100736400D01*
X102463600Y-102463600D01*
G37*
G36*
X127251903Y-100769587D02*
G01*
X127409068Y-100834687D01*
X127550513Y-100929198D01*
X127670802Y-101049487D01*
X127765313Y-101190932D01*
X127830413Y-101348097D01*
X127863600Y-101514943D01*
X127863600Y-101685057D01*
X127830413Y-101851903D01*
X127765313Y-102009068D01*
X127670802Y-102150513D01*
X127550513Y-102270802D01*
X127409068Y-102365313D01*
X127251903Y-102430413D01*
X127085057Y-102463600D01*
X126914943Y-102463600D01*
X126748097Y-102430413D01*
X126590932Y-102365313D01*
X126449487Y-102270802D01*
X126329198Y-102150513D01*
X126234687Y-102009068D01*
X126169587Y-101851903D01*
X126136400Y-101685057D01*
X126136400Y-101514943D01*
X126169587Y-101348097D01*
X126234687Y-101190932D01*
X126329198Y-101049487D01*
X126449487Y-100929198D01*
X126590932Y-100834687D01*
X126748097Y-100769587D01*
X126914943Y-100736400D01*
X127085057Y-100736400D01*
X127251903Y-100769587D01*
G37*
G36*
X94227936Y-99512665D02*
G01*
X94382627Y-99576739D01*
X94521845Y-99669762D01*
X94640238Y-99788155D01*
X94733261Y-99927373D01*
X94797335Y-100082064D01*
X94830000Y-100246282D01*
X94830000Y-100413718D01*
X94797335Y-100577936D01*
X94733261Y-100732627D01*
X94640238Y-100871845D01*
X94521845Y-100990238D01*
X94382627Y-101083261D01*
X94227936Y-101147335D01*
X94063718Y-101180000D01*
X93896282Y-101180000D01*
X93732064Y-101147335D01*
X93577373Y-101083261D01*
X93438155Y-100990238D01*
X93319762Y-100871845D01*
X93226739Y-100732627D01*
X93162665Y-100577936D01*
X93130000Y-100413718D01*
X93130000Y-100246282D01*
X93162665Y-100082064D01*
X93226739Y-99927373D01*
X93319762Y-99788155D01*
X93438155Y-99669762D01*
X93577373Y-99576739D01*
X93732064Y-99512665D01*
X93896282Y-99480000D01*
X94063718Y-99480000D01*
X94227936Y-99512665D01*
G37*
G36*
X96767936Y-99512665D02*
G01*
X96922627Y-99576739D01*
X97061845Y-99669762D01*
X97180238Y-99788155D01*
X97273261Y-99927373D01*
X97337335Y-100082064D01*
X97370000Y-100246282D01*
X97370000Y-100413718D01*
X97337335Y-100577936D01*
X97273261Y-100732627D01*
X97180238Y-100871845D01*
X97061845Y-100990238D01*
X96922627Y-101083261D01*
X96767936Y-101147335D01*
X96603718Y-101180000D01*
X96436282Y-101180000D01*
X96272064Y-101147335D01*
X96117373Y-101083261D01*
X95978155Y-100990238D01*
X95859762Y-100871845D01*
X95766739Y-100732627D01*
X95702665Y-100577936D01*
X95670000Y-100413718D01*
X95670000Y-100246282D01*
X95702665Y-100082064D01*
X95766739Y-99927373D01*
X95859762Y-99788155D01*
X95978155Y-99669762D01*
X96117373Y-99576739D01*
X96272064Y-99512665D01*
X96436282Y-99480000D01*
X96603718Y-99480000D01*
X96767936Y-99512665D01*
G37*
G36*
X99307936Y-99512665D02*
G01*
X99462627Y-99576739D01*
X99601845Y-99669762D01*
X99720238Y-99788155D01*
X99813261Y-99927373D01*
X99877335Y-100082064D01*
X99910000Y-100246282D01*
X99910000Y-100413718D01*
X99877335Y-100577936D01*
X99813261Y-100732627D01*
X99720238Y-100871845D01*
X99601845Y-100990238D01*
X99462627Y-101083261D01*
X99307936Y-101147335D01*
X99143718Y-101180000D01*
X98976282Y-101180000D01*
X98812064Y-101147335D01*
X98657373Y-101083261D01*
X98518155Y-100990238D01*
X98399762Y-100871845D01*
X98306739Y-100732627D01*
X98242665Y-100577936D01*
X98210000Y-100413718D01*
X98210000Y-100246282D01*
X98242665Y-100082064D01*
X98306739Y-99927373D01*
X98399762Y-99788155D01*
X98518155Y-99669762D01*
X98657373Y-99576739D01*
X98812064Y-99512665D01*
X98976282Y-99480000D01*
X99143718Y-99480000D01*
X99307936Y-99512665D01*
G37*
G36*
X91687936Y-99512665D02*
G01*
X91842627Y-99576739D01*
X91981845Y-99669762D01*
X92100238Y-99788155D01*
X92193261Y-99927373D01*
X92257335Y-100082064D01*
X92290000Y-100246282D01*
X92290000Y-100413718D01*
X92257335Y-100577936D01*
X92193261Y-100732627D01*
X92100238Y-100871845D01*
X91981845Y-100990238D01*
X91842627Y-101083261D01*
X91687936Y-101147335D01*
X91523718Y-101180000D01*
X91356282Y-101180000D01*
X91192064Y-101147335D01*
X91037373Y-101083261D01*
X90898155Y-100990238D01*
X90779762Y-100871845D01*
X90686739Y-100732627D01*
X90622665Y-100577936D01*
X90590000Y-100413718D01*
X90590000Y-100246282D01*
X90622665Y-100082064D01*
X90686739Y-99927373D01*
X90779762Y-99788155D01*
X90898155Y-99669762D01*
X91037373Y-99576739D01*
X91192064Y-99512665D01*
X91356282Y-99480000D01*
X91523718Y-99480000D01*
X91687936Y-99512665D01*
G37*
G36*
X119631903Y-98229587D02*
G01*
X119789068Y-98294687D01*
X119930513Y-98389198D01*
X120050802Y-98509487D01*
X120145313Y-98650932D01*
X120210413Y-98808097D01*
X120243600Y-98974943D01*
X120243600Y-99145057D01*
X120210413Y-99311903D01*
X120145313Y-99469068D01*
X120050802Y-99610513D01*
X119930513Y-99730802D01*
X119789068Y-99825313D01*
X119631903Y-99890413D01*
X119465057Y-99923600D01*
X119294943Y-99923600D01*
X119128097Y-99890413D01*
X118970932Y-99825313D01*
X118829487Y-99730802D01*
X118709198Y-99610513D01*
X118614687Y-99469068D01*
X118549587Y-99311903D01*
X118516400Y-99145057D01*
X118516400Y-98974943D01*
X118549587Y-98808097D01*
X118614687Y-98650932D01*
X118709198Y-98509487D01*
X118829487Y-98389198D01*
X118970932Y-98294687D01*
X119128097Y-98229587D01*
X119294943Y-98196400D01*
X119465057Y-98196400D01*
X119631903Y-98229587D01*
G37*
G36*
X150111903Y-98229587D02*
G01*
X150269068Y-98294687D01*
X150410513Y-98389198D01*
X150530802Y-98509487D01*
X150625313Y-98650932D01*
X150690413Y-98808097D01*
X150723600Y-98974943D01*
X150723600Y-99145057D01*
X150690413Y-99311903D01*
X150625313Y-99469068D01*
X150530802Y-99610513D01*
X150410513Y-99730802D01*
X150269068Y-99825313D01*
X150111903Y-99890413D01*
X149945057Y-99923600D01*
X149774943Y-99923600D01*
X149608097Y-99890413D01*
X149450932Y-99825313D01*
X149309487Y-99730802D01*
X149189198Y-99610513D01*
X149094687Y-99469068D01*
X149029587Y-99311903D01*
X148996400Y-99145057D01*
X148996400Y-98974943D01*
X149029587Y-98808097D01*
X149094687Y-98650932D01*
X149189198Y-98509487D01*
X149309487Y-98389198D01*
X149450932Y-98294687D01*
X149608097Y-98229587D01*
X149774943Y-98196400D01*
X149945057Y-98196400D01*
X150111903Y-98229587D01*
G37*
G36*
X147571903Y-98229587D02*
G01*
X147729068Y-98294687D01*
X147870513Y-98389198D01*
X147990802Y-98509487D01*
X148085313Y-98650932D01*
X148150413Y-98808097D01*
X148183600Y-98974943D01*
X148183600Y-99145057D01*
X148150413Y-99311903D01*
X148085313Y-99469068D01*
X147990802Y-99610513D01*
X147870513Y-99730802D01*
X147729068Y-99825313D01*
X147571903Y-99890413D01*
X147405057Y-99923600D01*
X147234943Y-99923600D01*
X147068097Y-99890413D01*
X146910932Y-99825313D01*
X146769487Y-99730802D01*
X146649198Y-99610513D01*
X146554687Y-99469068D01*
X146489587Y-99311903D01*
X146456400Y-99145057D01*
X146456400Y-98974943D01*
X146489587Y-98808097D01*
X146554687Y-98650932D01*
X146649198Y-98509487D01*
X146769487Y-98389198D01*
X146910932Y-98294687D01*
X147068097Y-98229587D01*
X147234943Y-98196400D01*
X147405057Y-98196400D01*
X147571903Y-98229587D01*
G37*
G36*
X152651903Y-98229587D02*
G01*
X152809068Y-98294687D01*
X152950513Y-98389198D01*
X153070802Y-98509487D01*
X153165313Y-98650932D01*
X153230413Y-98808097D01*
X153263600Y-98974943D01*
X153263600Y-99145057D01*
X153230413Y-99311903D01*
X153165313Y-99469068D01*
X153070802Y-99610513D01*
X152950513Y-99730802D01*
X152809068Y-99825313D01*
X152651903Y-99890413D01*
X152485057Y-99923600D01*
X152314943Y-99923600D01*
X152148097Y-99890413D01*
X151990932Y-99825313D01*
X151849487Y-99730802D01*
X151729198Y-99610513D01*
X151634687Y-99469068D01*
X151569587Y-99311903D01*
X151536400Y-99145057D01*
X151536400Y-98974943D01*
X151569587Y-98808097D01*
X151634687Y-98650932D01*
X151729198Y-98509487D01*
X151849487Y-98389198D01*
X151990932Y-98294687D01*
X152148097Y-98229587D01*
X152314943Y-98196400D01*
X152485057Y-98196400D01*
X152651903Y-98229587D01*
G37*
G36*
X145031903Y-98229587D02*
G01*
X145189068Y-98294687D01*
X145330513Y-98389198D01*
X145450802Y-98509487D01*
X145545313Y-98650932D01*
X145610413Y-98808097D01*
X145643600Y-98974943D01*
X145643600Y-99145057D01*
X145610413Y-99311903D01*
X145545313Y-99469068D01*
X145450802Y-99610513D01*
X145330513Y-99730802D01*
X145189068Y-99825313D01*
X145031903Y-99890413D01*
X144865057Y-99923600D01*
X144694943Y-99923600D01*
X144528097Y-99890413D01*
X144370932Y-99825313D01*
X144229487Y-99730802D01*
X144109198Y-99610513D01*
X144014687Y-99469068D01*
X143949587Y-99311903D01*
X143916400Y-99145057D01*
X143916400Y-98974943D01*
X143949587Y-98808097D01*
X144014687Y-98650932D01*
X144109198Y-98509487D01*
X144229487Y-98389198D01*
X144370932Y-98294687D01*
X144528097Y-98229587D01*
X144694943Y-98196400D01*
X144865057Y-98196400D01*
X145031903Y-98229587D01*
G37*
G36*
X142491903Y-98229587D02*
G01*
X142649068Y-98294687D01*
X142790513Y-98389198D01*
X142910802Y-98509487D01*
X143005313Y-98650932D01*
X143070413Y-98808097D01*
X143103600Y-98974943D01*
X143103600Y-99145057D01*
X143070413Y-99311903D01*
X143005313Y-99469068D01*
X142910802Y-99610513D01*
X142790513Y-99730802D01*
X142649068Y-99825313D01*
X142491903Y-99890413D01*
X142325057Y-99923600D01*
X142154943Y-99923600D01*
X141988097Y-99890413D01*
X141830932Y-99825313D01*
X141689487Y-99730802D01*
X141569198Y-99610513D01*
X141474687Y-99469068D01*
X141409587Y-99311903D01*
X141376400Y-99145057D01*
X141376400Y-98974943D01*
X141409587Y-98808097D01*
X141474687Y-98650932D01*
X141569198Y-98509487D01*
X141689487Y-98389198D01*
X141830932Y-98294687D01*
X141988097Y-98229587D01*
X142154943Y-98196400D01*
X142325057Y-98196400D01*
X142491903Y-98229587D01*
G37*
G36*
X155191903Y-98229587D02*
G01*
X155349068Y-98294687D01*
X155490513Y-98389198D01*
X155610802Y-98509487D01*
X155705313Y-98650932D01*
X155770413Y-98808097D01*
X155803600Y-98974943D01*
X155803600Y-99145057D01*
X155770413Y-99311903D01*
X155705313Y-99469068D01*
X155610802Y-99610513D01*
X155490513Y-99730802D01*
X155349068Y-99825313D01*
X155191903Y-99890413D01*
X155025057Y-99923600D01*
X154854943Y-99923600D01*
X154688097Y-99890413D01*
X154530932Y-99825313D01*
X154389487Y-99730802D01*
X154269198Y-99610513D01*
X154174687Y-99469068D01*
X154109587Y-99311903D01*
X154076400Y-99145057D01*
X154076400Y-98974943D01*
X154109587Y-98808097D01*
X154174687Y-98650932D01*
X154269198Y-98509487D01*
X154389487Y-98389198D01*
X154530932Y-98294687D01*
X154688097Y-98229587D01*
X154854943Y-98196400D01*
X155025057Y-98196400D01*
X155191903Y-98229587D01*
G37*
G36*
X137411903Y-98229587D02*
G01*
X137569068Y-98294687D01*
X137710513Y-98389198D01*
X137830802Y-98509487D01*
X137925313Y-98650932D01*
X137990413Y-98808097D01*
X138023600Y-98974943D01*
X138023600Y-99145057D01*
X137990413Y-99311903D01*
X137925313Y-99469068D01*
X137830802Y-99610513D01*
X137710513Y-99730802D01*
X137569068Y-99825313D01*
X137411903Y-99890413D01*
X137245057Y-99923600D01*
X137074943Y-99923600D01*
X136908097Y-99890413D01*
X136750932Y-99825313D01*
X136609487Y-99730802D01*
X136489198Y-99610513D01*
X136394687Y-99469068D01*
X136329587Y-99311903D01*
X136296400Y-99145057D01*
X136296400Y-98974943D01*
X136329587Y-98808097D01*
X136394687Y-98650932D01*
X136489198Y-98509487D01*
X136609487Y-98389198D01*
X136750932Y-98294687D01*
X136908097Y-98229587D01*
X137074943Y-98196400D01*
X137245057Y-98196400D01*
X137411903Y-98229587D01*
G37*
G36*
X134871903Y-98229587D02*
G01*
X135029068Y-98294687D01*
X135170513Y-98389198D01*
X135290802Y-98509487D01*
X135385313Y-98650932D01*
X135450413Y-98808097D01*
X135483600Y-98974943D01*
X135483600Y-99145057D01*
X135450413Y-99311903D01*
X135385313Y-99469068D01*
X135290802Y-99610513D01*
X135170513Y-99730802D01*
X135029068Y-99825313D01*
X134871903Y-99890413D01*
X134705057Y-99923600D01*
X134534943Y-99923600D01*
X134368097Y-99890413D01*
X134210932Y-99825313D01*
X134069487Y-99730802D01*
X133949198Y-99610513D01*
X133854687Y-99469068D01*
X133789587Y-99311903D01*
X133756400Y-99145057D01*
X133756400Y-98974943D01*
X133789587Y-98808097D01*
X133854687Y-98650932D01*
X133949198Y-98509487D01*
X134069487Y-98389198D01*
X134210932Y-98294687D01*
X134368097Y-98229587D01*
X134534943Y-98196400D01*
X134705057Y-98196400D01*
X134871903Y-98229587D01*
G37*
G36*
X114551903Y-98229587D02*
G01*
X114709068Y-98294687D01*
X114850513Y-98389198D01*
X114970802Y-98509487D01*
X115065313Y-98650932D01*
X115130413Y-98808097D01*
X115163600Y-98974943D01*
X115163600Y-99145057D01*
X115130413Y-99311903D01*
X115065313Y-99469068D01*
X114970802Y-99610513D01*
X114850513Y-99730802D01*
X114709068Y-99825313D01*
X114551903Y-99890413D01*
X114385057Y-99923600D01*
X114214943Y-99923600D01*
X114048097Y-99890413D01*
X113890932Y-99825313D01*
X113749487Y-99730802D01*
X113629198Y-99610513D01*
X113534687Y-99469068D01*
X113469587Y-99311903D01*
X113436400Y-99145057D01*
X113436400Y-98974943D01*
X113469587Y-98808097D01*
X113534687Y-98650932D01*
X113629198Y-98509487D01*
X113749487Y-98389198D01*
X113890932Y-98294687D01*
X114048097Y-98229587D01*
X114214943Y-98196400D01*
X114385057Y-98196400D01*
X114551903Y-98229587D01*
G37*
G36*
X132331903Y-98229587D02*
G01*
X132489068Y-98294687D01*
X132630513Y-98389198D01*
X132750802Y-98509487D01*
X132845313Y-98650932D01*
X132910413Y-98808097D01*
X132943600Y-98974943D01*
X132943600Y-99145057D01*
X132910413Y-99311903D01*
X132845313Y-99469068D01*
X132750802Y-99610513D01*
X132630513Y-99730802D01*
X132489068Y-99825313D01*
X132331903Y-99890413D01*
X132165057Y-99923600D01*
X131994943Y-99923600D01*
X131828097Y-99890413D01*
X131670932Y-99825313D01*
X131529487Y-99730802D01*
X131409198Y-99610513D01*
X131314687Y-99469068D01*
X131249587Y-99311903D01*
X131216400Y-99145057D01*
X131216400Y-98974943D01*
X131249587Y-98808097D01*
X131314687Y-98650932D01*
X131409198Y-98509487D01*
X131529487Y-98389198D01*
X131670932Y-98294687D01*
X131828097Y-98229587D01*
X131994943Y-98196400D01*
X132165057Y-98196400D01*
X132331903Y-98229587D01*
G37*
G36*
X106931903Y-98229587D02*
G01*
X107089068Y-98294687D01*
X107230513Y-98389198D01*
X107350802Y-98509487D01*
X107445313Y-98650932D01*
X107510413Y-98808097D01*
X107543600Y-98974943D01*
X107543600Y-99145057D01*
X107510413Y-99311903D01*
X107445313Y-99469068D01*
X107350802Y-99610513D01*
X107230513Y-99730802D01*
X107089068Y-99825313D01*
X106931903Y-99890413D01*
X106765057Y-99923600D01*
X106594943Y-99923600D01*
X106428097Y-99890413D01*
X106270932Y-99825313D01*
X106129487Y-99730802D01*
X106009198Y-99610513D01*
X105914687Y-99469068D01*
X105849587Y-99311903D01*
X105816400Y-99145057D01*
X105816400Y-98974943D01*
X105849587Y-98808097D01*
X105914687Y-98650932D01*
X106009198Y-98509487D01*
X106129487Y-98389198D01*
X106270932Y-98294687D01*
X106428097Y-98229587D01*
X106594943Y-98196400D01*
X106765057Y-98196400D01*
X106931903Y-98229587D01*
G37*
G36*
X157731903Y-98229587D02*
G01*
X157889068Y-98294687D01*
X158030513Y-98389198D01*
X158150802Y-98509487D01*
X158245313Y-98650932D01*
X158310413Y-98808097D01*
X158343600Y-98974943D01*
X158343600Y-99145057D01*
X158310413Y-99311903D01*
X158245313Y-99469068D01*
X158150802Y-99610513D01*
X158030513Y-99730802D01*
X157889068Y-99825313D01*
X157731903Y-99890413D01*
X157565057Y-99923600D01*
X157394943Y-99923600D01*
X157228097Y-99890413D01*
X157070932Y-99825313D01*
X156929487Y-99730802D01*
X156809198Y-99610513D01*
X156714687Y-99469068D01*
X156649587Y-99311903D01*
X156616400Y-99145057D01*
X156616400Y-98974943D01*
X156649587Y-98808097D01*
X156714687Y-98650932D01*
X156809198Y-98509487D01*
X156929487Y-98389198D01*
X157070932Y-98294687D01*
X157228097Y-98229587D01*
X157394943Y-98196400D01*
X157565057Y-98196400D01*
X157731903Y-98229587D01*
G37*
G36*
X117091903Y-98229587D02*
G01*
X117249068Y-98294687D01*
X117390513Y-98389198D01*
X117510802Y-98509487D01*
X117605313Y-98650932D01*
X117670413Y-98808097D01*
X117703600Y-98974943D01*
X117703600Y-99145057D01*
X117670413Y-99311903D01*
X117605313Y-99469068D01*
X117510802Y-99610513D01*
X117390513Y-99730802D01*
X117249068Y-99825313D01*
X117091903Y-99890413D01*
X116925057Y-99923600D01*
X116754943Y-99923600D01*
X116588097Y-99890413D01*
X116430932Y-99825313D01*
X116289487Y-99730802D01*
X116169198Y-99610513D01*
X116074687Y-99469068D01*
X116009587Y-99311903D01*
X115976400Y-99145057D01*
X115976400Y-98974943D01*
X116009587Y-98808097D01*
X116074687Y-98650932D01*
X116169198Y-98509487D01*
X116289487Y-98389198D01*
X116430932Y-98294687D01*
X116588097Y-98229587D01*
X116754943Y-98196400D01*
X116925057Y-98196400D01*
X117091903Y-98229587D01*
G37*
G36*
X101851903Y-98229587D02*
G01*
X102009068Y-98294687D01*
X102150513Y-98389198D01*
X102270802Y-98509487D01*
X102365313Y-98650932D01*
X102430413Y-98808097D01*
X102463600Y-98974943D01*
X102463600Y-99145057D01*
X102430413Y-99311903D01*
X102365313Y-99469068D01*
X102270802Y-99610513D01*
X102150513Y-99730802D01*
X102009068Y-99825313D01*
X101851903Y-99890413D01*
X101685057Y-99923600D01*
X101514943Y-99923600D01*
X101348097Y-99890413D01*
X101190932Y-99825313D01*
X101049487Y-99730802D01*
X100929198Y-99610513D01*
X100834687Y-99469068D01*
X100769587Y-99311903D01*
X100736400Y-99145057D01*
X100736400Y-98974943D01*
X100769587Y-98808097D01*
X100834687Y-98650932D01*
X100929198Y-98509487D01*
X101049487Y-98389198D01*
X101190932Y-98294687D01*
X101348097Y-98229587D01*
X101514943Y-98196400D01*
X101685057Y-98196400D01*
X101851903Y-98229587D01*
G37*
G36*
X122171903Y-98229587D02*
G01*
X122329068Y-98294687D01*
X122470513Y-98389198D01*
X122590802Y-98509487D01*
X122685313Y-98650932D01*
X122750413Y-98808097D01*
X122783600Y-98974943D01*
X122783600Y-99145057D01*
X122750413Y-99311903D01*
X122685313Y-99469068D01*
X122590802Y-99610513D01*
X122470513Y-99730802D01*
X122329068Y-99825313D01*
X122171903Y-99890413D01*
X122005057Y-99923600D01*
X121834943Y-99923600D01*
X121668097Y-99890413D01*
X121510932Y-99825313D01*
X121369487Y-99730802D01*
X121249198Y-99610513D01*
X121154687Y-99469068D01*
X121089587Y-99311903D01*
X121056400Y-99145057D01*
X121056400Y-98974943D01*
X121089587Y-98808097D01*
X121154687Y-98650932D01*
X121249198Y-98509487D01*
X121369487Y-98389198D01*
X121510932Y-98294687D01*
X121668097Y-98229587D01*
X121834943Y-98196400D01*
X122005057Y-98196400D01*
X122171903Y-98229587D01*
G37*
G36*
X104391903Y-98229587D02*
G01*
X104549068Y-98294687D01*
X104690513Y-98389198D01*
X104810802Y-98509487D01*
X104905313Y-98650932D01*
X104970413Y-98808097D01*
X105003600Y-98974943D01*
X105003600Y-99145057D01*
X104970413Y-99311903D01*
X104905313Y-99469068D01*
X104810802Y-99610513D01*
X104690513Y-99730802D01*
X104549068Y-99825313D01*
X104391903Y-99890413D01*
X104225057Y-99923600D01*
X104054943Y-99923600D01*
X103888097Y-99890413D01*
X103730932Y-99825313D01*
X103589487Y-99730802D01*
X103469198Y-99610513D01*
X103374687Y-99469068D01*
X103309587Y-99311903D01*
X103276400Y-99145057D01*
X103276400Y-98974943D01*
X103309587Y-98808097D01*
X103374687Y-98650932D01*
X103469198Y-98509487D01*
X103589487Y-98389198D01*
X103730932Y-98294687D01*
X103888097Y-98229587D01*
X104054943Y-98196400D01*
X104225057Y-98196400D01*
X104391903Y-98229587D01*
G37*
G36*
X124711903Y-98229587D02*
G01*
X124869068Y-98294687D01*
X125010513Y-98389198D01*
X125130802Y-98509487D01*
X125225313Y-98650932D01*
X125290413Y-98808097D01*
X125323600Y-98974943D01*
X125323600Y-99145057D01*
X125290413Y-99311903D01*
X125225313Y-99469068D01*
X125130802Y-99610513D01*
X125010513Y-99730802D01*
X124869068Y-99825313D01*
X124711903Y-99890413D01*
X124545057Y-99923600D01*
X124374943Y-99923600D01*
X124208097Y-99890413D01*
X124050932Y-99825313D01*
X123909487Y-99730802D01*
X123789198Y-99610513D01*
X123694687Y-99469068D01*
X123629587Y-99311903D01*
X123596400Y-99145057D01*
X123596400Y-98974943D01*
X123629587Y-98808097D01*
X123694687Y-98650932D01*
X123789198Y-98509487D01*
X123909487Y-98389198D01*
X124050932Y-98294687D01*
X124208097Y-98229587D01*
X124374943Y-98196400D01*
X124545057Y-98196400D01*
X124711903Y-98229587D01*
G37*
G36*
X127251903Y-98229587D02*
G01*
X127409068Y-98294687D01*
X127550513Y-98389198D01*
X127670802Y-98509487D01*
X127765313Y-98650932D01*
X127830413Y-98808097D01*
X127863600Y-98974943D01*
X127863600Y-99145057D01*
X127830413Y-99311903D01*
X127765313Y-99469068D01*
X127670802Y-99610513D01*
X127550513Y-99730802D01*
X127409068Y-99825313D01*
X127251903Y-99890413D01*
X127085057Y-99923600D01*
X126914943Y-99923600D01*
X126748097Y-99890413D01*
X126590932Y-99825313D01*
X126449487Y-99730802D01*
X126329198Y-99610513D01*
X126234687Y-99469068D01*
X126169587Y-99311903D01*
X126136400Y-99145057D01*
X126136400Y-98974943D01*
X126169587Y-98808097D01*
X126234687Y-98650932D01*
X126329198Y-98509487D01*
X126449487Y-98389198D01*
X126590932Y-98294687D01*
X126748097Y-98229587D01*
X126914943Y-98196400D01*
X127085057Y-98196400D01*
X127251903Y-98229587D01*
G37*
G36*
X109471903Y-98229587D02*
G01*
X109629068Y-98294687D01*
X109770513Y-98389198D01*
X109890802Y-98509487D01*
X109985313Y-98650932D01*
X110050413Y-98808097D01*
X110083600Y-98974943D01*
X110083600Y-99145057D01*
X110050413Y-99311903D01*
X109985313Y-99469068D01*
X109890802Y-99610513D01*
X109770513Y-99730802D01*
X109629068Y-99825313D01*
X109471903Y-99890413D01*
X109305057Y-99923600D01*
X109134943Y-99923600D01*
X108968097Y-99890413D01*
X108810932Y-99825313D01*
X108669487Y-99730802D01*
X108549198Y-99610513D01*
X108454687Y-99469068D01*
X108389587Y-99311903D01*
X108356400Y-99145057D01*
X108356400Y-98974943D01*
X108389587Y-98808097D01*
X108454687Y-98650932D01*
X108549198Y-98509487D01*
X108669487Y-98389198D01*
X108810932Y-98294687D01*
X108968097Y-98229587D01*
X109134943Y-98196400D01*
X109305057Y-98196400D01*
X109471903Y-98229587D01*
G37*
G36*
X139951903Y-98229587D02*
G01*
X140109068Y-98294687D01*
X140250513Y-98389198D01*
X140370802Y-98509487D01*
X140465313Y-98650932D01*
X140530413Y-98808097D01*
X140563600Y-98974943D01*
X140563600Y-99145057D01*
X140530413Y-99311903D01*
X140465313Y-99469068D01*
X140370802Y-99610513D01*
X140250513Y-99730802D01*
X140109068Y-99825313D01*
X139951903Y-99890413D01*
X139785057Y-99923600D01*
X139614943Y-99923600D01*
X139448097Y-99890413D01*
X139290932Y-99825313D01*
X139149487Y-99730802D01*
X139029198Y-99610513D01*
X138934687Y-99469068D01*
X138869587Y-99311903D01*
X138836400Y-99145057D01*
X138836400Y-98974943D01*
X138869587Y-98808097D01*
X138934687Y-98650932D01*
X139029198Y-98509487D01*
X139149487Y-98389198D01*
X139290932Y-98294687D01*
X139448097Y-98229587D01*
X139614943Y-98196400D01*
X139785057Y-98196400D01*
X139951903Y-98229587D01*
G37*
G36*
X129791903Y-98229587D02*
G01*
X129949068Y-98294687D01*
X130090513Y-98389198D01*
X130210802Y-98509487D01*
X130305313Y-98650932D01*
X130370413Y-98808097D01*
X130403600Y-98974943D01*
X130403600Y-99145057D01*
X130370413Y-99311903D01*
X130305313Y-99469068D01*
X130210802Y-99610513D01*
X130090513Y-99730802D01*
X129949068Y-99825313D01*
X129791903Y-99890413D01*
X129625057Y-99923600D01*
X129454943Y-99923600D01*
X129288097Y-99890413D01*
X129130932Y-99825313D01*
X128989487Y-99730802D01*
X128869198Y-99610513D01*
X128774687Y-99469068D01*
X128709587Y-99311903D01*
X128676400Y-99145057D01*
X128676400Y-98974943D01*
X128709587Y-98808097D01*
X128774687Y-98650932D01*
X128869198Y-98509487D01*
X128989487Y-98389198D01*
X129130932Y-98294687D01*
X129288097Y-98229587D01*
X129454943Y-98196400D01*
X129625057Y-98196400D01*
X129791903Y-98229587D01*
G37*
G36*
X112011903Y-98229587D02*
G01*
X112169068Y-98294687D01*
X112310513Y-98389198D01*
X112430802Y-98509487D01*
X112525313Y-98650932D01*
X112590413Y-98808097D01*
X112623600Y-98974943D01*
X112623600Y-99145057D01*
X112590413Y-99311903D01*
X112525313Y-99469068D01*
X112430802Y-99610513D01*
X112310513Y-99730802D01*
X112169068Y-99825313D01*
X112011903Y-99890413D01*
X111845057Y-99923600D01*
X111674943Y-99923600D01*
X111508097Y-99890413D01*
X111350932Y-99825313D01*
X111209487Y-99730802D01*
X111089198Y-99610513D01*
X110994687Y-99469068D01*
X110929587Y-99311903D01*
X110896400Y-99145057D01*
X110896400Y-98974943D01*
X110929587Y-98808097D01*
X110994687Y-98650932D01*
X111089198Y-98509487D01*
X111209487Y-98389198D01*
X111350932Y-98294687D01*
X111508097Y-98229587D01*
X111674943Y-98196400D01*
X111845057Y-98196400D01*
X112011903Y-98229587D01*
G37*
G36*
X162807936Y-98242665D02*
G01*
X162962627Y-98306739D01*
X163101845Y-98399762D01*
X163220238Y-98518155D01*
X163313261Y-98657373D01*
X163377335Y-98812064D01*
X163410000Y-98976282D01*
X163410000Y-99143718D01*
X163377335Y-99307936D01*
X163313261Y-99462627D01*
X163220238Y-99601845D01*
X163101845Y-99720238D01*
X162962627Y-99813261D01*
X162807936Y-99877335D01*
X162643718Y-99910000D01*
X162476282Y-99910000D01*
X162312064Y-99877335D01*
X162157373Y-99813261D01*
X162018155Y-99720238D01*
X161899762Y-99601845D01*
X161806739Y-99462627D01*
X161742665Y-99307936D01*
X161710000Y-99143718D01*
X161710000Y-98976282D01*
X161742665Y-98812064D01*
X161806739Y-98657373D01*
X161899762Y-98518155D01*
X162018155Y-98399762D01*
X162157373Y-98306739D01*
X162312064Y-98242665D01*
X162476282Y-98210000D01*
X162643718Y-98210000D01*
X162807936Y-98242665D01*
G37*
G36*
X160267936Y-98242665D02*
G01*
X160422627Y-98306739D01*
X160561845Y-98399762D01*
X160680238Y-98518155D01*
X160773261Y-98657373D01*
X160837335Y-98812064D01*
X160870000Y-98976282D01*
X160870000Y-99143718D01*
X160837335Y-99307936D01*
X160773261Y-99462627D01*
X160680238Y-99601845D01*
X160561845Y-99720238D01*
X160422627Y-99813261D01*
X160267936Y-99877335D01*
X160103718Y-99910000D01*
X159936282Y-99910000D01*
X159772064Y-99877335D01*
X159617373Y-99813261D01*
X159478155Y-99720238D01*
X159359762Y-99601845D01*
X159266739Y-99462627D01*
X159202665Y-99307936D01*
X159170000Y-99143718D01*
X159170000Y-98976282D01*
X159202665Y-98812064D01*
X159266739Y-98657373D01*
X159359762Y-98518155D01*
X159478155Y-98399762D01*
X159617373Y-98306739D01*
X159772064Y-98242665D01*
X159936282Y-98210000D01*
X160103718Y-98210000D01*
X160267936Y-98242665D01*
G37*
G36*
X94227936Y-96972665D02*
G01*
X94382627Y-97036739D01*
X94521845Y-97129762D01*
X94640238Y-97248155D01*
X94733261Y-97387373D01*
X94797335Y-97542064D01*
X94830000Y-97706282D01*
X94830000Y-97873718D01*
X94797335Y-98037936D01*
X94733261Y-98192627D01*
X94640238Y-98331845D01*
X94521845Y-98450238D01*
X94382627Y-98543261D01*
X94227936Y-98607335D01*
X94063718Y-98640000D01*
X93896282Y-98640000D01*
X93732064Y-98607335D01*
X93577373Y-98543261D01*
X93438155Y-98450238D01*
X93319762Y-98331845D01*
X93226739Y-98192627D01*
X93162665Y-98037936D01*
X93130000Y-97873718D01*
X93130000Y-97706282D01*
X93162665Y-97542064D01*
X93226739Y-97387373D01*
X93319762Y-97248155D01*
X93438155Y-97129762D01*
X93577373Y-97036739D01*
X93732064Y-96972665D01*
X93896282Y-96940000D01*
X94063718Y-96940000D01*
X94227936Y-96972665D01*
G37*
G36*
X99307936Y-96972665D02*
G01*
X99462627Y-97036739D01*
X99601845Y-97129762D01*
X99720238Y-97248155D01*
X99813261Y-97387373D01*
X99877335Y-97542064D01*
X99910000Y-97706282D01*
X99910000Y-97873718D01*
X99877335Y-98037936D01*
X99813261Y-98192627D01*
X99720238Y-98331845D01*
X99601845Y-98450238D01*
X99462627Y-98543261D01*
X99307936Y-98607335D01*
X99143718Y-98640000D01*
X98976282Y-98640000D01*
X98812064Y-98607335D01*
X98657373Y-98543261D01*
X98518155Y-98450238D01*
X98399762Y-98331845D01*
X98306739Y-98192627D01*
X98242665Y-98037936D01*
X98210000Y-97873718D01*
X98210000Y-97706282D01*
X98242665Y-97542064D01*
X98306739Y-97387373D01*
X98399762Y-97248155D01*
X98518155Y-97129762D01*
X98657373Y-97036739D01*
X98812064Y-96972665D01*
X98976282Y-96940000D01*
X99143718Y-96940000D01*
X99307936Y-96972665D01*
G37*
G36*
X96767936Y-96972665D02*
G01*
X96922627Y-97036739D01*
X97061845Y-97129762D01*
X97180238Y-97248155D01*
X97273261Y-97387373D01*
X97337335Y-97542064D01*
X97370000Y-97706282D01*
X97370000Y-97873718D01*
X97337335Y-98037936D01*
X97273261Y-98192627D01*
X97180238Y-98331845D01*
X97061845Y-98450238D01*
X96922627Y-98543261D01*
X96767936Y-98607335D01*
X96603718Y-98640000D01*
X96436282Y-98640000D01*
X96272064Y-98607335D01*
X96117373Y-98543261D01*
X95978155Y-98450238D01*
X95859762Y-98331845D01*
X95766739Y-98192627D01*
X95702665Y-98037936D01*
X95670000Y-97873718D01*
X95670000Y-97706282D01*
X95702665Y-97542064D01*
X95766739Y-97387373D01*
X95859762Y-97248155D01*
X95978155Y-97129762D01*
X96117373Y-97036739D01*
X96272064Y-96972665D01*
X96436282Y-96940000D01*
X96603718Y-96940000D01*
X96767936Y-96972665D01*
G37*
G36*
X91687936Y-96972665D02*
G01*
X91842627Y-97036739D01*
X91981845Y-97129762D01*
X92100238Y-97248155D01*
X92193261Y-97387373D01*
X92257335Y-97542064D01*
X92290000Y-97706282D01*
X92290000Y-97873718D01*
X92257335Y-98037936D01*
X92193261Y-98192627D01*
X92100238Y-98331845D01*
X91981845Y-98450238D01*
X91842627Y-98543261D01*
X91687936Y-98607335D01*
X91523718Y-98640000D01*
X91356282Y-98640000D01*
X91192064Y-98607335D01*
X91037373Y-98543261D01*
X90898155Y-98450238D01*
X90779762Y-98331845D01*
X90686739Y-98192627D01*
X90622665Y-98037936D01*
X90590000Y-97873718D01*
X90590000Y-97706282D01*
X90622665Y-97542064D01*
X90686739Y-97387373D01*
X90779762Y-97248155D01*
X90898155Y-97129762D01*
X91037373Y-97036739D01*
X91192064Y-96972665D01*
X91356282Y-96940000D01*
X91523718Y-96940000D01*
X91687936Y-96972665D01*
G37*
G36*
X84945000Y-98375000D02*
G01*
X82695000Y-98375000D01*
X82695000Y-92125000D01*
X84945000Y-92125000D01*
X84945000Y-98375000D01*
G37*
G36*
X160267936Y-95702665D02*
G01*
X160422627Y-95766739D01*
X160561845Y-95859762D01*
X160680238Y-95978155D01*
X160773261Y-96117373D01*
X160837335Y-96272064D01*
X160870000Y-96436282D01*
X160870000Y-96603718D01*
X160837335Y-96767936D01*
X160773261Y-96922627D01*
X160680238Y-97061845D01*
X160561845Y-97180238D01*
X160422627Y-97273261D01*
X160267936Y-97337335D01*
X160103718Y-97370000D01*
X159936282Y-97370000D01*
X159772064Y-97337335D01*
X159617373Y-97273261D01*
X159478155Y-97180238D01*
X159359762Y-97061845D01*
X159266739Y-96922627D01*
X159202665Y-96767936D01*
X159170000Y-96603718D01*
X159170000Y-96436282D01*
X159202665Y-96272064D01*
X159266739Y-96117373D01*
X159359762Y-95978155D01*
X159478155Y-95859762D01*
X159617373Y-95766739D01*
X159772064Y-95702665D01*
X159936282Y-95670000D01*
X160103718Y-95670000D01*
X160267936Y-95702665D01*
G37*
G36*
X162807936Y-95702665D02*
G01*
X162962627Y-95766739D01*
X163101845Y-95859762D01*
X163220238Y-95978155D01*
X163313261Y-96117373D01*
X163377335Y-96272064D01*
X163410000Y-96436282D01*
X163410000Y-96603718D01*
X163377335Y-96767936D01*
X163313261Y-96922627D01*
X163220238Y-97061845D01*
X163101845Y-97180238D01*
X162962627Y-97273261D01*
X162807936Y-97337335D01*
X162643718Y-97370000D01*
X162476282Y-97370000D01*
X162312064Y-97337335D01*
X162157373Y-97273261D01*
X162018155Y-97180238D01*
X161899762Y-97061845D01*
X161806739Y-96922627D01*
X161742665Y-96767936D01*
X161710000Y-96603718D01*
X161710000Y-96436282D01*
X161742665Y-96272064D01*
X161806739Y-96117373D01*
X161899762Y-95978155D01*
X162018155Y-95859762D01*
X162157373Y-95766739D01*
X162312064Y-95702665D01*
X162476282Y-95670000D01*
X162643718Y-95670000D01*
X162807936Y-95702665D01*
G37*
G36*
X99910000Y-96100000D02*
G01*
X98210000Y-96100000D01*
X98210000Y-94400000D01*
X99910000Y-94400000D01*
X99910000Y-96100000D01*
G37*
G36*
X94830000Y-96100000D02*
G01*
X93130000Y-96100000D01*
X93130000Y-94400000D01*
X94830000Y-94400000D01*
X94830000Y-96100000D01*
G37*
G36*
X97370000Y-96100000D02*
G01*
X95670000Y-96100000D01*
X95670000Y-94400000D01*
X97370000Y-94400000D01*
X97370000Y-96100000D01*
G37*
G36*
X92290000Y-96100000D02*
G01*
X90590000Y-96100000D01*
X90590000Y-94400000D01*
X92290000Y-94400000D01*
X92290000Y-96100000D01*
G37*
G36*
X160267936Y-93162665D02*
G01*
X160422627Y-93226739D01*
X160561845Y-93319762D01*
X160680238Y-93438155D01*
X160773261Y-93577373D01*
X160837335Y-93732064D01*
X160870000Y-93896282D01*
X160870000Y-94063718D01*
X160837335Y-94227936D01*
X160773261Y-94382627D01*
X160680238Y-94521845D01*
X160561845Y-94640238D01*
X160422627Y-94733261D01*
X160267936Y-94797335D01*
X160103718Y-94830000D01*
X159936282Y-94830000D01*
X159772064Y-94797335D01*
X159617373Y-94733261D01*
X159478155Y-94640238D01*
X159359762Y-94521845D01*
X159266739Y-94382627D01*
X159202665Y-94227936D01*
X159170000Y-94063718D01*
X159170000Y-93896282D01*
X159202665Y-93732064D01*
X159266739Y-93577373D01*
X159359762Y-93438155D01*
X159478155Y-93319762D01*
X159617373Y-93226739D01*
X159772064Y-93162665D01*
X159936282Y-93130000D01*
X160103718Y-93130000D01*
X160267936Y-93162665D01*
G37*
G36*
X162807936Y-93162665D02*
G01*
X162962627Y-93226739D01*
X163101845Y-93319762D01*
X163220238Y-93438155D01*
X163313261Y-93577373D01*
X163377335Y-93732064D01*
X163410000Y-93896282D01*
X163410000Y-94063718D01*
X163377335Y-94227936D01*
X163313261Y-94382627D01*
X163220238Y-94521845D01*
X163101845Y-94640238D01*
X162962627Y-94733261D01*
X162807936Y-94797335D01*
X162643718Y-94830000D01*
X162476282Y-94830000D01*
X162312064Y-94797335D01*
X162157373Y-94733261D01*
X162018155Y-94640238D01*
X161899762Y-94521845D01*
X161806739Y-94382627D01*
X161742665Y-94227936D01*
X161710000Y-94063718D01*
X161710000Y-93896282D01*
X161742665Y-93732064D01*
X161806739Y-93577373D01*
X161899762Y-93438155D01*
X162018155Y-93319762D01*
X162157373Y-93226739D01*
X162312064Y-93162665D01*
X162476282Y-93130000D01*
X162643718Y-93130000D01*
X162807936Y-93162665D01*
G37*
G36*
X160267936Y-90622665D02*
G01*
X160422627Y-90686739D01*
X160561845Y-90779762D01*
X160680238Y-90898155D01*
X160773261Y-91037373D01*
X160837335Y-91192064D01*
X160870000Y-91356282D01*
X160870000Y-91523718D01*
X160837335Y-91687936D01*
X160773261Y-91842627D01*
X160680238Y-91981845D01*
X160561845Y-92100238D01*
X160422627Y-92193261D01*
X160267936Y-92257335D01*
X160103718Y-92290000D01*
X159936282Y-92290000D01*
X159772064Y-92257335D01*
X159617373Y-92193261D01*
X159478155Y-92100238D01*
X159359762Y-91981845D01*
X159266739Y-91842627D01*
X159202665Y-91687936D01*
X159170000Y-91523718D01*
X159170000Y-91356282D01*
X159202665Y-91192064D01*
X159266739Y-91037373D01*
X159359762Y-90898155D01*
X159478155Y-90779762D01*
X159617373Y-90686739D01*
X159772064Y-90622665D01*
X159936282Y-90590000D01*
X160103718Y-90590000D01*
X160267936Y-90622665D01*
G37*
G36*
X162807936Y-90622665D02*
G01*
X162962627Y-90686739D01*
X163101845Y-90779762D01*
X163220238Y-90898155D01*
X163313261Y-91037373D01*
X163377335Y-91192064D01*
X163410000Y-91356282D01*
X163410000Y-91523718D01*
X163377335Y-91687936D01*
X163313261Y-91842627D01*
X163220238Y-91981845D01*
X163101845Y-92100238D01*
X162962627Y-92193261D01*
X162807936Y-92257335D01*
X162643718Y-92290000D01*
X162476282Y-92290000D01*
X162312064Y-92257335D01*
X162157373Y-92193261D01*
X162018155Y-92100238D01*
X161899762Y-91981845D01*
X161806739Y-91842627D01*
X161742665Y-91687936D01*
X161710000Y-91523718D01*
X161710000Y-91356282D01*
X161742665Y-91192064D01*
X161806739Y-91037373D01*
X161899762Y-90898155D01*
X162018155Y-90779762D01*
X162157373Y-90686739D01*
X162312064Y-90622665D01*
X162476282Y-90590000D01*
X162643718Y-90590000D01*
X162807936Y-90622665D01*
G37*
G36*
X84945000Y-90475000D02*
G01*
X82695000Y-90475000D01*
X82695000Y-84225000D01*
X84945000Y-84225000D01*
X84945000Y-90475000D01*
G37*
G36*
X162807936Y-88082665D02*
G01*
X162962627Y-88146739D01*
X163101845Y-88239762D01*
X163220238Y-88358155D01*
X163313261Y-88497373D01*
X163377335Y-88652064D01*
X163410000Y-88816282D01*
X163410000Y-88983718D01*
X163377335Y-89147936D01*
X163313261Y-89302627D01*
X163220238Y-89441845D01*
X163101845Y-89560238D01*
X162962627Y-89653261D01*
X162807936Y-89717335D01*
X162643718Y-89750000D01*
X162476282Y-89750000D01*
X162312064Y-89717335D01*
X162157373Y-89653261D01*
X162018155Y-89560238D01*
X161899762Y-89441845D01*
X161806739Y-89302627D01*
X161742665Y-89147936D01*
X161710000Y-88983718D01*
X161710000Y-88816282D01*
X161742665Y-88652064D01*
X161806739Y-88497373D01*
X161899762Y-88358155D01*
X162018155Y-88239762D01*
X162157373Y-88146739D01*
X162312064Y-88082665D01*
X162476282Y-88050000D01*
X162643718Y-88050000D01*
X162807936Y-88082665D01*
G37*
G36*
X160267936Y-88082665D02*
G01*
X160422627Y-88146739D01*
X160561845Y-88239762D01*
X160680238Y-88358155D01*
X160773261Y-88497373D01*
X160837335Y-88652064D01*
X160870000Y-88816282D01*
X160870000Y-88983718D01*
X160837335Y-89147936D01*
X160773261Y-89302627D01*
X160680238Y-89441845D01*
X160561845Y-89560238D01*
X160422627Y-89653261D01*
X160267936Y-89717335D01*
X160103718Y-89750000D01*
X159936282Y-89750000D01*
X159772064Y-89717335D01*
X159617373Y-89653261D01*
X159478155Y-89560238D01*
X159359762Y-89441845D01*
X159266739Y-89302627D01*
X159202665Y-89147936D01*
X159170000Y-88983718D01*
X159170000Y-88816282D01*
X159202665Y-88652064D01*
X159266739Y-88497373D01*
X159359762Y-88358155D01*
X159478155Y-88239762D01*
X159617373Y-88146739D01*
X159772064Y-88082665D01*
X159936282Y-88050000D01*
X160103718Y-88050000D01*
X160267936Y-88082665D01*
G37*
G36*
X160870000Y-87210000D02*
G01*
X159170000Y-87210000D01*
X159170000Y-85510000D01*
X160870000Y-85510000D01*
X160870000Y-87210000D01*
G37*
G36*
X163410000Y-87210000D02*
G01*
X161710000Y-87210000D01*
X161710000Y-85510000D01*
X163410000Y-85510000D01*
X163410000Y-87210000D01*
G37*
G36*
X160267936Y-81732665D02*
G01*
X160422627Y-81796739D01*
X160561845Y-81889762D01*
X160680238Y-82008155D01*
X160773261Y-82147373D01*
X160837335Y-82302064D01*
X160870000Y-82466282D01*
X160870000Y-82633718D01*
X160837335Y-82797936D01*
X160773261Y-82952627D01*
X160680238Y-83091845D01*
X160561845Y-83210238D01*
X160422627Y-83303261D01*
X160267936Y-83367335D01*
X160103718Y-83400000D01*
X159936282Y-83400000D01*
X159772064Y-83367335D01*
X159617373Y-83303261D01*
X159478155Y-83210238D01*
X159359762Y-83091845D01*
X159266739Y-82952627D01*
X159202665Y-82797936D01*
X159170000Y-82633718D01*
X159170000Y-82466282D01*
X159202665Y-82302064D01*
X159266739Y-82147373D01*
X159359762Y-82008155D01*
X159478155Y-81889762D01*
X159617373Y-81796739D01*
X159772064Y-81732665D01*
X159936282Y-81700000D01*
X160103718Y-81700000D01*
X160267936Y-81732665D01*
G37*
G36*
X162807936Y-81732665D02*
G01*
X162962627Y-81796739D01*
X163101845Y-81889762D01*
X163220238Y-82008155D01*
X163313261Y-82147373D01*
X163377335Y-82302064D01*
X163410000Y-82466282D01*
X163410000Y-82633718D01*
X163377335Y-82797936D01*
X163313261Y-82952627D01*
X163220238Y-83091845D01*
X163101845Y-83210238D01*
X162962627Y-83303261D01*
X162807936Y-83367335D01*
X162643718Y-83400000D01*
X162476282Y-83400000D01*
X162312064Y-83367335D01*
X162157373Y-83303261D01*
X162018155Y-83210238D01*
X161899762Y-83091845D01*
X161806739Y-82952627D01*
X161742665Y-82797936D01*
X161710000Y-82633718D01*
X161710000Y-82466282D01*
X161742665Y-82302064D01*
X161806739Y-82147373D01*
X161899762Y-82008155D01*
X162018155Y-81889762D01*
X162157373Y-81796739D01*
X162312064Y-81732665D01*
X162476282Y-81700000D01*
X162643718Y-81700000D01*
X162807936Y-81732665D01*
G37*
G36*
X160267936Y-79192665D02*
G01*
X160422627Y-79256739D01*
X160561845Y-79349762D01*
X160680238Y-79468155D01*
X160773261Y-79607373D01*
X160837335Y-79762064D01*
X160870000Y-79926282D01*
X160870000Y-80093718D01*
X160837335Y-80257936D01*
X160773261Y-80412627D01*
X160680238Y-80551845D01*
X160561845Y-80670238D01*
X160422627Y-80763261D01*
X160267936Y-80827335D01*
X160103718Y-80860000D01*
X159936282Y-80860000D01*
X159772064Y-80827335D01*
X159617373Y-80763261D01*
X159478155Y-80670238D01*
X159359762Y-80551845D01*
X159266739Y-80412627D01*
X159202665Y-80257936D01*
X159170000Y-80093718D01*
X159170000Y-79926282D01*
X159202665Y-79762064D01*
X159266739Y-79607373D01*
X159359762Y-79468155D01*
X159478155Y-79349762D01*
X159617373Y-79256739D01*
X159772064Y-79192665D01*
X159936282Y-79160000D01*
X160103718Y-79160000D01*
X160267936Y-79192665D01*
G37*
G36*
X162807936Y-79192665D02*
G01*
X162962627Y-79256739D01*
X163101845Y-79349762D01*
X163220238Y-79468155D01*
X163313261Y-79607373D01*
X163377335Y-79762064D01*
X163410000Y-79926282D01*
X163410000Y-80093718D01*
X163377335Y-80257936D01*
X163313261Y-80412627D01*
X163220238Y-80551845D01*
X163101845Y-80670238D01*
X162962627Y-80763261D01*
X162807936Y-80827335D01*
X162643718Y-80860000D01*
X162476282Y-80860000D01*
X162312064Y-80827335D01*
X162157373Y-80763261D01*
X162018155Y-80670238D01*
X161899762Y-80551845D01*
X161806739Y-80412627D01*
X161742665Y-80257936D01*
X161710000Y-80093718D01*
X161710000Y-79926282D01*
X161742665Y-79762064D01*
X161806739Y-79607373D01*
X161899762Y-79468155D01*
X162018155Y-79349762D01*
X162157373Y-79256739D01*
X162312064Y-79192665D01*
X162476282Y-79160000D01*
X162643718Y-79160000D01*
X162807936Y-79192665D01*
G37*
G36*
X160267936Y-76652665D02*
G01*
X160422627Y-76716739D01*
X160561845Y-76809762D01*
X160680238Y-76928155D01*
X160773261Y-77067373D01*
X160837335Y-77222064D01*
X160870000Y-77386282D01*
X160870000Y-77553718D01*
X160837335Y-77717936D01*
X160773261Y-77872627D01*
X160680238Y-78011845D01*
X160561845Y-78130238D01*
X160422627Y-78223261D01*
X160267936Y-78287335D01*
X160103718Y-78320000D01*
X159936282Y-78320000D01*
X159772064Y-78287335D01*
X159617373Y-78223261D01*
X159478155Y-78130238D01*
X159359762Y-78011845D01*
X159266739Y-77872627D01*
X159202665Y-77717936D01*
X159170000Y-77553718D01*
X159170000Y-77386282D01*
X159202665Y-77222064D01*
X159266739Y-77067373D01*
X159359762Y-76928155D01*
X159478155Y-76809762D01*
X159617373Y-76716739D01*
X159772064Y-76652665D01*
X159936282Y-76620000D01*
X160103718Y-76620000D01*
X160267936Y-76652665D01*
G37*
G36*
X162807936Y-76652665D02*
G01*
X162962627Y-76716739D01*
X163101845Y-76809762D01*
X163220238Y-76928155D01*
X163313261Y-77067373D01*
X163377335Y-77222064D01*
X163410000Y-77386282D01*
X163410000Y-77553718D01*
X163377335Y-77717936D01*
X163313261Y-77872627D01*
X163220238Y-78011845D01*
X163101845Y-78130238D01*
X162962627Y-78223261D01*
X162807936Y-78287335D01*
X162643718Y-78320000D01*
X162476282Y-78320000D01*
X162312064Y-78287335D01*
X162157373Y-78223261D01*
X162018155Y-78130238D01*
X161899762Y-78011845D01*
X161806739Y-77872627D01*
X161742665Y-77717936D01*
X161710000Y-77553718D01*
X161710000Y-77386282D01*
X161742665Y-77222064D01*
X161806739Y-77067373D01*
X161899762Y-76928155D01*
X162018155Y-76809762D01*
X162157373Y-76716739D01*
X162312064Y-76652665D01*
X162476282Y-76620000D01*
X162643718Y-76620000D01*
X162807936Y-76652665D01*
G37*
G36*
X162807936Y-74112665D02*
G01*
X162962627Y-74176739D01*
X163101845Y-74269762D01*
X163220238Y-74388155D01*
X163313261Y-74527373D01*
X163377335Y-74682064D01*
X163410000Y-74846282D01*
X163410000Y-75013718D01*
X163377335Y-75177936D01*
X163313261Y-75332627D01*
X163220238Y-75471845D01*
X163101845Y-75590238D01*
X162962627Y-75683261D01*
X162807936Y-75747335D01*
X162643718Y-75780000D01*
X162476282Y-75780000D01*
X162312064Y-75747335D01*
X162157373Y-75683261D01*
X162018155Y-75590238D01*
X161899762Y-75471845D01*
X161806739Y-75332627D01*
X161742665Y-75177936D01*
X161710000Y-75013718D01*
X161710000Y-74846282D01*
X161742665Y-74682064D01*
X161806739Y-74527373D01*
X161899762Y-74388155D01*
X162018155Y-74269762D01*
X162157373Y-74176739D01*
X162312064Y-74112665D01*
X162476282Y-74080000D01*
X162643718Y-74080000D01*
X162807936Y-74112665D01*
G37*
G36*
X160267936Y-74112665D02*
G01*
X160422627Y-74176739D01*
X160561845Y-74269762D01*
X160680238Y-74388155D01*
X160773261Y-74527373D01*
X160837335Y-74682064D01*
X160870000Y-74846282D01*
X160870000Y-75013718D01*
X160837335Y-75177936D01*
X160773261Y-75332627D01*
X160680238Y-75471845D01*
X160561845Y-75590238D01*
X160422627Y-75683261D01*
X160267936Y-75747335D01*
X160103718Y-75780000D01*
X159936282Y-75780000D01*
X159772064Y-75747335D01*
X159617373Y-75683261D01*
X159478155Y-75590238D01*
X159359762Y-75471845D01*
X159266739Y-75332627D01*
X159202665Y-75177936D01*
X159170000Y-75013718D01*
X159170000Y-74846282D01*
X159202665Y-74682064D01*
X159266739Y-74527373D01*
X159359762Y-74388155D01*
X159478155Y-74269762D01*
X159617373Y-74176739D01*
X159772064Y-74112665D01*
X159936282Y-74080000D01*
X160103718Y-74080000D01*
X160267936Y-74112665D01*
G37*
G36*
X162807936Y-71572665D02*
G01*
X162962627Y-71636739D01*
X163101845Y-71729762D01*
X163220238Y-71848155D01*
X163313261Y-71987373D01*
X163377335Y-72142064D01*
X163410000Y-72306282D01*
X163410000Y-72473718D01*
X163377335Y-72637936D01*
X163313261Y-72792627D01*
X163220238Y-72931845D01*
X163101845Y-73050238D01*
X162962627Y-73143261D01*
X162807936Y-73207335D01*
X162643718Y-73240000D01*
X162476282Y-73240000D01*
X162312064Y-73207335D01*
X162157373Y-73143261D01*
X162018155Y-73050238D01*
X161899762Y-72931845D01*
X161806739Y-72792627D01*
X161742665Y-72637936D01*
X161710000Y-72473718D01*
X161710000Y-72306282D01*
X161742665Y-72142064D01*
X161806739Y-71987373D01*
X161899762Y-71848155D01*
X162018155Y-71729762D01*
X162157373Y-71636739D01*
X162312064Y-71572665D01*
X162476282Y-71540000D01*
X162643718Y-71540000D01*
X162807936Y-71572665D01*
G37*
G36*
X160267936Y-71572665D02*
G01*
X160422627Y-71636739D01*
X160561845Y-71729762D01*
X160680238Y-71848155D01*
X160773261Y-71987373D01*
X160837335Y-72142064D01*
X160870000Y-72306282D01*
X160870000Y-72473718D01*
X160837335Y-72637936D01*
X160773261Y-72792627D01*
X160680238Y-72931845D01*
X160561845Y-73050238D01*
X160422627Y-73143261D01*
X160267936Y-73207335D01*
X160103718Y-73240000D01*
X159936282Y-73240000D01*
X159772064Y-73207335D01*
X159617373Y-73143261D01*
X159478155Y-73050238D01*
X159359762Y-72931845D01*
X159266739Y-72792627D01*
X159202665Y-72637936D01*
X159170000Y-72473718D01*
X159170000Y-72306282D01*
X159202665Y-72142064D01*
X159266739Y-71987373D01*
X159359762Y-71848155D01*
X159478155Y-71729762D01*
X159617373Y-71636739D01*
X159772064Y-71572665D01*
X159936282Y-71540000D01*
X160103718Y-71540000D01*
X160267936Y-71572665D01*
G37*
G36*
X160870000Y-70700000D02*
G01*
X159170000Y-70700000D01*
X159170000Y-69000000D01*
X160870000Y-69000000D01*
X160870000Y-70700000D01*
G37*
G36*
X163410000Y-70700000D02*
G01*
X161710000Y-70700000D01*
X161710000Y-69000000D01*
X163410000Y-69000000D01*
X163410000Y-70700000D01*
G37*
G36*
X162807936Y-65222665D02*
G01*
X162962627Y-65286739D01*
X163101845Y-65379762D01*
X163220238Y-65498155D01*
X163313261Y-65637373D01*
X163377335Y-65792064D01*
X163410000Y-65956282D01*
X163410000Y-66123718D01*
X163377335Y-66287936D01*
X163313261Y-66442627D01*
X163220238Y-66581845D01*
X163101845Y-66700238D01*
X162962627Y-66793261D01*
X162807936Y-66857335D01*
X162643718Y-66890000D01*
X162476282Y-66890000D01*
X162312064Y-66857335D01*
X162157373Y-66793261D01*
X162018155Y-66700238D01*
X161899762Y-66581845D01*
X161806739Y-66442627D01*
X161742665Y-66287936D01*
X161710000Y-66123718D01*
X161710000Y-65956282D01*
X161742665Y-65792064D01*
X161806739Y-65637373D01*
X161899762Y-65498155D01*
X162018155Y-65379762D01*
X162157373Y-65286739D01*
X162312064Y-65222665D01*
X162476282Y-65190000D01*
X162643718Y-65190000D01*
X162807936Y-65222665D01*
G37*
G36*
X160267936Y-65222665D02*
G01*
X160422627Y-65286739D01*
X160561845Y-65379762D01*
X160680238Y-65498155D01*
X160773261Y-65637373D01*
X160837335Y-65792064D01*
X160870000Y-65956282D01*
X160870000Y-66123718D01*
X160837335Y-66287936D01*
X160773261Y-66442627D01*
X160680238Y-66581845D01*
X160561845Y-66700238D01*
X160422627Y-66793261D01*
X160267936Y-66857335D01*
X160103718Y-66890000D01*
X159936282Y-66890000D01*
X159772064Y-66857335D01*
X159617373Y-66793261D01*
X159478155Y-66700238D01*
X159359762Y-66581845D01*
X159266739Y-66442627D01*
X159202665Y-66287936D01*
X159170000Y-66123718D01*
X159170000Y-65956282D01*
X159202665Y-65792064D01*
X159266739Y-65637373D01*
X159359762Y-65498155D01*
X159478155Y-65379762D01*
X159617373Y-65286739D01*
X159772064Y-65222665D01*
X159936282Y-65190000D01*
X160103718Y-65190000D01*
X160267936Y-65222665D01*
G37*
G36*
X162807936Y-62682665D02*
G01*
X162962627Y-62746739D01*
X163101845Y-62839762D01*
X163220238Y-62958155D01*
X163313261Y-63097373D01*
X163377335Y-63252064D01*
X163410000Y-63416282D01*
X163410000Y-63583718D01*
X163377335Y-63747936D01*
X163313261Y-63902627D01*
X163220238Y-64041845D01*
X163101845Y-64160238D01*
X162962627Y-64253261D01*
X162807936Y-64317335D01*
X162643718Y-64350000D01*
X162476282Y-64350000D01*
X162312064Y-64317335D01*
X162157373Y-64253261D01*
X162018155Y-64160238D01*
X161899762Y-64041845D01*
X161806739Y-63902627D01*
X161742665Y-63747936D01*
X161710000Y-63583718D01*
X161710000Y-63416282D01*
X161742665Y-63252064D01*
X161806739Y-63097373D01*
X161899762Y-62958155D01*
X162018155Y-62839762D01*
X162157373Y-62746739D01*
X162312064Y-62682665D01*
X162476282Y-62650000D01*
X162643718Y-62650000D01*
X162807936Y-62682665D01*
G37*
G36*
X160267936Y-62682665D02*
G01*
X160422627Y-62746739D01*
X160561845Y-62839762D01*
X160680238Y-62958155D01*
X160773261Y-63097373D01*
X160837335Y-63252064D01*
X160870000Y-63416282D01*
X160870000Y-63583718D01*
X160837335Y-63747936D01*
X160773261Y-63902627D01*
X160680238Y-64041845D01*
X160561845Y-64160238D01*
X160422627Y-64253261D01*
X160267936Y-64317335D01*
X160103718Y-64350000D01*
X159936282Y-64350000D01*
X159772064Y-64317335D01*
X159617373Y-64253261D01*
X159478155Y-64160238D01*
X159359762Y-64041845D01*
X159266739Y-63902627D01*
X159202665Y-63747936D01*
X159170000Y-63583718D01*
X159170000Y-63416282D01*
X159202665Y-63252064D01*
X159266739Y-63097373D01*
X159359762Y-62958155D01*
X159478155Y-62839762D01*
X159617373Y-62746739D01*
X159772064Y-62682665D01*
X159936282Y-62650000D01*
X160103718Y-62650000D01*
X160267936Y-62682665D01*
G37*
G36*
X160267936Y-60142665D02*
G01*
X160422627Y-60206739D01*
X160561845Y-60299762D01*
X160680238Y-60418155D01*
X160773261Y-60557373D01*
X160837335Y-60712064D01*
X160870000Y-60876282D01*
X160870000Y-61043718D01*
X160837335Y-61207936D01*
X160773261Y-61362627D01*
X160680238Y-61501845D01*
X160561845Y-61620238D01*
X160422627Y-61713261D01*
X160267936Y-61777335D01*
X160103718Y-61810000D01*
X159936282Y-61810000D01*
X159772064Y-61777335D01*
X159617373Y-61713261D01*
X159478155Y-61620238D01*
X159359762Y-61501845D01*
X159266739Y-61362627D01*
X159202665Y-61207936D01*
X159170000Y-61043718D01*
X159170000Y-60876282D01*
X159202665Y-60712064D01*
X159266739Y-60557373D01*
X159359762Y-60418155D01*
X159478155Y-60299762D01*
X159617373Y-60206739D01*
X159772064Y-60142665D01*
X159936282Y-60110000D01*
X160103718Y-60110000D01*
X160267936Y-60142665D01*
G37*
G36*
X162807936Y-60142665D02*
G01*
X162962627Y-60206739D01*
X163101845Y-60299762D01*
X163220238Y-60418155D01*
X163313261Y-60557373D01*
X163377335Y-60712064D01*
X163410000Y-60876282D01*
X163410000Y-61043718D01*
X163377335Y-61207936D01*
X163313261Y-61362627D01*
X163220238Y-61501845D01*
X163101845Y-61620238D01*
X162962627Y-61713261D01*
X162807936Y-61777335D01*
X162643718Y-61810000D01*
X162476282Y-61810000D01*
X162312064Y-61777335D01*
X162157373Y-61713261D01*
X162018155Y-61620238D01*
X161899762Y-61501845D01*
X161806739Y-61362627D01*
X161742665Y-61207936D01*
X161710000Y-61043718D01*
X161710000Y-60876282D01*
X161742665Y-60712064D01*
X161806739Y-60557373D01*
X161899762Y-60418155D01*
X162018155Y-60299762D01*
X162157373Y-60206739D01*
X162312064Y-60142665D01*
X162476282Y-60110000D01*
X162643718Y-60110000D01*
X162807936Y-60142665D01*
G37*
G36*
X160267936Y-57602665D02*
G01*
X160422627Y-57666739D01*
X160561845Y-57759762D01*
X160680238Y-57878155D01*
X160773261Y-58017373D01*
X160837335Y-58172064D01*
X160870000Y-58336282D01*
X160870000Y-58503718D01*
X160837335Y-58667936D01*
X160773261Y-58822627D01*
X160680238Y-58961845D01*
X160561845Y-59080238D01*
X160422627Y-59173261D01*
X160267936Y-59237335D01*
X160103718Y-59270000D01*
X159936282Y-59270000D01*
X159772064Y-59237335D01*
X159617373Y-59173261D01*
X159478155Y-59080238D01*
X159359762Y-58961845D01*
X159266739Y-58822627D01*
X159202665Y-58667936D01*
X159170000Y-58503718D01*
X159170000Y-58336282D01*
X159202665Y-58172064D01*
X159266739Y-58017373D01*
X159359762Y-57878155D01*
X159478155Y-57759762D01*
X159617373Y-57666739D01*
X159772064Y-57602665D01*
X159936282Y-57570000D01*
X160103718Y-57570000D01*
X160267936Y-57602665D01*
G37*
G36*
X162807936Y-57602665D02*
G01*
X162962627Y-57666739D01*
X163101845Y-57759762D01*
X163220238Y-57878155D01*
X163313261Y-58017373D01*
X163377335Y-58172064D01*
X163410000Y-58336282D01*
X163410000Y-58503718D01*
X163377335Y-58667936D01*
X163313261Y-58822627D01*
X163220238Y-58961845D01*
X163101845Y-59080238D01*
X162962627Y-59173261D01*
X162807936Y-59237335D01*
X162643718Y-59270000D01*
X162476282Y-59270000D01*
X162312064Y-59237335D01*
X162157373Y-59173261D01*
X162018155Y-59080238D01*
X161899762Y-58961845D01*
X161806739Y-58822627D01*
X161742665Y-58667936D01*
X161710000Y-58503718D01*
X161710000Y-58336282D01*
X161742665Y-58172064D01*
X161806739Y-58017373D01*
X161899762Y-57878155D01*
X162018155Y-57759762D01*
X162157373Y-57666739D01*
X162312064Y-57602665D01*
X162476282Y-57570000D01*
X162643718Y-57570000D01*
X162807936Y-57602665D01*
G37*
G36*
X94830000Y-58000000D02*
G01*
X93130000Y-58000000D01*
X93130000Y-56300000D01*
X94830000Y-56300000D01*
X94830000Y-58000000D01*
G37*
G36*
X97370000Y-58000000D02*
G01*
X95670000Y-58000000D01*
X95670000Y-56300000D01*
X97370000Y-56300000D01*
X97370000Y-58000000D01*
G37*
G36*
X92290000Y-58000000D02*
G01*
X90590000Y-58000000D01*
X90590000Y-56300000D01*
X92290000Y-56300000D01*
X92290000Y-58000000D01*
G37*
G36*
X99910000Y-58000000D02*
G01*
X98210000Y-58000000D01*
X98210000Y-56300000D01*
X99910000Y-56300000D01*
X99910000Y-58000000D01*
G37*
G36*
X160267936Y-55062665D02*
G01*
X160422627Y-55126739D01*
X160561845Y-55219762D01*
X160680238Y-55338155D01*
X160773261Y-55477373D01*
X160837335Y-55632064D01*
X160870000Y-55796282D01*
X160870000Y-55963718D01*
X160837335Y-56127936D01*
X160773261Y-56282627D01*
X160680238Y-56421845D01*
X160561845Y-56540238D01*
X160422627Y-56633261D01*
X160267936Y-56697335D01*
X160103718Y-56730000D01*
X159936282Y-56730000D01*
X159772064Y-56697335D01*
X159617373Y-56633261D01*
X159478155Y-56540238D01*
X159359762Y-56421845D01*
X159266739Y-56282627D01*
X159202665Y-56127936D01*
X159170000Y-55963718D01*
X159170000Y-55796282D01*
X159202665Y-55632064D01*
X159266739Y-55477373D01*
X159359762Y-55338155D01*
X159478155Y-55219762D01*
X159617373Y-55126739D01*
X159772064Y-55062665D01*
X159936282Y-55030000D01*
X160103718Y-55030000D01*
X160267936Y-55062665D01*
G37*
G36*
X162807936Y-55062665D02*
G01*
X162962627Y-55126739D01*
X163101845Y-55219762D01*
X163220238Y-55338155D01*
X163313261Y-55477373D01*
X163377335Y-55632064D01*
X163410000Y-55796282D01*
X163410000Y-55963718D01*
X163377335Y-56127936D01*
X163313261Y-56282627D01*
X163220238Y-56421845D01*
X163101845Y-56540238D01*
X162962627Y-56633261D01*
X162807936Y-56697335D01*
X162643718Y-56730000D01*
X162476282Y-56730000D01*
X162312064Y-56697335D01*
X162157373Y-56633261D01*
X162018155Y-56540238D01*
X161899762Y-56421845D01*
X161806739Y-56282627D01*
X161742665Y-56127936D01*
X161710000Y-55963718D01*
X161710000Y-55796282D01*
X161742665Y-55632064D01*
X161806739Y-55477373D01*
X161899762Y-55338155D01*
X162018155Y-55219762D01*
X162157373Y-55126739D01*
X162312064Y-55062665D01*
X162476282Y-55030000D01*
X162643718Y-55030000D01*
X162807936Y-55062665D01*
G37*
G36*
X94227936Y-53792665D02*
G01*
X94382627Y-53856739D01*
X94521845Y-53949762D01*
X94640238Y-54068155D01*
X94733261Y-54207373D01*
X94797335Y-54362064D01*
X94830000Y-54526282D01*
X94830000Y-54693718D01*
X94797335Y-54857936D01*
X94733261Y-55012627D01*
X94640238Y-55151845D01*
X94521845Y-55270238D01*
X94382627Y-55363261D01*
X94227936Y-55427335D01*
X94063718Y-55460000D01*
X93896282Y-55460000D01*
X93732064Y-55427335D01*
X93577373Y-55363261D01*
X93438155Y-55270238D01*
X93319762Y-55151845D01*
X93226739Y-55012627D01*
X93162665Y-54857936D01*
X93130000Y-54693718D01*
X93130000Y-54526282D01*
X93162665Y-54362064D01*
X93226739Y-54207373D01*
X93319762Y-54068155D01*
X93438155Y-53949762D01*
X93577373Y-53856739D01*
X93732064Y-53792665D01*
X93896282Y-53760000D01*
X94063718Y-53760000D01*
X94227936Y-53792665D01*
G37*
G36*
X91687936Y-53792665D02*
G01*
X91842627Y-53856739D01*
X91981845Y-53949762D01*
X92100238Y-54068155D01*
X92193261Y-54207373D01*
X92257335Y-54362064D01*
X92290000Y-54526282D01*
X92290000Y-54693718D01*
X92257335Y-54857936D01*
X92193261Y-55012627D01*
X92100238Y-55151845D01*
X91981845Y-55270238D01*
X91842627Y-55363261D01*
X91687936Y-55427335D01*
X91523718Y-55460000D01*
X91356282Y-55460000D01*
X91192064Y-55427335D01*
X91037373Y-55363261D01*
X90898155Y-55270238D01*
X90779762Y-55151845D01*
X90686739Y-55012627D01*
X90622665Y-54857936D01*
X90590000Y-54693718D01*
X90590000Y-54526282D01*
X90622665Y-54362064D01*
X90686739Y-54207373D01*
X90779762Y-54068155D01*
X90898155Y-53949762D01*
X91037373Y-53856739D01*
X91192064Y-53792665D01*
X91356282Y-53760000D01*
X91523718Y-53760000D01*
X91687936Y-53792665D01*
G37*
G36*
X96767936Y-53792665D02*
G01*
X96922627Y-53856739D01*
X97061845Y-53949762D01*
X97180238Y-54068155D01*
X97273261Y-54207373D01*
X97337335Y-54362064D01*
X97370000Y-54526282D01*
X97370000Y-54693718D01*
X97337335Y-54857936D01*
X97273261Y-55012627D01*
X97180238Y-55151845D01*
X97061845Y-55270238D01*
X96922627Y-55363261D01*
X96767936Y-55427335D01*
X96603718Y-55460000D01*
X96436282Y-55460000D01*
X96272064Y-55427335D01*
X96117373Y-55363261D01*
X95978155Y-55270238D01*
X95859762Y-55151845D01*
X95766739Y-55012627D01*
X95702665Y-54857936D01*
X95670000Y-54693718D01*
X95670000Y-54526282D01*
X95702665Y-54362064D01*
X95766739Y-54207373D01*
X95859762Y-54068155D01*
X95978155Y-53949762D01*
X96117373Y-53856739D01*
X96272064Y-53792665D01*
X96436282Y-53760000D01*
X96603718Y-53760000D01*
X96767936Y-53792665D01*
G37*
G36*
X99307936Y-53792665D02*
G01*
X99462627Y-53856739D01*
X99601845Y-53949762D01*
X99720238Y-54068155D01*
X99813261Y-54207373D01*
X99877335Y-54362064D01*
X99910000Y-54526282D01*
X99910000Y-54693718D01*
X99877335Y-54857936D01*
X99813261Y-55012627D01*
X99720238Y-55151845D01*
X99601845Y-55270238D01*
X99462627Y-55363261D01*
X99307936Y-55427335D01*
X99143718Y-55460000D01*
X98976282Y-55460000D01*
X98812064Y-55427335D01*
X98657373Y-55363261D01*
X98518155Y-55270238D01*
X98399762Y-55151845D01*
X98306739Y-55012627D01*
X98242665Y-54857936D01*
X98210000Y-54693718D01*
X98210000Y-54526282D01*
X98242665Y-54362064D01*
X98306739Y-54207373D01*
X98399762Y-54068155D01*
X98518155Y-53949762D01*
X98657373Y-53856739D01*
X98812064Y-53792665D01*
X98976282Y-53760000D01*
X99143718Y-53760000D01*
X99307936Y-53792665D01*
G37*
G36*
X102463600Y-54203600D02*
G01*
X100736400Y-54203600D01*
X100736400Y-52476400D01*
X102463600Y-52476400D01*
X102463600Y-54203600D01*
G37*
G36*
X157731903Y-52509587D02*
G01*
X157889068Y-52574687D01*
X158030513Y-52669198D01*
X158150802Y-52789487D01*
X158245313Y-52930932D01*
X158310413Y-53088097D01*
X158343600Y-53254943D01*
X158343600Y-53425057D01*
X158310413Y-53591903D01*
X158245313Y-53749068D01*
X158150802Y-53890513D01*
X158030513Y-54010802D01*
X157889068Y-54105313D01*
X157731903Y-54170413D01*
X157565057Y-54203600D01*
X157394943Y-54203600D01*
X157228097Y-54170413D01*
X157070932Y-54105313D01*
X156929487Y-54010802D01*
X156809198Y-53890513D01*
X156714687Y-53749068D01*
X156649587Y-53591903D01*
X156616400Y-53425057D01*
X156616400Y-53254943D01*
X156649587Y-53088097D01*
X156714687Y-52930932D01*
X156809198Y-52789487D01*
X156929487Y-52669198D01*
X157070932Y-52574687D01*
X157228097Y-52509587D01*
X157394943Y-52476400D01*
X157565057Y-52476400D01*
X157731903Y-52509587D01*
G37*
G36*
X106931903Y-52509587D02*
G01*
X107089068Y-52574687D01*
X107230513Y-52669198D01*
X107350802Y-52789487D01*
X107445313Y-52930932D01*
X107510413Y-53088097D01*
X107543600Y-53254943D01*
X107543600Y-53425057D01*
X107510413Y-53591903D01*
X107445313Y-53749068D01*
X107350802Y-53890513D01*
X107230513Y-54010802D01*
X107089068Y-54105313D01*
X106931903Y-54170413D01*
X106765057Y-54203600D01*
X106594943Y-54203600D01*
X106428097Y-54170413D01*
X106270932Y-54105313D01*
X106129487Y-54010802D01*
X106009198Y-53890513D01*
X105914687Y-53749068D01*
X105849587Y-53591903D01*
X105816400Y-53425057D01*
X105816400Y-53254943D01*
X105849587Y-53088097D01*
X105914687Y-52930932D01*
X106009198Y-52789487D01*
X106129487Y-52669198D01*
X106270932Y-52574687D01*
X106428097Y-52509587D01*
X106594943Y-52476400D01*
X106765057Y-52476400D01*
X106931903Y-52509587D01*
G37*
G36*
X109471903Y-52509587D02*
G01*
X109629068Y-52574687D01*
X109770513Y-52669198D01*
X109890802Y-52789487D01*
X109985313Y-52930932D01*
X110050413Y-53088097D01*
X110083600Y-53254943D01*
X110083600Y-53425057D01*
X110050413Y-53591903D01*
X109985313Y-53749068D01*
X109890802Y-53890513D01*
X109770513Y-54010802D01*
X109629068Y-54105313D01*
X109471903Y-54170413D01*
X109305057Y-54203600D01*
X109134943Y-54203600D01*
X108968097Y-54170413D01*
X108810932Y-54105313D01*
X108669487Y-54010802D01*
X108549198Y-53890513D01*
X108454687Y-53749068D01*
X108389587Y-53591903D01*
X108356400Y-53425057D01*
X108356400Y-53254943D01*
X108389587Y-53088097D01*
X108454687Y-52930932D01*
X108549198Y-52789487D01*
X108669487Y-52669198D01*
X108810932Y-52574687D01*
X108968097Y-52509587D01*
X109134943Y-52476400D01*
X109305057Y-52476400D01*
X109471903Y-52509587D01*
G37*
G36*
X112011903Y-52509587D02*
G01*
X112169068Y-52574687D01*
X112310513Y-52669198D01*
X112430802Y-52789487D01*
X112525313Y-52930932D01*
X112590413Y-53088097D01*
X112623600Y-53254943D01*
X112623600Y-53425057D01*
X112590413Y-53591903D01*
X112525313Y-53749068D01*
X112430802Y-53890513D01*
X112310513Y-54010802D01*
X112169068Y-54105313D01*
X112011903Y-54170413D01*
X111845057Y-54203600D01*
X111674943Y-54203600D01*
X111508097Y-54170413D01*
X111350932Y-54105313D01*
X111209487Y-54010802D01*
X111089198Y-53890513D01*
X110994687Y-53749068D01*
X110929587Y-53591903D01*
X110896400Y-53425057D01*
X110896400Y-53254943D01*
X110929587Y-53088097D01*
X110994687Y-52930932D01*
X111089198Y-52789487D01*
X111209487Y-52669198D01*
X111350932Y-52574687D01*
X111508097Y-52509587D01*
X111674943Y-52476400D01*
X111845057Y-52476400D01*
X112011903Y-52509587D01*
G37*
G36*
X114551903Y-52509587D02*
G01*
X114709068Y-52574687D01*
X114850513Y-52669198D01*
X114970802Y-52789487D01*
X115065313Y-52930932D01*
X115130413Y-53088097D01*
X115163600Y-53254943D01*
X115163600Y-53425057D01*
X115130413Y-53591903D01*
X115065313Y-53749068D01*
X114970802Y-53890513D01*
X114850513Y-54010802D01*
X114709068Y-54105313D01*
X114551903Y-54170413D01*
X114385057Y-54203600D01*
X114214943Y-54203600D01*
X114048097Y-54170413D01*
X113890932Y-54105313D01*
X113749487Y-54010802D01*
X113629198Y-53890513D01*
X113534687Y-53749068D01*
X113469587Y-53591903D01*
X113436400Y-53425057D01*
X113436400Y-53254943D01*
X113469587Y-53088097D01*
X113534687Y-52930932D01*
X113629198Y-52789487D01*
X113749487Y-52669198D01*
X113890932Y-52574687D01*
X114048097Y-52509587D01*
X114214943Y-52476400D01*
X114385057Y-52476400D01*
X114551903Y-52509587D01*
G37*
G36*
X117091903Y-52509587D02*
G01*
X117249068Y-52574687D01*
X117390513Y-52669198D01*
X117510802Y-52789487D01*
X117605313Y-52930932D01*
X117670413Y-53088097D01*
X117703600Y-53254943D01*
X117703600Y-53425057D01*
X117670413Y-53591903D01*
X117605313Y-53749068D01*
X117510802Y-53890513D01*
X117390513Y-54010802D01*
X117249068Y-54105313D01*
X117091903Y-54170413D01*
X116925057Y-54203600D01*
X116754943Y-54203600D01*
X116588097Y-54170413D01*
X116430932Y-54105313D01*
X116289487Y-54010802D01*
X116169198Y-53890513D01*
X116074687Y-53749068D01*
X116009587Y-53591903D01*
X115976400Y-53425057D01*
X115976400Y-53254943D01*
X116009587Y-53088097D01*
X116074687Y-52930932D01*
X116169198Y-52789487D01*
X116289487Y-52669198D01*
X116430932Y-52574687D01*
X116588097Y-52509587D01*
X116754943Y-52476400D01*
X116925057Y-52476400D01*
X117091903Y-52509587D01*
G37*
G36*
X119631903Y-52509587D02*
G01*
X119789068Y-52574687D01*
X119930513Y-52669198D01*
X120050802Y-52789487D01*
X120145313Y-52930932D01*
X120210413Y-53088097D01*
X120243600Y-53254943D01*
X120243600Y-53425057D01*
X120210413Y-53591903D01*
X120145313Y-53749068D01*
X120050802Y-53890513D01*
X119930513Y-54010802D01*
X119789068Y-54105313D01*
X119631903Y-54170413D01*
X119465057Y-54203600D01*
X119294943Y-54203600D01*
X119128097Y-54170413D01*
X118970932Y-54105313D01*
X118829487Y-54010802D01*
X118709198Y-53890513D01*
X118614687Y-53749068D01*
X118549587Y-53591903D01*
X118516400Y-53425057D01*
X118516400Y-53254943D01*
X118549587Y-53088097D01*
X118614687Y-52930932D01*
X118709198Y-52789487D01*
X118829487Y-52669198D01*
X118970932Y-52574687D01*
X119128097Y-52509587D01*
X119294943Y-52476400D01*
X119465057Y-52476400D01*
X119631903Y-52509587D01*
G37*
G36*
X122171903Y-52509587D02*
G01*
X122329068Y-52574687D01*
X122470513Y-52669198D01*
X122590802Y-52789487D01*
X122685313Y-52930932D01*
X122750413Y-53088097D01*
X122783600Y-53254943D01*
X122783600Y-53425057D01*
X122750413Y-53591903D01*
X122685313Y-53749068D01*
X122590802Y-53890513D01*
X122470513Y-54010802D01*
X122329068Y-54105313D01*
X122171903Y-54170413D01*
X122005057Y-54203600D01*
X121834943Y-54203600D01*
X121668097Y-54170413D01*
X121510932Y-54105313D01*
X121369487Y-54010802D01*
X121249198Y-53890513D01*
X121154687Y-53749068D01*
X121089587Y-53591903D01*
X121056400Y-53425057D01*
X121056400Y-53254943D01*
X121089587Y-53088097D01*
X121154687Y-52930932D01*
X121249198Y-52789487D01*
X121369487Y-52669198D01*
X121510932Y-52574687D01*
X121668097Y-52509587D01*
X121834943Y-52476400D01*
X122005057Y-52476400D01*
X122171903Y-52509587D01*
G37*
G36*
X104391903Y-52509587D02*
G01*
X104549068Y-52574687D01*
X104690513Y-52669198D01*
X104810802Y-52789487D01*
X104905313Y-52930932D01*
X104970413Y-53088097D01*
X105003600Y-53254943D01*
X105003600Y-53425057D01*
X104970413Y-53591903D01*
X104905313Y-53749068D01*
X104810802Y-53890513D01*
X104690513Y-54010802D01*
X104549068Y-54105313D01*
X104391903Y-54170413D01*
X104225057Y-54203600D01*
X104054943Y-54203600D01*
X103888097Y-54170413D01*
X103730932Y-54105313D01*
X103589487Y-54010802D01*
X103469198Y-53890513D01*
X103374687Y-53749068D01*
X103309587Y-53591903D01*
X103276400Y-53425057D01*
X103276400Y-53254943D01*
X103309587Y-53088097D01*
X103374687Y-52930932D01*
X103469198Y-52789487D01*
X103589487Y-52669198D01*
X103730932Y-52574687D01*
X103888097Y-52509587D01*
X104054943Y-52476400D01*
X104225057Y-52476400D01*
X104391903Y-52509587D01*
G37*
G36*
X129791903Y-52509587D02*
G01*
X129949068Y-52574687D01*
X130090513Y-52669198D01*
X130210802Y-52789487D01*
X130305313Y-52930932D01*
X130370413Y-53088097D01*
X130403600Y-53254943D01*
X130403600Y-53425057D01*
X130370413Y-53591903D01*
X130305313Y-53749068D01*
X130210802Y-53890513D01*
X130090513Y-54010802D01*
X129949068Y-54105313D01*
X129791903Y-54170413D01*
X129625057Y-54203600D01*
X129454943Y-54203600D01*
X129288097Y-54170413D01*
X129130932Y-54105313D01*
X128989487Y-54010802D01*
X128869198Y-53890513D01*
X128774687Y-53749068D01*
X128709587Y-53591903D01*
X128676400Y-53425057D01*
X128676400Y-53254943D01*
X128709587Y-53088097D01*
X128774687Y-52930932D01*
X128869198Y-52789487D01*
X128989487Y-52669198D01*
X129130932Y-52574687D01*
X129288097Y-52509587D01*
X129454943Y-52476400D01*
X129625057Y-52476400D01*
X129791903Y-52509587D01*
G37*
G36*
X152651903Y-52509587D02*
G01*
X152809068Y-52574687D01*
X152950513Y-52669198D01*
X153070802Y-52789487D01*
X153165313Y-52930932D01*
X153230413Y-53088097D01*
X153263600Y-53254943D01*
X153263600Y-53425057D01*
X153230413Y-53591903D01*
X153165313Y-53749068D01*
X153070802Y-53890513D01*
X152950513Y-54010802D01*
X152809068Y-54105313D01*
X152651903Y-54170413D01*
X152485057Y-54203600D01*
X152314943Y-54203600D01*
X152148097Y-54170413D01*
X151990932Y-54105313D01*
X151849487Y-54010802D01*
X151729198Y-53890513D01*
X151634687Y-53749068D01*
X151569587Y-53591903D01*
X151536400Y-53425057D01*
X151536400Y-53254943D01*
X151569587Y-53088097D01*
X151634687Y-52930932D01*
X151729198Y-52789487D01*
X151849487Y-52669198D01*
X151990932Y-52574687D01*
X152148097Y-52509587D01*
X152314943Y-52476400D01*
X152485057Y-52476400D01*
X152651903Y-52509587D01*
G37*
G36*
X150111903Y-52509587D02*
G01*
X150269068Y-52574687D01*
X150410513Y-52669198D01*
X150530802Y-52789487D01*
X150625313Y-52930932D01*
X150690413Y-53088097D01*
X150723600Y-53254943D01*
X150723600Y-53425057D01*
X150690413Y-53591903D01*
X150625313Y-53749068D01*
X150530802Y-53890513D01*
X150410513Y-54010802D01*
X150269068Y-54105313D01*
X150111903Y-54170413D01*
X149945057Y-54203600D01*
X149774943Y-54203600D01*
X149608097Y-54170413D01*
X149450932Y-54105313D01*
X149309487Y-54010802D01*
X149189198Y-53890513D01*
X149094687Y-53749068D01*
X149029587Y-53591903D01*
X148996400Y-53425057D01*
X148996400Y-53254943D01*
X149029587Y-53088097D01*
X149094687Y-52930932D01*
X149189198Y-52789487D01*
X149309487Y-52669198D01*
X149450932Y-52574687D01*
X149608097Y-52509587D01*
X149774943Y-52476400D01*
X149945057Y-52476400D01*
X150111903Y-52509587D01*
G37*
G36*
X147571903Y-52509587D02*
G01*
X147729068Y-52574687D01*
X147870513Y-52669198D01*
X147990802Y-52789487D01*
X148085313Y-52930932D01*
X148150413Y-53088097D01*
X148183600Y-53254943D01*
X148183600Y-53425057D01*
X148150413Y-53591903D01*
X148085313Y-53749068D01*
X147990802Y-53890513D01*
X147870513Y-54010802D01*
X147729068Y-54105313D01*
X147571903Y-54170413D01*
X147405057Y-54203600D01*
X147234943Y-54203600D01*
X147068097Y-54170413D01*
X146910932Y-54105313D01*
X146769487Y-54010802D01*
X146649198Y-53890513D01*
X146554687Y-53749068D01*
X146489587Y-53591903D01*
X146456400Y-53425057D01*
X146456400Y-53254943D01*
X146489587Y-53088097D01*
X146554687Y-52930932D01*
X146649198Y-52789487D01*
X146769487Y-52669198D01*
X146910932Y-52574687D01*
X147068097Y-52509587D01*
X147234943Y-52476400D01*
X147405057Y-52476400D01*
X147571903Y-52509587D01*
G37*
G36*
X145031903Y-52509587D02*
G01*
X145189068Y-52574687D01*
X145330513Y-52669198D01*
X145450802Y-52789487D01*
X145545313Y-52930932D01*
X145610413Y-53088097D01*
X145643600Y-53254943D01*
X145643600Y-53425057D01*
X145610413Y-53591903D01*
X145545313Y-53749068D01*
X145450802Y-53890513D01*
X145330513Y-54010802D01*
X145189068Y-54105313D01*
X145031903Y-54170413D01*
X144865057Y-54203600D01*
X144694943Y-54203600D01*
X144528097Y-54170413D01*
X144370932Y-54105313D01*
X144229487Y-54010802D01*
X144109198Y-53890513D01*
X144014687Y-53749068D01*
X143949587Y-53591903D01*
X143916400Y-53425057D01*
X143916400Y-53254943D01*
X143949587Y-53088097D01*
X144014687Y-52930932D01*
X144109198Y-52789487D01*
X144229487Y-52669198D01*
X144370932Y-52574687D01*
X144528097Y-52509587D01*
X144694943Y-52476400D01*
X144865057Y-52476400D01*
X145031903Y-52509587D01*
G37*
G36*
X142491903Y-52509587D02*
G01*
X142649068Y-52574687D01*
X142790513Y-52669198D01*
X142910802Y-52789487D01*
X143005313Y-52930932D01*
X143070413Y-53088097D01*
X143103600Y-53254943D01*
X143103600Y-53425057D01*
X143070413Y-53591903D01*
X143005313Y-53749068D01*
X142910802Y-53890513D01*
X142790513Y-54010802D01*
X142649068Y-54105313D01*
X142491903Y-54170413D01*
X142325057Y-54203600D01*
X142154943Y-54203600D01*
X141988097Y-54170413D01*
X141830932Y-54105313D01*
X141689487Y-54010802D01*
X141569198Y-53890513D01*
X141474687Y-53749068D01*
X141409587Y-53591903D01*
X141376400Y-53425057D01*
X141376400Y-53254943D01*
X141409587Y-53088097D01*
X141474687Y-52930932D01*
X141569198Y-52789487D01*
X141689487Y-52669198D01*
X141830932Y-52574687D01*
X141988097Y-52509587D01*
X142154943Y-52476400D01*
X142325057Y-52476400D01*
X142491903Y-52509587D01*
G37*
G36*
X139951903Y-52509587D02*
G01*
X140109068Y-52574687D01*
X140250513Y-52669198D01*
X140370802Y-52789487D01*
X140465313Y-52930932D01*
X140530413Y-53088097D01*
X140563600Y-53254943D01*
X140563600Y-53425057D01*
X140530413Y-53591903D01*
X140465313Y-53749068D01*
X140370802Y-53890513D01*
X140250513Y-54010802D01*
X140109068Y-54105313D01*
X139951903Y-54170413D01*
X139785057Y-54203600D01*
X139614943Y-54203600D01*
X139448097Y-54170413D01*
X139290932Y-54105313D01*
X139149487Y-54010802D01*
X139029198Y-53890513D01*
X138934687Y-53749068D01*
X138869587Y-53591903D01*
X138836400Y-53425057D01*
X138836400Y-53254943D01*
X138869587Y-53088097D01*
X138934687Y-52930932D01*
X139029198Y-52789487D01*
X139149487Y-52669198D01*
X139290932Y-52574687D01*
X139448097Y-52509587D01*
X139614943Y-52476400D01*
X139785057Y-52476400D01*
X139951903Y-52509587D01*
G37*
G36*
X137411903Y-52509587D02*
G01*
X137569068Y-52574687D01*
X137710513Y-52669198D01*
X137830802Y-52789487D01*
X137925313Y-52930932D01*
X137990413Y-53088097D01*
X138023600Y-53254943D01*
X138023600Y-53425057D01*
X137990413Y-53591903D01*
X137925313Y-53749068D01*
X137830802Y-53890513D01*
X137710513Y-54010802D01*
X137569068Y-54105313D01*
X137411903Y-54170413D01*
X137245057Y-54203600D01*
X137074943Y-54203600D01*
X136908097Y-54170413D01*
X136750932Y-54105313D01*
X136609487Y-54010802D01*
X136489198Y-53890513D01*
X136394687Y-53749068D01*
X136329587Y-53591903D01*
X136296400Y-53425057D01*
X136296400Y-53254943D01*
X136329587Y-53088097D01*
X136394687Y-52930932D01*
X136489198Y-52789487D01*
X136609487Y-52669198D01*
X136750932Y-52574687D01*
X136908097Y-52509587D01*
X137074943Y-52476400D01*
X137245057Y-52476400D01*
X137411903Y-52509587D01*
G37*
G36*
X134871903Y-52509587D02*
G01*
X135029068Y-52574687D01*
X135170513Y-52669198D01*
X135290802Y-52789487D01*
X135385313Y-52930932D01*
X135450413Y-53088097D01*
X135483600Y-53254943D01*
X135483600Y-53425057D01*
X135450413Y-53591903D01*
X135385313Y-53749068D01*
X135290802Y-53890513D01*
X135170513Y-54010802D01*
X135029068Y-54105313D01*
X134871903Y-54170413D01*
X134705057Y-54203600D01*
X134534943Y-54203600D01*
X134368097Y-54170413D01*
X134210932Y-54105313D01*
X134069487Y-54010802D01*
X133949198Y-53890513D01*
X133854687Y-53749068D01*
X133789587Y-53591903D01*
X133756400Y-53425057D01*
X133756400Y-53254943D01*
X133789587Y-53088097D01*
X133854687Y-52930932D01*
X133949198Y-52789487D01*
X134069487Y-52669198D01*
X134210932Y-52574687D01*
X134368097Y-52509587D01*
X134534943Y-52476400D01*
X134705057Y-52476400D01*
X134871903Y-52509587D01*
G37*
G36*
X132331903Y-52509587D02*
G01*
X132489068Y-52574687D01*
X132630513Y-52669198D01*
X132750802Y-52789487D01*
X132845313Y-52930932D01*
X132910413Y-53088097D01*
X132943600Y-53254943D01*
X132943600Y-53425057D01*
X132910413Y-53591903D01*
X132845313Y-53749068D01*
X132750802Y-53890513D01*
X132630513Y-54010802D01*
X132489068Y-54105313D01*
X132331903Y-54170413D01*
X132165057Y-54203600D01*
X131994943Y-54203600D01*
X131828097Y-54170413D01*
X131670932Y-54105313D01*
X131529487Y-54010802D01*
X131409198Y-53890513D01*
X131314687Y-53749068D01*
X131249587Y-53591903D01*
X131216400Y-53425057D01*
X131216400Y-53254943D01*
X131249587Y-53088097D01*
X131314687Y-52930932D01*
X131409198Y-52789487D01*
X131529487Y-52669198D01*
X131670932Y-52574687D01*
X131828097Y-52509587D01*
X131994943Y-52476400D01*
X132165057Y-52476400D01*
X132331903Y-52509587D01*
G37*
G36*
X127251903Y-52509587D02*
G01*
X127409068Y-52574687D01*
X127550513Y-52669198D01*
X127670802Y-52789487D01*
X127765313Y-52930932D01*
X127830413Y-53088097D01*
X127863600Y-53254943D01*
X127863600Y-53425057D01*
X127830413Y-53591903D01*
X127765313Y-53749068D01*
X127670802Y-53890513D01*
X127550513Y-54010802D01*
X127409068Y-54105313D01*
X127251903Y-54170413D01*
X127085057Y-54203600D01*
X126914943Y-54203600D01*
X126748097Y-54170413D01*
X126590932Y-54105313D01*
X126449487Y-54010802D01*
X126329198Y-53890513D01*
X126234687Y-53749068D01*
X126169587Y-53591903D01*
X126136400Y-53425057D01*
X126136400Y-53254943D01*
X126169587Y-53088097D01*
X126234687Y-52930932D01*
X126329198Y-52789487D01*
X126449487Y-52669198D01*
X126590932Y-52574687D01*
X126748097Y-52509587D01*
X126914943Y-52476400D01*
X127085057Y-52476400D01*
X127251903Y-52509587D01*
G37*
G36*
X124711903Y-52509587D02*
G01*
X124869068Y-52574687D01*
X125010513Y-52669198D01*
X125130802Y-52789487D01*
X125225313Y-52930932D01*
X125290413Y-53088097D01*
X125323600Y-53254943D01*
X125323600Y-53425057D01*
X125290413Y-53591903D01*
X125225313Y-53749068D01*
X125130802Y-53890513D01*
X125010513Y-54010802D01*
X124869068Y-54105313D01*
X124711903Y-54170413D01*
X124545057Y-54203600D01*
X124374943Y-54203600D01*
X124208097Y-54170413D01*
X124050932Y-54105313D01*
X123909487Y-54010802D01*
X123789198Y-53890513D01*
X123694687Y-53749068D01*
X123629587Y-53591903D01*
X123596400Y-53425057D01*
X123596400Y-53254943D01*
X123629587Y-53088097D01*
X123694687Y-52930932D01*
X123789198Y-52789487D01*
X123909487Y-52669198D01*
X124050932Y-52574687D01*
X124208097Y-52509587D01*
X124374943Y-52476400D01*
X124545057Y-52476400D01*
X124711903Y-52509587D01*
G37*
G36*
X155191903Y-52509587D02*
G01*
X155349068Y-52574687D01*
X155490513Y-52669198D01*
X155610802Y-52789487D01*
X155705313Y-52930932D01*
X155770413Y-53088097D01*
X155803600Y-53254943D01*
X155803600Y-53425057D01*
X155770413Y-53591903D01*
X155705313Y-53749068D01*
X155610802Y-53890513D01*
X155490513Y-54010802D01*
X155349068Y-54105313D01*
X155191903Y-54170413D01*
X155025057Y-54203600D01*
X154854943Y-54203600D01*
X154688097Y-54170413D01*
X154530932Y-54105313D01*
X154389487Y-54010802D01*
X154269198Y-53890513D01*
X154174687Y-53749068D01*
X154109587Y-53591903D01*
X154076400Y-53425057D01*
X154076400Y-53254943D01*
X154109587Y-53088097D01*
X154174687Y-52930932D01*
X154269198Y-52789487D01*
X154389487Y-52669198D01*
X154530932Y-52574687D01*
X154688097Y-52509587D01*
X154854943Y-52476400D01*
X155025057Y-52476400D01*
X155191903Y-52509587D01*
G37*
G36*
X163410000Y-54190000D02*
G01*
X161710000Y-54190000D01*
X161710000Y-52490000D01*
X163410000Y-52490000D01*
X163410000Y-54190000D01*
G37*
G36*
X160870000Y-54190000D02*
G01*
X159170000Y-54190000D01*
X159170000Y-52490000D01*
X160870000Y-52490000D01*
X160870000Y-54190000D01*
G37*
G36*
X91687936Y-51252665D02*
G01*
X91842627Y-51316739D01*
X91981845Y-51409762D01*
X92100238Y-51528155D01*
X92193261Y-51667373D01*
X92257335Y-51822064D01*
X92290000Y-51986282D01*
X92290000Y-52153718D01*
X92257335Y-52317936D01*
X92193261Y-52472627D01*
X92100238Y-52611845D01*
X91981845Y-52730238D01*
X91842627Y-52823261D01*
X91687936Y-52887335D01*
X91523718Y-52920000D01*
X91356282Y-52920000D01*
X91192064Y-52887335D01*
X91037373Y-52823261D01*
X90898155Y-52730238D01*
X90779762Y-52611845D01*
X90686739Y-52472627D01*
X90622665Y-52317936D01*
X90590000Y-52153718D01*
X90590000Y-51986282D01*
X90622665Y-51822064D01*
X90686739Y-51667373D01*
X90779762Y-51528155D01*
X90898155Y-51409762D01*
X91037373Y-51316739D01*
X91192064Y-51252665D01*
X91356282Y-51220000D01*
X91523718Y-51220000D01*
X91687936Y-51252665D01*
G37*
G36*
X96767936Y-51252665D02*
G01*
X96922627Y-51316739D01*
X97061845Y-51409762D01*
X97180238Y-51528155D01*
X97273261Y-51667373D01*
X97337335Y-51822064D01*
X97370000Y-51986282D01*
X97370000Y-52153718D01*
X97337335Y-52317936D01*
X97273261Y-52472627D01*
X97180238Y-52611845D01*
X97061845Y-52730238D01*
X96922627Y-52823261D01*
X96767936Y-52887335D01*
X96603718Y-52920000D01*
X96436282Y-52920000D01*
X96272064Y-52887335D01*
X96117373Y-52823261D01*
X95978155Y-52730238D01*
X95859762Y-52611845D01*
X95766739Y-52472627D01*
X95702665Y-52317936D01*
X95670000Y-52153718D01*
X95670000Y-51986282D01*
X95702665Y-51822064D01*
X95766739Y-51667373D01*
X95859762Y-51528155D01*
X95978155Y-51409762D01*
X96117373Y-51316739D01*
X96272064Y-51252665D01*
X96436282Y-51220000D01*
X96603718Y-51220000D01*
X96767936Y-51252665D01*
G37*
G36*
X99307936Y-51252665D02*
G01*
X99462627Y-51316739D01*
X99601845Y-51409762D01*
X99720238Y-51528155D01*
X99813261Y-51667373D01*
X99877335Y-51822064D01*
X99910000Y-51986282D01*
X99910000Y-52153718D01*
X99877335Y-52317936D01*
X99813261Y-52472627D01*
X99720238Y-52611845D01*
X99601845Y-52730238D01*
X99462627Y-52823261D01*
X99307936Y-52887335D01*
X99143718Y-52920000D01*
X98976282Y-52920000D01*
X98812064Y-52887335D01*
X98657373Y-52823261D01*
X98518155Y-52730238D01*
X98399762Y-52611845D01*
X98306739Y-52472627D01*
X98242665Y-52317936D01*
X98210000Y-52153718D01*
X98210000Y-51986282D01*
X98242665Y-51822064D01*
X98306739Y-51667373D01*
X98399762Y-51528155D01*
X98518155Y-51409762D01*
X98657373Y-51316739D01*
X98812064Y-51252665D01*
X98976282Y-51220000D01*
X99143718Y-51220000D01*
X99307936Y-51252665D01*
G37*
G36*
X94227936Y-51252665D02*
G01*
X94382627Y-51316739D01*
X94521845Y-51409762D01*
X94640238Y-51528155D01*
X94733261Y-51667373D01*
X94797335Y-51822064D01*
X94830000Y-51986282D01*
X94830000Y-52153718D01*
X94797335Y-52317936D01*
X94733261Y-52472627D01*
X94640238Y-52611845D01*
X94521845Y-52730238D01*
X94382627Y-52823261D01*
X94227936Y-52887335D01*
X94063718Y-52920000D01*
X93896282Y-52920000D01*
X93732064Y-52887335D01*
X93577373Y-52823261D01*
X93438155Y-52730238D01*
X93319762Y-52611845D01*
X93226739Y-52472627D01*
X93162665Y-52317936D01*
X93130000Y-52153718D01*
X93130000Y-51986282D01*
X93162665Y-51822064D01*
X93226739Y-51667373D01*
X93319762Y-51528155D01*
X93438155Y-51409762D01*
X93577373Y-51316739D01*
X93732064Y-51252665D01*
X93896282Y-51220000D01*
X94063718Y-51220000D01*
X94227936Y-51252665D01*
G37*
G36*
X147571903Y-49969587D02*
G01*
X147729068Y-50034687D01*
X147870513Y-50129198D01*
X147990802Y-50249487D01*
X148085313Y-50390932D01*
X148150413Y-50548097D01*
X148183600Y-50714943D01*
X148183600Y-50885057D01*
X148150413Y-51051903D01*
X148085313Y-51209068D01*
X147990802Y-51350513D01*
X147870513Y-51470802D01*
X147729068Y-51565313D01*
X147571903Y-51630413D01*
X147405057Y-51663600D01*
X147234943Y-51663600D01*
X147068097Y-51630413D01*
X146910932Y-51565313D01*
X146769487Y-51470802D01*
X146649198Y-51350513D01*
X146554687Y-51209068D01*
X146489587Y-51051903D01*
X146456400Y-50885057D01*
X146456400Y-50714943D01*
X146489587Y-50548097D01*
X146554687Y-50390932D01*
X146649198Y-50249487D01*
X146769487Y-50129198D01*
X146910932Y-50034687D01*
X147068097Y-49969587D01*
X147234943Y-49936400D01*
X147405057Y-49936400D01*
X147571903Y-49969587D01*
G37*
G36*
X152651903Y-49969587D02*
G01*
X152809068Y-50034687D01*
X152950513Y-50129198D01*
X153070802Y-50249487D01*
X153165313Y-50390932D01*
X153230413Y-50548097D01*
X153263600Y-50714943D01*
X153263600Y-50885057D01*
X153230413Y-51051903D01*
X153165313Y-51209068D01*
X153070802Y-51350513D01*
X152950513Y-51470802D01*
X152809068Y-51565313D01*
X152651903Y-51630413D01*
X152485057Y-51663600D01*
X152314943Y-51663600D01*
X152148097Y-51630413D01*
X151990932Y-51565313D01*
X151849487Y-51470802D01*
X151729198Y-51350513D01*
X151634687Y-51209068D01*
X151569587Y-51051903D01*
X151536400Y-50885057D01*
X151536400Y-50714943D01*
X151569587Y-50548097D01*
X151634687Y-50390932D01*
X151729198Y-50249487D01*
X151849487Y-50129198D01*
X151990932Y-50034687D01*
X152148097Y-49969587D01*
X152314943Y-49936400D01*
X152485057Y-49936400D01*
X152651903Y-49969587D01*
G37*
G36*
X150111903Y-49969587D02*
G01*
X150269068Y-50034687D01*
X150410513Y-50129198D01*
X150530802Y-50249487D01*
X150625313Y-50390932D01*
X150690413Y-50548097D01*
X150723600Y-50714943D01*
X150723600Y-50885057D01*
X150690413Y-51051903D01*
X150625313Y-51209068D01*
X150530802Y-51350513D01*
X150410513Y-51470802D01*
X150269068Y-51565313D01*
X150111903Y-51630413D01*
X149945057Y-51663600D01*
X149774943Y-51663600D01*
X149608097Y-51630413D01*
X149450932Y-51565313D01*
X149309487Y-51470802D01*
X149189198Y-51350513D01*
X149094687Y-51209068D01*
X149029587Y-51051903D01*
X148996400Y-50885057D01*
X148996400Y-50714943D01*
X149029587Y-50548097D01*
X149094687Y-50390932D01*
X149189198Y-50249487D01*
X149309487Y-50129198D01*
X149450932Y-50034687D01*
X149608097Y-49969587D01*
X149774943Y-49936400D01*
X149945057Y-49936400D01*
X150111903Y-49969587D01*
G37*
G36*
X112011903Y-49969587D02*
G01*
X112169068Y-50034687D01*
X112310513Y-50129198D01*
X112430802Y-50249487D01*
X112525313Y-50390932D01*
X112590413Y-50548097D01*
X112623600Y-50714943D01*
X112623600Y-50885057D01*
X112590413Y-51051903D01*
X112525313Y-51209068D01*
X112430802Y-51350513D01*
X112310513Y-51470802D01*
X112169068Y-51565313D01*
X112011903Y-51630413D01*
X111845057Y-51663600D01*
X111674943Y-51663600D01*
X111508097Y-51630413D01*
X111350932Y-51565313D01*
X111209487Y-51470802D01*
X111089198Y-51350513D01*
X110994687Y-51209068D01*
X110929587Y-51051903D01*
X110896400Y-50885057D01*
X110896400Y-50714943D01*
X110929587Y-50548097D01*
X110994687Y-50390932D01*
X111089198Y-50249487D01*
X111209487Y-50129198D01*
X111350932Y-50034687D01*
X111508097Y-49969587D01*
X111674943Y-49936400D01*
X111845057Y-49936400D01*
X112011903Y-49969587D01*
G37*
G36*
X109471903Y-49969587D02*
G01*
X109629068Y-50034687D01*
X109770513Y-50129198D01*
X109890802Y-50249487D01*
X109985313Y-50390932D01*
X110050413Y-50548097D01*
X110083600Y-50714943D01*
X110083600Y-50885057D01*
X110050413Y-51051903D01*
X109985313Y-51209068D01*
X109890802Y-51350513D01*
X109770513Y-51470802D01*
X109629068Y-51565313D01*
X109471903Y-51630413D01*
X109305057Y-51663600D01*
X109134943Y-51663600D01*
X108968097Y-51630413D01*
X108810932Y-51565313D01*
X108669487Y-51470802D01*
X108549198Y-51350513D01*
X108454687Y-51209068D01*
X108389587Y-51051903D01*
X108356400Y-50885057D01*
X108356400Y-50714943D01*
X108389587Y-50548097D01*
X108454687Y-50390932D01*
X108549198Y-50249487D01*
X108669487Y-50129198D01*
X108810932Y-50034687D01*
X108968097Y-49969587D01*
X109134943Y-49936400D01*
X109305057Y-49936400D01*
X109471903Y-49969587D01*
G37*
G36*
X114551903Y-49969587D02*
G01*
X114709068Y-50034687D01*
X114850513Y-50129198D01*
X114970802Y-50249487D01*
X115065313Y-50390932D01*
X115130413Y-50548097D01*
X115163600Y-50714943D01*
X115163600Y-50885057D01*
X115130413Y-51051903D01*
X115065313Y-51209068D01*
X114970802Y-51350513D01*
X114850513Y-51470802D01*
X114709068Y-51565313D01*
X114551903Y-51630413D01*
X114385057Y-51663600D01*
X114214943Y-51663600D01*
X114048097Y-51630413D01*
X113890932Y-51565313D01*
X113749487Y-51470802D01*
X113629198Y-51350513D01*
X113534687Y-51209068D01*
X113469587Y-51051903D01*
X113436400Y-50885057D01*
X113436400Y-50714943D01*
X113469587Y-50548097D01*
X113534687Y-50390932D01*
X113629198Y-50249487D01*
X113749487Y-50129198D01*
X113890932Y-50034687D01*
X114048097Y-49969587D01*
X114214943Y-49936400D01*
X114385057Y-49936400D01*
X114551903Y-49969587D01*
G37*
G36*
X106931903Y-49969587D02*
G01*
X107089068Y-50034687D01*
X107230513Y-50129198D01*
X107350802Y-50249487D01*
X107445313Y-50390932D01*
X107510413Y-50548097D01*
X107543600Y-50714943D01*
X107543600Y-50885057D01*
X107510413Y-51051903D01*
X107445313Y-51209068D01*
X107350802Y-51350513D01*
X107230513Y-51470802D01*
X107089068Y-51565313D01*
X106931903Y-51630413D01*
X106765057Y-51663600D01*
X106594943Y-51663600D01*
X106428097Y-51630413D01*
X106270932Y-51565313D01*
X106129487Y-51470802D01*
X106009198Y-51350513D01*
X105914687Y-51209068D01*
X105849587Y-51051903D01*
X105816400Y-50885057D01*
X105816400Y-50714943D01*
X105849587Y-50548097D01*
X105914687Y-50390932D01*
X106009198Y-50249487D01*
X106129487Y-50129198D01*
X106270932Y-50034687D01*
X106428097Y-49969587D01*
X106594943Y-49936400D01*
X106765057Y-49936400D01*
X106931903Y-49969587D01*
G37*
G36*
X104391903Y-49969587D02*
G01*
X104549068Y-50034687D01*
X104690513Y-50129198D01*
X104810802Y-50249487D01*
X104905313Y-50390932D01*
X104970413Y-50548097D01*
X105003600Y-50714943D01*
X105003600Y-50885057D01*
X104970413Y-51051903D01*
X104905313Y-51209068D01*
X104810802Y-51350513D01*
X104690513Y-51470802D01*
X104549068Y-51565313D01*
X104391903Y-51630413D01*
X104225057Y-51663600D01*
X104054943Y-51663600D01*
X103888097Y-51630413D01*
X103730932Y-51565313D01*
X103589487Y-51470802D01*
X103469198Y-51350513D01*
X103374687Y-51209068D01*
X103309587Y-51051903D01*
X103276400Y-50885057D01*
X103276400Y-50714943D01*
X103309587Y-50548097D01*
X103374687Y-50390932D01*
X103469198Y-50249487D01*
X103589487Y-50129198D01*
X103730932Y-50034687D01*
X103888097Y-49969587D01*
X104054943Y-49936400D01*
X104225057Y-49936400D01*
X104391903Y-49969587D01*
G37*
G36*
X117091903Y-49969587D02*
G01*
X117249068Y-50034687D01*
X117390513Y-50129198D01*
X117510802Y-50249487D01*
X117605313Y-50390932D01*
X117670413Y-50548097D01*
X117703600Y-50714943D01*
X117703600Y-50885057D01*
X117670413Y-51051903D01*
X117605313Y-51209068D01*
X117510802Y-51350513D01*
X117390513Y-51470802D01*
X117249068Y-51565313D01*
X117091903Y-51630413D01*
X116925057Y-51663600D01*
X116754943Y-51663600D01*
X116588097Y-51630413D01*
X116430932Y-51565313D01*
X116289487Y-51470802D01*
X116169198Y-51350513D01*
X116074687Y-51209068D01*
X116009587Y-51051903D01*
X115976400Y-50885057D01*
X115976400Y-50714943D01*
X116009587Y-50548097D01*
X116074687Y-50390932D01*
X116169198Y-50249487D01*
X116289487Y-50129198D01*
X116430932Y-50034687D01*
X116588097Y-49969587D01*
X116754943Y-49936400D01*
X116925057Y-49936400D01*
X117091903Y-49969587D01*
G37*
G36*
X101851903Y-49969587D02*
G01*
X102009068Y-50034687D01*
X102150513Y-50129198D01*
X102270802Y-50249487D01*
X102365313Y-50390932D01*
X102430413Y-50548097D01*
X102463600Y-50714943D01*
X102463600Y-50885057D01*
X102430413Y-51051903D01*
X102365313Y-51209068D01*
X102270802Y-51350513D01*
X102150513Y-51470802D01*
X102009068Y-51565313D01*
X101851903Y-51630413D01*
X101685057Y-51663600D01*
X101514943Y-51663600D01*
X101348097Y-51630413D01*
X101190932Y-51565313D01*
X101049487Y-51470802D01*
X100929198Y-51350513D01*
X100834687Y-51209068D01*
X100769587Y-51051903D01*
X100736400Y-50885057D01*
X100736400Y-50714943D01*
X100769587Y-50548097D01*
X100834687Y-50390932D01*
X100929198Y-50249487D01*
X101049487Y-50129198D01*
X101190932Y-50034687D01*
X101348097Y-49969587D01*
X101514943Y-49936400D01*
X101685057Y-49936400D01*
X101851903Y-49969587D01*
G37*
G36*
X157731903Y-49969587D02*
G01*
X157889068Y-50034687D01*
X158030513Y-50129198D01*
X158150802Y-50249487D01*
X158245313Y-50390932D01*
X158310413Y-50548097D01*
X158343600Y-50714943D01*
X158343600Y-50885057D01*
X158310413Y-51051903D01*
X158245313Y-51209068D01*
X158150802Y-51350513D01*
X158030513Y-51470802D01*
X157889068Y-51565313D01*
X157731903Y-51630413D01*
X157565057Y-51663600D01*
X157394943Y-51663600D01*
X157228097Y-51630413D01*
X157070932Y-51565313D01*
X156929487Y-51470802D01*
X156809198Y-51350513D01*
X156714687Y-51209068D01*
X156649587Y-51051903D01*
X156616400Y-50885057D01*
X156616400Y-50714943D01*
X156649587Y-50548097D01*
X156714687Y-50390932D01*
X156809198Y-50249487D01*
X156929487Y-50129198D01*
X157070932Y-50034687D01*
X157228097Y-49969587D01*
X157394943Y-49936400D01*
X157565057Y-49936400D01*
X157731903Y-49969587D01*
G37*
G36*
X122171903Y-49969587D02*
G01*
X122329068Y-50034687D01*
X122470513Y-50129198D01*
X122590802Y-50249487D01*
X122685313Y-50390932D01*
X122750413Y-50548097D01*
X122783600Y-50714943D01*
X122783600Y-50885057D01*
X122750413Y-51051903D01*
X122685313Y-51209068D01*
X122590802Y-51350513D01*
X122470513Y-51470802D01*
X122329068Y-51565313D01*
X122171903Y-51630413D01*
X122005057Y-51663600D01*
X121834943Y-51663600D01*
X121668097Y-51630413D01*
X121510932Y-51565313D01*
X121369487Y-51470802D01*
X121249198Y-51350513D01*
X121154687Y-51209068D01*
X121089587Y-51051903D01*
X121056400Y-50885057D01*
X121056400Y-50714943D01*
X121089587Y-50548097D01*
X121154687Y-50390932D01*
X121249198Y-50249487D01*
X121369487Y-50129198D01*
X121510932Y-50034687D01*
X121668097Y-49969587D01*
X121834943Y-49936400D01*
X122005057Y-49936400D01*
X122171903Y-49969587D01*
G37*
G36*
X124711903Y-49969587D02*
G01*
X124869068Y-50034687D01*
X125010513Y-50129198D01*
X125130802Y-50249487D01*
X125225313Y-50390932D01*
X125290413Y-50548097D01*
X125323600Y-50714943D01*
X125323600Y-50885057D01*
X125290413Y-51051903D01*
X125225313Y-51209068D01*
X125130802Y-51350513D01*
X125010513Y-51470802D01*
X124869068Y-51565313D01*
X124711903Y-51630413D01*
X124545057Y-51663600D01*
X124374943Y-51663600D01*
X124208097Y-51630413D01*
X124050932Y-51565313D01*
X123909487Y-51470802D01*
X123789198Y-51350513D01*
X123694687Y-51209068D01*
X123629587Y-51051903D01*
X123596400Y-50885057D01*
X123596400Y-50714943D01*
X123629587Y-50548097D01*
X123694687Y-50390932D01*
X123789198Y-50249487D01*
X123909487Y-50129198D01*
X124050932Y-50034687D01*
X124208097Y-49969587D01*
X124374943Y-49936400D01*
X124545057Y-49936400D01*
X124711903Y-49969587D01*
G37*
G36*
X127251903Y-49969587D02*
G01*
X127409068Y-50034687D01*
X127550513Y-50129198D01*
X127670802Y-50249487D01*
X127765313Y-50390932D01*
X127830413Y-50548097D01*
X127863600Y-50714943D01*
X127863600Y-50885057D01*
X127830413Y-51051903D01*
X127765313Y-51209068D01*
X127670802Y-51350513D01*
X127550513Y-51470802D01*
X127409068Y-51565313D01*
X127251903Y-51630413D01*
X127085057Y-51663600D01*
X126914943Y-51663600D01*
X126748097Y-51630413D01*
X126590932Y-51565313D01*
X126449487Y-51470802D01*
X126329198Y-51350513D01*
X126234687Y-51209068D01*
X126169587Y-51051903D01*
X126136400Y-50885057D01*
X126136400Y-50714943D01*
X126169587Y-50548097D01*
X126234687Y-50390932D01*
X126329198Y-50249487D01*
X126449487Y-50129198D01*
X126590932Y-50034687D01*
X126748097Y-49969587D01*
X126914943Y-49936400D01*
X127085057Y-49936400D01*
X127251903Y-49969587D01*
G37*
G36*
X129791903Y-49969587D02*
G01*
X129949068Y-50034687D01*
X130090513Y-50129198D01*
X130210802Y-50249487D01*
X130305313Y-50390932D01*
X130370413Y-50548097D01*
X130403600Y-50714943D01*
X130403600Y-50885057D01*
X130370413Y-51051903D01*
X130305313Y-51209068D01*
X130210802Y-51350513D01*
X130090513Y-51470802D01*
X129949068Y-51565313D01*
X129791903Y-51630413D01*
X129625057Y-51663600D01*
X129454943Y-51663600D01*
X129288097Y-51630413D01*
X129130932Y-51565313D01*
X128989487Y-51470802D01*
X128869198Y-51350513D01*
X128774687Y-51209068D01*
X128709587Y-51051903D01*
X128676400Y-50885057D01*
X128676400Y-50714943D01*
X128709587Y-50548097D01*
X128774687Y-50390932D01*
X128869198Y-50249487D01*
X128989487Y-50129198D01*
X129130932Y-50034687D01*
X129288097Y-49969587D01*
X129454943Y-49936400D01*
X129625057Y-49936400D01*
X129791903Y-49969587D01*
G37*
G36*
X155191903Y-49969587D02*
G01*
X155349068Y-50034687D01*
X155490513Y-50129198D01*
X155610802Y-50249487D01*
X155705313Y-50390932D01*
X155770413Y-50548097D01*
X155803600Y-50714943D01*
X155803600Y-50885057D01*
X155770413Y-51051903D01*
X155705313Y-51209068D01*
X155610802Y-51350513D01*
X155490513Y-51470802D01*
X155349068Y-51565313D01*
X155191903Y-51630413D01*
X155025057Y-51663600D01*
X154854943Y-51663600D01*
X154688097Y-51630413D01*
X154530932Y-51565313D01*
X154389487Y-51470802D01*
X154269198Y-51350513D01*
X154174687Y-51209068D01*
X154109587Y-51051903D01*
X154076400Y-50885057D01*
X154076400Y-50714943D01*
X154109587Y-50548097D01*
X154174687Y-50390932D01*
X154269198Y-50249487D01*
X154389487Y-50129198D01*
X154530932Y-50034687D01*
X154688097Y-49969587D01*
X154854943Y-49936400D01*
X155025057Y-49936400D01*
X155191903Y-49969587D01*
G37*
G36*
X132331903Y-49969587D02*
G01*
X132489068Y-50034687D01*
X132630513Y-50129198D01*
X132750802Y-50249487D01*
X132845313Y-50390932D01*
X132910413Y-50548097D01*
X132943600Y-50714943D01*
X132943600Y-50885057D01*
X132910413Y-51051903D01*
X132845313Y-51209068D01*
X132750802Y-51350513D01*
X132630513Y-51470802D01*
X132489068Y-51565313D01*
X132331903Y-51630413D01*
X132165057Y-51663600D01*
X131994943Y-51663600D01*
X131828097Y-51630413D01*
X131670932Y-51565313D01*
X131529487Y-51470802D01*
X131409198Y-51350513D01*
X131314687Y-51209068D01*
X131249587Y-51051903D01*
X131216400Y-50885057D01*
X131216400Y-50714943D01*
X131249587Y-50548097D01*
X131314687Y-50390932D01*
X131409198Y-50249487D01*
X131529487Y-50129198D01*
X131670932Y-50034687D01*
X131828097Y-49969587D01*
X131994943Y-49936400D01*
X132165057Y-49936400D01*
X132331903Y-49969587D01*
G37*
G36*
X134871903Y-49969587D02*
G01*
X135029068Y-50034687D01*
X135170513Y-50129198D01*
X135290802Y-50249487D01*
X135385313Y-50390932D01*
X135450413Y-50548097D01*
X135483600Y-50714943D01*
X135483600Y-50885057D01*
X135450413Y-51051903D01*
X135385313Y-51209068D01*
X135290802Y-51350513D01*
X135170513Y-51470802D01*
X135029068Y-51565313D01*
X134871903Y-51630413D01*
X134705057Y-51663600D01*
X134534943Y-51663600D01*
X134368097Y-51630413D01*
X134210932Y-51565313D01*
X134069487Y-51470802D01*
X133949198Y-51350513D01*
X133854687Y-51209068D01*
X133789587Y-51051903D01*
X133756400Y-50885057D01*
X133756400Y-50714943D01*
X133789587Y-50548097D01*
X133854687Y-50390932D01*
X133949198Y-50249487D01*
X134069487Y-50129198D01*
X134210932Y-50034687D01*
X134368097Y-49969587D01*
X134534943Y-49936400D01*
X134705057Y-49936400D01*
X134871903Y-49969587D01*
G37*
G36*
X137411903Y-49969587D02*
G01*
X137569068Y-50034687D01*
X137710513Y-50129198D01*
X137830802Y-50249487D01*
X137925313Y-50390932D01*
X137990413Y-50548097D01*
X138023600Y-50714943D01*
X138023600Y-50885057D01*
X137990413Y-51051903D01*
X137925313Y-51209068D01*
X137830802Y-51350513D01*
X137710513Y-51470802D01*
X137569068Y-51565313D01*
X137411903Y-51630413D01*
X137245057Y-51663600D01*
X137074943Y-51663600D01*
X136908097Y-51630413D01*
X136750932Y-51565313D01*
X136609487Y-51470802D01*
X136489198Y-51350513D01*
X136394687Y-51209068D01*
X136329587Y-51051903D01*
X136296400Y-50885057D01*
X136296400Y-50714943D01*
X136329587Y-50548097D01*
X136394687Y-50390932D01*
X136489198Y-50249487D01*
X136609487Y-50129198D01*
X136750932Y-50034687D01*
X136908097Y-49969587D01*
X137074943Y-49936400D01*
X137245057Y-49936400D01*
X137411903Y-49969587D01*
G37*
G36*
X139951903Y-49969587D02*
G01*
X140109068Y-50034687D01*
X140250513Y-50129198D01*
X140370802Y-50249487D01*
X140465313Y-50390932D01*
X140530413Y-50548097D01*
X140563600Y-50714943D01*
X140563600Y-50885057D01*
X140530413Y-51051903D01*
X140465313Y-51209068D01*
X140370802Y-51350513D01*
X140250513Y-51470802D01*
X140109068Y-51565313D01*
X139951903Y-51630413D01*
X139785057Y-51663600D01*
X139614943Y-51663600D01*
X139448097Y-51630413D01*
X139290932Y-51565313D01*
X139149487Y-51470802D01*
X139029198Y-51350513D01*
X138934687Y-51209068D01*
X138869587Y-51051903D01*
X138836400Y-50885057D01*
X138836400Y-50714943D01*
X138869587Y-50548097D01*
X138934687Y-50390932D01*
X139029198Y-50249487D01*
X139149487Y-50129198D01*
X139290932Y-50034687D01*
X139448097Y-49969587D01*
X139614943Y-49936400D01*
X139785057Y-49936400D01*
X139951903Y-49969587D01*
G37*
G36*
X142491903Y-49969587D02*
G01*
X142649068Y-50034687D01*
X142790513Y-50129198D01*
X142910802Y-50249487D01*
X143005313Y-50390932D01*
X143070413Y-50548097D01*
X143103600Y-50714943D01*
X143103600Y-50885057D01*
X143070413Y-51051903D01*
X143005313Y-51209068D01*
X142910802Y-51350513D01*
X142790513Y-51470802D01*
X142649068Y-51565313D01*
X142491903Y-51630413D01*
X142325057Y-51663600D01*
X142154943Y-51663600D01*
X141988097Y-51630413D01*
X141830932Y-51565313D01*
X141689487Y-51470802D01*
X141569198Y-51350513D01*
X141474687Y-51209068D01*
X141409587Y-51051903D01*
X141376400Y-50885057D01*
X141376400Y-50714943D01*
X141409587Y-50548097D01*
X141474687Y-50390932D01*
X141569198Y-50249487D01*
X141689487Y-50129198D01*
X141830932Y-50034687D01*
X141988097Y-49969587D01*
X142154943Y-49936400D01*
X142325057Y-49936400D01*
X142491903Y-49969587D01*
G37*
G36*
X145031903Y-49969587D02*
G01*
X145189068Y-50034687D01*
X145330513Y-50129198D01*
X145450802Y-50249487D01*
X145545313Y-50390932D01*
X145610413Y-50548097D01*
X145643600Y-50714943D01*
X145643600Y-50885057D01*
X145610413Y-51051903D01*
X145545313Y-51209068D01*
X145450802Y-51350513D01*
X145330513Y-51470802D01*
X145189068Y-51565313D01*
X145031903Y-51630413D01*
X144865057Y-51663600D01*
X144694943Y-51663600D01*
X144528097Y-51630413D01*
X144370932Y-51565313D01*
X144229487Y-51470802D01*
X144109198Y-51350513D01*
X144014687Y-51209068D01*
X143949587Y-51051903D01*
X143916400Y-50885057D01*
X143916400Y-50714943D01*
X143949587Y-50548097D01*
X144014687Y-50390932D01*
X144109198Y-50249487D01*
X144229487Y-50129198D01*
X144370932Y-50034687D01*
X144528097Y-49969587D01*
X144694943Y-49936400D01*
X144865057Y-49936400D01*
X145031903Y-49969587D01*
G37*
G36*
X119631903Y-49969587D02*
G01*
X119789068Y-50034687D01*
X119930513Y-50129198D01*
X120050802Y-50249487D01*
X120145313Y-50390932D01*
X120210413Y-50548097D01*
X120243600Y-50714943D01*
X120243600Y-50885057D01*
X120210413Y-51051903D01*
X120145313Y-51209068D01*
X120050802Y-51350513D01*
X119930513Y-51470802D01*
X119789068Y-51565313D01*
X119631903Y-51630413D01*
X119465057Y-51663600D01*
X119294943Y-51663600D01*
X119128097Y-51630413D01*
X118970932Y-51565313D01*
X118829487Y-51470802D01*
X118709198Y-51350513D01*
X118614687Y-51209068D01*
X118549587Y-51051903D01*
X118516400Y-50885057D01*
X118516400Y-50714943D01*
X118549587Y-50548097D01*
X118614687Y-50390932D01*
X118709198Y-50249487D01*
X118829487Y-50129198D01*
X118970932Y-50034687D01*
X119128097Y-49969587D01*
X119294943Y-49936400D01*
X119465057Y-49936400D01*
X119631903Y-49969587D01*
G37*
M02*
