G04 #@! TF.GenerationSoftware,KiCad,Pcbnew,5.1.5*
G04 #@! TF.CreationDate,2020-07-27T09:16:47-04:00*
G04 #@! TF.ProjectId,motorBoard,6d6f746f-7242-46f6-9172-642e6b696361,rev?*
G04 #@! TF.SameCoordinates,Original*
G04 #@! TF.FileFunction,Copper,L2,Bot*
G04 #@! TF.FilePolarity,Positive*
%FSLAX46Y46*%
G04 Gerber Fmt 4.6, Leading zero omitted, Abs format (unit mm)*
G04 Created by KiCad (PCBNEW 5.1.5) date 2020-07-27 09:16:47*
%MOMM*%
%LPD*%
G04 APERTURE LIST*
%ADD10O,1.727200X1.727200*%
%ADD11R,1.727200X1.727200*%
%ADD12R,1.700000X1.700000*%
%ADD13O,1.700000X1.700000*%
%ADD14R,2.250000X6.250000*%
%ADD15C,0.600000*%
%ADD16C,1.219200*%
%ADD17C,0.508000*%
%ADD18C,0.127000*%
%ADD19C,1.168400*%
%ADD20C,0.304800*%
%ADD21C,2.032000*%
%ADD22C,0.254000*%
G04 APERTURE END LIST*
D10*
X157480000Y-50800000D03*
X157480000Y-53340000D03*
X154940000Y-50800000D03*
X154940000Y-53340000D03*
X152400000Y-50800000D03*
X152400000Y-53340000D03*
X149860000Y-50800000D03*
X149860000Y-53340000D03*
X147320000Y-50800000D03*
X147320000Y-53340000D03*
X144780000Y-50800000D03*
X144780000Y-53340000D03*
X142240000Y-50800000D03*
X142240000Y-53340000D03*
X139700000Y-50800000D03*
X139700000Y-53340000D03*
X137160000Y-50800000D03*
X137160000Y-53340000D03*
X134620000Y-50800000D03*
X134620000Y-53340000D03*
X132080000Y-50800000D03*
X132080000Y-53340000D03*
X129540000Y-50800000D03*
X129540000Y-53340000D03*
X127000000Y-50800000D03*
X127000000Y-53340000D03*
X124460000Y-50800000D03*
X124460000Y-53340000D03*
X121920000Y-50800000D03*
X121920000Y-53340000D03*
X119380000Y-50800000D03*
X119380000Y-53340000D03*
X116840000Y-50800000D03*
X116840000Y-53340000D03*
X114300000Y-50800000D03*
X114300000Y-53340000D03*
X111760000Y-50800000D03*
X111760000Y-53340000D03*
X109220000Y-50800000D03*
X109220000Y-53340000D03*
X106680000Y-50800000D03*
X106680000Y-53340000D03*
X104140000Y-50800000D03*
X104140000Y-53340000D03*
X101600000Y-50800000D03*
D11*
X101600000Y-53340000D03*
D12*
X99060000Y-95250000D03*
D13*
X99060000Y-97790000D03*
X99060000Y-100330000D03*
D10*
X157480000Y-99060000D03*
X157480000Y-101600000D03*
X154940000Y-99060000D03*
X154940000Y-101600000D03*
X152400000Y-99060000D03*
X152400000Y-101600000D03*
X149860000Y-99060000D03*
X149860000Y-101600000D03*
X147320000Y-99060000D03*
X147320000Y-101600000D03*
X144780000Y-99060000D03*
X144780000Y-101600000D03*
X142240000Y-99060000D03*
X142240000Y-101600000D03*
X139700000Y-99060000D03*
X139700000Y-101600000D03*
X137160000Y-99060000D03*
X137160000Y-101600000D03*
X134620000Y-99060000D03*
X134620000Y-101600000D03*
X132080000Y-99060000D03*
X132080000Y-101600000D03*
X129540000Y-99060000D03*
X129540000Y-101600000D03*
X127000000Y-99060000D03*
X127000000Y-101600000D03*
X124460000Y-99060000D03*
X124460000Y-101600000D03*
X121920000Y-99060000D03*
X121920000Y-101600000D03*
X119380000Y-99060000D03*
X119380000Y-101600000D03*
X116840000Y-99060000D03*
X116840000Y-101600000D03*
X114300000Y-99060000D03*
X114300000Y-101600000D03*
X111760000Y-99060000D03*
X111760000Y-101600000D03*
X109220000Y-99060000D03*
X109220000Y-101600000D03*
X106680000Y-99060000D03*
X106680000Y-101600000D03*
X104140000Y-99060000D03*
X104140000Y-101600000D03*
X101600000Y-99060000D03*
D11*
X101600000Y-101600000D03*
D12*
X160020000Y-86360000D03*
D13*
X160020000Y-88900000D03*
X160020000Y-91440000D03*
X160020000Y-93980000D03*
X160020000Y-96520000D03*
X160020000Y-99060000D03*
D12*
X160020000Y-53340000D03*
D13*
X160020000Y-55880000D03*
X160020000Y-58420000D03*
X160020000Y-60960000D03*
X160020000Y-63500000D03*
X160020000Y-66040000D03*
X160020000Y-82550000D03*
X160020000Y-80010000D03*
X160020000Y-77470000D03*
X160020000Y-74930000D03*
X160020000Y-72390000D03*
D12*
X160020000Y-69850000D03*
X162560000Y-86360000D03*
D13*
X162560000Y-88900000D03*
X162560000Y-91440000D03*
X162560000Y-93980000D03*
X162560000Y-96520000D03*
X162560000Y-99060000D03*
X93980000Y-100330000D03*
X93980000Y-97790000D03*
D12*
X93980000Y-95250000D03*
X91440000Y-57150000D03*
D13*
X91440000Y-54610000D03*
X91440000Y-52070000D03*
X93980000Y-52070000D03*
X93980000Y-54610000D03*
D12*
X93980000Y-57150000D03*
X96520000Y-57150000D03*
D13*
X96520000Y-54610000D03*
X96520000Y-52070000D03*
X99060000Y-52070000D03*
X99060000Y-54610000D03*
D12*
X99060000Y-57150000D03*
D13*
X96520000Y-100330000D03*
X96520000Y-97790000D03*
D12*
X96520000Y-95250000D03*
X91440000Y-95250000D03*
D13*
X91440000Y-97790000D03*
X91440000Y-100330000D03*
X162560000Y-82550000D03*
X162560000Y-80010000D03*
X162560000Y-77470000D03*
X162560000Y-74930000D03*
X162560000Y-72390000D03*
D12*
X162560000Y-69850000D03*
D13*
X162560000Y-66040000D03*
X162560000Y-63500000D03*
X162560000Y-60960000D03*
X162560000Y-58420000D03*
X162560000Y-55880000D03*
D12*
X162560000Y-53340000D03*
D14*
X83820000Y-95250000D03*
X83820000Y-87350000D03*
D15*
X140462000Y-69596000D03*
X140462000Y-68072000D03*
X138938000Y-69596000D03*
X139700000Y-68834000D03*
X139700000Y-73406000D03*
X138938000Y-72644000D03*
X135255000Y-72517000D03*
X135255000Y-69469000D03*
X140462000Y-72644000D03*
X155702000Y-74168000D03*
X156464000Y-74930000D03*
X156464000Y-73406000D03*
X155702000Y-72644000D03*
X142875000Y-78359000D03*
X141351000Y-78359000D03*
X151892000Y-92583000D03*
X156718000Y-90805000D03*
X157226000Y-87884000D03*
X156464000Y-82550000D03*
X157226000Y-83312000D03*
X156464000Y-87122000D03*
X156464000Y-88646000D03*
X157226000Y-58928000D03*
X156464000Y-58166000D03*
X157226000Y-57404000D03*
X110998000Y-55245000D03*
X110236000Y-56007000D03*
X110998000Y-58293000D03*
X110998000Y-56769000D03*
X110236000Y-57531000D03*
X110236000Y-59055000D03*
X110998000Y-59817000D03*
X110998000Y-61341000D03*
X110236000Y-60579000D03*
X110236000Y-62103000D03*
X153416000Y-58166000D03*
X154940000Y-58166000D03*
X133731000Y-75819000D03*
X125095000Y-75946000D03*
X152654000Y-78740000D03*
X154178000Y-78740000D03*
X140589000Y-79121000D03*
X143256000Y-93091000D03*
X125222000Y-90297000D03*
X152908000Y-94234000D03*
X154559000Y-94488000D03*
X155448000Y-93599000D03*
X157226000Y-65024000D03*
X157988000Y-65786000D03*
X157988000Y-64262000D03*
X157226000Y-66548000D03*
X155067000Y-64643000D03*
X129921000Y-67183000D03*
X129159000Y-67945000D03*
X130683000Y-67945000D03*
X132207000Y-69469000D03*
X130683000Y-69469000D03*
X129159000Y-69469000D03*
X127635000Y-67945000D03*
X127635000Y-69469000D03*
X126111000Y-67945000D03*
X123825000Y-70231000D03*
X132207000Y-67945000D03*
X133731000Y-69469000D03*
X133731000Y-67945000D03*
X132969000Y-68707000D03*
X124587000Y-69469000D03*
X123825000Y-68707000D03*
X126111000Y-69469000D03*
X125349000Y-68707000D03*
X126873000Y-68707000D03*
X128397000Y-68707000D03*
X131445000Y-68707000D03*
X129921000Y-68707000D03*
X128397000Y-67183000D03*
X129159000Y-74041000D03*
X128397000Y-73279000D03*
X129921000Y-73279000D03*
X130683000Y-74041000D03*
X129159000Y-72517000D03*
X130683000Y-72517000D03*
X127635000Y-72517000D03*
X132207000Y-72517000D03*
X133731000Y-72517000D03*
X129921000Y-80899000D03*
X127635000Y-81661000D03*
X128397000Y-82423000D03*
X129159000Y-83185000D03*
X127635000Y-83185000D03*
X126111000Y-81661000D03*
X126111000Y-83185000D03*
X124587000Y-83185000D03*
X130683000Y-81661000D03*
X131445000Y-82423000D03*
X132969000Y-82423000D03*
X132207000Y-83185000D03*
X125349000Y-82423000D03*
X126873000Y-82423000D03*
X128397000Y-80899000D03*
X129159000Y-81661000D03*
X129921000Y-82423000D03*
X130683000Y-83185000D03*
X128397000Y-86995000D03*
X129159000Y-87757000D03*
X129921000Y-88519000D03*
X128397000Y-88519000D03*
X129921000Y-86995000D03*
X130683000Y-87757000D03*
X127635000Y-86233000D03*
X126873000Y-86995000D03*
X129159000Y-86233000D03*
X130683000Y-86233000D03*
X132207000Y-86233000D03*
X118491000Y-93853000D03*
X119253000Y-94615000D03*
X120015000Y-95377000D03*
X120777000Y-96139000D03*
X119253000Y-96139000D03*
X118491000Y-95377000D03*
X119253000Y-93091000D03*
X120015000Y-93853000D03*
X120777000Y-94615000D03*
X121539000Y-95377000D03*
X122301000Y-96139000D03*
X121539000Y-93853000D03*
X120777000Y-93091000D03*
X123825000Y-96139000D03*
X125349000Y-96139000D03*
X126873000Y-96139000D03*
X128397000Y-96139000D03*
X130683000Y-95377000D03*
X129921000Y-96139000D03*
X129159000Y-95377000D03*
X129921000Y-94615000D03*
X128397000Y-94615000D03*
X131445000Y-96139000D03*
X127635000Y-96901000D03*
X126111000Y-96901000D03*
X124587000Y-96901000D03*
X123063000Y-96901000D03*
X120015000Y-96901000D03*
X121539000Y-96901000D03*
X146558000Y-95504000D03*
X148082000Y-95504000D03*
X145796000Y-96266000D03*
X144272000Y-96266000D03*
X148844000Y-96266000D03*
X150368000Y-96266000D03*
X151130000Y-97028000D03*
X149606000Y-97028000D03*
X148082000Y-97028000D03*
X152654000Y-97028000D03*
X153416000Y-96266000D03*
X147320000Y-94742000D03*
X148844000Y-87122000D03*
X148082000Y-86360000D03*
X147320000Y-85598000D03*
X147320000Y-87122000D03*
X146558000Y-86360000D03*
X146558000Y-87884000D03*
X149606000Y-86360000D03*
X150368000Y-87122000D03*
X151130000Y-86360000D03*
X151892000Y-87122000D03*
X152654000Y-86360000D03*
X153416000Y-87122000D03*
X154178000Y-86360000D03*
X154940000Y-87122000D03*
X155702000Y-86360000D03*
X150368000Y-85598000D03*
X153416000Y-85598000D03*
X151892000Y-85598000D03*
X148844000Y-85598000D03*
X154940000Y-85598000D03*
X154940000Y-88646000D03*
X155702000Y-87884000D03*
X145034000Y-86360000D03*
X145796000Y-85598000D03*
X143510000Y-86360000D03*
X144272000Y-87122000D03*
X145796000Y-87122000D03*
X141224000Y-85598000D03*
X140462000Y-86360000D03*
X141224000Y-87122000D03*
X139700000Y-87122000D03*
X142748000Y-85598000D03*
X144272000Y-85598000D03*
X148082000Y-87884000D03*
X146558000Y-72644000D03*
X148082000Y-72644000D03*
X147320000Y-73406000D03*
X146558000Y-74168000D03*
X148082000Y-74168000D03*
X148844000Y-73406000D03*
X149606000Y-72644000D03*
X145796000Y-73406000D03*
X145034000Y-72644000D03*
X143510000Y-72644000D03*
X151130000Y-72644000D03*
X152654000Y-72644000D03*
X154178000Y-72644000D03*
X154940000Y-73406000D03*
X154940000Y-74930000D03*
X141224000Y-73406000D03*
X148082000Y-81788000D03*
X145796000Y-82550000D03*
X147320000Y-82550000D03*
X148844000Y-82550000D03*
X149606000Y-81788000D03*
X150368000Y-82550000D03*
X153416000Y-82550000D03*
X154940000Y-82550000D03*
X144272000Y-82550000D03*
X142748000Y-82550000D03*
X141224000Y-82550000D03*
X140462000Y-81788000D03*
X139700000Y-82550000D03*
X146558000Y-81788000D03*
X147320000Y-81026000D03*
X145034000Y-68072000D03*
X143510000Y-68072000D03*
X145034000Y-69596000D03*
X143510000Y-69596000D03*
X141986000Y-69596000D03*
X146558000Y-69596000D03*
X151130000Y-69596000D03*
X149606000Y-69596000D03*
X148082000Y-69596000D03*
X148844000Y-68834000D03*
X147320000Y-68834000D03*
X150368000Y-68834000D03*
X154178000Y-69596000D03*
X152654000Y-69596000D03*
X153416000Y-68834000D03*
X151892000Y-68834000D03*
X149606000Y-68072000D03*
X141224000Y-68834000D03*
X142748000Y-68834000D03*
X144272000Y-68834000D03*
X145796000Y-68834000D03*
X148082000Y-68072000D03*
X148082000Y-66548000D03*
X146558000Y-66548000D03*
X147320000Y-67310000D03*
X146558000Y-68072000D03*
X155702000Y-58928000D03*
X156464000Y-59690000D03*
X157226000Y-60452000D03*
X156464000Y-61214000D03*
X120650000Y-56007000D03*
X120650000Y-57531000D03*
X119888000Y-58293000D03*
X120650000Y-59055000D03*
X119888000Y-59817000D03*
X120650000Y-60579000D03*
X137414000Y-57404000D03*
X135890000Y-57404000D03*
X134366000Y-57404000D03*
X132842000Y-58928000D03*
X132842000Y-57404000D03*
X131318000Y-58928000D03*
X131318000Y-57404000D03*
X129794000Y-58928000D03*
X129794000Y-57404000D03*
X130556000Y-58166000D03*
X128270000Y-58928000D03*
X128270000Y-57404000D03*
X129032000Y-58166000D03*
X126746000Y-57404000D03*
X127508000Y-58166000D03*
X125222000Y-57404000D03*
X129032000Y-59690000D03*
X130556000Y-59690000D03*
X128270000Y-60452000D03*
X129794000Y-60452000D03*
X132080000Y-58166000D03*
X133604000Y-58166000D03*
X135128000Y-58166000D03*
X136652000Y-58166000D03*
X154940000Y-59690000D03*
X148082000Y-60452000D03*
X146558000Y-60452000D03*
X146558000Y-58928000D03*
X148082000Y-58928000D03*
X146558000Y-57404000D03*
X148082000Y-57404000D03*
X147320000Y-58166000D03*
X148844000Y-58166000D03*
X147320000Y-56642000D03*
X145796000Y-56642000D03*
X148844000Y-56642000D03*
X149606000Y-57404000D03*
X149606000Y-58928000D03*
X150368000Y-56642000D03*
X150368000Y-58166000D03*
X151130000Y-57404000D03*
X151130000Y-58928000D03*
X151892000Y-58166000D03*
X152654000Y-58928000D03*
X154178000Y-58928000D03*
X145034000Y-58928000D03*
X145796000Y-58166000D03*
X145034000Y-57404000D03*
X144272000Y-58166000D03*
X144272000Y-56642000D03*
X143510000Y-57404000D03*
X142748000Y-56642000D03*
X141986000Y-57404000D03*
X141224000Y-58166000D03*
X141224000Y-56642000D03*
X140462000Y-57404000D03*
X147320000Y-59690000D03*
X148844000Y-59690000D03*
X139700000Y-58166000D03*
X104902000Y-55245000D03*
X107950000Y-55245000D03*
X109474000Y-55245000D03*
X108712000Y-56007000D03*
X109474000Y-58293000D03*
X109474000Y-56769000D03*
X108712000Y-57531000D03*
X107188000Y-57531000D03*
X107188000Y-56007000D03*
X105664000Y-56007000D03*
X106426000Y-56769000D03*
X106426000Y-55245000D03*
X107950000Y-56769000D03*
X108712000Y-59055000D03*
X109474000Y-59817000D03*
X107950000Y-58293000D03*
X107950000Y-59817000D03*
X109474000Y-61341000D03*
X103378000Y-55245000D03*
X104902000Y-56769000D03*
X108712000Y-60579000D03*
X104140000Y-56007000D03*
X107188000Y-59055000D03*
X106426000Y-58293000D03*
X105664000Y-57531000D03*
X101854000Y-55245000D03*
X102616000Y-56007000D03*
X104140000Y-57531000D03*
X105664000Y-59055000D03*
X104902000Y-58293000D03*
X103378000Y-56769000D03*
X107188000Y-60579000D03*
X106426000Y-59817000D03*
X107950000Y-61341000D03*
X108712000Y-62103000D03*
X105664000Y-88011000D03*
X104902000Y-87249000D03*
X104140000Y-86487000D03*
X105664000Y-86487000D03*
X106426000Y-87249000D03*
X106426000Y-85725000D03*
X104902000Y-85725000D03*
X104140000Y-84963000D03*
X105664000Y-84963000D03*
X106426000Y-84201000D03*
X104902000Y-84201000D03*
X104140000Y-83439000D03*
X105664000Y-83439000D03*
X106426000Y-82677000D03*
X104902000Y-82677000D03*
X105664000Y-81915000D03*
X105664000Y-80391000D03*
X105664000Y-78867000D03*
X105664000Y-77343000D03*
X105664000Y-75819000D03*
X105664000Y-74295000D03*
X105664000Y-72771000D03*
X105664000Y-71247000D03*
X105664000Y-69723000D03*
X105664000Y-68199000D03*
X105664000Y-66675000D03*
X105664000Y-65151000D03*
X104140000Y-63627000D03*
X105664000Y-63627000D03*
X104140000Y-62103000D03*
X106426000Y-67437000D03*
X106426000Y-70485000D03*
X106426000Y-65913000D03*
X106426000Y-68961000D03*
X106426000Y-64389000D03*
X106426000Y-72009000D03*
X107188000Y-68199000D03*
X107188000Y-71247000D03*
X107188000Y-66675000D03*
X107188000Y-69723000D03*
X107188000Y-65151000D03*
X107188000Y-72771000D03*
X107950000Y-68961000D03*
X107950000Y-72009000D03*
X107950000Y-70485000D03*
X107950000Y-64389000D03*
X107950000Y-65913000D03*
X107950000Y-67437000D03*
X108712000Y-65151000D03*
X108712000Y-66675000D03*
X104902000Y-62865000D03*
X104902000Y-64389000D03*
X104902000Y-65913000D03*
X104902000Y-67437000D03*
X104902000Y-68961000D03*
X104902000Y-70485000D03*
X104902000Y-72009000D03*
X104902000Y-73533000D03*
X104902000Y-75057000D03*
X104902000Y-76581000D03*
X104902000Y-78105000D03*
X104902000Y-79629000D03*
X104902000Y-81153000D03*
X108077000Y-81407000D03*
X108013500Y-79502000D03*
X108013500Y-78803500D03*
X108013500Y-76200000D03*
X108013500Y-75501500D03*
X108077000Y-73533000D03*
X106362500Y-73596500D03*
X106362500Y-74930000D03*
X106362500Y-76454000D03*
X106362500Y-78486000D03*
X106362500Y-81407000D03*
X106362500Y-80010000D03*
X108458000Y-77470000D03*
X109347000Y-77470000D03*
X108839000Y-73342500D03*
X108712000Y-71437500D03*
X108712000Y-69532500D03*
X108709000Y-67627500D03*
X106426000Y-88773000D03*
X147320000Y-96266000D03*
X146558000Y-97028000D03*
X145034000Y-97028000D03*
X163449000Y-67183000D03*
X161290000Y-84709000D03*
X137541000Y-74803000D03*
X137858500Y-89154000D03*
X137858500Y-81788000D03*
X139065000Y-66040000D03*
X137541000Y-93472000D03*
X165989000Y-88392000D03*
X161544000Y-67691000D03*
X133731000Y-91186000D03*
X116332000Y-91948000D03*
X116332000Y-84328000D03*
X116713000Y-58293000D03*
X133731000Y-77089000D03*
X122174000Y-67945000D03*
X117856000Y-54610000D03*
X117856000Y-57277000D03*
X141732000Y-92202000D03*
X138557000Y-90551000D03*
X136144000Y-92583000D03*
X118618000Y-57023000D03*
X118618000Y-54991000D03*
X134493000Y-77089000D03*
X137033000Y-78486000D03*
X139192000Y-79502000D03*
X143002000Y-64389000D03*
X153416000Y-67945000D03*
X155956000Y-67056000D03*
X153924000Y-55753000D03*
X165735000Y-83058000D03*
X135636000Y-61087000D03*
X153162000Y-55753000D03*
X164465000Y-76835000D03*
X136779000Y-75311000D03*
X154686000Y-55753000D03*
X153416000Y-67183000D03*
X155956000Y-66294000D03*
X141732000Y-63627000D03*
X139700000Y-65151000D03*
X133731000Y-90424000D03*
X120777000Y-65024000D03*
X117856000Y-83947000D03*
X117856000Y-91694000D03*
X165735000Y-60325000D03*
X165735000Y-67310000D03*
X135763000Y-60071000D03*
X143002000Y-63373000D03*
X140081000Y-63627000D03*
X118745000Y-63500000D03*
X117856000Y-74803000D03*
X120523000Y-61722000D03*
X133731000Y-62992000D03*
X119380000Y-64008000D03*
X118364000Y-75438000D03*
X119888000Y-62357000D03*
X142875000Y-91059000D03*
X137160000Y-89662000D03*
X136271000Y-78359000D03*
X138557000Y-78359000D03*
X135509000Y-91567000D03*
X139827000Y-66167000D03*
X138176000Y-63627000D03*
X138557000Y-93599000D03*
X137414000Y-79121000D03*
X138557000Y-79121000D03*
X134493000Y-79756000D03*
X122809000Y-67310000D03*
X137160000Y-92710000D03*
X142367000Y-91694000D03*
X139954000Y-91440000D03*
X117602000Y-83185000D03*
X120777000Y-64262000D03*
X137160000Y-95631000D03*
X139128500Y-94107000D03*
X137541000Y-90297000D03*
X140081000Y-92837000D03*
X138557000Y-77597000D03*
X135509000Y-78867000D03*
X141859000Y-62230000D03*
X140843000Y-62357000D03*
X138303000Y-64516000D03*
X135509000Y-74676000D03*
X135509000Y-88646000D03*
X141351000Y-66294000D03*
X138938000Y-63627000D03*
X141351000Y-94234000D03*
X141351000Y-80264000D03*
X101727000Y-96901000D03*
X110109000Y-93091000D03*
X110871000Y-92329000D03*
X110871000Y-93853000D03*
X108585000Y-91567000D03*
X111633000Y-93091000D03*
X111633000Y-90043000D03*
X112395000Y-90805000D03*
X111633000Y-91567000D03*
X110871000Y-90805000D03*
X110109000Y-91567000D03*
X112395000Y-92329000D03*
X109347000Y-92329000D03*
X107823000Y-92329000D03*
X109347000Y-93853000D03*
X110109000Y-94615000D03*
X111633000Y-94615000D03*
X112395000Y-93853000D03*
X108585000Y-93091000D03*
X108585000Y-94615000D03*
X107061000Y-93091000D03*
X107823000Y-93853000D03*
X109347000Y-95377000D03*
X110871000Y-95377000D03*
X111633000Y-96139000D03*
X110109000Y-96139000D03*
X108585000Y-96139000D03*
X107823000Y-95377000D03*
X107061000Y-94615000D03*
X106299000Y-93853000D03*
X105537000Y-94615000D03*
X107061000Y-96139000D03*
X106299000Y-95377000D03*
X105537000Y-96139000D03*
X104775000Y-95377000D03*
X104013000Y-96139000D03*
X103251000Y-95377000D03*
X102489000Y-96139000D03*
X101727000Y-95377000D03*
X100965000Y-96139000D03*
D16*
X155321000Y-90297000D03*
X152146000Y-67056000D03*
X123190000Y-91059000D03*
X125222000Y-59563000D03*
X125476000Y-86995000D03*
X123063000Y-77343000D03*
X125222000Y-73279000D03*
X155194000Y-61468000D03*
X155321000Y-76327000D03*
X151892000Y-81407000D03*
X152273000Y-95377000D03*
X121920000Y-63500000D03*
D15*
X110998000Y-77470000D03*
X110236000Y-77470000D03*
X111760000Y-77470000D03*
X112395000Y-89281000D03*
X134112000Y-92964000D03*
X133731000Y-79756000D03*
X139446000Y-76200000D03*
X142875000Y-89535000D03*
X143129000Y-61849000D03*
X141478000Y-75692000D03*
X142113000Y-61468000D03*
X141097000Y-63119000D03*
X134239000Y-78359000D03*
X135382000Y-65913000D03*
X116840000Y-57023000D03*
X115824000Y-57658000D03*
X165735000Y-76200000D03*
X163576000Y-83566000D03*
X161290000Y-68453000D03*
X112903000Y-94615000D03*
X114427000Y-94615000D03*
X164592000Y-88265000D03*
X151130000Y-100330000D03*
X164465000Y-66675000D03*
D17*
X83820000Y-95250000D02*
X86360000Y-95250000D01*
X104775000Y-56515000D02*
X104775000Y-83820000D01*
X104775000Y-83820000D02*
X97155000Y-91440000D01*
X90170000Y-91440000D02*
X86360000Y-95250000D01*
X97155000Y-91440000D02*
X90170000Y-91440000D01*
D18*
X160020000Y-91440000D02*
X161290000Y-91440000D01*
X161290000Y-91440000D02*
X162560000Y-91440000D01*
D17*
X154940000Y-99060000D02*
X154940000Y-101600000D01*
X157480000Y-99060000D02*
X157480000Y-101600000D01*
D18*
X160020000Y-91440000D02*
X160020000Y-92329000D01*
X154940000Y-97409000D02*
X154940000Y-99060000D01*
X160020000Y-92329000D02*
X154940000Y-97409000D01*
D19*
X86360000Y-95250000D02*
X91440000Y-100330000D01*
X91440000Y-100330000D02*
X99060000Y-100330000D01*
X101600000Y-99060000D02*
X103251000Y-97409000D01*
X103251000Y-97409000D02*
X113030000Y-97409000D01*
X113030000Y-97409000D02*
X113538000Y-96901000D01*
X113538000Y-96901000D02*
X117602000Y-96901000D01*
X117602000Y-96901000D02*
X118364000Y-96139000D01*
X100330000Y-100330000D02*
X101600000Y-99060000D01*
X99060000Y-100330000D02*
X100330000Y-100330000D01*
X100330000Y-100330000D02*
X101600000Y-101600000D01*
D18*
X160020000Y-58420000D02*
X161290000Y-59690000D01*
X161290000Y-59690000D02*
X161290000Y-61849000D01*
X161290000Y-61849000D02*
X161417000Y-61976000D01*
X162560000Y-74930000D02*
X163703000Y-73787000D01*
X161417000Y-61976000D02*
X161417000Y-66548000D01*
X162560000Y-74930000D02*
X161417000Y-76073000D01*
X163703000Y-73787000D02*
X163703000Y-68834000D01*
X163322000Y-67183000D02*
X162687000Y-67818000D01*
X163449000Y-67183000D02*
X163322000Y-67183000D01*
X163703000Y-68834000D02*
X162687000Y-67818000D01*
X162687000Y-67818000D02*
X161417000Y-66548000D01*
X161417000Y-84582000D02*
X161417000Y-76073000D01*
X161290000Y-84709000D02*
X161417000Y-84582000D01*
X137858500Y-89154000D02*
X137858500Y-81788000D01*
D17*
X104140000Y-101600000D02*
X104140000Y-99060000D01*
D18*
X132588000Y-100203000D02*
X133223000Y-99568000D01*
X104140000Y-100457000D02*
X112268000Y-100457000D01*
X133223000Y-97790000D02*
X137541000Y-93472000D01*
X133223000Y-99568000D02*
X133223000Y-97790000D01*
X113030000Y-101219000D02*
X113030000Y-101981000D01*
X112268000Y-100457000D02*
X113030000Y-101219000D01*
X113030000Y-101981000D02*
X113792000Y-102743000D01*
X122428000Y-102743000D02*
X123190000Y-101981000D01*
X128016000Y-100203000D02*
X132588000Y-100203000D01*
X113792000Y-102743000D02*
X122428000Y-102743000D01*
X123190000Y-101981000D02*
X123190000Y-101092000D01*
X123190000Y-101092000D02*
X123825000Y-100457000D01*
X123825000Y-100457000D02*
X127762000Y-100457000D01*
X127762000Y-100457000D02*
X128016000Y-100203000D01*
X137541000Y-67564000D02*
X137541000Y-74803000D01*
X139065000Y-66040000D02*
X137541000Y-67564000D01*
X160020000Y-93980000D02*
X162560000Y-93980000D01*
X165989000Y-90551000D02*
X165989000Y-88392000D01*
X162560000Y-93980000D02*
X165989000Y-90551000D01*
X106680000Y-101600000D02*
X108077000Y-102997000D01*
X108077000Y-102997000D02*
X155321000Y-102997000D01*
X155321000Y-102997000D02*
X156210000Y-102108000D01*
X156210000Y-97790000D02*
X160020000Y-93980000D01*
X156210000Y-102108000D02*
X156210000Y-97790000D01*
D17*
X91440000Y-54610000D02*
X96520000Y-54610000D01*
D18*
X161544000Y-67691000D02*
X161163000Y-67310000D01*
X161163000Y-67310000D02*
X161163000Y-62103000D01*
X161163000Y-62103000D02*
X160020000Y-60960000D01*
X132715000Y-92202000D02*
X133731000Y-91186000D01*
X132715000Y-92202000D02*
X116586000Y-92202000D01*
X116586000Y-92202000D02*
X116332000Y-91948000D01*
X116332000Y-84328000D02*
X115697000Y-83693000D01*
X116713000Y-58293000D02*
X115697000Y-59309000D01*
X115697000Y-59309000D02*
X115697000Y-83693000D01*
X133731000Y-77089000D02*
X126746000Y-77089000D01*
X126746000Y-77089000D02*
X125730000Y-76073000D01*
X125730000Y-76073000D02*
X125730000Y-73914000D01*
X125730000Y-73914000D02*
X126111000Y-73533000D01*
X126111000Y-73533000D02*
X126111000Y-73025000D01*
X126111000Y-73025000D02*
X125476000Y-72390000D01*
X125476000Y-72390000D02*
X123190000Y-72390000D01*
X122174000Y-71374000D02*
X122174000Y-67945000D01*
X123190000Y-72390000D02*
X122174000Y-71374000D01*
X117856000Y-54610000D02*
X117983000Y-54483000D01*
X117983000Y-54483000D02*
X133477000Y-54483000D01*
X133477000Y-54483000D02*
X134620000Y-53340000D01*
X99949000Y-94361000D02*
X99060000Y-95250000D01*
X103632000Y-94361000D02*
X99949000Y-94361000D01*
X117729000Y-57277000D02*
X117221000Y-57785000D01*
X117856000Y-57277000D02*
X117729000Y-57277000D01*
X115443000Y-82550000D02*
X103632000Y-94361000D01*
X116459000Y-57785000D02*
X115443000Y-58801000D01*
X117221000Y-57785000D02*
X116459000Y-57785000D01*
X115443000Y-58801000D02*
X115443000Y-82550000D01*
X141732000Y-92202000D02*
X139827000Y-92202000D01*
X139827000Y-92202000D02*
X138557000Y-90932000D01*
X138557000Y-90932000D02*
X138557000Y-90551000D01*
X136144000Y-92583000D02*
X136144000Y-94488000D01*
X136144000Y-94488000D02*
X132715000Y-97917000D01*
X132715000Y-97917000D02*
X129032000Y-97917000D01*
X129032000Y-97917000D02*
X128270000Y-98679000D01*
X128270000Y-98679000D02*
X128270000Y-99441000D01*
X128270000Y-99441000D02*
X127508000Y-100203000D01*
X127508000Y-100203000D02*
X122936000Y-100203000D01*
X122936000Y-100203000D02*
X122682000Y-100457000D01*
X122682000Y-100457000D02*
X116078000Y-100457000D01*
X114681000Y-99060000D02*
X114300000Y-99060000D01*
X116078000Y-100457000D02*
X114681000Y-99060000D01*
X135763000Y-54737000D02*
X137160000Y-53340000D01*
X118872000Y-54737000D02*
X118618000Y-54991000D01*
X135763000Y-54737000D02*
X118872000Y-54737000D01*
X114935000Y-82296000D02*
X103378000Y-93853000D01*
X116604559Y-57513501D02*
X116241058Y-57150000D01*
X118364000Y-56769000D02*
X117638058Y-56769000D01*
X114935000Y-57785000D02*
X114935000Y-82296000D01*
X118618000Y-57023000D02*
X118364000Y-56769000D01*
X115570000Y-57150000D02*
X114935000Y-57785000D01*
X117365499Y-57041559D02*
X117365499Y-57223443D01*
X117075441Y-57513501D02*
X116604559Y-57513501D01*
X116241058Y-57150000D02*
X115570000Y-57150000D01*
X117638058Y-56769000D02*
X117365499Y-57041559D01*
X117365499Y-57223443D02*
X117075441Y-57513501D01*
X97917000Y-93853000D02*
X96520000Y-95250000D01*
X103378000Y-93853000D02*
X97917000Y-93853000D01*
X134493000Y-77089000D02*
X134493000Y-76962000D01*
X115697000Y-100457000D02*
X116840000Y-101600000D01*
X113919000Y-100457000D02*
X115697000Y-100457000D01*
X113030000Y-99568000D02*
X113919000Y-100457000D01*
X134493000Y-76962000D02*
X134493000Y-77052942D01*
X133604000Y-95885000D02*
X132334000Y-97155000D01*
X113030000Y-98552000D02*
X113030000Y-99568000D01*
X134239000Y-89789000D02*
X134239000Y-92075000D01*
X133604000Y-92710000D02*
X133604000Y-95885000D01*
X134239000Y-92075000D02*
X133604000Y-92710000D01*
X133858000Y-77597000D02*
X133223000Y-78232000D01*
X133985000Y-77597000D02*
X134493000Y-77089000D01*
X133858000Y-77597000D02*
X133985000Y-77597000D01*
X113030000Y-98552000D02*
X113792000Y-97790000D01*
X113792000Y-97790000D02*
X114808000Y-97790000D01*
X114808000Y-97790000D02*
X115570000Y-98552000D01*
X115570000Y-98552000D02*
X115570000Y-99568000D01*
X115570000Y-99568000D02*
X116205000Y-100203000D01*
X116205000Y-100203000D02*
X122555000Y-100203000D01*
X122555000Y-100203000D02*
X123190000Y-99568000D01*
X123190000Y-99568000D02*
X123190000Y-98552000D01*
X134239000Y-89789000D02*
X133985000Y-89535000D01*
X133223000Y-80010000D02*
X133223000Y-78232000D01*
X132334000Y-97155000D02*
X128651000Y-97155000D01*
X128651000Y-97155000D02*
X128143000Y-97663000D01*
X128143000Y-97663000D02*
X126492000Y-97663000D01*
X126492000Y-97663000D02*
X126238000Y-97917000D01*
X123825000Y-97917000D02*
X123190000Y-98552000D01*
X126238000Y-97917000D02*
X123825000Y-97917000D01*
X136906000Y-78613000D02*
X137033000Y-78486000D01*
X136906000Y-79375000D02*
X136906000Y-78613000D01*
X137160000Y-79629000D02*
X136906000Y-79375000D01*
X139065000Y-79629000D02*
X137160000Y-79629000D01*
X139192000Y-79502000D02*
X139065000Y-79629000D01*
X133985000Y-89535000D02*
X133985000Y-87884000D01*
X133985000Y-87884000D02*
X134747000Y-87122000D01*
X134747000Y-81534000D02*
X133223000Y-80010000D01*
X134747000Y-87122000D02*
X134747000Y-81534000D01*
X153416000Y-67945000D02*
X153162000Y-68199000D01*
X153162000Y-68199000D02*
X151765000Y-68199000D01*
X151765000Y-68199000D02*
X151003000Y-67437000D01*
X151003000Y-67437000D02*
X151003000Y-65659000D01*
X151003000Y-65659000D02*
X149733000Y-64389000D01*
X149733000Y-64389000D02*
X143002000Y-64389000D01*
X154432000Y-56261000D02*
X153924000Y-55753000D01*
X155956000Y-67056000D02*
X156210000Y-67310000D01*
X156210000Y-67310000D02*
X158369000Y-67310000D01*
X154432000Y-56261000D02*
X157734000Y-56261000D01*
X157734000Y-56261000D02*
X158623000Y-57150000D01*
X158623000Y-67056000D02*
X158369000Y-67310000D01*
X158623000Y-57150000D02*
X158623000Y-67056000D01*
X167005000Y-81788000D02*
X167005000Y-59690000D01*
X165735000Y-83058000D02*
X167005000Y-81788000D01*
X142240000Y-53340000D02*
X143637000Y-51943000D01*
X163195000Y-54483000D02*
X163957000Y-55245000D01*
X163957000Y-56642000D02*
X167005000Y-59690000D01*
X163957000Y-55245000D02*
X163957000Y-56642000D01*
X163195000Y-54483000D02*
X161671000Y-54483000D01*
X161671000Y-54483000D02*
X161417000Y-54229000D01*
X161417000Y-54229000D02*
X161417000Y-52324000D01*
X161036000Y-51943000D02*
X143637000Y-51943000D01*
X161417000Y-52324000D02*
X161036000Y-51943000D01*
X135636000Y-60960000D02*
X135636000Y-61087000D01*
X141097000Y-55499000D02*
X135636000Y-60960000D01*
X152908000Y-55499000D02*
X141097000Y-55499000D01*
X153162000Y-55753000D02*
X152908000Y-55499000D01*
X164465000Y-76835000D02*
X165862000Y-76835000D01*
X166751000Y-75946000D02*
X166751000Y-59817000D01*
X165862000Y-76835000D02*
X166751000Y-75946000D01*
X144780000Y-53340000D02*
X145923000Y-52197000D01*
X163068000Y-54737000D02*
X163703000Y-55372000D01*
X163703000Y-56769000D02*
X166751000Y-59817000D01*
X163703000Y-55372000D02*
X163703000Y-56769000D01*
X145923000Y-52197000D02*
X160909000Y-52197000D01*
X160909000Y-52197000D02*
X161163000Y-52451000D01*
X161163000Y-52451000D02*
X161163000Y-54356000D01*
X161544000Y-54737000D02*
X163068000Y-54737000D01*
X161163000Y-54356000D02*
X161544000Y-54737000D01*
X139192000Y-65151000D02*
X139700000Y-65151000D01*
X152654000Y-67945000D02*
X153416000Y-67183000D01*
X142911058Y-61341000D02*
X143346942Y-61341000D01*
X142638499Y-61613559D02*
X142911058Y-61341000D01*
X142638499Y-62720501D02*
X142638499Y-61613559D01*
X151892000Y-67945000D02*
X152654000Y-67945000D01*
X149860000Y-64135000D02*
X151257000Y-65532000D01*
X151257000Y-65532000D02*
X151257000Y-67310000D01*
X141732000Y-63627000D02*
X142638499Y-62720501D01*
X151257000Y-67310000D02*
X151892000Y-67945000D01*
X146140942Y-64135000D02*
X149860000Y-64135000D01*
X143346942Y-61341000D02*
X146140942Y-64135000D01*
X155956000Y-66294000D02*
X155448000Y-66802000D01*
X155448000Y-66802000D02*
X155448000Y-67310000D01*
X155448000Y-67310000D02*
X155702000Y-67564000D01*
X155702000Y-67564000D02*
X158496000Y-67564000D01*
X158496000Y-67564000D02*
X158877000Y-67183000D01*
X158877000Y-67183000D02*
X158877000Y-57023000D01*
X157607000Y-55753000D02*
X154686000Y-55753000D01*
X158877000Y-57023000D02*
X157607000Y-55753000D01*
X139192000Y-65151000D02*
X137287000Y-67056000D01*
X137287000Y-67056000D02*
X137287000Y-74295000D01*
X136779000Y-74803000D02*
X136779000Y-75311000D01*
X137287000Y-74295000D02*
X136779000Y-74803000D01*
X120777000Y-65024000D02*
X119126000Y-66675000D01*
X133223000Y-91313000D02*
X133223000Y-90932000D01*
X133223000Y-90932000D02*
X133731000Y-90424000D01*
X132588000Y-91948000D02*
X133223000Y-91313000D01*
X118110000Y-91948000D02*
X132588000Y-91948000D01*
X117856000Y-91694000D02*
X118110000Y-91948000D01*
X119126000Y-82677000D02*
X117856000Y-83947000D01*
X119126000Y-66675000D02*
X119126000Y-82677000D01*
X149860000Y-50800000D02*
X148805899Y-49745899D01*
X148805899Y-49745899D02*
X99711325Y-49745899D01*
X99060000Y-57150000D02*
X97917000Y-56007000D01*
X97917000Y-51540224D02*
X99711325Y-49745899D01*
X97917000Y-56007000D02*
X97917000Y-51540224D01*
X164973000Y-59563000D02*
X165735000Y-60325000D01*
X116840000Y-55499000D02*
X115570000Y-54229000D01*
X115570000Y-52070000D02*
X114300000Y-50800000D01*
X115570000Y-54229000D02*
X115570000Y-52070000D01*
X116840000Y-55499000D02*
X118872000Y-55499000D01*
X118872000Y-55499000D02*
X119380000Y-54991000D01*
X164973000Y-59563000D02*
X162179000Y-59563000D01*
X162179000Y-59563000D02*
X161417000Y-58801000D01*
X161417000Y-58801000D02*
X161417000Y-57912000D01*
X161417000Y-57912000D02*
X160528000Y-57023000D01*
X160528000Y-57023000D02*
X159639000Y-57023000D01*
X157607000Y-54991000D02*
X119380000Y-54991000D01*
X159639000Y-57023000D02*
X157607000Y-54991000D01*
X165735000Y-67310000D02*
X165735000Y-62484000D01*
X165735000Y-62484000D02*
X163068000Y-59817000D01*
X116713000Y-55753000D02*
X114300000Y-53340000D01*
X116713000Y-55753000D02*
X118999000Y-55753000D01*
X118999000Y-55753000D02*
X119507000Y-55245000D01*
X163068000Y-59817000D02*
X162052000Y-59817000D01*
X162052000Y-59817000D02*
X161163000Y-58928000D01*
X161163000Y-58928000D02*
X161163000Y-58039000D01*
X161163000Y-58039000D02*
X160401000Y-57277000D01*
X160401000Y-57277000D02*
X159512000Y-57277000D01*
X157480000Y-55245000D02*
X119507000Y-55245000D01*
X159512000Y-57277000D02*
X157480000Y-55245000D01*
X135763000Y-60071000D02*
X135636000Y-60071000D01*
X143002000Y-63373000D02*
X142765499Y-63609501D01*
X142765499Y-63609501D02*
X142475441Y-63609501D01*
X142475441Y-63609501D02*
X141967441Y-64117501D01*
X141967441Y-64117501D02*
X140571501Y-64117501D01*
X140571501Y-64117501D02*
X140081000Y-63627000D01*
X117856000Y-64389000D02*
X118745000Y-63500000D01*
X117856000Y-74803000D02*
X117856000Y-64389000D01*
X121539000Y-61722000D02*
X124841000Y-58420000D01*
X120523000Y-61722000D02*
X121539000Y-61722000D01*
X124841000Y-58420000D02*
X125730000Y-58420000D01*
X125730000Y-58420000D02*
X126365000Y-59055000D01*
X126365000Y-59055000D02*
X126365000Y-62738000D01*
X126365000Y-62738000D02*
X126619000Y-62992000D01*
X126619000Y-62992000D02*
X132969000Y-62992000D01*
X135763000Y-60198000D02*
X135763000Y-60071000D01*
X132969000Y-62992000D02*
X135763000Y-60198000D01*
X119380000Y-64008000D02*
X118364000Y-65024000D01*
X118364000Y-65024000D02*
X118364000Y-75438000D01*
X121285000Y-62357000D02*
X124968000Y-58674000D01*
X119888000Y-62357000D02*
X121285000Y-62357000D01*
X124968000Y-58674000D02*
X125603000Y-58674000D01*
X125603000Y-58674000D02*
X126111000Y-59182000D01*
X126111000Y-59182000D02*
X126111000Y-62865000D01*
X126111000Y-62865000D02*
X126492000Y-63246000D01*
X133477000Y-63246000D02*
X133731000Y-62992000D01*
X126492000Y-63246000D02*
X133477000Y-63246000D01*
X141478000Y-89662000D02*
X142875000Y-91059000D01*
X137160000Y-89662000D02*
X141478000Y-89662000D01*
X136271000Y-88773000D02*
X137160000Y-89662000D01*
X136271000Y-78359000D02*
X136271000Y-88773000D01*
X135509000Y-91567000D02*
X135382000Y-91694000D01*
X135382000Y-91694000D02*
X135382000Y-94488000D01*
X135382000Y-94488000D02*
X132461000Y-97409000D01*
X136271000Y-78359000D02*
X136652000Y-77978000D01*
X138176000Y-77978000D02*
X138557000Y-78359000D01*
X136652000Y-77978000D02*
X138176000Y-77978000D01*
X138557000Y-78359000D02*
X139065000Y-77851000D01*
X139827000Y-66167000D02*
X140190501Y-65803499D01*
X140190501Y-65803499D02*
X140190501Y-64879501D01*
X140190501Y-64879501D02*
X139954000Y-64643000D01*
X139954000Y-64643000D02*
X139192000Y-64643000D01*
X139192000Y-64643000D02*
X138176000Y-63627000D01*
X132461000Y-97409000D02*
X128778000Y-97409000D01*
X128778000Y-97409000D02*
X128270000Y-97917000D01*
X128270000Y-97917000D02*
X126619000Y-97917000D01*
X125476000Y-99060000D02*
X124460000Y-99060000D01*
X126619000Y-97917000D02*
X125476000Y-99060000D01*
X139065000Y-77851000D02*
X139065000Y-77343000D01*
X139065000Y-77343000D02*
X138049000Y-76327000D01*
X138049000Y-76327000D02*
X138049000Y-74549000D01*
X138049000Y-74549000D02*
X137795000Y-74295000D01*
X137795000Y-68199000D02*
X139827000Y-66167000D01*
X137795000Y-74295000D02*
X137795000Y-68199000D01*
X137160000Y-99060000D02*
X138557000Y-97663000D01*
X138557000Y-97663000D02*
X138557000Y-93599000D01*
X137414000Y-79121000D02*
X138557000Y-79121000D01*
X138049000Y-92837000D02*
X134493000Y-89281000D01*
X138049000Y-93726000D02*
X138049000Y-92837000D01*
X132715000Y-100457000D02*
X133477000Y-99695000D01*
X128143000Y-100457000D02*
X132715000Y-100457000D01*
X127000000Y-101600000D02*
X128143000Y-100457000D01*
X133477000Y-99695000D02*
X133477000Y-98298000D01*
X133477000Y-98298000D02*
X138049000Y-93726000D01*
X133731000Y-78994000D02*
X133731000Y-78105000D01*
X134493000Y-79756000D02*
X133731000Y-78994000D01*
X133731000Y-78105000D02*
X133985000Y-77851000D01*
X133985000Y-77851000D02*
X134493000Y-77851000D01*
X134493000Y-77851000D02*
X135001000Y-77343000D01*
X135001000Y-77343000D02*
X135001000Y-76835000D01*
X135001000Y-76835000D02*
X134747000Y-76581000D01*
X134747000Y-76581000D02*
X133477000Y-76581000D01*
X133477000Y-76581000D02*
X133223000Y-76835000D01*
X133223000Y-76835000D02*
X126873000Y-76835000D01*
X126873000Y-76835000D02*
X125984000Y-75946000D01*
X125984000Y-75946000D02*
X125984000Y-74041000D01*
X125984000Y-74041000D02*
X126365000Y-73660000D01*
X126365000Y-73660000D02*
X126365000Y-72898000D01*
X126365000Y-72898000D02*
X125603000Y-72136000D01*
X122809000Y-67310000D02*
X122809000Y-71628000D01*
X123317000Y-72136000D02*
X125603000Y-72136000D01*
X122809000Y-71628000D02*
X123317000Y-72136000D01*
X134493000Y-89281000D02*
X134493000Y-88138000D01*
X134493000Y-88138000D02*
X135255000Y-87376000D01*
X135255000Y-80518000D02*
X134493000Y-79756000D01*
X135255000Y-87376000D02*
X135255000Y-80518000D01*
X140208000Y-91694000D02*
X142367000Y-91694000D01*
X139954000Y-91440000D02*
X140208000Y-91694000D01*
X132588000Y-97663000D02*
X135636000Y-94615000D01*
X135636000Y-94615000D02*
X135636000Y-92329000D01*
X135636000Y-92329000D02*
X135890000Y-92075000D01*
X136525000Y-92075000D02*
X137160000Y-92710000D01*
X135890000Y-92075000D02*
X136525000Y-92075000D01*
X118872000Y-66167000D02*
X120777000Y-64262000D01*
X118872000Y-81915000D02*
X117602000Y-83185000D01*
X118872000Y-66167000D02*
X118872000Y-81915000D01*
X132588000Y-97663000D02*
X128905000Y-97663000D01*
X127508000Y-99060000D02*
X127000000Y-99060000D01*
X128905000Y-97663000D02*
X127508000Y-99060000D01*
X137160000Y-95631000D02*
X135890000Y-96901000D01*
X135890000Y-100330000D02*
X137160000Y-101600000D01*
X135890000Y-96901000D02*
X135890000Y-100330000D01*
X139700000Y-101600000D02*
X138430000Y-100330000D01*
X138430000Y-100330000D02*
X138430000Y-98298000D01*
X138430000Y-98298000D02*
X139128500Y-97599500D01*
X139128500Y-97599500D02*
X139128500Y-94107000D01*
X137541000Y-90297000D02*
X140081000Y-92837000D01*
X138557000Y-77597000D02*
X136271000Y-77597000D01*
X136017000Y-89281000D02*
X136017000Y-79375000D01*
X137541000Y-90297000D02*
X137033000Y-90297000D01*
X137033000Y-90297000D02*
X136017000Y-89281000D01*
X136017000Y-79375000D02*
X135509000Y-78867000D01*
X135509000Y-78359000D02*
X136271000Y-77597000D01*
X135509000Y-78867000D02*
X135509000Y-78359000D01*
X141859000Y-62230000D02*
X140970000Y-62230000D01*
X140970000Y-62230000D02*
X140843000Y-62357000D01*
X138303000Y-64516000D02*
X138303000Y-65659000D01*
X136271000Y-75057000D02*
X136271000Y-77597000D01*
X136525000Y-74803000D02*
X136271000Y-75057000D01*
X136525000Y-74803000D02*
X136525000Y-74676000D01*
X136525000Y-74676000D02*
X137033000Y-74168000D01*
X137033000Y-66929000D02*
X138303000Y-65659000D01*
X137033000Y-74168000D02*
X137033000Y-66929000D01*
X138557000Y-92964000D02*
X138684000Y-92964000D01*
X134747000Y-78359000D02*
X134747000Y-79248000D01*
X135509000Y-74676000D02*
X135509000Y-77597000D01*
X135509000Y-77597000D02*
X134747000Y-78359000D01*
X134747000Y-89154000D02*
X138557000Y-92964000D01*
X138684000Y-92964000D02*
X139700000Y-93980000D01*
X139700000Y-93980000D02*
X139700000Y-97536000D01*
X139700000Y-97536000D02*
X140843000Y-98679000D01*
X140843000Y-100203000D02*
X142240000Y-101600000D01*
X140843000Y-98679000D02*
X140843000Y-100203000D01*
X134747000Y-79248000D02*
X135509000Y-80010000D01*
X135509000Y-80010000D02*
X135509000Y-87503000D01*
X134747000Y-88265000D02*
X134747000Y-89154000D01*
X135509000Y-87503000D02*
X134747000Y-88265000D01*
X141859000Y-96774000D02*
X144145000Y-99060000D01*
X141859000Y-93980000D02*
X141859000Y-96774000D01*
X135509000Y-89154000D02*
X138811000Y-92456000D01*
X135509000Y-88646000D02*
X135509000Y-89154000D01*
X138811000Y-92456000D02*
X138938000Y-92456000D01*
X144145000Y-99060000D02*
X144780000Y-99060000D01*
X138938000Y-92456000D02*
X140208000Y-93726000D01*
X141605000Y-93726000D02*
X141859000Y-93980000D01*
X140208000Y-93726000D02*
X141605000Y-93726000D01*
X141351000Y-66294000D02*
X141351000Y-65256224D01*
X141351000Y-65256224D02*
X140212277Y-64117501D01*
X139845559Y-64117501D02*
X139590499Y-63862441D01*
X140212277Y-64117501D02*
X139845559Y-64117501D01*
X139590499Y-63862441D02*
X139590499Y-63553557D01*
X139590499Y-63553557D02*
X139173441Y-63136499D01*
X139173441Y-63136499D02*
X137940559Y-63136499D01*
X137940559Y-63136499D02*
X137685499Y-63391559D01*
X138684000Y-92710000D02*
X138811000Y-92710000D01*
X136017000Y-77470000D02*
X135001000Y-78486000D01*
X135001000Y-89027000D02*
X138684000Y-92710000D01*
X135001000Y-78486000D02*
X135001000Y-79121000D01*
X146177000Y-100457000D02*
X147320000Y-101600000D01*
X138811000Y-92710000D02*
X139954000Y-93853000D01*
X139954000Y-93853000D02*
X139954000Y-97409000D01*
X139954000Y-97409000D02*
X141097000Y-98552000D01*
X141097000Y-98552000D02*
X141097000Y-99949000D01*
X141605000Y-100457000D02*
X146177000Y-100457000D01*
X141097000Y-99949000D02*
X141605000Y-100457000D01*
X136017000Y-77470000D02*
X136017000Y-74930000D01*
X136017000Y-74930000D02*
X136271000Y-74676000D01*
X137685499Y-63391559D02*
X137685499Y-65895501D01*
X135001000Y-89027000D02*
X135001000Y-88392000D01*
X135001000Y-88392000D02*
X135763000Y-87630000D01*
X135763000Y-79883000D02*
X135001000Y-79121000D01*
X135763000Y-87630000D02*
X135763000Y-79883000D01*
X136271000Y-74676000D02*
X136271000Y-74549000D01*
X136271000Y-74549000D02*
X136779000Y-74041000D01*
X136779000Y-66802000D02*
X137685499Y-65895501D01*
X136779000Y-74041000D02*
X136779000Y-66802000D01*
X138995834Y-63627000D02*
X138938000Y-63627000D01*
X139682511Y-64371511D02*
X138938000Y-63627000D01*
X140107063Y-64371511D02*
X139682511Y-64371511D01*
X143383000Y-89281000D02*
X143383000Y-91440000D01*
X143383000Y-91440000D02*
X142113000Y-92710000D01*
X146177000Y-97917000D02*
X147320000Y-99060000D01*
X142113000Y-92710000D02*
X142113000Y-96647000D01*
X143383000Y-97917000D02*
X146177000Y-97917000D01*
X142113000Y-96647000D02*
X143383000Y-97917000D01*
X143383000Y-89281000D02*
X143129000Y-89027000D01*
X143129000Y-89027000D02*
X139065000Y-89027000D01*
X139065000Y-89027000D02*
X138430000Y-88392000D01*
X138430000Y-88392000D02*
X138430000Y-82296000D01*
X140462000Y-64726448D02*
X140107063Y-64371511D01*
X140462000Y-66294000D02*
X140462000Y-64726448D01*
X139954000Y-75946000D02*
X138049000Y-74041000D01*
X138049000Y-68707000D02*
X140462000Y-66294000D01*
X138049000Y-74041000D02*
X138049000Y-68707000D01*
X138430000Y-82296000D02*
X138684010Y-82041990D01*
X138684010Y-82041990D02*
X138684010Y-81152990D01*
X139954000Y-79883000D02*
X139954000Y-75946000D01*
X138684010Y-81152990D02*
X139954000Y-79883000D01*
X148717000Y-100457000D02*
X149860000Y-101600000D01*
X146536224Y-100457000D02*
X148717000Y-100457000D01*
X141351000Y-96647000D02*
X143510000Y-98806000D01*
X141351000Y-94234000D02*
X141351000Y-96647000D01*
X144145000Y-100203000D02*
X146282224Y-100203000D01*
X143510000Y-98806000D02*
X143510000Y-99568000D01*
X143510000Y-99568000D02*
X144145000Y-100203000D01*
X146282224Y-100203000D02*
X146536224Y-100457000D01*
X149860000Y-99060000D02*
X148717000Y-97917000D01*
X148717000Y-97917000D02*
X146558000Y-97917000D01*
X143637000Y-89154000D02*
X143637000Y-91567000D01*
X143637000Y-91567000D02*
X142367000Y-92837000D01*
X146304000Y-97663000D02*
X146558000Y-97917000D01*
X142367000Y-92837000D02*
X142367000Y-96520000D01*
X143510000Y-97663000D02*
X146304000Y-97663000D01*
X142367000Y-96520000D02*
X143510000Y-97663000D01*
X143637000Y-89154000D02*
X143256000Y-88773000D01*
X143256000Y-88773000D02*
X139192000Y-88773000D01*
X139192000Y-88773000D02*
X138684000Y-88265000D01*
X138684000Y-88265000D02*
X138684000Y-82423000D01*
X138684000Y-82423000D02*
X138938020Y-82168980D01*
X138938020Y-82168980D02*
X138938020Y-81279980D01*
X139954000Y-80264000D02*
X141351000Y-80264000D01*
X138938020Y-81279980D02*
X139954000Y-80264000D01*
D20*
X125222000Y-59563000D02*
X124968000Y-59563000D01*
D19*
X153162000Y-65278000D02*
X154559000Y-66675000D01*
D17*
X155194000Y-63246000D02*
X153162000Y-65278000D01*
X155194000Y-63246000D02*
X155194000Y-61468000D01*
X152146000Y-66294000D02*
X153162000Y-65278000D01*
X152146000Y-67056000D02*
X152146000Y-66294000D01*
X121920000Y-62865000D02*
X121920000Y-63500000D01*
X125222000Y-59563000D02*
X121920000Y-62865000D01*
X110236000Y-77470000D02*
X110998000Y-77470000D01*
X110998000Y-77470000D02*
X111760000Y-77470000D01*
D21*
X120396000Y-83947000D02*
X118364000Y-85979000D01*
X120396000Y-67564000D02*
X120396000Y-83947000D01*
X143737203Y-60024999D02*
X139345797Y-60024999D01*
X114046000Y-85979000D02*
X111760000Y-88265000D01*
X118364000Y-85979000D02*
X114046000Y-85979000D01*
X139345797Y-60024999D02*
X134854796Y-64516000D01*
X134854796Y-64516000D02*
X124120001Y-64474999D01*
X124120001Y-64474999D02*
X123485001Y-64474999D01*
X153162000Y-65278000D02*
X150812490Y-62928490D01*
X123485001Y-64474999D02*
X120396000Y-67564000D01*
D19*
X154559000Y-66675000D02*
X154559000Y-67564000D01*
D17*
X118999000Y-62611000D02*
X119888000Y-63500000D01*
X118999000Y-57658000D02*
X118999000Y-62611000D01*
X119380000Y-57277000D02*
X118999000Y-57658000D01*
X112522000Y-76708000D02*
X112522000Y-59182000D01*
X119888000Y-63500000D02*
X121920000Y-63500000D01*
X115443000Y-56261000D02*
X118872000Y-56261000D01*
X112522000Y-59182000D02*
X115443000Y-56261000D01*
X118872000Y-56261000D02*
X119380000Y-56769000D01*
X111760000Y-77470000D02*
X112522000Y-76708000D01*
X119380000Y-56769000D02*
X119380000Y-57277000D01*
D21*
X146640694Y-62928490D02*
X150812490Y-62928490D01*
X143737203Y-60024999D02*
X146640694Y-62928490D01*
D17*
X123063000Y-75438000D02*
X125222000Y-73279000D01*
X123063000Y-77343000D02*
X123063000Y-75438000D01*
D19*
X116459000Y-90297000D02*
X113665000Y-93091000D01*
X113665000Y-93091000D02*
X110744000Y-93091000D01*
D17*
X123063000Y-77343000D02*
X123063000Y-86995000D01*
X123063000Y-86995000D02*
X125476000Y-86995000D01*
X123063000Y-90932000D02*
X123190000Y-91059000D01*
X123063000Y-86995000D02*
X123063000Y-90932000D01*
D19*
X123063000Y-86995000D02*
X122301000Y-86995000D01*
X118999000Y-90297000D02*
X116459000Y-90297000D01*
X122301000Y-86995000D02*
X118999000Y-90297000D01*
X154559000Y-67564000D02*
X158115000Y-71120000D01*
X158115000Y-71120000D02*
X158115000Y-76327000D01*
X158115000Y-76327000D02*
X158115000Y-81407000D01*
D17*
X158115000Y-76327000D02*
X155321000Y-76327000D01*
X151892000Y-81407000D02*
X158115000Y-81407000D01*
X154940000Y-95377000D02*
X152273000Y-95377000D01*
X157861000Y-92456000D02*
X154940000Y-95377000D01*
X158115000Y-81407000D02*
X158115000Y-88265000D01*
X158115000Y-88265000D02*
X157861000Y-88519000D01*
X155829000Y-89789000D02*
X155321000Y-90297000D01*
X157861000Y-89789000D02*
X157861000Y-92456000D01*
X157861000Y-89789000D02*
X155829000Y-89789000D01*
X157861000Y-88519000D02*
X157861000Y-89789000D01*
D18*
X135001000Y-92075000D02*
X134112000Y-92964000D01*
X135001000Y-90170000D02*
X135001000Y-92075000D01*
X134239000Y-89408000D02*
X135001000Y-90170000D01*
X133731000Y-79756000D02*
X135001000Y-81026000D01*
X135001000Y-81026000D02*
X135001000Y-87249000D01*
X134239000Y-88011000D02*
X134239000Y-89408000D01*
X135001000Y-87249000D02*
X134239000Y-88011000D01*
X139446000Y-76200000D02*
X139700000Y-76454000D01*
X142875000Y-89535000D02*
X142748000Y-89408000D01*
X142748000Y-89408000D02*
X139065000Y-89408000D01*
X139065000Y-89408000D02*
X138176000Y-88519000D01*
X138176000Y-88519000D02*
X138176000Y-82169000D01*
X139700000Y-76454000D02*
X139700000Y-79756000D01*
X139700000Y-79756000D02*
X138430000Y-81026000D01*
X138430000Y-81915000D02*
X138176000Y-82169000D01*
X138430000Y-81026000D02*
X138430000Y-81915000D01*
X143492501Y-63608441D02*
X143492501Y-62212501D01*
X141478000Y-75692000D02*
X140081000Y-75692000D01*
X140335000Y-66802000D02*
X141605000Y-66802000D01*
X141605000Y-66802000D02*
X141859000Y-66548000D01*
X143202443Y-63898499D02*
X143492501Y-63608441D01*
X143492501Y-62212501D02*
X143129000Y-61849000D01*
X141859000Y-66548000D02*
X141859000Y-64806058D01*
X142766559Y-63898499D02*
X143202443Y-63898499D01*
X141859000Y-64806058D02*
X142766559Y-63898499D01*
X140081000Y-75692000D02*
X138303000Y-73914000D01*
X138303000Y-68834000D02*
X140335000Y-66802000D01*
X138303000Y-73914000D02*
X138303000Y-68834000D01*
X142113000Y-61468000D02*
X142384489Y-61739489D01*
X142384489Y-61739489D02*
X142384489Y-62430453D01*
X142384489Y-62430453D02*
X141695942Y-63119000D01*
X141695942Y-63119000D02*
X141097000Y-63119000D01*
X134366000Y-78359000D02*
X134239000Y-78359000D01*
X135255000Y-75184000D02*
X135255000Y-77470000D01*
X135001000Y-74930000D02*
X135255000Y-75184000D01*
X135255000Y-77470000D02*
X134366000Y-78359000D01*
X135001000Y-74930000D02*
X135001000Y-74422000D01*
X135001000Y-74422000D02*
X135255000Y-74168000D01*
X135255000Y-74168000D02*
X136271000Y-74168000D01*
X136271000Y-74168000D02*
X136525000Y-73914000D01*
X136525000Y-67056000D02*
X135382000Y-65913000D01*
X136525000Y-73914000D02*
X136525000Y-67056000D01*
X152400000Y-50800000D02*
X151091889Y-49491889D01*
X151091889Y-49491889D02*
X99606111Y-49491889D01*
X95250000Y-55880000D02*
X93980000Y-57150000D01*
X95250000Y-55880000D02*
X97028000Y-55880000D01*
X97028000Y-55880000D02*
X97663000Y-55245000D01*
X97663000Y-51435000D02*
X99606111Y-49491889D01*
X97663000Y-55245000D02*
X97663000Y-51435000D01*
X116522510Y-56705510D02*
X115633490Y-56705510D01*
X116840000Y-57023000D02*
X116522510Y-56705510D01*
X114681000Y-82169000D02*
X103251000Y-93599000D01*
X115633490Y-56705510D02*
X114681000Y-57658000D01*
X114681000Y-57658000D02*
X114681000Y-82169000D01*
X103251000Y-93599000D02*
X97790000Y-93599000D01*
X97790000Y-93599000D02*
X97282000Y-94107000D01*
X92583000Y-94107000D02*
X91440000Y-95250000D01*
X97282000Y-94107000D02*
X92583000Y-94107000D01*
X115189000Y-58293000D02*
X115189000Y-82423000D01*
X115189000Y-82423000D02*
X103505000Y-94107000D01*
X115824000Y-57658000D02*
X115189000Y-58293000D01*
X103505000Y-94107000D02*
X98171000Y-94107000D01*
X98171000Y-94107000D02*
X97790000Y-94488000D01*
X97790000Y-94488000D02*
X97790000Y-96012000D01*
X97790000Y-96012000D02*
X97282000Y-96520000D01*
X95250000Y-96520000D02*
X93980000Y-95250000D01*
X97282000Y-96520000D02*
X95250000Y-96520000D01*
X138557000Y-52705000D02*
X137795000Y-51943000D01*
X138557000Y-53848000D02*
X138557000Y-52705000D01*
X166497000Y-59944000D02*
X163576000Y-57023000D01*
X137795000Y-51943000D02*
X120523000Y-51943000D01*
X166497000Y-75438000D02*
X166497000Y-59944000D01*
X165735000Y-76200000D02*
X166497000Y-75438000D01*
X120523000Y-51943000D02*
X119380000Y-50800000D01*
X163576000Y-57023000D02*
X162179000Y-57023000D01*
X162179000Y-57023000D02*
X161417000Y-56261000D01*
X161417000Y-56261000D02*
X161417000Y-55372000D01*
X161417000Y-55372000D02*
X160528000Y-54483000D01*
X139192000Y-54483000D02*
X160528000Y-54483000D01*
X138557000Y-53848000D02*
X139192000Y-54483000D01*
X120523000Y-52197000D02*
X119380000Y-53340000D01*
X138303000Y-52832000D02*
X137668000Y-52197000D01*
X138303000Y-53975000D02*
X138303000Y-52832000D01*
X164719000Y-66167000D02*
X165227000Y-66675000D01*
X137668000Y-52197000D02*
X120523000Y-52197000D01*
X166243000Y-60071000D02*
X163449000Y-57277000D01*
X164211000Y-66167000D02*
X164719000Y-66167000D01*
X166243000Y-67564000D02*
X166243000Y-60071000D01*
X165227000Y-67564000D02*
X165481000Y-67818000D01*
X165227000Y-66675000D02*
X165227000Y-67564000D01*
X165481000Y-67818000D02*
X165989000Y-67818000D01*
X165989000Y-67818000D02*
X166243000Y-67564000D01*
X163449000Y-57277000D02*
X162052000Y-57277000D01*
X162052000Y-57277000D02*
X161163000Y-56388000D01*
X161163000Y-56388000D02*
X161163000Y-55499000D01*
X161163000Y-55499000D02*
X160401000Y-54737000D01*
X139065000Y-54737000D02*
X138303000Y-53975000D01*
X160401000Y-54737000D02*
X139065000Y-54737000D01*
X164211000Y-66167000D02*
X163957000Y-66421000D01*
X163957000Y-76200000D02*
X163703000Y-76454000D01*
X163957000Y-66421000D02*
X163957000Y-76200000D01*
X163703000Y-83439000D02*
X163703000Y-76454000D01*
X163576000Y-83566000D02*
X163703000Y-83439000D01*
X153543000Y-100457000D02*
X153543000Y-97917000D01*
X152400000Y-101600000D02*
X153543000Y-100457000D01*
X165100000Y-88646000D02*
X163703000Y-90043000D01*
X163703000Y-90043000D02*
X159385000Y-90043000D01*
X159385000Y-90043000D02*
X158623000Y-90805000D01*
X158623000Y-92837000D02*
X153543000Y-97917000D01*
X158623000Y-90805000D02*
X158623000Y-92837000D01*
X165100000Y-88646000D02*
X165100000Y-86868000D01*
X161290000Y-73787000D02*
X161290000Y-68453000D01*
X161163000Y-73914000D02*
X161290000Y-73787000D01*
X161163000Y-73914000D02*
X161163000Y-84074000D01*
X161163000Y-84074000D02*
X160782000Y-84455000D01*
X160782000Y-84455000D02*
X160782000Y-84963000D01*
X160782000Y-84963000D02*
X161036000Y-85217000D01*
X163449000Y-85217000D02*
X165100000Y-86868000D01*
X161036000Y-85217000D02*
X163449000Y-85217000D01*
X114427000Y-94615000D02*
X112903000Y-94615000D01*
X151130000Y-98679000D02*
X151130000Y-100330000D01*
X164592000Y-88265000D02*
X163957000Y-87630000D01*
X163957000Y-87630000D02*
X159512000Y-87630000D01*
X159512000Y-87630000D02*
X158369000Y-88773000D01*
X158369000Y-88773000D02*
X158369000Y-92710000D01*
X158369000Y-92710000D02*
X153162000Y-97917000D01*
X151892000Y-97917000D02*
X151130000Y-98679000D01*
X153162000Y-97917000D02*
X151892000Y-97917000D01*
X152781000Y-102743000D02*
X125603000Y-102743000D01*
X153797000Y-101727000D02*
X152781000Y-102743000D01*
X153797000Y-98171000D02*
X153797000Y-101727000D01*
X163957000Y-77216000D02*
X164084000Y-77343000D01*
X164084000Y-84455000D02*
X165354000Y-85725000D01*
X164084000Y-77343000D02*
X164084000Y-84455000D01*
X125603000Y-102743000D02*
X124460000Y-101600000D01*
X165354000Y-85725000D02*
X165354000Y-88773000D01*
X165354000Y-88773000D02*
X163830000Y-90297000D01*
X163830000Y-90297000D02*
X159512000Y-90297000D01*
X159512000Y-90297000D02*
X158877000Y-90932000D01*
X158877000Y-93091000D02*
X153797000Y-98171000D01*
X158877000Y-90932000D02*
X158877000Y-93091000D01*
X164465000Y-66675000D02*
X164465000Y-76073000D01*
X163957000Y-76581000D02*
X163957000Y-77216000D01*
X164465000Y-76073000D02*
X163957000Y-76581000D01*
D22*
X89282270Y-49277270D02*
X99192112Y-49277270D01*
X89282270Y-49518570D02*
X98950813Y-49518570D01*
X89282270Y-49759870D02*
X98709513Y-49759870D01*
X89282270Y-50001170D02*
X98468213Y-50001170D01*
X89282270Y-50242470D02*
X98226913Y-50242470D01*
X99843371Y-50242470D02*
X100488464Y-50242470D01*
X102711537Y-50242470D02*
X103023792Y-50242470D01*
X105256209Y-50242470D02*
X105563792Y-50242470D01*
X89282270Y-50483770D02*
X97985613Y-50483770D01*
X99602071Y-50483770D02*
X100397905Y-50483770D01*
X102802094Y-50483770D02*
X102933919Y-50483770D01*
X105346082Y-50483770D02*
X105473919Y-50483770D01*
X89282270Y-50725070D02*
X97744313Y-50725070D01*
X99360771Y-50725070D02*
X102895400Y-50725070D01*
X105384600Y-50725070D02*
X105435400Y-50725070D01*
X89282270Y-50966370D02*
X90895166Y-50966370D01*
X91313000Y-50966370D02*
X91567000Y-50966370D01*
X91984835Y-50966370D02*
X93435166Y-50966370D01*
X93853000Y-50966370D02*
X94107000Y-50966370D01*
X94524835Y-50966370D02*
X95975166Y-50966370D01*
X96393000Y-50966370D02*
X96647000Y-50966370D01*
X97064835Y-50966370D02*
X97503013Y-50966370D01*
X99604835Y-50966370D02*
X100444817Y-50966370D01*
X101473000Y-50966370D02*
X101727000Y-50966370D01*
X102755184Y-50966370D02*
X102904109Y-50966370D01*
X105375890Y-50966370D02*
X105444109Y-50966370D01*
X89282270Y-51207670D02*
X90568488Y-51207670D01*
X91313000Y-51207670D02*
X91567000Y-51207670D01*
X92311513Y-51207670D02*
X93108488Y-51207670D01*
X93853000Y-51207670D02*
X94107000Y-51207670D01*
X94851513Y-51207670D02*
X95648488Y-51207670D01*
X96393000Y-51207670D02*
X96647000Y-51207670D01*
X99931514Y-51207670D02*
X100430076Y-51207670D01*
X101473000Y-51207670D02*
X101727000Y-51207670D01*
X102769923Y-51207670D02*
X102961717Y-51207670D01*
X105318282Y-51207670D02*
X105501717Y-51207670D01*
X89282270Y-51448970D02*
X90377686Y-51448970D01*
X91313000Y-51448970D02*
X91567000Y-51448970D01*
X92502315Y-51448970D02*
X92917686Y-51448970D01*
X93853000Y-51448970D02*
X94107000Y-51448970D01*
X95042315Y-51448970D02*
X95457686Y-51448970D01*
X96393000Y-51448970D02*
X96647000Y-51448970D01*
X100122315Y-51448970D02*
X100545007Y-51448970D01*
X101473000Y-51448970D02*
X101727000Y-51448970D01*
X102654992Y-51448970D02*
X103076760Y-51448970D01*
X105203239Y-51448970D02*
X105616760Y-51448970D01*
X107743240Y-51448970D02*
X107784364Y-51448970D01*
X89282270Y-51690270D02*
X90269542Y-51690270D01*
X91313000Y-51690270D02*
X91567000Y-51690270D01*
X92610459Y-51690270D02*
X92809542Y-51690270D01*
X93853000Y-51690270D02*
X94107000Y-51690270D01*
X95150459Y-51690270D02*
X95349542Y-51690270D01*
X96393000Y-51690270D02*
X96647000Y-51690270D01*
X100230459Y-51690270D02*
X100736573Y-51690270D01*
X101473000Y-51690270D02*
X101727000Y-51690270D01*
X102463426Y-51690270D02*
X103270140Y-51690270D01*
X105009860Y-51690270D02*
X105810140Y-51690270D01*
X107549860Y-51690270D02*
X108025664Y-51690270D01*
X89282270Y-51931570D02*
X90307711Y-51931570D01*
X91313000Y-51931570D02*
X91567000Y-51931570D01*
X92572288Y-51931570D02*
X92847711Y-51931570D01*
X93853000Y-51931570D02*
X94107000Y-51931570D01*
X95112288Y-51931570D02*
X95387711Y-51931570D01*
X96393000Y-51931570D02*
X96647000Y-51931570D01*
X98933000Y-51931570D02*
X99187000Y-51931570D01*
X100192288Y-51931570D02*
X101096177Y-51931570D01*
X101473000Y-51931570D02*
X101727000Y-51931570D01*
X102103822Y-51931570D02*
X103619555Y-51931570D01*
X104660444Y-51931570D02*
X106159555Y-51931570D01*
X107200444Y-51931570D02*
X108266964Y-51931570D01*
X89282270Y-52172870D02*
X96667000Y-52172870D01*
X98913000Y-52172870D02*
X100505680Y-52172870D01*
X101455220Y-52172870D02*
X101744780Y-52172870D01*
X102694321Y-52172870D02*
X103705405Y-52172870D01*
X104574596Y-52172870D02*
X106245405Y-52172870D01*
X107114596Y-52172870D02*
X108508264Y-52172870D01*
X89282270Y-52414170D02*
X90258756Y-52414170D01*
X91313000Y-52414170D02*
X91567000Y-52414170D01*
X92621243Y-52414170D02*
X92798756Y-52414170D01*
X93853000Y-52414170D02*
X94107000Y-52414170D01*
X95161243Y-52414170D02*
X95338756Y-52414170D01*
X96393000Y-52414170D02*
X96647000Y-52414170D01*
X98933000Y-52414170D02*
X99187000Y-52414170D01*
X100241243Y-52414170D02*
X100359686Y-52414170D01*
X101473000Y-52414170D02*
X101727000Y-52414170D01*
X102840315Y-52414170D02*
X103305700Y-52414170D01*
X104974300Y-52414170D02*
X105845700Y-52414170D01*
X107514300Y-52414170D02*
X108385700Y-52414170D01*
X89282270Y-52655470D02*
X90360440Y-52655470D01*
X91313000Y-52655470D02*
X91567000Y-52655470D01*
X92519559Y-52655470D02*
X92900440Y-52655470D01*
X93853000Y-52655470D02*
X94107000Y-52655470D01*
X95059559Y-52655470D02*
X95440440Y-52655470D01*
X96393000Y-52655470D02*
X96647000Y-52655470D01*
X98933000Y-52655470D02*
X99187000Y-52655470D01*
X100139559Y-52655470D02*
X100354071Y-52655470D01*
X101473000Y-52655470D02*
X101727000Y-52655470D01*
X102845928Y-52655470D02*
X103100521Y-52655470D01*
X105179480Y-52655470D02*
X105640521Y-52655470D01*
X107719480Y-52655470D02*
X108180521Y-52655470D01*
X89282270Y-52896770D02*
X90530415Y-52896770D01*
X91313000Y-52896770D02*
X91567000Y-52896770D01*
X92349584Y-52896770D02*
X93070415Y-52896770D01*
X93853000Y-52896770D02*
X94107000Y-52896770D01*
X94889584Y-52896770D02*
X95610415Y-52896770D01*
X96393000Y-52896770D02*
X96647000Y-52896770D01*
X98933000Y-52896770D02*
X99187000Y-52896770D01*
X99969584Y-52896770D02*
X100354764Y-52896770D01*
X101473000Y-52896770D02*
X101727000Y-52896770D01*
X102845235Y-52896770D02*
X102976447Y-52896770D01*
X105303554Y-52896770D02*
X105516447Y-52896770D01*
X107843554Y-52896770D02*
X108056447Y-52896770D01*
X89282270Y-53138070D02*
X90837805Y-53138070D01*
X91313000Y-53138070D02*
X91567000Y-53138070D01*
X92042194Y-53138070D02*
X93377805Y-53138070D01*
X93853000Y-53138070D02*
X94107000Y-53138070D01*
X94582194Y-53138070D02*
X95917805Y-53138070D01*
X96393000Y-53138070D02*
X96647000Y-53138070D01*
X97122194Y-53138070D02*
X97218501Y-53138070D01*
X98361500Y-53138070D02*
X98457805Y-53138070D01*
X98933000Y-53138070D02*
X99187000Y-53138070D01*
X99662194Y-53138070D02*
X100375720Y-53138070D01*
X101473000Y-53138070D02*
X101727000Y-53138070D01*
X102824280Y-53138070D02*
X102911184Y-53138070D01*
X105368817Y-53138070D02*
X105451184Y-53138070D01*
X107908817Y-53138070D02*
X107991184Y-53138070D01*
X89282270Y-53379370D02*
X91316897Y-53379370D01*
X91563104Y-53379370D02*
X93856897Y-53379370D01*
X94103104Y-53379370D02*
X96396897Y-53379370D01*
X96643104Y-53379370D02*
X97218501Y-53379370D01*
X98361500Y-53379370D02*
X98936897Y-53379370D01*
X99183104Y-53379370D02*
X102895400Y-53379370D01*
X105384600Y-53379370D02*
X105435400Y-53379370D01*
X107924600Y-53379370D02*
X107975400Y-53379370D01*
X89282270Y-53620670D02*
X90704896Y-53620670D01*
X92175105Y-53620670D02*
X93244896Y-53620670D01*
X94715105Y-53620670D02*
X95784896Y-53620670D01*
X99795105Y-53620670D02*
X100355233Y-53620670D01*
X101473000Y-53620670D02*
X101727000Y-53620670D01*
X102844768Y-53620670D02*
X102926845Y-53620670D01*
X105353154Y-53620670D02*
X105466845Y-53620670D01*
X107893154Y-53620670D02*
X108006845Y-53620670D01*
X89282270Y-53861970D02*
X90459307Y-53861970D01*
X92420694Y-53861970D02*
X92999307Y-53861970D01*
X94960694Y-53861970D02*
X95539307Y-53861970D01*
X100040694Y-53861970D02*
X100354539Y-53861970D01*
X101473000Y-53861970D02*
X101727000Y-53861970D01*
X102845462Y-53861970D02*
X103009061Y-53861970D01*
X105270938Y-53861970D02*
X105549061Y-53861970D01*
X107810938Y-53861970D02*
X108089061Y-53861970D01*
X89282270Y-54103270D02*
X90317470Y-54103270D01*
X100182531Y-54103270D02*
X100353846Y-54103270D01*
X101473000Y-54103270D02*
X101727000Y-54103270D01*
X102846155Y-54103270D02*
X103153133Y-54103270D01*
X105126866Y-54103270D02*
X105693133Y-54103270D01*
X107666866Y-54103270D02*
X108233133Y-54103270D01*
X110206866Y-54103270D02*
X110438664Y-54103270D01*
X89282270Y-54344570D02*
X90237681Y-54344570D01*
X100262320Y-54344570D02*
X100381019Y-54344570D01*
X101473000Y-54344570D02*
X101727000Y-54344570D01*
X102818980Y-54344570D02*
X103403224Y-54344570D01*
X104876775Y-54344570D02*
X105943224Y-54344570D01*
X107416775Y-54344570D02*
X108483224Y-54344570D01*
X109956775Y-54344570D02*
X110679964Y-54344570D01*
X89282270Y-54585870D02*
X90209000Y-54585870D01*
X100291000Y-54585870D02*
X100730582Y-54585870D01*
X100935799Y-54585870D02*
X102264200Y-54585870D01*
X102469417Y-54585870D02*
X110921264Y-54585870D01*
X89282270Y-54827170D02*
X90228081Y-54827170D01*
X100271918Y-54827170D02*
X111162564Y-54827170D01*
X89282270Y-55068470D02*
X90297480Y-55068470D01*
X100202519Y-55068470D02*
X111403864Y-55068470D01*
X89282270Y-55309770D02*
X90427060Y-55309770D01*
X92452939Y-55309770D02*
X92967060Y-55309770D01*
X94992939Y-55309770D02*
X95507060Y-55309770D01*
X100072939Y-55309770D02*
X111633000Y-55309770D01*
X89282270Y-55551070D02*
X90640173Y-55551070D01*
X92239827Y-55551070D02*
X93180173Y-55551070D01*
X94779827Y-55551070D02*
X94950135Y-55551070D01*
X99859827Y-55551070D02*
X111633000Y-55551070D01*
X89282270Y-55792370D02*
X91077736Y-55792370D01*
X91802263Y-55792370D02*
X93617736Y-55792370D01*
X94342263Y-55792370D02*
X94709013Y-55792370D01*
X98361500Y-55792370D02*
X98697736Y-55792370D01*
X99422263Y-55792370D02*
X111633000Y-55792370D01*
X89282270Y-56033670D02*
X90315694Y-56033670D01*
X92564307Y-56033670D02*
X92855694Y-56033670D01*
X100184307Y-56033670D02*
X111633000Y-56033670D01*
X89282270Y-56274970D02*
X90209623Y-56274970D01*
X92670378Y-56274970D02*
X92749623Y-56274970D01*
X100290378Y-56274970D02*
X111633000Y-56274970D01*
X89282270Y-56516270D02*
X90207157Y-56516270D01*
X92672843Y-56516270D02*
X92747157Y-56516270D01*
X95242347Y-56516270D02*
X95287157Y-56516270D01*
X97752843Y-56516270D02*
X97797653Y-56516270D01*
X100292843Y-56516270D02*
X111633000Y-56516270D01*
X89282270Y-56757570D02*
X90207157Y-56757570D01*
X92672843Y-56757570D02*
X92747157Y-56757570D01*
X95212843Y-56757570D02*
X95287157Y-56757570D01*
X97752843Y-56757570D02*
X97827157Y-56757570D01*
X100292843Y-56757570D02*
X111633000Y-56757570D01*
X89282270Y-56998870D02*
X90207157Y-56998870D01*
X92672843Y-56998870D02*
X92747157Y-56998870D01*
X95212843Y-56998870D02*
X95287157Y-56998870D01*
X97752843Y-56998870D02*
X97827157Y-56998870D01*
X100292843Y-56998870D02*
X111633000Y-56998870D01*
X89282270Y-57240170D02*
X90207157Y-57240170D01*
X92672843Y-57240170D02*
X92747157Y-57240170D01*
X95212843Y-57240170D02*
X95287157Y-57240170D01*
X97752843Y-57240170D02*
X97827157Y-57240170D01*
X100292843Y-57240170D02*
X111633000Y-57240170D01*
X89282270Y-57481470D02*
X90207157Y-57481470D01*
X92672843Y-57481470D02*
X92747157Y-57481470D01*
X95212843Y-57481470D02*
X95287157Y-57481470D01*
X97752843Y-57481470D02*
X97827157Y-57481470D01*
X100292843Y-57481470D02*
X111633000Y-57481470D01*
X89282270Y-57722770D02*
X90207157Y-57722770D01*
X92672843Y-57722770D02*
X92747157Y-57722770D01*
X95212843Y-57722770D02*
X95287157Y-57722770D01*
X97752843Y-57722770D02*
X97827157Y-57722770D01*
X100292843Y-57722770D02*
X111633000Y-57722770D01*
X89282270Y-57964070D02*
X90207157Y-57964070D01*
X92672843Y-57964070D02*
X92747157Y-57964070D01*
X95212843Y-57964070D02*
X95287157Y-57964070D01*
X97752843Y-57964070D02*
X97827157Y-57964070D01*
X100292843Y-57964070D02*
X111633000Y-57964070D01*
X89282270Y-58205370D02*
X90267762Y-58205370D01*
X92612237Y-58205370D02*
X92807762Y-58205370D01*
X95152237Y-58205370D02*
X95347762Y-58205370D01*
X97692237Y-58205370D02*
X97887762Y-58205370D01*
X100232237Y-58205370D02*
X111633000Y-58205370D01*
X89282270Y-58446670D02*
X111633000Y-58446670D01*
X89282270Y-58687970D02*
X111633000Y-58687970D01*
X89282270Y-58929270D02*
X111633000Y-58929270D01*
X89282270Y-59170570D02*
X111633000Y-59170570D01*
X89282270Y-59411870D02*
X111633000Y-59411870D01*
X89282270Y-59653170D02*
X111633000Y-59653170D01*
X89282270Y-59894470D02*
X111633000Y-59894470D01*
X89282270Y-60135770D02*
X111633000Y-60135770D01*
X89282270Y-60377070D02*
X111633000Y-60377070D01*
X89282270Y-60618370D02*
X111633000Y-60618370D01*
X89282270Y-60859670D02*
X111633000Y-60859670D01*
X89282270Y-61100970D02*
X111633000Y-61100970D01*
X89282270Y-61342270D02*
X111633000Y-61342270D01*
X89282270Y-61583570D02*
X111633000Y-61583570D01*
X89282270Y-61824870D02*
X111633000Y-61824870D01*
X89282270Y-62066170D02*
X111633000Y-62066170D01*
X89282270Y-62307470D02*
X111633000Y-62307470D01*
X89282270Y-62548770D02*
X111633000Y-62548770D01*
X89282270Y-62790070D02*
X111633000Y-62790070D01*
X89282270Y-63031370D02*
X111633000Y-63031370D01*
X89282270Y-63272670D02*
X111633000Y-63272670D01*
X89282270Y-63513970D02*
X111633000Y-63513970D01*
X89282270Y-63755270D02*
X111633000Y-63755270D01*
X89282270Y-63996570D02*
X111633000Y-63996570D01*
X89282270Y-64237870D02*
X111633000Y-64237870D01*
X103753197Y-64479170D02*
X111633000Y-64479170D01*
X103884241Y-64720470D02*
X111633000Y-64720470D01*
X103887270Y-64961770D02*
X111633000Y-64961770D01*
X103887270Y-65203070D02*
X111633000Y-65203070D01*
X103887270Y-65444370D02*
X111633000Y-65444370D01*
X103887270Y-65685670D02*
X111633000Y-65685670D01*
X103887270Y-65926970D02*
X111633000Y-65926970D01*
X103887270Y-66168270D02*
X111633000Y-66168270D01*
X103887270Y-66409570D02*
X111633000Y-66409570D01*
X103887270Y-66650870D02*
X111633000Y-66650870D01*
X103887270Y-66892170D02*
X111633000Y-66892170D01*
X103887270Y-67133470D02*
X111633000Y-67133470D01*
X103887270Y-67374770D02*
X111633000Y-67374770D01*
X103887270Y-67616070D02*
X111633000Y-67616070D01*
X103887270Y-67857370D02*
X111633000Y-67857370D01*
X103887270Y-68098670D02*
X111633000Y-68098670D01*
X103887270Y-68339970D02*
X111633000Y-68339970D01*
X103887270Y-68581270D02*
X111633000Y-68581270D01*
X103887270Y-68822570D02*
X111633000Y-68822570D01*
X103887270Y-69063870D02*
X111633000Y-69063870D01*
X103887270Y-69305170D02*
X111633000Y-69305170D01*
X103887270Y-69546470D02*
X111633000Y-69546470D01*
X103887270Y-69787770D02*
X111633000Y-69787770D01*
X103887270Y-70029070D02*
X111633000Y-70029070D01*
X103887270Y-70270370D02*
X111633000Y-70270370D01*
X103887270Y-70511670D02*
X111633000Y-70511670D01*
X103887270Y-70752970D02*
X111633000Y-70752970D01*
X103887270Y-70994270D02*
X111633000Y-70994270D01*
X103887270Y-71235570D02*
X111633000Y-71235570D01*
X103887270Y-71476870D02*
X111633000Y-71476870D01*
X103887270Y-71718170D02*
X111633000Y-71718170D01*
X103887270Y-71959470D02*
X111633000Y-71959470D01*
X103887270Y-72200770D02*
X111633000Y-72200770D01*
X103887270Y-72442070D02*
X111633000Y-72442070D01*
X103887270Y-72683370D02*
X111633000Y-72683370D01*
X103887270Y-72924670D02*
X111633000Y-72924670D01*
X103887270Y-73165970D02*
X111633000Y-73165970D01*
X103887270Y-73407270D02*
X111633000Y-73407270D01*
X103887270Y-73648570D02*
X111633000Y-73648570D01*
X103887270Y-73889870D02*
X111633000Y-73889870D01*
X103887270Y-74131170D02*
X111633000Y-74131170D01*
X103887270Y-74372470D02*
X111633000Y-74372470D01*
X103887270Y-74613770D02*
X111633000Y-74613770D01*
X103887270Y-74855070D02*
X111633000Y-74855070D01*
X103887270Y-75096370D02*
X111633000Y-75096370D01*
X103887270Y-75337670D02*
X111633000Y-75337670D01*
X103887270Y-75578970D02*
X111633000Y-75578970D01*
X103887270Y-75820270D02*
X111633000Y-75820270D01*
X103887270Y-76061570D02*
X111633000Y-76061570D01*
X103887270Y-76302870D02*
X111633000Y-76302870D01*
X103887270Y-76544170D02*
X111633000Y-76544170D01*
X103887270Y-76785470D02*
X109738164Y-76785470D01*
X103887270Y-77026770D02*
X109716151Y-77026770D01*
X103887270Y-77268070D02*
X109582534Y-77268070D01*
X103887270Y-77509370D02*
X109555000Y-77509370D01*
X103887270Y-77750670D02*
X109615148Y-77750670D01*
X103887270Y-77991970D02*
X109713707Y-77991970D01*
X103887270Y-78233270D02*
X109710728Y-78233270D01*
X103887270Y-78474570D02*
X109707749Y-78474570D01*
X103887270Y-78715870D02*
X109704770Y-78715870D01*
X103887270Y-78957170D02*
X109701791Y-78957170D01*
X103887270Y-79198470D02*
X109698812Y-79198470D01*
X103887270Y-79439770D02*
X109695833Y-79439770D01*
X103887270Y-79681070D02*
X109692854Y-79681070D01*
X103887270Y-79922370D02*
X109689875Y-79922370D01*
X103887270Y-80163670D02*
X109686896Y-80163670D01*
X103887270Y-80404970D02*
X109683917Y-80404970D01*
X103887270Y-80646270D02*
X109680938Y-80646270D01*
X103887270Y-80887570D02*
X109677959Y-80887570D01*
X103887270Y-81128870D02*
X109674980Y-81128870D01*
X103887270Y-81370170D02*
X109672001Y-81370170D01*
X103887270Y-81611470D02*
X109669022Y-81611470D01*
X103887270Y-81852770D02*
X109666043Y-81852770D01*
X103887270Y-82094070D02*
X109663064Y-82094070D01*
X103887270Y-82335370D02*
X109660085Y-82335370D01*
X103886492Y-82576670D02*
X109657106Y-82576670D01*
X103779602Y-82817970D02*
X109654127Y-82817970D01*
X82297270Y-83059270D02*
X109651148Y-83059270D01*
X82297270Y-83300570D02*
X109648169Y-83300570D01*
X82297270Y-83541870D02*
X109645190Y-83541870D01*
X82297270Y-83783170D02*
X109642211Y-83783170D01*
X82297270Y-84024470D02*
X82370175Y-84024470D01*
X85269826Y-84024470D02*
X109639232Y-84024470D01*
X82297270Y-84265770D02*
X82312157Y-84265770D01*
X85327843Y-84265770D02*
X109636253Y-84265770D01*
X82297270Y-84507070D02*
X82312157Y-84507070D01*
X85327843Y-84507070D02*
X109633274Y-84507070D01*
X82297270Y-84748370D02*
X82312157Y-84748370D01*
X85327843Y-84748370D02*
X109630295Y-84748370D01*
X82297270Y-84989670D02*
X82312157Y-84989670D01*
X85327843Y-84989670D02*
X109627316Y-84989670D01*
X82297270Y-85230970D02*
X82312157Y-85230970D01*
X85327843Y-85230970D02*
X109624337Y-85230970D01*
X82297270Y-85472270D02*
X82312157Y-85472270D01*
X85327843Y-85472270D02*
X109621358Y-85472270D01*
X82297270Y-85713570D02*
X82312157Y-85713570D01*
X85327843Y-85713570D02*
X109618379Y-85713570D01*
X82297270Y-85954870D02*
X82312157Y-85954870D01*
X85327843Y-85954870D02*
X109615400Y-85954870D01*
X82297270Y-86196170D02*
X82312157Y-86196170D01*
X85327843Y-86196170D02*
X109612421Y-86196170D01*
X82297270Y-86437470D02*
X82312157Y-86437470D01*
X85327843Y-86437470D02*
X109609442Y-86437470D01*
X82297270Y-86678770D02*
X82312157Y-86678770D01*
X85327843Y-86678770D02*
X109542613Y-86678770D01*
X82297270Y-86920070D02*
X82312157Y-86920070D01*
X85327843Y-86920070D02*
X109301313Y-86920070D01*
X82297270Y-87161370D02*
X82312157Y-87161370D01*
X85327843Y-87161370D02*
X109060013Y-87161370D01*
X82297270Y-87402670D02*
X82312157Y-87402670D01*
X85327843Y-87402670D02*
X108818713Y-87402670D01*
X82297270Y-87643970D02*
X82312157Y-87643970D01*
X85327843Y-87643970D02*
X108577413Y-87643970D01*
X82297270Y-87885270D02*
X82312157Y-87885270D01*
X85327843Y-87885270D02*
X108336113Y-87885270D01*
X82297270Y-88126570D02*
X82312157Y-88126570D01*
X85327843Y-88126570D02*
X108094813Y-88126570D01*
X82297270Y-88367870D02*
X82312157Y-88367870D01*
X85327843Y-88367870D02*
X107853513Y-88367870D01*
X82297270Y-88609170D02*
X82312157Y-88609170D01*
X85327843Y-88609170D02*
X107612213Y-88609170D01*
X82297270Y-88850470D02*
X82312157Y-88850470D01*
X85327843Y-88850470D02*
X107370913Y-88850470D01*
X82297270Y-89091770D02*
X82312157Y-89091770D01*
X85327843Y-89091770D02*
X107129613Y-89091770D01*
X82297270Y-89333070D02*
X82312157Y-89333070D01*
X85327843Y-89333070D02*
X106888313Y-89333070D01*
X82297270Y-89574370D02*
X82312157Y-89574370D01*
X85327843Y-89574370D02*
X106647013Y-89574370D01*
X82297270Y-89815670D02*
X82312157Y-89815670D01*
X85327843Y-89815670D02*
X106405713Y-89815670D01*
X82297270Y-90056970D02*
X82312157Y-90056970D01*
X85327843Y-90056970D02*
X106164413Y-90056970D01*
X82297270Y-90298270D02*
X82312157Y-90298270D01*
X85327843Y-90298270D02*
X105923113Y-90298270D01*
X82297270Y-90539570D02*
X82318516Y-90539570D01*
X85321483Y-90539570D02*
X105681813Y-90539570D01*
X82297270Y-90780870D02*
X82467130Y-90780870D01*
X85172869Y-90780870D02*
X105440513Y-90780870D01*
X82297270Y-91022170D02*
X105199213Y-91022170D01*
X82297270Y-91263470D02*
X104957913Y-91263470D01*
X82297270Y-91504770D02*
X104716613Y-91504770D01*
X82297270Y-91746070D02*
X82655270Y-91746070D01*
X83599820Y-91746070D02*
X84040180Y-91746070D01*
X84984731Y-91746070D02*
X104475313Y-91746070D01*
X82297270Y-91987370D02*
X82338606Y-91987370D01*
X83693000Y-91987370D02*
X83947000Y-91987370D01*
X85301395Y-91987370D02*
X104234013Y-91987370D01*
X82297270Y-92228670D02*
X82312222Y-92228670D01*
X83693000Y-92228670D02*
X83947000Y-92228670D01*
X85327777Y-92228670D02*
X103992713Y-92228670D01*
X82297270Y-92469970D02*
X82312376Y-92469970D01*
X83693000Y-92469970D02*
X83947000Y-92469970D01*
X85327623Y-92469970D02*
X103751413Y-92469970D01*
X82297270Y-92711270D02*
X82312529Y-92711270D01*
X83693000Y-92711270D02*
X83947000Y-92711270D01*
X85327470Y-92711270D02*
X103510113Y-92711270D01*
X82297270Y-92952570D02*
X82312682Y-92952570D01*
X83693000Y-92952570D02*
X83947000Y-92952570D01*
X85327317Y-92952570D02*
X103268813Y-92952570D01*
X82297270Y-93193870D02*
X82312835Y-93193870D01*
X83693000Y-93193870D02*
X83947000Y-93193870D01*
X85327164Y-93193870D02*
X97605004Y-93193870D01*
X82297270Y-93435170D02*
X82312988Y-93435170D01*
X83693000Y-93435170D02*
X83947000Y-93435170D01*
X85327011Y-93435170D02*
X97325213Y-93435170D01*
X82297270Y-93676470D02*
X82313142Y-93676470D01*
X83693000Y-93676470D02*
X83947000Y-93676470D01*
X85326857Y-93676470D02*
X92471014Y-93676470D01*
X82297270Y-93917770D02*
X82313295Y-93917770D01*
X83693000Y-93917770D02*
X83947000Y-93917770D01*
X85326704Y-93917770D02*
X92143612Y-93917770D01*
X82297270Y-94159070D02*
X82313448Y-94159070D01*
X83693000Y-94159070D02*
X83947000Y-94159070D01*
X85326551Y-94159070D02*
X90294849Y-94159070D01*
X82297270Y-94400370D02*
X82313601Y-94400370D01*
X83693000Y-94400370D02*
X83947000Y-94400370D01*
X85326398Y-94400370D02*
X90207157Y-94400370D01*
X82297270Y-94641670D02*
X82313754Y-94641670D01*
X83693000Y-94641670D02*
X83947000Y-94641670D01*
X85326245Y-94641670D02*
X90207157Y-94641670D01*
X82297270Y-94882970D02*
X82313908Y-94882970D01*
X83693000Y-94882970D02*
X83947000Y-94882970D01*
X85326091Y-94882970D02*
X90207157Y-94882970D01*
X82297270Y-95124270D02*
X90116124Y-95124270D01*
X82297270Y-95365570D02*
X89874824Y-95365570D01*
X82297270Y-95606870D02*
X82313915Y-95606870D01*
X83693000Y-95606870D02*
X83947000Y-95606870D01*
X85326086Y-95606870D02*
X89633524Y-95606870D01*
X82297270Y-95848170D02*
X82313762Y-95848170D01*
X83693000Y-95848170D02*
X83947000Y-95848170D01*
X85326239Y-95848170D02*
X89392224Y-95848170D01*
X82297270Y-96089470D02*
X82313609Y-96089470D01*
X83693000Y-96089470D02*
X83947000Y-96089470D01*
X85326392Y-96089470D02*
X89150924Y-96089470D01*
X82297270Y-96330770D02*
X82313456Y-96330770D01*
X83693000Y-96330770D02*
X83947000Y-96330770D01*
X85326546Y-96330770D02*
X88909624Y-96330770D01*
X82297270Y-96572070D02*
X82313302Y-96572070D01*
X83693000Y-96572070D02*
X83947000Y-96572070D01*
X85326699Y-96572070D02*
X88668324Y-96572070D01*
X82297270Y-96813370D02*
X82313149Y-96813370D01*
X83693000Y-96813370D02*
X83947000Y-96813370D01*
X85326852Y-96813370D02*
X88427024Y-96813370D01*
X82297270Y-97054670D02*
X82312996Y-97054670D01*
X83693000Y-97054670D02*
X83947000Y-97054670D01*
X85327005Y-97054670D02*
X88185724Y-97054670D01*
X82309548Y-97295970D02*
X82312843Y-97295970D01*
X83693000Y-97295970D02*
X83947000Y-97295970D01*
X85327158Y-97295970D02*
X87944424Y-97295970D01*
X83693000Y-97537270D02*
X83947000Y-97537270D01*
X85327312Y-97537270D02*
X87703124Y-97537270D01*
X83693000Y-97778570D02*
X83947000Y-97778570D01*
X85327465Y-97778570D02*
X87461824Y-97778570D01*
X83693000Y-98019870D02*
X83947000Y-98019870D01*
X85327618Y-98019870D02*
X87220524Y-98019870D01*
X83693000Y-98261170D02*
X83947000Y-98261170D01*
X85327771Y-98261170D02*
X86979224Y-98261170D01*
X83693000Y-98502470D02*
X83947000Y-98502470D01*
X85304476Y-98502470D02*
X86737924Y-98502470D01*
X82529258Y-98743770D02*
X82598167Y-98743770D01*
X83609980Y-98743770D02*
X84030020Y-98743770D01*
X85041832Y-98743770D02*
X86496624Y-98743770D01*
X82587189Y-98985070D02*
X86255324Y-98985070D01*
X82684753Y-99226370D02*
X86014024Y-99226370D01*
X82784703Y-99467670D02*
X85772724Y-99467670D01*
X82884653Y-99708970D02*
X85531424Y-99708970D01*
X83001784Y-99950270D02*
X85290124Y-99950270D01*
X83149652Y-100191570D02*
X85048824Y-100191570D01*
X111633000Y-55297606D02*
X111633000Y-76698975D01*
X111391700Y-55056306D02*
X111391700Y-76708000D01*
X111150400Y-54815006D02*
X111150400Y-76708000D01*
X110909100Y-54573706D02*
X110909100Y-76708000D01*
X110667800Y-54332406D02*
X110667800Y-76708000D01*
X110426500Y-54091106D02*
X110426500Y-76708000D01*
X110185200Y-54134930D02*
X110185200Y-76708000D01*
X109943900Y-54353173D02*
X109943900Y-76708000D01*
X109702600Y-54487246D02*
X109702600Y-77042522D01*
X109702600Y-77897477D02*
X109702600Y-78891636D01*
X109461300Y-54560986D02*
X109461300Y-86760083D01*
X109220000Y-54584600D02*
X109220000Y-87001383D01*
X108978700Y-54560985D02*
X108978700Y-87242683D01*
X108737400Y-54487245D02*
X108737400Y-87483983D01*
X108496100Y-52160706D02*
X108496100Y-52326826D01*
X108496100Y-54353172D02*
X108496100Y-87725283D01*
X108254800Y-51919406D02*
X108254800Y-52545070D01*
X108254800Y-54134930D02*
X108254800Y-87966583D01*
X108013500Y-51678106D02*
X108013500Y-53025875D01*
X108013500Y-53654124D02*
X108013500Y-88207883D01*
X107772200Y-51436806D02*
X107772200Y-52734373D01*
X107772200Y-53945628D02*
X107772200Y-88449183D01*
X107530900Y-51709230D02*
X107530900Y-52430770D01*
X107530900Y-54249230D02*
X107530900Y-88690483D01*
X107289600Y-51889546D02*
X107289600Y-52250455D01*
X107289600Y-54429546D02*
X107289600Y-88931783D01*
X107048300Y-51994591D02*
X107048300Y-52145410D01*
X107048300Y-54534591D02*
X107048300Y-89173083D01*
X106807000Y-52043722D02*
X106807000Y-52096279D01*
X106807000Y-54583722D02*
X106807000Y-89414383D01*
X106565700Y-52044600D02*
X106565700Y-52095400D01*
X106565700Y-54584600D02*
X106565700Y-89655683D01*
X106324400Y-51998250D02*
X106324400Y-52141749D01*
X106324400Y-54538250D02*
X106324400Y-89896983D01*
X106083100Y-51898031D02*
X106083100Y-52241968D01*
X106083100Y-54438031D02*
X106083100Y-90138283D01*
X105841800Y-51721930D02*
X105841800Y-52418070D01*
X105841800Y-54261930D02*
X105841800Y-90379583D01*
X105600500Y-51424634D02*
X105600500Y-52715365D01*
X105600500Y-53964634D02*
X105600500Y-90620883D01*
X105359200Y-50190399D02*
X105359200Y-50549723D01*
X105359200Y-51050278D02*
X105359200Y-53089723D01*
X105359200Y-53590278D02*
X105359200Y-90862183D01*
X105117900Y-51576690D02*
X105117900Y-52563311D01*
X105117900Y-54116690D02*
X105117900Y-91103483D01*
X104876600Y-51804688D02*
X104876600Y-52335313D01*
X104876600Y-54344688D02*
X104876600Y-91344783D01*
X104635300Y-51941986D02*
X104635300Y-52198015D01*
X104635300Y-54481986D02*
X104635300Y-91586083D01*
X104394000Y-52018460D02*
X104394000Y-52121541D01*
X104394000Y-54558460D02*
X104394000Y-91827383D01*
X104152700Y-52044600D02*
X104152700Y-52095400D01*
X104152700Y-54584600D02*
X104152700Y-92068683D01*
X103911400Y-52023511D02*
X103911400Y-52116488D01*
X103911400Y-54563511D02*
X103911400Y-92309983D01*
X103670100Y-51952506D02*
X103670100Y-52187493D01*
X103670100Y-54492506D02*
X103670100Y-64424797D01*
X103670100Y-82895204D02*
X103670100Y-92551283D01*
X103428800Y-51821658D02*
X103428800Y-52318341D01*
X103428800Y-54361658D02*
X103428800Y-64387730D01*
X103428800Y-82932270D02*
X103428800Y-92792583D01*
X103187500Y-51607630D02*
X103187500Y-52532370D01*
X103187500Y-54147630D02*
X103187500Y-64387730D01*
X103187500Y-82932270D02*
X103187500Y-93033883D01*
X102946200Y-50190399D02*
X102946200Y-50429791D01*
X102946200Y-51170208D02*
X102946200Y-52969791D01*
X102946200Y-53710208D02*
X102946200Y-64387730D01*
X102946200Y-82932270D02*
X102946200Y-93154500D01*
X102704900Y-50190399D02*
X102704900Y-50231738D01*
X102704900Y-50673000D02*
X102704900Y-50927000D01*
X102704900Y-51368263D02*
X102704900Y-52181553D01*
X102704900Y-53213000D02*
X102704900Y-53217418D01*
X102704900Y-53217418D02*
X102704900Y-53467000D01*
X102704900Y-54498448D02*
X102704900Y-64387730D01*
X102704900Y-82932270D02*
X102704900Y-93154500D01*
X102463600Y-50673000D02*
X102463600Y-50927000D01*
X102463600Y-51690085D02*
X102463600Y-52093557D01*
X102463600Y-53213000D02*
X102463600Y-53217418D01*
X102463600Y-53217418D02*
X102463600Y-53467000D01*
X102463600Y-54586443D02*
X102463600Y-64387730D01*
X102463600Y-82932270D02*
X102463600Y-93154500D01*
X102222300Y-50673000D02*
X102222300Y-50927000D01*
X102222300Y-51877532D02*
X102222300Y-52094250D01*
X102222300Y-53213000D02*
X102222300Y-53217418D01*
X102222300Y-53217418D02*
X102222300Y-53467000D01*
X102222300Y-54585749D02*
X102222300Y-64387730D01*
X102222300Y-82932270D02*
X102222300Y-93154500D01*
X101981000Y-50673000D02*
X101981000Y-50927000D01*
X101981000Y-51984227D02*
X101981000Y-52094943D01*
X101981000Y-53213000D02*
X101981000Y-53217418D01*
X101981000Y-53217418D02*
X101981000Y-53467000D01*
X101981000Y-54585056D02*
X101981000Y-64387730D01*
X101981000Y-82932270D02*
X101981000Y-93154500D01*
X101739700Y-50673000D02*
X101739700Y-50927000D01*
X101739700Y-51946323D02*
X101739700Y-52177950D01*
X101739700Y-53213000D02*
X101739700Y-53217418D01*
X101739700Y-53217418D02*
X101739700Y-53467000D01*
X101739700Y-54502050D02*
X101739700Y-64387730D01*
X101739700Y-82932270D02*
X101739700Y-93154500D01*
X101498400Y-50653000D02*
X101498400Y-50927000D01*
X101498400Y-50927000D02*
X101498400Y-52190650D01*
X101498400Y-52190650D02*
X101498400Y-53217418D01*
X101498400Y-53217418D02*
X101498400Y-53467000D01*
X101498400Y-53467000D02*
X101498400Y-64387730D01*
X101498400Y-82932270D02*
X101498400Y-93154500D01*
X101257100Y-50673000D02*
X101257100Y-50927000D01*
X101257100Y-51995780D02*
X101257100Y-52095054D01*
X101257100Y-53213000D02*
X101257100Y-53217418D01*
X101257100Y-53217418D02*
X101257100Y-53467000D01*
X101257100Y-54584947D02*
X101257100Y-64387730D01*
X101257100Y-82932270D02*
X101257100Y-93154500D01*
X101015800Y-50673000D02*
X101015800Y-50927000D01*
X101015800Y-51894908D02*
X101015800Y-52094360D01*
X101015800Y-53213000D02*
X101015800Y-53217418D01*
X101015800Y-53217418D02*
X101015800Y-53467000D01*
X101015800Y-54585641D02*
X101015800Y-64387730D01*
X101015800Y-82932270D02*
X101015800Y-93154500D01*
X100774500Y-50673000D02*
X100774500Y-50927000D01*
X100774500Y-51730967D02*
X100774500Y-52093667D01*
X100774500Y-53213000D02*
X100774500Y-53217418D01*
X100774500Y-53217418D02*
X100774500Y-53467000D01*
X100774500Y-54586334D02*
X100774500Y-64387730D01*
X100774500Y-82932270D02*
X100774500Y-93154500D01*
X100533200Y-50673000D02*
X100533200Y-50927000D01*
X100533200Y-51429875D02*
X100533200Y-52153002D01*
X100533200Y-53213000D02*
X100533200Y-53217418D01*
X100533200Y-53217418D02*
X100533200Y-53467000D01*
X100533200Y-54526997D02*
X100533200Y-64387730D01*
X100533200Y-82932270D02*
X100533200Y-93154500D01*
X100291900Y-50190399D02*
X100291900Y-51119119D01*
X100291900Y-51119119D02*
X100291900Y-52476400D01*
X100291900Y-52476400D02*
X100291900Y-53217418D01*
X100291900Y-53217418D02*
X100291900Y-54203600D01*
X100291900Y-54203600D02*
X100291900Y-56290426D01*
X100291900Y-58009575D02*
X100291900Y-64387730D01*
X100291900Y-82932270D02*
X100291900Y-93154500D01*
X100050600Y-50190399D02*
X100050600Y-51119119D01*
X100050600Y-51119119D02*
X100050600Y-51349181D01*
X100050600Y-51943000D02*
X100050600Y-52197000D01*
X100050600Y-52790820D02*
X100050600Y-53217418D01*
X100050600Y-53217418D02*
X100050600Y-53876797D01*
X100050600Y-55343204D02*
X100050600Y-55944507D01*
X100050600Y-58355494D02*
X100050600Y-64387730D01*
X100050600Y-82932270D02*
X100050600Y-93154500D01*
X99809300Y-50276542D02*
X99809300Y-51093519D01*
X99809300Y-51943000D02*
X99809300Y-52197000D01*
X99809300Y-53046482D02*
X99809300Y-53217418D01*
X99809300Y-53217418D02*
X99809300Y-53630156D01*
X99809300Y-55589845D02*
X99809300Y-55917157D01*
X99809300Y-58382843D02*
X99809300Y-64387730D01*
X99809300Y-82932270D02*
X99809300Y-93154500D01*
X99568000Y-50517842D02*
X99568000Y-50952102D01*
X99568000Y-51943000D02*
X99568000Y-52197000D01*
X99568000Y-53187899D02*
X99568000Y-53217418D01*
X99568000Y-53217418D02*
X99568000Y-53487996D01*
X99568000Y-55732005D02*
X99568000Y-55917157D01*
X99568000Y-58382843D02*
X99568000Y-64387730D01*
X99568000Y-82932270D02*
X99568000Y-93154500D01*
X99326700Y-50759142D02*
X99326700Y-50896466D01*
X99326700Y-51943000D02*
X99326700Y-52197000D01*
X99326700Y-53243533D02*
X99326700Y-53407934D01*
X99326700Y-55812067D02*
X99326700Y-55917157D01*
X99326700Y-58382843D02*
X99326700Y-64387730D01*
X99326700Y-82932270D02*
X99326700Y-93154500D01*
X99085400Y-49277270D02*
X99085400Y-49383982D01*
X99085400Y-51923000D02*
X99085400Y-52197000D01*
X99085400Y-52197000D02*
X99085400Y-53379000D01*
X99085400Y-55841000D02*
X99085400Y-55917157D01*
X99085400Y-58382843D02*
X99085400Y-64387730D01*
X99085400Y-82932270D02*
X99085400Y-93154500D01*
X98844100Y-49277270D02*
X98844100Y-49625282D01*
X98844100Y-53227408D02*
X98844100Y-53397828D01*
X98844100Y-55822171D02*
X98844100Y-55917157D01*
X98844100Y-58382843D02*
X98844100Y-64387730D01*
X98844100Y-82932270D02*
X98844100Y-93154500D01*
X98602800Y-49277270D02*
X98602800Y-49866582D01*
X98602800Y-53206938D02*
X98602800Y-53466954D01*
X98602800Y-55753045D02*
X98602800Y-55917157D01*
X98602800Y-58382843D02*
X98602800Y-64387730D01*
X98602800Y-82932270D02*
X98602800Y-93154500D01*
X98361500Y-49277270D02*
X98361500Y-50107882D01*
X98361500Y-58382843D02*
X98361500Y-64387730D01*
X98361500Y-82932270D02*
X98361500Y-93154500D01*
X98120200Y-49277270D02*
X98120200Y-50349182D01*
X98120200Y-58370903D02*
X98120200Y-64387730D01*
X98120200Y-82932270D02*
X98120200Y-93154500D01*
X97878900Y-49277270D02*
X97878900Y-50590482D01*
X97878900Y-58188790D02*
X97878900Y-64387730D01*
X97878900Y-82932270D02*
X97878900Y-93154500D01*
X97637600Y-49277270D02*
X97637600Y-50831782D01*
X97637600Y-58273265D02*
X97637600Y-64387730D01*
X97637600Y-82932270D02*
X97637600Y-93180729D01*
X97396300Y-49277270D02*
X97396300Y-51073082D01*
X97396300Y-58380253D02*
X97396300Y-64387730D01*
X97396300Y-82932270D02*
X97396300Y-93364082D01*
X97155000Y-49277270D02*
X97155000Y-51022268D01*
X97155000Y-53117733D02*
X97155000Y-53553783D01*
X97155000Y-58382843D02*
X97155000Y-64387730D01*
X97155000Y-82932270D02*
X97155000Y-93605382D01*
X96913700Y-49277270D02*
X96913700Y-50909261D01*
X96913700Y-53230740D02*
X96913700Y-53440652D01*
X96913700Y-58382843D02*
X96913700Y-64387730D01*
X96913700Y-82932270D02*
X96913700Y-93662500D01*
X96672400Y-49277270D02*
X96672400Y-50932749D01*
X96672400Y-53207250D02*
X96672400Y-53385198D01*
X96672400Y-58382843D02*
X96672400Y-64387730D01*
X96672400Y-82932270D02*
X96672400Y-93662500D01*
X96431100Y-49277270D02*
X96431100Y-53379000D01*
X96431100Y-58382843D02*
X96431100Y-64387730D01*
X96431100Y-82932270D02*
X96431100Y-93662500D01*
X96189800Y-49277270D02*
X96189800Y-50885459D01*
X96189800Y-51943000D02*
X96189800Y-52197000D01*
X96189800Y-53254540D02*
X96189800Y-53420564D01*
X96189800Y-58382843D02*
X96189800Y-64387730D01*
X96189800Y-82932270D02*
X96189800Y-93662500D01*
X95948500Y-49277270D02*
X95948500Y-50982900D01*
X95948500Y-51943000D02*
X95948500Y-52197000D01*
X95948500Y-53157099D02*
X95948500Y-53514298D01*
X95948500Y-58382843D02*
X95948500Y-64387730D01*
X95948500Y-82932270D02*
X95948500Y-93662500D01*
X95707200Y-49277270D02*
X95707200Y-51152830D01*
X95707200Y-51943000D02*
X95707200Y-52197000D01*
X95707200Y-52987169D02*
X95707200Y-53681903D01*
X95707200Y-58382843D02*
X95707200Y-64387730D01*
X95707200Y-82932270D02*
X95707200Y-93662500D01*
X95465900Y-49277270D02*
X95465900Y-51437539D01*
X95465900Y-51943000D02*
X95465900Y-52197000D01*
X95465900Y-52702460D02*
X95465900Y-53971830D01*
X95465900Y-55248169D02*
X95465900Y-55435500D01*
X95465900Y-58322916D02*
X95465900Y-64387730D01*
X95465900Y-82932270D02*
X95465900Y-93662500D01*
X95224600Y-49277270D02*
X95224600Y-51753020D01*
X95224600Y-51753020D02*
X95224600Y-52386980D01*
X95224600Y-52386980D02*
X95224600Y-53975000D01*
X95224600Y-55245000D02*
X95224600Y-55435851D01*
X95224600Y-56534017D02*
X95224600Y-64387730D01*
X95224600Y-82932270D02*
X95224600Y-93662500D01*
X94983300Y-49277270D02*
X94983300Y-51366853D01*
X94983300Y-51943000D02*
X94983300Y-52197000D01*
X94983300Y-52773148D02*
X94983300Y-53895803D01*
X94983300Y-55324198D02*
X94983300Y-55523851D01*
X94983300Y-58350071D02*
X94983300Y-64387730D01*
X94983300Y-82932270D02*
X94983300Y-93662500D01*
X94742000Y-49277270D02*
X94742000Y-51105381D01*
X94742000Y-51943000D02*
X94742000Y-52197000D01*
X94742000Y-53034620D02*
X94742000Y-53638642D01*
X94742000Y-55581359D02*
X94742000Y-55759383D01*
X94742000Y-58382843D02*
X94742000Y-64387730D01*
X94742000Y-82932270D02*
X94742000Y-93662500D01*
X94500700Y-49277270D02*
X94500700Y-50956862D01*
X94500700Y-51943000D02*
X94500700Y-52197000D01*
X94500700Y-53183139D02*
X94500700Y-53493257D01*
X94500700Y-55726744D02*
X94500700Y-55917157D01*
X94500700Y-58382843D02*
X94500700Y-64387730D01*
X94500700Y-82932270D02*
X94500700Y-93662500D01*
X94259400Y-49277270D02*
X94259400Y-50892434D01*
X94259400Y-51943000D02*
X94259400Y-52197000D01*
X94259400Y-53247565D02*
X94259400Y-53410460D01*
X94259400Y-55809541D02*
X94259400Y-55917157D01*
X94259400Y-58382843D02*
X94259400Y-64387730D01*
X94259400Y-82932270D02*
X94259400Y-93662500D01*
X94018100Y-49277270D02*
X94018100Y-50940813D01*
X94018100Y-50940813D02*
X94018100Y-52197000D01*
X94018100Y-52197000D02*
X94018100Y-53379000D01*
X94018100Y-55841000D02*
X94018100Y-55917157D01*
X94018100Y-58382843D02*
X94018100Y-64387730D01*
X94018100Y-82932270D02*
X94018100Y-93662500D01*
X93776800Y-49277270D02*
X93776800Y-50916624D01*
X93776800Y-51943000D02*
X93776800Y-52197000D01*
X93776800Y-53223377D02*
X93776800Y-53395302D01*
X93776800Y-55824697D02*
X93776800Y-55917157D01*
X93776800Y-58382843D02*
X93776800Y-64387730D01*
X93776800Y-82932270D02*
X93776800Y-93662500D01*
X93535500Y-49277270D02*
X93535500Y-50928300D01*
X93535500Y-51943000D02*
X93535500Y-52197000D01*
X93535500Y-53211699D02*
X93535500Y-53461693D01*
X93535500Y-55758306D02*
X93535500Y-55917157D01*
X93535500Y-58382843D02*
X93535500Y-64387730D01*
X93535500Y-82932270D02*
X93535500Y-93662500D01*
X93294200Y-49277270D02*
X93294200Y-51053760D01*
X93294200Y-51943000D02*
X93294200Y-52197000D01*
X93294200Y-53086239D02*
X93294200Y-53587725D01*
X93294200Y-55632274D02*
X93294200Y-55917157D01*
X93294200Y-58382843D02*
X93294200Y-64387730D01*
X93294200Y-82932270D02*
X93294200Y-93662500D01*
X93052900Y-49277270D02*
X93052900Y-51260821D01*
X93052900Y-51943000D02*
X93052900Y-52197000D01*
X93052900Y-52879178D02*
X93052900Y-53796203D01*
X93052900Y-55423797D02*
X93052900Y-55925244D01*
X93052900Y-58374755D02*
X93052900Y-64387730D01*
X93052900Y-82932270D02*
X93052900Y-93662500D01*
X92811600Y-49277270D02*
X92811600Y-51683481D01*
X92811600Y-51818849D02*
X92811600Y-52321150D01*
X92811600Y-52456518D02*
X92811600Y-53975000D01*
X92811600Y-55245000D02*
X92811600Y-56087449D01*
X92811600Y-58212550D02*
X92811600Y-64387730D01*
X92811600Y-82932270D02*
X92811600Y-93662500D01*
X92570300Y-49277270D02*
X92570300Y-51596111D01*
X92570300Y-51937778D02*
X92570300Y-52202223D01*
X92570300Y-52543890D02*
X92570300Y-53975000D01*
X92570300Y-55245000D02*
X92570300Y-56040974D01*
X92570300Y-58259027D02*
X92570300Y-64387730D01*
X92570300Y-82932270D02*
X92570300Y-93661601D01*
X92329000Y-49277270D02*
X92329000Y-51224004D01*
X92329000Y-51943000D02*
X92329000Y-52197000D01*
X92329000Y-52915997D02*
X92329000Y-53758103D01*
X92329000Y-55461897D02*
X92329000Y-55920999D01*
X92329000Y-58379002D02*
X92329000Y-64387730D01*
X92329000Y-82932270D02*
X92329000Y-93740429D01*
X92087700Y-49277270D02*
X92087700Y-51030141D01*
X92087700Y-51943000D02*
X92087700Y-52197000D01*
X92087700Y-53109860D02*
X92087700Y-53562269D01*
X92087700Y-55657732D02*
X92087700Y-55917157D01*
X92087700Y-58382843D02*
X92087700Y-64387730D01*
X92087700Y-82932270D02*
X92087700Y-93973682D01*
X91846400Y-49277270D02*
X91846400Y-50914021D01*
X91846400Y-51943000D02*
X91846400Y-52197000D01*
X91846400Y-53225980D02*
X91846400Y-53445913D01*
X91846400Y-55774088D02*
X91846400Y-55917157D01*
X91846400Y-58382843D02*
X91846400Y-64387730D01*
X91846400Y-82932270D02*
X91846400Y-94017157D01*
X91605100Y-49277270D02*
X91605100Y-50928718D01*
X91605100Y-51943000D02*
X91605100Y-52197000D01*
X91605100Y-53211281D02*
X91605100Y-53387724D01*
X91605100Y-55832277D02*
X91605100Y-55917157D01*
X91605100Y-58382843D02*
X91605100Y-64387730D01*
X91605100Y-82932270D02*
X91605100Y-94017157D01*
X91363800Y-49277270D02*
X91363800Y-50940813D01*
X91363800Y-50940813D02*
X91363800Y-52197000D01*
X91363800Y-52197000D02*
X91363800Y-53379000D01*
X91363800Y-55841000D02*
X91363800Y-55917157D01*
X91363800Y-58382843D02*
X91363800Y-64387730D01*
X91363800Y-82932270D02*
X91363800Y-94017157D01*
X91122500Y-49277270D02*
X91122500Y-50880699D01*
X91122500Y-51943000D02*
X91122500Y-52197000D01*
X91122500Y-53259300D02*
X91122500Y-53418038D01*
X91122500Y-55801961D02*
X91122500Y-55917157D01*
X91122500Y-58382843D02*
X91122500Y-64387730D01*
X91122500Y-82932270D02*
X91122500Y-94017157D01*
X90881200Y-49277270D02*
X90881200Y-50975027D01*
X90881200Y-51943000D02*
X90881200Y-52197000D01*
X90881200Y-53164972D02*
X90881200Y-53509037D01*
X90881200Y-55710962D02*
X90881200Y-55917157D01*
X90881200Y-58382843D02*
X90881200Y-64387730D01*
X90881200Y-82932270D02*
X90881200Y-94017157D01*
X90639900Y-49277270D02*
X90639900Y-51140967D01*
X90639900Y-51943000D02*
X90639900Y-52197000D01*
X90639900Y-52999032D02*
X90639900Y-53669203D01*
X90639900Y-55550797D02*
X90639900Y-55917157D01*
X90639900Y-58382843D02*
X90639900Y-64387730D01*
X90639900Y-82932270D02*
X90639900Y-94017157D01*
X90398600Y-49277270D02*
X90398600Y-51419867D01*
X90398600Y-51943000D02*
X90398600Y-52197000D01*
X90398600Y-52720132D02*
X90398600Y-53952823D01*
X90398600Y-55267176D02*
X90398600Y-55970294D01*
X90398600Y-58329705D02*
X90398600Y-64387730D01*
X90398600Y-82932270D02*
X90398600Y-94070294D01*
X90157300Y-49277270D02*
X90157300Y-51753020D01*
X90157300Y-51753020D02*
X90157300Y-52386980D01*
X90157300Y-52386980D02*
X90157300Y-56300000D01*
X90157300Y-56300000D02*
X90157300Y-64387730D01*
X90157300Y-82932270D02*
X90157300Y-95083094D01*
X89916000Y-49277270D02*
X89916000Y-51753020D01*
X89916000Y-51753020D02*
X89916000Y-52386980D01*
X89916000Y-52386980D02*
X89916000Y-56300000D01*
X89916000Y-56300000D02*
X89916000Y-64387730D01*
X89916000Y-82932270D02*
X89916000Y-95324394D01*
X89674700Y-49277270D02*
X89674700Y-51753020D01*
X89674700Y-51753020D02*
X89674700Y-52386980D01*
X89674700Y-52386980D02*
X89674700Y-56300000D01*
X89674700Y-56300000D02*
X89674700Y-64387730D01*
X89674700Y-82932270D02*
X89674700Y-95565694D01*
X89433400Y-49277270D02*
X89433400Y-51753020D01*
X89433400Y-51753020D02*
X89433400Y-52386980D01*
X89433400Y-52386980D02*
X89433400Y-56300000D01*
X89433400Y-56300000D02*
X89433400Y-64387730D01*
X89433400Y-82932270D02*
X89433400Y-95806994D01*
X89192100Y-82932270D02*
X89192100Y-96048294D01*
X88950800Y-82932270D02*
X88950800Y-96289594D01*
X88709500Y-82932270D02*
X88709500Y-96530894D01*
X88468200Y-82932270D02*
X88468200Y-96772194D01*
X88226900Y-82932270D02*
X88226900Y-97013494D01*
X87985600Y-82932270D02*
X87985600Y-97254794D01*
X87744300Y-82932270D02*
X87744300Y-97496094D01*
X87503000Y-82932270D02*
X87503000Y-97737394D01*
X87261700Y-82932270D02*
X87261700Y-97978694D01*
X87020400Y-82932270D02*
X87020400Y-98219994D01*
X86779100Y-82932270D02*
X86779100Y-98461294D01*
X86537800Y-82932270D02*
X86537800Y-98702594D01*
X86296500Y-82932270D02*
X86296500Y-98943894D01*
X86055200Y-82932270D02*
X86055200Y-99185194D01*
X85813900Y-82932270D02*
X85813900Y-99426494D01*
X85572600Y-82932270D02*
X85572600Y-99667794D01*
X85331300Y-82932270D02*
X85331300Y-99909094D01*
X85090000Y-82932270D02*
X85090000Y-83870842D01*
X85090000Y-90829159D02*
X85090000Y-91770842D01*
X85090000Y-95123000D02*
X85090000Y-95377000D01*
X85090000Y-98729159D02*
X85090000Y-100150394D01*
X84848700Y-82932270D02*
X84848700Y-83842157D01*
X84848700Y-90857843D02*
X84848700Y-91742353D01*
X84848700Y-95123000D02*
X84848700Y-95377000D01*
X84848700Y-98757646D02*
X84848700Y-100203000D01*
X84607400Y-82932270D02*
X84607400Y-83842157D01*
X84607400Y-90857843D02*
X84607400Y-91742846D01*
X84607400Y-95123000D02*
X84607400Y-95377000D01*
X84607400Y-98757153D02*
X84607400Y-100203000D01*
X84366100Y-82932270D02*
X84366100Y-83842157D01*
X84366100Y-90857843D02*
X84366100Y-91743338D01*
X84366100Y-95123000D02*
X84366100Y-95377000D01*
X84366100Y-98756661D02*
X84366100Y-100203000D01*
X84124800Y-82932270D02*
X84124800Y-83842157D01*
X84124800Y-90857843D02*
X84124800Y-91743831D01*
X84124800Y-95123000D02*
X84124800Y-95377000D01*
X84124800Y-98756168D02*
X84124800Y-100203000D01*
X83883500Y-82932270D02*
X83883500Y-83842157D01*
X83883500Y-90857843D02*
X83883500Y-91839250D01*
X83883500Y-91839250D02*
X83883500Y-95377000D01*
X83883500Y-95377000D02*
X83883500Y-100203000D01*
X83642200Y-82932270D02*
X83642200Y-83842157D01*
X83642200Y-90857843D02*
X83642200Y-91788450D01*
X83642200Y-95123000D02*
X83642200Y-95377000D01*
X83642200Y-98711550D02*
X83642200Y-100203000D01*
X83400900Y-82932270D02*
X83400900Y-83842157D01*
X83400900Y-90857843D02*
X83400900Y-91743599D01*
X83400900Y-95123000D02*
X83400900Y-95377000D01*
X83400900Y-98756402D02*
X83400900Y-100203000D01*
X83159600Y-82932270D02*
X83159600Y-83842157D01*
X83159600Y-90857843D02*
X83159600Y-91743106D01*
X83159600Y-95123000D02*
X83159600Y-95377000D01*
X83159600Y-98756895D02*
X83159600Y-100203000D01*
X82918300Y-82932270D02*
X82918300Y-83842157D01*
X82918300Y-90857843D02*
X82918300Y-91742613D01*
X82918300Y-95123000D02*
X82918300Y-95377000D01*
X82918300Y-98757388D02*
X82918300Y-99790203D01*
X82677000Y-82932270D02*
X82677000Y-83843929D01*
X82677000Y-90856070D02*
X82677000Y-91743929D01*
X82677000Y-95123000D02*
X82677000Y-95377000D01*
X82677000Y-98756070D02*
X82677000Y-99207653D01*
X82435700Y-82932270D02*
X82435700Y-83944924D01*
X82435700Y-90755075D02*
X82435700Y-91844924D01*
X82435700Y-95123000D02*
X82435700Y-95377000D01*
X97364125Y-51105258D02*
X97347172Y-51119171D01*
X97333259Y-51136124D01*
X97333255Y-51136128D01*
X97325298Y-51145823D01*
X97268052Y-51092353D01*
X97062949Y-50965201D01*
X96836981Y-50880505D01*
X96647000Y-50940813D01*
X96647000Y-51943000D01*
X96667000Y-51943000D01*
X96667000Y-52197000D01*
X96647000Y-52197000D01*
X96647000Y-53199187D01*
X96836981Y-53259495D01*
X97062949Y-53174799D01*
X97218501Y-53078366D01*
X97218500Y-53596212D01*
X97103097Y-53519102D01*
X96879069Y-53426307D01*
X96641243Y-53379000D01*
X96398757Y-53379000D01*
X96160931Y-53426307D01*
X95936903Y-53519102D01*
X95735283Y-53653820D01*
X95563820Y-53825283D01*
X95463782Y-53975000D01*
X95036218Y-53975000D01*
X94936180Y-53825283D01*
X94764717Y-53653820D01*
X94563097Y-53519102D01*
X94339069Y-53426307D01*
X94101243Y-53379000D01*
X93858757Y-53379000D01*
X93620931Y-53426307D01*
X93396903Y-53519102D01*
X93195283Y-53653820D01*
X93023820Y-53825283D01*
X92923782Y-53975000D01*
X92496218Y-53975000D01*
X92396180Y-53825283D01*
X92224717Y-53653820D01*
X92023097Y-53519102D01*
X91799069Y-53426307D01*
X91561243Y-53379000D01*
X91318757Y-53379000D01*
X91080931Y-53426307D01*
X90856903Y-53519102D01*
X90655283Y-53653820D01*
X90483820Y-53825283D01*
X90349102Y-54026903D01*
X90256307Y-54250931D01*
X90209000Y-54488757D01*
X90209000Y-54731243D01*
X90256307Y-54969069D01*
X90349102Y-55193097D01*
X90483820Y-55394717D01*
X90655283Y-55566180D01*
X90856903Y-55700898D01*
X91080931Y-55793693D01*
X91318757Y-55841000D01*
X91561243Y-55841000D01*
X91799069Y-55793693D01*
X92023097Y-55700898D01*
X92224717Y-55566180D01*
X92396180Y-55394717D01*
X92496218Y-55245000D01*
X92923782Y-55245000D01*
X93023820Y-55394717D01*
X93195283Y-55566180D01*
X93396903Y-55700898D01*
X93620931Y-55793693D01*
X93858757Y-55841000D01*
X94101243Y-55841000D01*
X94339069Y-55793693D01*
X94563097Y-55700898D01*
X94764717Y-55566180D01*
X94936180Y-55394717D01*
X95036218Y-55245000D01*
X95463782Y-55245000D01*
X95563820Y-55394717D01*
X95604603Y-55435500D01*
X95271819Y-55435500D01*
X95249999Y-55433351D01*
X95228179Y-55435500D01*
X95228170Y-55435500D01*
X95162863Y-55441932D01*
X95079074Y-55467349D01*
X95001855Y-55508624D01*
X94934171Y-55564171D01*
X94920255Y-55581128D01*
X94584226Y-55917157D01*
X93130000Y-55917157D01*
X93055311Y-55924513D01*
X92983492Y-55946299D01*
X92917304Y-55981678D01*
X92859289Y-56029289D01*
X92811678Y-56087304D01*
X92776299Y-56153492D01*
X92754513Y-56225311D01*
X92747157Y-56300000D01*
X92747157Y-58000000D01*
X92754513Y-58074689D01*
X92776299Y-58146508D01*
X92811678Y-58212696D01*
X92859289Y-58270711D01*
X92917304Y-58318322D01*
X92983492Y-58353701D01*
X93055311Y-58375487D01*
X93130000Y-58382843D01*
X94830000Y-58382843D01*
X94904689Y-58375487D01*
X94976508Y-58353701D01*
X95042696Y-58318322D01*
X95100711Y-58270711D01*
X95148322Y-58212696D01*
X95183701Y-58146508D01*
X95205487Y-58074689D01*
X95212843Y-58000000D01*
X95212843Y-56545774D01*
X95287157Y-56471460D01*
X95287157Y-58000000D01*
X95294513Y-58074689D01*
X95316299Y-58146508D01*
X95351678Y-58212696D01*
X95399289Y-58270711D01*
X95457304Y-58318322D01*
X95523492Y-58353701D01*
X95595311Y-58375487D01*
X95670000Y-58382843D01*
X97370000Y-58382843D01*
X97444689Y-58375487D01*
X97516508Y-58353701D01*
X97582696Y-58318322D01*
X97640711Y-58270711D01*
X97688322Y-58212696D01*
X97723701Y-58146508D01*
X97745487Y-58074689D01*
X97752843Y-58000000D01*
X97752843Y-56471460D01*
X97827157Y-56545774D01*
X97827157Y-58000000D01*
X97834513Y-58074689D01*
X97856299Y-58146508D01*
X97891678Y-58212696D01*
X97939289Y-58270711D01*
X97997304Y-58318322D01*
X98063492Y-58353701D01*
X98135311Y-58375487D01*
X98210000Y-58382843D01*
X99910000Y-58382843D01*
X99984689Y-58375487D01*
X100056508Y-58353701D01*
X100122696Y-58318322D01*
X100180711Y-58270711D01*
X100228322Y-58212696D01*
X100263701Y-58146508D01*
X100285487Y-58074689D01*
X100292843Y-58000000D01*
X100292843Y-56300000D01*
X100285487Y-56225311D01*
X100263701Y-56153492D01*
X100228322Y-56087304D01*
X100180711Y-56029289D01*
X100122696Y-55981678D01*
X100056508Y-55946299D01*
X99984689Y-55924513D01*
X99910000Y-55917157D01*
X98455774Y-55917157D01*
X98361500Y-55822883D01*
X98361500Y-55623788D01*
X98476903Y-55700898D01*
X98700931Y-55793693D01*
X98938757Y-55841000D01*
X99181243Y-55841000D01*
X99419069Y-55793693D01*
X99643097Y-55700898D01*
X99844717Y-55566180D01*
X100016180Y-55394717D01*
X100150898Y-55193097D01*
X100243693Y-54969069D01*
X100291000Y-54731243D01*
X100291000Y-54488757D01*
X100243693Y-54250931D01*
X100224088Y-54203600D01*
X100353557Y-54203600D01*
X100360913Y-54278289D01*
X100382699Y-54350108D01*
X100418078Y-54416296D01*
X100465689Y-54474311D01*
X100523704Y-54521922D01*
X100589892Y-54557301D01*
X100661711Y-54579087D01*
X100736400Y-54586443D01*
X101377750Y-54584600D01*
X101473000Y-54489350D01*
X101473000Y-53467000D01*
X101727000Y-53467000D01*
X101727000Y-54489350D01*
X101822250Y-54584600D01*
X102463600Y-54586443D01*
X102538289Y-54579087D01*
X102610108Y-54557301D01*
X102676296Y-54521922D01*
X102734311Y-54474311D01*
X102781922Y-54416296D01*
X102817301Y-54350108D01*
X102839087Y-54278289D01*
X102846443Y-54203600D01*
X102844600Y-53562250D01*
X102749350Y-53467000D01*
X101727000Y-53467000D01*
X101473000Y-53467000D01*
X100450650Y-53467000D01*
X100355400Y-53562250D01*
X100353557Y-54203600D01*
X100224088Y-54203600D01*
X100150898Y-54026903D01*
X100016180Y-53825283D01*
X99844717Y-53653820D01*
X99643097Y-53519102D01*
X99419069Y-53426307D01*
X99181243Y-53379000D01*
X98938757Y-53379000D01*
X98700931Y-53426307D01*
X98476903Y-53519102D01*
X98361500Y-53596212D01*
X98361500Y-53078366D01*
X98517051Y-53174799D01*
X98743019Y-53259495D01*
X98933000Y-53199187D01*
X98933000Y-52197000D01*
X99187000Y-52197000D01*
X99187000Y-53199187D01*
X99376981Y-53259495D01*
X99489241Y-53217418D01*
X102895400Y-53217418D01*
X102895400Y-53462582D01*
X102943229Y-53703036D01*
X103037050Y-53929539D01*
X103173256Y-54133386D01*
X103346614Y-54306744D01*
X103550461Y-54442950D01*
X103776964Y-54536771D01*
X104017418Y-54584600D01*
X104262582Y-54584600D01*
X104503036Y-54536771D01*
X104729539Y-54442950D01*
X104933386Y-54306744D01*
X105106744Y-54133386D01*
X105242950Y-53929539D01*
X105336771Y-53703036D01*
X105384600Y-53462582D01*
X105384600Y-53217418D01*
X105435400Y-53217418D01*
X105435400Y-53462582D01*
X105483229Y-53703036D01*
X105577050Y-53929539D01*
X105713256Y-54133386D01*
X105886614Y-54306744D01*
X106090461Y-54442950D01*
X106316964Y-54536771D01*
X106557418Y-54584600D01*
X106802582Y-54584600D01*
X107043036Y-54536771D01*
X107269539Y-54442950D01*
X107473386Y-54306744D01*
X107646744Y-54133386D01*
X107782950Y-53929539D01*
X107876771Y-53703036D01*
X107924600Y-53462582D01*
X107924600Y-53217418D01*
X107876771Y-52976964D01*
X107782950Y-52750461D01*
X107646744Y-52546614D01*
X107473386Y-52373256D01*
X107269539Y-52237050D01*
X107043036Y-52143229D01*
X106802582Y-52095400D01*
X106557418Y-52095400D01*
X106316964Y-52143229D01*
X106090461Y-52237050D01*
X105886614Y-52373256D01*
X105713256Y-52546614D01*
X105577050Y-52750461D01*
X105483229Y-52976964D01*
X105435400Y-53217418D01*
X105384600Y-53217418D01*
X105336771Y-52976964D01*
X105242950Y-52750461D01*
X105106744Y-52546614D01*
X104933386Y-52373256D01*
X104729539Y-52237050D01*
X104503036Y-52143229D01*
X104262582Y-52095400D01*
X104017418Y-52095400D01*
X103776964Y-52143229D01*
X103550461Y-52237050D01*
X103346614Y-52373256D01*
X103173256Y-52546614D01*
X103037050Y-52750461D01*
X102943229Y-52976964D01*
X102895400Y-53217418D01*
X99489241Y-53217418D01*
X99602949Y-53174799D01*
X99808052Y-53047647D01*
X99984408Y-52882924D01*
X100125239Y-52686961D01*
X100220990Y-52476400D01*
X100353557Y-52476400D01*
X100355400Y-53117750D01*
X100450650Y-53213000D01*
X101473000Y-53213000D01*
X101473000Y-52190650D01*
X101727000Y-52190650D01*
X101727000Y-53213000D01*
X102749350Y-53213000D01*
X102844600Y-53117750D01*
X102846443Y-52476400D01*
X102839087Y-52401711D01*
X102817301Y-52329892D01*
X102781922Y-52263704D01*
X102734311Y-52205689D01*
X102676296Y-52158078D01*
X102610108Y-52122699D01*
X102538289Y-52100913D01*
X102463600Y-52093557D01*
X101822250Y-52095400D01*
X101727000Y-52190650D01*
X101473000Y-52190650D01*
X101377750Y-52095400D01*
X100736400Y-52093557D01*
X100661711Y-52100913D01*
X100589892Y-52122699D01*
X100523704Y-52158078D01*
X100465689Y-52205689D01*
X100418078Y-52263704D01*
X100382699Y-52329892D01*
X100360913Y-52401711D01*
X100353557Y-52476400D01*
X100220990Y-52476400D01*
X100225134Y-52467288D01*
X100249489Y-52386980D01*
X100188627Y-52197000D01*
X99187000Y-52197000D01*
X98933000Y-52197000D01*
X98913000Y-52197000D01*
X98913000Y-51943000D01*
X98933000Y-51943000D01*
X98933000Y-51923000D01*
X99187000Y-51923000D01*
X99187000Y-51943000D01*
X100188627Y-51943000D01*
X100249489Y-51753020D01*
X100225134Y-51672712D01*
X100125239Y-51453039D01*
X99984408Y-51257076D01*
X99836709Y-51119119D01*
X100397001Y-51119119D01*
X100482373Y-51347681D01*
X100610695Y-51555196D01*
X100777036Y-51733689D01*
X100975003Y-51876301D01*
X101196988Y-51977551D01*
X101280882Y-52002993D01*
X101473000Y-51942312D01*
X101473000Y-50927000D01*
X101727000Y-50927000D01*
X101727000Y-51942312D01*
X101919118Y-52002993D01*
X102003012Y-51977551D01*
X102224997Y-51876301D01*
X102422964Y-51733689D01*
X102589305Y-51555196D01*
X102717627Y-51347681D01*
X102802999Y-51119119D01*
X102742859Y-50927000D01*
X101727000Y-50927000D01*
X101473000Y-50927000D01*
X100457141Y-50927000D01*
X100397001Y-51119119D01*
X99836709Y-51119119D01*
X99808052Y-51092353D01*
X99602949Y-50965201D01*
X99376981Y-50880505D01*
X99187002Y-50940812D01*
X99187002Y-50898839D01*
X99895443Y-50190399D01*
X100520663Y-50190399D01*
X100482373Y-50252319D01*
X100397001Y-50480881D01*
X100457141Y-50673000D01*
X101473000Y-50673000D01*
X101473000Y-50653000D01*
X101727000Y-50653000D01*
X101727000Y-50673000D01*
X102742859Y-50673000D01*
X102802999Y-50480881D01*
X102717627Y-50252319D01*
X102679337Y-50190399D01*
X103050455Y-50190399D01*
X103037050Y-50210461D01*
X102943229Y-50436964D01*
X102895400Y-50677418D01*
X102895400Y-50922582D01*
X102943229Y-51163036D01*
X103037050Y-51389539D01*
X103173256Y-51593386D01*
X103346614Y-51766744D01*
X103550461Y-51902950D01*
X103776964Y-51996771D01*
X104017418Y-52044600D01*
X104262582Y-52044600D01*
X104503036Y-51996771D01*
X104729539Y-51902950D01*
X104933386Y-51766744D01*
X105106744Y-51593386D01*
X105242950Y-51389539D01*
X105336771Y-51163036D01*
X105384600Y-50922582D01*
X105384600Y-50677418D01*
X105336771Y-50436964D01*
X105242950Y-50210461D01*
X105229545Y-50190399D01*
X105590455Y-50190399D01*
X105577050Y-50210461D01*
X105483229Y-50436964D01*
X105435400Y-50677418D01*
X105435400Y-50922582D01*
X105483229Y-51163036D01*
X105577050Y-51389539D01*
X105713256Y-51593386D01*
X105886614Y-51766744D01*
X106090461Y-51902950D01*
X106316964Y-51996771D01*
X106557418Y-52044600D01*
X106802582Y-52044600D01*
X107043036Y-51996771D01*
X107269539Y-51902950D01*
X107473386Y-51766744D01*
X107646744Y-51593386D01*
X107759712Y-51424318D01*
X108595682Y-52260288D01*
X108426614Y-52373256D01*
X108253256Y-52546614D01*
X108117050Y-52750461D01*
X108023229Y-52976964D01*
X107975400Y-53217418D01*
X107975400Y-53462582D01*
X108023229Y-53703036D01*
X108117050Y-53929539D01*
X108253256Y-54133386D01*
X108426614Y-54306744D01*
X108630461Y-54442950D01*
X108856964Y-54536771D01*
X109097418Y-54584600D01*
X109342582Y-54584600D01*
X109583036Y-54536771D01*
X109809539Y-54442950D01*
X110013386Y-54306744D01*
X110186744Y-54133386D01*
X110299712Y-53964318D01*
X111633000Y-55297606D01*
X111633000Y-76698975D01*
X111623975Y-76708000D01*
X109855000Y-76708000D01*
X109830224Y-76710440D01*
X109806399Y-76717667D01*
X109784443Y-76729403D01*
X109765197Y-76745197D01*
X109749403Y-76764443D01*
X109737667Y-76786399D01*
X109730440Y-76810224D01*
X109728010Y-76833432D01*
X109725742Y-77017179D01*
X109707033Y-77035888D01*
X109632506Y-77147426D01*
X109581171Y-77271360D01*
X109555000Y-77402927D01*
X109555000Y-77537073D01*
X109581171Y-77668640D01*
X109632506Y-77792574D01*
X109707033Y-77904112D01*
X109714697Y-77911776D01*
X109607261Y-86614122D01*
X103066883Y-93154500D01*
X97811819Y-93154500D01*
X97789999Y-93152351D01*
X97768179Y-93154500D01*
X97768170Y-93154500D01*
X97702863Y-93160932D01*
X97619074Y-93186349D01*
X97546840Y-93224959D01*
X97541853Y-93227625D01*
X97491126Y-93269256D01*
X97474171Y-93283171D01*
X97460258Y-93300124D01*
X97097883Y-93662500D01*
X92604819Y-93662500D01*
X92582999Y-93660351D01*
X92561179Y-93662500D01*
X92561170Y-93662500D01*
X92495863Y-93668932D01*
X92412074Y-93694349D01*
X92334855Y-93735624D01*
X92334853Y-93735625D01*
X92334854Y-93735625D01*
X92284127Y-93777255D01*
X92284126Y-93777256D01*
X92267171Y-93791171D01*
X92253258Y-93808124D01*
X92044225Y-94017157D01*
X90590000Y-94017157D01*
X90515311Y-94024513D01*
X90443492Y-94046299D01*
X90377304Y-94081678D01*
X90319289Y-94129289D01*
X90271678Y-94187304D01*
X90236299Y-94253492D01*
X90214513Y-94325311D01*
X90207157Y-94400000D01*
X90207157Y-95033237D01*
X85037394Y-100203000D01*
X83156656Y-100203000D01*
X82948766Y-99863754D01*
X82590477Y-98998768D01*
X82522275Y-98714687D01*
X82548492Y-98728701D01*
X82620311Y-98750487D01*
X82695000Y-98757843D01*
X83597750Y-98756000D01*
X83693000Y-98660750D01*
X83693000Y-95377000D01*
X83947000Y-95377000D01*
X83947000Y-98660750D01*
X84042250Y-98756000D01*
X84945000Y-98757843D01*
X85019689Y-98750487D01*
X85091508Y-98728701D01*
X85157696Y-98693322D01*
X85215711Y-98645711D01*
X85263322Y-98587696D01*
X85298701Y-98521508D01*
X85320487Y-98449689D01*
X85327843Y-98375000D01*
X85326000Y-95472250D01*
X85230750Y-95377000D01*
X83947000Y-95377000D01*
X83693000Y-95377000D01*
X82409250Y-95377000D01*
X82314000Y-95472250D01*
X82312816Y-97337502D01*
X82297270Y-97139975D01*
X82297270Y-92125000D01*
X82312157Y-92125000D01*
X82314000Y-95027750D01*
X82409250Y-95123000D01*
X83693000Y-95123000D01*
X83693000Y-91839250D01*
X83947000Y-91839250D01*
X83947000Y-95123000D01*
X85230750Y-95123000D01*
X85326000Y-95027750D01*
X85327843Y-92125000D01*
X85320487Y-92050311D01*
X85298701Y-91978492D01*
X85263322Y-91912304D01*
X85215711Y-91854289D01*
X85157696Y-91806678D01*
X85091508Y-91771299D01*
X85019689Y-91749513D01*
X84945000Y-91742157D01*
X84042250Y-91744000D01*
X83947000Y-91839250D01*
X83693000Y-91839250D01*
X83597750Y-91744000D01*
X82695000Y-91742157D01*
X82620311Y-91749513D01*
X82548492Y-91771299D01*
X82482304Y-91806678D01*
X82424289Y-91854289D01*
X82376678Y-91912304D01*
X82341299Y-91978492D01*
X82319513Y-92050311D01*
X82312157Y-92125000D01*
X82297270Y-92125000D01*
X82297270Y-84225000D01*
X82312157Y-84225000D01*
X82312157Y-90475000D01*
X82319513Y-90549689D01*
X82341299Y-90621508D01*
X82376678Y-90687696D01*
X82424289Y-90745711D01*
X82482304Y-90793322D01*
X82548492Y-90828701D01*
X82620311Y-90850487D01*
X82695000Y-90857843D01*
X84945000Y-90857843D01*
X85019689Y-90850487D01*
X85091508Y-90828701D01*
X85157696Y-90793322D01*
X85215711Y-90745711D01*
X85263322Y-90687696D01*
X85298701Y-90621508D01*
X85320487Y-90549689D01*
X85327843Y-90475000D01*
X85327843Y-84225000D01*
X85320487Y-84150311D01*
X85298701Y-84078492D01*
X85263322Y-84012304D01*
X85215711Y-83954289D01*
X85157696Y-83906678D01*
X85091508Y-83871299D01*
X85019689Y-83849513D01*
X84945000Y-83842157D01*
X82695000Y-83842157D01*
X82620311Y-83849513D01*
X82548492Y-83871299D01*
X82482304Y-83906678D01*
X82424289Y-83954289D01*
X82376678Y-84012304D01*
X82341299Y-84078492D01*
X82319513Y-84150311D01*
X82312157Y-84225000D01*
X82297270Y-84225000D01*
X82297270Y-82932270D01*
X103486228Y-82932270D01*
X103505000Y-82934119D01*
X103579938Y-82926738D01*
X103651996Y-82904880D01*
X103718405Y-82869383D01*
X103776613Y-82821613D01*
X103824383Y-82763405D01*
X103859880Y-82696996D01*
X103881738Y-82624938D01*
X103887270Y-82568773D01*
X103889119Y-82550000D01*
X103887270Y-82531227D01*
X103887270Y-64788773D01*
X103889119Y-64770000D01*
X103881738Y-64695062D01*
X103859880Y-64623004D01*
X103824383Y-64556595D01*
X103776613Y-64498387D01*
X103718405Y-64450617D01*
X103651996Y-64415120D01*
X103579938Y-64393262D01*
X103523773Y-64387730D01*
X103523772Y-64387730D01*
X103505000Y-64385881D01*
X103486227Y-64387730D01*
X89282270Y-64387730D01*
X89282270Y-56300000D01*
X90207157Y-56300000D01*
X90207157Y-58000000D01*
X90214513Y-58074689D01*
X90236299Y-58146508D01*
X90271678Y-58212696D01*
X90319289Y-58270711D01*
X90377304Y-58318322D01*
X90443492Y-58353701D01*
X90515311Y-58375487D01*
X90590000Y-58382843D01*
X92290000Y-58382843D01*
X92364689Y-58375487D01*
X92436508Y-58353701D01*
X92502696Y-58318322D01*
X92560711Y-58270711D01*
X92608322Y-58212696D01*
X92643701Y-58146508D01*
X92665487Y-58074689D01*
X92672843Y-58000000D01*
X92672843Y-56300000D01*
X92665487Y-56225311D01*
X92643701Y-56153492D01*
X92608322Y-56087304D01*
X92560711Y-56029289D01*
X92502696Y-55981678D01*
X92436508Y-55946299D01*
X92364689Y-55924513D01*
X92290000Y-55917157D01*
X90590000Y-55917157D01*
X90515311Y-55924513D01*
X90443492Y-55946299D01*
X90377304Y-55981678D01*
X90319289Y-56029289D01*
X90271678Y-56087304D01*
X90236299Y-56153492D01*
X90214513Y-56225311D01*
X90207157Y-56300000D01*
X89282270Y-56300000D01*
X89282270Y-52386980D01*
X90250511Y-52386980D01*
X90274866Y-52467288D01*
X90374761Y-52686961D01*
X90515592Y-52882924D01*
X90691948Y-53047647D01*
X90897051Y-53174799D01*
X91123019Y-53259495D01*
X91313000Y-53199187D01*
X91313000Y-52197000D01*
X91567000Y-52197000D01*
X91567000Y-53199187D01*
X91756981Y-53259495D01*
X91982949Y-53174799D01*
X92188052Y-53047647D01*
X92364408Y-52882924D01*
X92505239Y-52686961D01*
X92605134Y-52467288D01*
X92629489Y-52386980D01*
X92790511Y-52386980D01*
X92814866Y-52467288D01*
X92914761Y-52686961D01*
X93055592Y-52882924D01*
X93231948Y-53047647D01*
X93437051Y-53174799D01*
X93663019Y-53259495D01*
X93853000Y-53199187D01*
X93853000Y-52197000D01*
X94107000Y-52197000D01*
X94107000Y-53199187D01*
X94296981Y-53259495D01*
X94522949Y-53174799D01*
X94728052Y-53047647D01*
X94904408Y-52882924D01*
X95045239Y-52686961D01*
X95145134Y-52467288D01*
X95169489Y-52386980D01*
X95330511Y-52386980D01*
X95354866Y-52467288D01*
X95454761Y-52686961D01*
X95595592Y-52882924D01*
X95771948Y-53047647D01*
X95977051Y-53174799D01*
X96203019Y-53259495D01*
X96393000Y-53199187D01*
X96393000Y-52197000D01*
X95391373Y-52197000D01*
X95330511Y-52386980D01*
X95169489Y-52386980D01*
X95108627Y-52197000D01*
X94107000Y-52197000D01*
X93853000Y-52197000D01*
X92851373Y-52197000D01*
X92790511Y-52386980D01*
X92629489Y-52386980D01*
X92568627Y-52197000D01*
X91567000Y-52197000D01*
X91313000Y-52197000D01*
X90311373Y-52197000D01*
X90250511Y-52386980D01*
X89282270Y-52386980D01*
X89282270Y-51753020D01*
X90250511Y-51753020D01*
X90311373Y-51943000D01*
X91313000Y-51943000D01*
X91313000Y-50940813D01*
X91567000Y-50940813D01*
X91567000Y-51943000D01*
X92568627Y-51943000D01*
X92629489Y-51753020D01*
X92790511Y-51753020D01*
X92851373Y-51943000D01*
X93853000Y-51943000D01*
X93853000Y-50940813D01*
X94107000Y-50940813D01*
X94107000Y-51943000D01*
X95108627Y-51943000D01*
X95169489Y-51753020D01*
X95330511Y-51753020D01*
X95391373Y-51943000D01*
X96393000Y-51943000D01*
X96393000Y-50940813D01*
X96203019Y-50880505D01*
X95977051Y-50965201D01*
X95771948Y-51092353D01*
X95595592Y-51257076D01*
X95454761Y-51453039D01*
X95354866Y-51672712D01*
X95330511Y-51753020D01*
X95169489Y-51753020D01*
X95145134Y-51672712D01*
X95045239Y-51453039D01*
X94904408Y-51257076D01*
X94728052Y-51092353D01*
X94522949Y-50965201D01*
X94296981Y-50880505D01*
X94107000Y-50940813D01*
X93853000Y-50940813D01*
X93663019Y-50880505D01*
X93437051Y-50965201D01*
X93231948Y-51092353D01*
X93055592Y-51257076D01*
X92914761Y-51453039D01*
X92814866Y-51672712D01*
X92790511Y-51753020D01*
X92629489Y-51753020D01*
X92605134Y-51672712D01*
X92505239Y-51453039D01*
X92364408Y-51257076D01*
X92188052Y-51092353D01*
X91982949Y-50965201D01*
X91756981Y-50880505D01*
X91567000Y-50940813D01*
X91313000Y-50940813D01*
X91123019Y-50880505D01*
X90897051Y-50965201D01*
X90691948Y-51092353D01*
X90515592Y-51257076D01*
X90374761Y-51453039D01*
X90274866Y-51672712D01*
X90250511Y-51753020D01*
X89282270Y-51753020D01*
X89282270Y-49277270D01*
X99192112Y-49277270D01*
X97364125Y-51105258D01*
G36*
X112903000Y-93934000D02*
G01*
X112835927Y-93934000D01*
X112704360Y-93960171D01*
X112580426Y-94011506D01*
X112468888Y-94086033D01*
X112374033Y-94180888D01*
X112299506Y-94292426D01*
X112248171Y-94416360D01*
X112222000Y-94547927D01*
X112222000Y-94682073D01*
X112248171Y-94813640D01*
X112299506Y-94937574D01*
X112374033Y-95049112D01*
X112468888Y-95143967D01*
X112580426Y-95218494D01*
X112704360Y-95269829D01*
X112835927Y-95296000D01*
X112903000Y-95296000D01*
X112903000Y-96173506D01*
X112852198Y-96215198D01*
X112821966Y-96252036D01*
X112630202Y-96443800D01*
X103298415Y-96443800D01*
X103251000Y-96439130D01*
X103203585Y-96443800D01*
X103061788Y-96457766D01*
X102879847Y-96512957D01*
X102712169Y-96602583D01*
X102565198Y-96723198D01*
X102534972Y-96760029D01*
X102140001Y-97155000D01*
X100457000Y-97155000D01*
X100457000Y-94805500D01*
X103610180Y-94805500D01*
X103632000Y-94807649D01*
X103653820Y-94805500D01*
X103653830Y-94805500D01*
X103719137Y-94799068D01*
X103802926Y-94773651D01*
X103880145Y-94732376D01*
X103947829Y-94676829D01*
X103961747Y-94659870D01*
X112903000Y-85718618D01*
X112903000Y-93934000D01*
G37*
X112903000Y-93934000D02*
X112835927Y-93934000D01*
X112704360Y-93960171D01*
X112580426Y-94011506D01*
X112468888Y-94086033D01*
X112374033Y-94180888D01*
X112299506Y-94292426D01*
X112248171Y-94416360D01*
X112222000Y-94547927D01*
X112222000Y-94682073D01*
X112248171Y-94813640D01*
X112299506Y-94937574D01*
X112374033Y-95049112D01*
X112468888Y-95143967D01*
X112580426Y-95218494D01*
X112704360Y-95269829D01*
X112835927Y-95296000D01*
X112903000Y-95296000D01*
X112903000Y-96173506D01*
X112852198Y-96215198D01*
X112821966Y-96252036D01*
X112630202Y-96443800D01*
X103298415Y-96443800D01*
X103251000Y-96439130D01*
X103203585Y-96443800D01*
X103061788Y-96457766D01*
X102879847Y-96512957D01*
X102712169Y-96602583D01*
X102565198Y-96723198D01*
X102534972Y-96760029D01*
X102140001Y-97155000D01*
X100457000Y-97155000D01*
X100457000Y-94805500D01*
X103610180Y-94805500D01*
X103632000Y-94807649D01*
X103653820Y-94805500D01*
X103653830Y-94805500D01*
X103719137Y-94799068D01*
X103802926Y-94773651D01*
X103880145Y-94732376D01*
X103947829Y-94676829D01*
X103961747Y-94659870D01*
X112903000Y-85718618D01*
X112903000Y-93934000D01*
G36*
X136307399Y-59659984D02*
G01*
X136291967Y-59636888D01*
X136197112Y-59542033D01*
X136085574Y-59467506D01*
X135961640Y-59416171D01*
X135830073Y-59390000D01*
X135695927Y-59390000D01*
X135564360Y-59416171D01*
X135440426Y-59467506D01*
X135328888Y-59542033D01*
X135234033Y-59636888D01*
X135159506Y-59748426D01*
X135108171Y-59872360D01*
X135082000Y-60003927D01*
X135082000Y-60138073D01*
X135100634Y-60231748D01*
X132784883Y-62547500D01*
X126809500Y-62547500D01*
X126809500Y-59076820D01*
X126811649Y-59055000D01*
X126809500Y-59033180D01*
X126809500Y-59033170D01*
X126803068Y-58967863D01*
X126777651Y-58884074D01*
X126756725Y-58844925D01*
X126736376Y-58806854D01*
X126694745Y-58756127D01*
X126694742Y-58756124D01*
X126680829Y-58739171D01*
X126663877Y-58725259D01*
X126059746Y-58121129D01*
X126045829Y-58104171D01*
X125978145Y-58048624D01*
X125900926Y-58007349D01*
X125817137Y-57981932D01*
X125751830Y-57975500D01*
X125751820Y-57975500D01*
X125730000Y-57973351D01*
X125708180Y-57975500D01*
X124862819Y-57975500D01*
X124840999Y-57973351D01*
X124819179Y-57975500D01*
X124819170Y-57975500D01*
X124753863Y-57981932D01*
X124670074Y-58007349D01*
X124592855Y-58048624D01*
X124525171Y-58104171D01*
X124511253Y-58121130D01*
X121354883Y-61277500D01*
X121041579Y-61277500D01*
X120957112Y-61193033D01*
X120845574Y-61118506D01*
X120721640Y-61067171D01*
X120590073Y-61041000D01*
X120455927Y-61041000D01*
X120324360Y-61067171D01*
X120200426Y-61118506D01*
X120088888Y-61193033D01*
X119994033Y-61287888D01*
X119919506Y-61399426D01*
X119868171Y-61523360D01*
X119842000Y-61654927D01*
X119842000Y-61676000D01*
X119820927Y-61676000D01*
X119689360Y-61702171D01*
X119634000Y-61725102D01*
X119634000Y-57921024D01*
X119806950Y-57748074D01*
X119831185Y-57728185D01*
X119888784Y-57658000D01*
X119910537Y-57631495D01*
X119931076Y-57593069D01*
X119969502Y-57521180D01*
X120005812Y-57401482D01*
X120015000Y-57308192D01*
X120015000Y-57308182D01*
X120018071Y-57277001D01*
X120015000Y-57245820D01*
X120015000Y-56800180D01*
X120018071Y-56768999D01*
X120015000Y-56737818D01*
X120015000Y-56737808D01*
X120005812Y-56644518D01*
X119969502Y-56524820D01*
X119910538Y-56414507D01*
X119910537Y-56414505D01*
X119851068Y-56342042D01*
X119851065Y-56342039D01*
X119831185Y-56317815D01*
X119806961Y-56297935D01*
X119507000Y-55997975D01*
X119507000Y-55873617D01*
X119691118Y-55689500D01*
X140277882Y-55689500D01*
X136307399Y-59659984D01*
G37*
X136307399Y-59659984D02*
X136291967Y-59636888D01*
X136197112Y-59542033D01*
X136085574Y-59467506D01*
X135961640Y-59416171D01*
X135830073Y-59390000D01*
X135695927Y-59390000D01*
X135564360Y-59416171D01*
X135440426Y-59467506D01*
X135328888Y-59542033D01*
X135234033Y-59636888D01*
X135159506Y-59748426D01*
X135108171Y-59872360D01*
X135082000Y-60003927D01*
X135082000Y-60138073D01*
X135100634Y-60231748D01*
X132784883Y-62547500D01*
X126809500Y-62547500D01*
X126809500Y-59076820D01*
X126811649Y-59055000D01*
X126809500Y-59033180D01*
X126809500Y-59033170D01*
X126803068Y-58967863D01*
X126777651Y-58884074D01*
X126756725Y-58844925D01*
X126736376Y-58806854D01*
X126694745Y-58756127D01*
X126694742Y-58756124D01*
X126680829Y-58739171D01*
X126663877Y-58725259D01*
X126059746Y-58121129D01*
X126045829Y-58104171D01*
X125978145Y-58048624D01*
X125900926Y-58007349D01*
X125817137Y-57981932D01*
X125751830Y-57975500D01*
X125751820Y-57975500D01*
X125730000Y-57973351D01*
X125708180Y-57975500D01*
X124862819Y-57975500D01*
X124840999Y-57973351D01*
X124819179Y-57975500D01*
X124819170Y-57975500D01*
X124753863Y-57981932D01*
X124670074Y-58007349D01*
X124592855Y-58048624D01*
X124525171Y-58104171D01*
X124511253Y-58121130D01*
X121354883Y-61277500D01*
X121041579Y-61277500D01*
X120957112Y-61193033D01*
X120845574Y-61118506D01*
X120721640Y-61067171D01*
X120590073Y-61041000D01*
X120455927Y-61041000D01*
X120324360Y-61067171D01*
X120200426Y-61118506D01*
X120088888Y-61193033D01*
X119994033Y-61287888D01*
X119919506Y-61399426D01*
X119868171Y-61523360D01*
X119842000Y-61654927D01*
X119842000Y-61676000D01*
X119820927Y-61676000D01*
X119689360Y-61702171D01*
X119634000Y-61725102D01*
X119634000Y-57921024D01*
X119806950Y-57748074D01*
X119831185Y-57728185D01*
X119888784Y-57658000D01*
X119910537Y-57631495D01*
X119931076Y-57593069D01*
X119969502Y-57521180D01*
X120005812Y-57401482D01*
X120015000Y-57308192D01*
X120015000Y-57308182D01*
X120018071Y-57277001D01*
X120015000Y-57245820D01*
X120015000Y-56800180D01*
X120018071Y-56768999D01*
X120015000Y-56737818D01*
X120015000Y-56737808D01*
X120005812Y-56644518D01*
X119969502Y-56524820D01*
X119910538Y-56414507D01*
X119910537Y-56414505D01*
X119851068Y-56342042D01*
X119851065Y-56342039D01*
X119831185Y-56317815D01*
X119806961Y-56297935D01*
X119507000Y-55997975D01*
X119507000Y-55873617D01*
X119691118Y-55689500D01*
X140277882Y-55689500D01*
X136307399Y-59659984D01*
G36*
X142473033Y-64823112D02*
G01*
X142567888Y-64917967D01*
X142679426Y-64992494D01*
X142803360Y-65043829D01*
X142934927Y-65070000D01*
X143069073Y-65070000D01*
X143200640Y-65043829D01*
X143324574Y-64992494D01*
X143436112Y-64917967D01*
X143520579Y-64833500D01*
X149548883Y-64833500D01*
X150558501Y-65843118D01*
X150558500Y-67415180D01*
X150556351Y-67437000D01*
X150558500Y-67458820D01*
X150558500Y-67458829D01*
X150564932Y-67524136D01*
X150583385Y-67584967D01*
X150590349Y-67607925D01*
X150631624Y-67685145D01*
X150662405Y-67722651D01*
X150687171Y-67752829D01*
X150704129Y-67766746D01*
X151435258Y-68497876D01*
X151449171Y-68514829D01*
X151466124Y-68528742D01*
X151466127Y-68528745D01*
X151516854Y-68570376D01*
X151571957Y-68599829D01*
X151594074Y-68611651D01*
X151677863Y-68637068D01*
X151743170Y-68643500D01*
X151743180Y-68643500D01*
X151765000Y-68645649D01*
X151786820Y-68643500D01*
X153140180Y-68643500D01*
X153162000Y-68645649D01*
X153183820Y-68643500D01*
X153183830Y-68643500D01*
X153249137Y-68637068D01*
X153310694Y-68618395D01*
X153348927Y-68626000D01*
X153483073Y-68626000D01*
X153614640Y-68599829D01*
X153738574Y-68548494D01*
X153850112Y-68473967D01*
X153944967Y-68379112D01*
X153970661Y-68340658D01*
X157149800Y-71519799D01*
X157149801Y-75692000D01*
X156086920Y-75692000D01*
X155952471Y-75557551D01*
X155790225Y-75449142D01*
X155609947Y-75374468D01*
X155418566Y-75336400D01*
X155223434Y-75336400D01*
X155032053Y-75374468D01*
X154851775Y-75449142D01*
X154689529Y-75557551D01*
X154551551Y-75695529D01*
X154443142Y-75857775D01*
X154368468Y-76038053D01*
X154330400Y-76229434D01*
X154330400Y-76424566D01*
X154368468Y-76615947D01*
X154443142Y-76796225D01*
X154551551Y-76958471D01*
X154689529Y-77096449D01*
X154851775Y-77204858D01*
X155032053Y-77279532D01*
X155223434Y-77317600D01*
X155418566Y-77317600D01*
X155609947Y-77279532D01*
X155790225Y-77204858D01*
X155952471Y-77096449D01*
X156086920Y-76962000D01*
X157149800Y-76962000D01*
X157149801Y-80772000D01*
X152657920Y-80772000D01*
X152523471Y-80637551D01*
X152361225Y-80529142D01*
X152180947Y-80454468D01*
X151989566Y-80416400D01*
X151794434Y-80416400D01*
X151603053Y-80454468D01*
X151422775Y-80529142D01*
X151260529Y-80637551D01*
X151122551Y-80775529D01*
X151014142Y-80937775D01*
X150939468Y-81118053D01*
X150901400Y-81309434D01*
X150901400Y-81504566D01*
X150939468Y-81695947D01*
X151014142Y-81876225D01*
X151122551Y-82038471D01*
X151260529Y-82176449D01*
X151422775Y-82284858D01*
X151603053Y-82359532D01*
X151794434Y-82397600D01*
X151989566Y-82397600D01*
X152180947Y-82359532D01*
X152361225Y-82284858D01*
X152523471Y-82176449D01*
X152657920Y-82042000D01*
X157387507Y-82042000D01*
X157429199Y-82092802D01*
X157480000Y-82134493D01*
X157480001Y-88001975D01*
X157434050Y-88047926D01*
X157409815Y-88067815D01*
X157330463Y-88164507D01*
X157271498Y-88274821D01*
X157235188Y-88394519D01*
X157226000Y-88487809D01*
X157226000Y-88487819D01*
X157222929Y-88519000D01*
X157226000Y-88550182D01*
X157226000Y-89154000D01*
X155860180Y-89154000D01*
X155828999Y-89150929D01*
X155797818Y-89154000D01*
X155797808Y-89154000D01*
X155704518Y-89163188D01*
X155584820Y-89199498D01*
X155512931Y-89237924D01*
X155474505Y-89258463D01*
X155416094Y-89306400D01*
X155223434Y-89306400D01*
X155032053Y-89344468D01*
X154851775Y-89419142D01*
X154689529Y-89527551D01*
X154551551Y-89665529D01*
X154443142Y-89827775D01*
X154368468Y-90008053D01*
X154330400Y-90199434D01*
X154330400Y-90394566D01*
X154368468Y-90585947D01*
X154443142Y-90766225D01*
X154551551Y-90928471D01*
X154689529Y-91066449D01*
X154851775Y-91174858D01*
X155032053Y-91249532D01*
X155223434Y-91287600D01*
X155418566Y-91287600D01*
X155609947Y-91249532D01*
X155790225Y-91174858D01*
X155952471Y-91066449D01*
X156090449Y-90928471D01*
X156198858Y-90766225D01*
X156273532Y-90585947D01*
X156305745Y-90424000D01*
X157226000Y-90424000D01*
X157226001Y-92192973D01*
X154676976Y-94742000D01*
X153038920Y-94742000D01*
X152904471Y-94607551D01*
X152742225Y-94499142D01*
X152561947Y-94424468D01*
X152370566Y-94386400D01*
X152175434Y-94386400D01*
X151984053Y-94424468D01*
X151803775Y-94499142D01*
X151641529Y-94607551D01*
X151503551Y-94745529D01*
X151395142Y-94907775D01*
X151320468Y-95088053D01*
X151282400Y-95279434D01*
X151282400Y-95474566D01*
X151320468Y-95665947D01*
X151395142Y-95846225D01*
X151503551Y-96008471D01*
X151641529Y-96146449D01*
X151803775Y-96254858D01*
X151984053Y-96329532D01*
X152175434Y-96367600D01*
X152370566Y-96367600D01*
X152561947Y-96329532D01*
X152742225Y-96254858D01*
X152904471Y-96146449D01*
X153038920Y-96012000D01*
X154438383Y-96012000D01*
X152977883Y-97472500D01*
X151913820Y-97472500D01*
X151892000Y-97470351D01*
X151870180Y-97472500D01*
X151870170Y-97472500D01*
X151804863Y-97478932D01*
X151721074Y-97504349D01*
X151643854Y-97545624D01*
X151593127Y-97587255D01*
X151593124Y-97587258D01*
X151576171Y-97601171D01*
X151562258Y-97618124D01*
X150882383Y-98298000D01*
X150847715Y-98298000D01*
X150826744Y-98266614D01*
X150653386Y-98093256D01*
X150449539Y-97957050D01*
X150223036Y-97863229D01*
X149982582Y-97815400D01*
X149737418Y-97815400D01*
X149496964Y-97863229D01*
X149351924Y-97923307D01*
X149046744Y-97618127D01*
X149032829Y-97601171D01*
X148965145Y-97545624D01*
X148887926Y-97504349D01*
X148804137Y-97478932D01*
X148738830Y-97472500D01*
X148738820Y-97472500D01*
X148717000Y-97470351D01*
X148695180Y-97472500D01*
X146742117Y-97472500D01*
X146633744Y-97364127D01*
X146619829Y-97347171D01*
X146552145Y-97291624D01*
X146474926Y-97250349D01*
X146391137Y-97224932D01*
X146325830Y-97218500D01*
X146325820Y-97218500D01*
X146304000Y-97216351D01*
X146282180Y-97218500D01*
X143694118Y-97218500D01*
X142811500Y-96335883D01*
X142811500Y-93021117D01*
X143935870Y-91896747D01*
X143952829Y-91882829D01*
X144008376Y-91815145D01*
X144049651Y-91737926D01*
X144075068Y-91654137D01*
X144081500Y-91588830D01*
X144081500Y-91588821D01*
X144083649Y-91567001D01*
X144081500Y-91545181D01*
X144081500Y-89175819D01*
X144083649Y-89153999D01*
X144081500Y-89132179D01*
X144081500Y-89132170D01*
X144075068Y-89066863D01*
X144049651Y-88983074D01*
X144008376Y-88905855D01*
X143970856Y-88860137D01*
X143966744Y-88855126D01*
X143966742Y-88855124D01*
X143952829Y-88838171D01*
X143935877Y-88824259D01*
X143585745Y-88474128D01*
X143571829Y-88457171D01*
X143504145Y-88401624D01*
X143426926Y-88360349D01*
X143343137Y-88334932D01*
X143277830Y-88328500D01*
X143277820Y-88328500D01*
X143256000Y-88326351D01*
X143234180Y-88328500D01*
X139376118Y-88328500D01*
X139128500Y-88080883D01*
X139128500Y-82607117D01*
X139236892Y-82498725D01*
X139253849Y-82484809D01*
X139288301Y-82442829D01*
X139309396Y-82417126D01*
X139350671Y-82339906D01*
X139361853Y-82303043D01*
X139376088Y-82256117D01*
X139382520Y-82190810D01*
X139382520Y-82190800D01*
X139384669Y-82168980D01*
X139382520Y-82147160D01*
X139382520Y-81464097D01*
X140138118Y-80708500D01*
X140832421Y-80708500D01*
X140916888Y-80792967D01*
X141028426Y-80867494D01*
X141152360Y-80918829D01*
X141283927Y-80945000D01*
X141418073Y-80945000D01*
X141549640Y-80918829D01*
X141673574Y-80867494D01*
X141785112Y-80792967D01*
X141879967Y-80698112D01*
X141954494Y-80586574D01*
X142005829Y-80462640D01*
X142032000Y-80331073D01*
X142032000Y-80196927D01*
X142005829Y-80065360D01*
X141954494Y-79941426D01*
X141879967Y-79829888D01*
X141785112Y-79735033D01*
X141673574Y-79660506D01*
X141549640Y-79609171D01*
X141418073Y-79583000D01*
X141283927Y-79583000D01*
X141152360Y-79609171D01*
X141028426Y-79660506D01*
X140916888Y-79735033D01*
X140832421Y-79819500D01*
X140398500Y-79819500D01*
X140398500Y-76136500D01*
X140959421Y-76136500D01*
X141043888Y-76220967D01*
X141155426Y-76295494D01*
X141279360Y-76346829D01*
X141410927Y-76373000D01*
X141545073Y-76373000D01*
X141676640Y-76346829D01*
X141800574Y-76295494D01*
X141912112Y-76220967D01*
X142006967Y-76126112D01*
X142081494Y-76014574D01*
X142132829Y-75890640D01*
X142159000Y-75759073D01*
X142159000Y-75624927D01*
X142132829Y-75493360D01*
X142081494Y-75369426D01*
X142006967Y-75257888D01*
X141912112Y-75163033D01*
X141800574Y-75088506D01*
X141676640Y-75037171D01*
X141545073Y-75011000D01*
X141410927Y-75011000D01*
X141279360Y-75037171D01*
X141155426Y-75088506D01*
X141043888Y-75163033D01*
X140959421Y-75247500D01*
X140265118Y-75247500D01*
X138747500Y-73729883D01*
X138747500Y-69018117D01*
X140519118Y-67246500D01*
X141583180Y-67246500D01*
X141605000Y-67248649D01*
X141626820Y-67246500D01*
X141626830Y-67246500D01*
X141692137Y-67240068D01*
X141775926Y-67214651D01*
X141853145Y-67173376D01*
X141920829Y-67117829D01*
X141934747Y-67100870D01*
X142157867Y-66877750D01*
X142174829Y-66863829D01*
X142230376Y-66796145D01*
X142271651Y-66718926D01*
X142297068Y-66635137D01*
X142303500Y-66569830D01*
X142303500Y-66569821D01*
X142305649Y-66548001D01*
X142303500Y-66526181D01*
X142303500Y-64990175D01*
X142472044Y-64821631D01*
X142473033Y-64823112D01*
G37*
X142473033Y-64823112D02*
X142567888Y-64917967D01*
X142679426Y-64992494D01*
X142803360Y-65043829D01*
X142934927Y-65070000D01*
X143069073Y-65070000D01*
X143200640Y-65043829D01*
X143324574Y-64992494D01*
X143436112Y-64917967D01*
X143520579Y-64833500D01*
X149548883Y-64833500D01*
X150558501Y-65843118D01*
X150558500Y-67415180D01*
X150556351Y-67437000D01*
X150558500Y-67458820D01*
X150558500Y-67458829D01*
X150564932Y-67524136D01*
X150583385Y-67584967D01*
X150590349Y-67607925D01*
X150631624Y-67685145D01*
X150662405Y-67722651D01*
X150687171Y-67752829D01*
X150704129Y-67766746D01*
X151435258Y-68497876D01*
X151449171Y-68514829D01*
X151466124Y-68528742D01*
X151466127Y-68528745D01*
X151516854Y-68570376D01*
X151571957Y-68599829D01*
X151594074Y-68611651D01*
X151677863Y-68637068D01*
X151743170Y-68643500D01*
X151743180Y-68643500D01*
X151765000Y-68645649D01*
X151786820Y-68643500D01*
X153140180Y-68643500D01*
X153162000Y-68645649D01*
X153183820Y-68643500D01*
X153183830Y-68643500D01*
X153249137Y-68637068D01*
X153310694Y-68618395D01*
X153348927Y-68626000D01*
X153483073Y-68626000D01*
X153614640Y-68599829D01*
X153738574Y-68548494D01*
X153850112Y-68473967D01*
X153944967Y-68379112D01*
X153970661Y-68340658D01*
X157149800Y-71519799D01*
X157149801Y-75692000D01*
X156086920Y-75692000D01*
X155952471Y-75557551D01*
X155790225Y-75449142D01*
X155609947Y-75374468D01*
X155418566Y-75336400D01*
X155223434Y-75336400D01*
X155032053Y-75374468D01*
X154851775Y-75449142D01*
X154689529Y-75557551D01*
X154551551Y-75695529D01*
X154443142Y-75857775D01*
X154368468Y-76038053D01*
X154330400Y-76229434D01*
X154330400Y-76424566D01*
X154368468Y-76615947D01*
X154443142Y-76796225D01*
X154551551Y-76958471D01*
X154689529Y-77096449D01*
X154851775Y-77204858D01*
X155032053Y-77279532D01*
X155223434Y-77317600D01*
X155418566Y-77317600D01*
X155609947Y-77279532D01*
X155790225Y-77204858D01*
X155952471Y-77096449D01*
X156086920Y-76962000D01*
X157149800Y-76962000D01*
X157149801Y-80772000D01*
X152657920Y-80772000D01*
X152523471Y-80637551D01*
X152361225Y-80529142D01*
X152180947Y-80454468D01*
X151989566Y-80416400D01*
X151794434Y-80416400D01*
X151603053Y-80454468D01*
X151422775Y-80529142D01*
X151260529Y-80637551D01*
X151122551Y-80775529D01*
X151014142Y-80937775D01*
X150939468Y-81118053D01*
X150901400Y-81309434D01*
X150901400Y-81504566D01*
X150939468Y-81695947D01*
X151014142Y-81876225D01*
X151122551Y-82038471D01*
X151260529Y-82176449D01*
X151422775Y-82284858D01*
X151603053Y-82359532D01*
X151794434Y-82397600D01*
X151989566Y-82397600D01*
X152180947Y-82359532D01*
X152361225Y-82284858D01*
X152523471Y-82176449D01*
X152657920Y-82042000D01*
X157387507Y-82042000D01*
X157429199Y-82092802D01*
X157480000Y-82134493D01*
X157480001Y-88001975D01*
X157434050Y-88047926D01*
X157409815Y-88067815D01*
X157330463Y-88164507D01*
X157271498Y-88274821D01*
X157235188Y-88394519D01*
X157226000Y-88487809D01*
X157226000Y-88487819D01*
X157222929Y-88519000D01*
X157226000Y-88550182D01*
X157226000Y-89154000D01*
X155860180Y-89154000D01*
X155828999Y-89150929D01*
X155797818Y-89154000D01*
X155797808Y-89154000D01*
X155704518Y-89163188D01*
X155584820Y-89199498D01*
X155512931Y-89237924D01*
X155474505Y-89258463D01*
X155416094Y-89306400D01*
X155223434Y-89306400D01*
X155032053Y-89344468D01*
X154851775Y-89419142D01*
X154689529Y-89527551D01*
X154551551Y-89665529D01*
X154443142Y-89827775D01*
X154368468Y-90008053D01*
X154330400Y-90199434D01*
X154330400Y-90394566D01*
X154368468Y-90585947D01*
X154443142Y-90766225D01*
X154551551Y-90928471D01*
X154689529Y-91066449D01*
X154851775Y-91174858D01*
X155032053Y-91249532D01*
X155223434Y-91287600D01*
X155418566Y-91287600D01*
X155609947Y-91249532D01*
X155790225Y-91174858D01*
X155952471Y-91066449D01*
X156090449Y-90928471D01*
X156198858Y-90766225D01*
X156273532Y-90585947D01*
X156305745Y-90424000D01*
X157226000Y-90424000D01*
X157226001Y-92192973D01*
X154676976Y-94742000D01*
X153038920Y-94742000D01*
X152904471Y-94607551D01*
X152742225Y-94499142D01*
X152561947Y-94424468D01*
X152370566Y-94386400D01*
X152175434Y-94386400D01*
X151984053Y-94424468D01*
X151803775Y-94499142D01*
X151641529Y-94607551D01*
X151503551Y-94745529D01*
X151395142Y-94907775D01*
X151320468Y-95088053D01*
X151282400Y-95279434D01*
X151282400Y-95474566D01*
X151320468Y-95665947D01*
X151395142Y-95846225D01*
X151503551Y-96008471D01*
X151641529Y-96146449D01*
X151803775Y-96254858D01*
X151984053Y-96329532D01*
X152175434Y-96367600D01*
X152370566Y-96367600D01*
X152561947Y-96329532D01*
X152742225Y-96254858D01*
X152904471Y-96146449D01*
X153038920Y-96012000D01*
X154438383Y-96012000D01*
X152977883Y-97472500D01*
X151913820Y-97472500D01*
X151892000Y-97470351D01*
X151870180Y-97472500D01*
X151870170Y-97472500D01*
X151804863Y-97478932D01*
X151721074Y-97504349D01*
X151643854Y-97545624D01*
X151593127Y-97587255D01*
X151593124Y-97587258D01*
X151576171Y-97601171D01*
X151562258Y-97618124D01*
X150882383Y-98298000D01*
X150847715Y-98298000D01*
X150826744Y-98266614D01*
X150653386Y-98093256D01*
X150449539Y-97957050D01*
X150223036Y-97863229D01*
X149982582Y-97815400D01*
X149737418Y-97815400D01*
X149496964Y-97863229D01*
X149351924Y-97923307D01*
X149046744Y-97618127D01*
X149032829Y-97601171D01*
X148965145Y-97545624D01*
X148887926Y-97504349D01*
X148804137Y-97478932D01*
X148738830Y-97472500D01*
X148738820Y-97472500D01*
X148717000Y-97470351D01*
X148695180Y-97472500D01*
X146742117Y-97472500D01*
X146633744Y-97364127D01*
X146619829Y-97347171D01*
X146552145Y-97291624D01*
X146474926Y-97250349D01*
X146391137Y-97224932D01*
X146325830Y-97218500D01*
X146325820Y-97218500D01*
X146304000Y-97216351D01*
X146282180Y-97218500D01*
X143694118Y-97218500D01*
X142811500Y-96335883D01*
X142811500Y-93021117D01*
X143935870Y-91896747D01*
X143952829Y-91882829D01*
X144008376Y-91815145D01*
X144049651Y-91737926D01*
X144075068Y-91654137D01*
X144081500Y-91588830D01*
X144081500Y-91588821D01*
X144083649Y-91567001D01*
X144081500Y-91545181D01*
X144081500Y-89175819D01*
X144083649Y-89153999D01*
X144081500Y-89132179D01*
X144081500Y-89132170D01*
X144075068Y-89066863D01*
X144049651Y-88983074D01*
X144008376Y-88905855D01*
X143970856Y-88860137D01*
X143966744Y-88855126D01*
X143966742Y-88855124D01*
X143952829Y-88838171D01*
X143935877Y-88824259D01*
X143585745Y-88474128D01*
X143571829Y-88457171D01*
X143504145Y-88401624D01*
X143426926Y-88360349D01*
X143343137Y-88334932D01*
X143277830Y-88328500D01*
X143277820Y-88328500D01*
X143256000Y-88326351D01*
X143234180Y-88328500D01*
X139376118Y-88328500D01*
X139128500Y-88080883D01*
X139128500Y-82607117D01*
X139236892Y-82498725D01*
X139253849Y-82484809D01*
X139288301Y-82442829D01*
X139309396Y-82417126D01*
X139350671Y-82339906D01*
X139361853Y-82303043D01*
X139376088Y-82256117D01*
X139382520Y-82190810D01*
X139382520Y-82190800D01*
X139384669Y-82168980D01*
X139382520Y-82147160D01*
X139382520Y-81464097D01*
X140138118Y-80708500D01*
X140832421Y-80708500D01*
X140916888Y-80792967D01*
X141028426Y-80867494D01*
X141152360Y-80918829D01*
X141283927Y-80945000D01*
X141418073Y-80945000D01*
X141549640Y-80918829D01*
X141673574Y-80867494D01*
X141785112Y-80792967D01*
X141879967Y-80698112D01*
X141954494Y-80586574D01*
X142005829Y-80462640D01*
X142032000Y-80331073D01*
X142032000Y-80196927D01*
X142005829Y-80065360D01*
X141954494Y-79941426D01*
X141879967Y-79829888D01*
X141785112Y-79735033D01*
X141673574Y-79660506D01*
X141549640Y-79609171D01*
X141418073Y-79583000D01*
X141283927Y-79583000D01*
X141152360Y-79609171D01*
X141028426Y-79660506D01*
X140916888Y-79735033D01*
X140832421Y-79819500D01*
X140398500Y-79819500D01*
X140398500Y-76136500D01*
X140959421Y-76136500D01*
X141043888Y-76220967D01*
X141155426Y-76295494D01*
X141279360Y-76346829D01*
X141410927Y-76373000D01*
X141545073Y-76373000D01*
X141676640Y-76346829D01*
X141800574Y-76295494D01*
X141912112Y-76220967D01*
X142006967Y-76126112D01*
X142081494Y-76014574D01*
X142132829Y-75890640D01*
X142159000Y-75759073D01*
X142159000Y-75624927D01*
X142132829Y-75493360D01*
X142081494Y-75369426D01*
X142006967Y-75257888D01*
X141912112Y-75163033D01*
X141800574Y-75088506D01*
X141676640Y-75037171D01*
X141545073Y-75011000D01*
X141410927Y-75011000D01*
X141279360Y-75037171D01*
X141155426Y-75088506D01*
X141043888Y-75163033D01*
X140959421Y-75247500D01*
X140265118Y-75247500D01*
X138747500Y-73729883D01*
X138747500Y-69018117D01*
X140519118Y-67246500D01*
X141583180Y-67246500D01*
X141605000Y-67248649D01*
X141626820Y-67246500D01*
X141626830Y-67246500D01*
X141692137Y-67240068D01*
X141775926Y-67214651D01*
X141853145Y-67173376D01*
X141920829Y-67117829D01*
X141934747Y-67100870D01*
X142157867Y-66877750D01*
X142174829Y-66863829D01*
X142230376Y-66796145D01*
X142271651Y-66718926D01*
X142297068Y-66635137D01*
X142303500Y-66569830D01*
X142303500Y-66569821D01*
X142305649Y-66548001D01*
X142303500Y-66526181D01*
X142303500Y-64990175D01*
X142472044Y-64821631D01*
X142473033Y-64823112D01*
G36*
X133305129Y-92380254D02*
G01*
X133288171Y-92394171D01*
X133274255Y-92411128D01*
X133232624Y-92461855D01*
X133218836Y-92487651D01*
X133191349Y-92539075D01*
X133165932Y-92622864D01*
X133159500Y-92688171D01*
X133159500Y-92688180D01*
X133157351Y-92710000D01*
X133159500Y-92731820D01*
X133159501Y-95700882D01*
X132149883Y-96710500D01*
X128672819Y-96710500D01*
X128650999Y-96708351D01*
X128629179Y-96710500D01*
X128629170Y-96710500D01*
X128563863Y-96716932D01*
X128480074Y-96742349D01*
X128407840Y-96780960D01*
X128402853Y-96783625D01*
X128352126Y-96825256D01*
X128335171Y-96839171D01*
X128321258Y-96856124D01*
X127958883Y-97218500D01*
X126513819Y-97218500D01*
X126491999Y-97216351D01*
X126470179Y-97218500D01*
X126470170Y-97218500D01*
X126404863Y-97224932D01*
X126321074Y-97250349D01*
X126243855Y-97291624D01*
X126176171Y-97347171D01*
X126162249Y-97364135D01*
X126053884Y-97472500D01*
X123846820Y-97472500D01*
X123825000Y-97470351D01*
X123803180Y-97472500D01*
X123803170Y-97472500D01*
X123737863Y-97478932D01*
X123654074Y-97504349D01*
X123576854Y-97545624D01*
X123526127Y-97587255D01*
X123526124Y-97587258D01*
X123509171Y-97601171D01*
X123495258Y-97618124D01*
X122891125Y-98222258D01*
X122874172Y-98236171D01*
X122866117Y-98245987D01*
X122713386Y-98093256D01*
X122509539Y-97957050D01*
X122283036Y-97863229D01*
X122042582Y-97815400D01*
X121797418Y-97815400D01*
X121556964Y-97863229D01*
X121330461Y-97957050D01*
X121126614Y-98093256D01*
X120953256Y-98266614D01*
X120932285Y-98298000D01*
X120367715Y-98298000D01*
X120346744Y-98266614D01*
X120173386Y-98093256D01*
X119969539Y-97957050D01*
X119743036Y-97863229D01*
X119502582Y-97815400D01*
X119257418Y-97815400D01*
X119016964Y-97863229D01*
X118790461Y-97957050D01*
X118586614Y-98093256D01*
X118413256Y-98266614D01*
X118392285Y-98298000D01*
X117827715Y-98298000D01*
X117806744Y-98266614D01*
X117633386Y-98093256D01*
X117429539Y-97957050D01*
X117203036Y-97863229D01*
X116962582Y-97815400D01*
X116717418Y-97815400D01*
X116476964Y-97863229D01*
X116250461Y-97957050D01*
X116046614Y-98093256D01*
X115893884Y-98245986D01*
X115885829Y-98236171D01*
X115868877Y-98222259D01*
X115137745Y-97491128D01*
X115123829Y-97474171D01*
X115056145Y-97418624D01*
X114978926Y-97377349D01*
X114895137Y-97351932D01*
X114829830Y-97345500D01*
X114829820Y-97345500D01*
X114808000Y-97343351D01*
X114786180Y-97345500D01*
X113813820Y-97345500D01*
X113792000Y-97343351D01*
X113792000Y-95059500D01*
X113908421Y-95059500D01*
X113992888Y-95143967D01*
X114104426Y-95218494D01*
X114228360Y-95269829D01*
X114359927Y-95296000D01*
X114494073Y-95296000D01*
X114625640Y-95269829D01*
X114749574Y-95218494D01*
X114861112Y-95143967D01*
X114955967Y-95049112D01*
X115030494Y-94937574D01*
X115081829Y-94813640D01*
X115108000Y-94682073D01*
X115108000Y-94547927D01*
X115081829Y-94416360D01*
X115030494Y-94292426D01*
X114955967Y-94180888D01*
X114861112Y-94086033D01*
X114749574Y-94011506D01*
X114625640Y-93960171D01*
X114494073Y-93934000D01*
X114359927Y-93934000D01*
X114228360Y-93960171D01*
X114104426Y-94011506D01*
X113992888Y-94086033D01*
X113908421Y-94170500D01*
X113792000Y-94170500D01*
X113792000Y-94048361D01*
X113854212Y-94042234D01*
X114036153Y-93987043D01*
X114203831Y-93897417D01*
X114350802Y-93776802D01*
X114381038Y-93739959D01*
X115777339Y-92343659D01*
X115803033Y-92382112D01*
X115897888Y-92476967D01*
X116009426Y-92551494D01*
X116133360Y-92602829D01*
X116264927Y-92629000D01*
X116399073Y-92629000D01*
X116437306Y-92621395D01*
X116498863Y-92640068D01*
X116564170Y-92646500D01*
X116564179Y-92646500D01*
X116585999Y-92648649D01*
X116607819Y-92646500D01*
X132693180Y-92646500D01*
X132715000Y-92648649D01*
X132736820Y-92646500D01*
X132736830Y-92646500D01*
X132802137Y-92640068D01*
X132885926Y-92614651D01*
X132963145Y-92573376D01*
X133030829Y-92517829D01*
X133044747Y-92500871D01*
X133343618Y-92202000D01*
X133483383Y-92202000D01*
X133305129Y-92380254D01*
G37*
X133305129Y-92380254D02*
X133288171Y-92394171D01*
X133274255Y-92411128D01*
X133232624Y-92461855D01*
X133218836Y-92487651D01*
X133191349Y-92539075D01*
X133165932Y-92622864D01*
X133159500Y-92688171D01*
X133159500Y-92688180D01*
X133157351Y-92710000D01*
X133159500Y-92731820D01*
X133159501Y-95700882D01*
X132149883Y-96710500D01*
X128672819Y-96710500D01*
X128650999Y-96708351D01*
X128629179Y-96710500D01*
X128629170Y-96710500D01*
X128563863Y-96716932D01*
X128480074Y-96742349D01*
X128407840Y-96780960D01*
X128402853Y-96783625D01*
X128352126Y-96825256D01*
X128335171Y-96839171D01*
X128321258Y-96856124D01*
X127958883Y-97218500D01*
X126513819Y-97218500D01*
X126491999Y-97216351D01*
X126470179Y-97218500D01*
X126470170Y-97218500D01*
X126404863Y-97224932D01*
X126321074Y-97250349D01*
X126243855Y-97291624D01*
X126176171Y-97347171D01*
X126162249Y-97364135D01*
X126053884Y-97472500D01*
X123846820Y-97472500D01*
X123825000Y-97470351D01*
X123803180Y-97472500D01*
X123803170Y-97472500D01*
X123737863Y-97478932D01*
X123654074Y-97504349D01*
X123576854Y-97545624D01*
X123526127Y-97587255D01*
X123526124Y-97587258D01*
X123509171Y-97601171D01*
X123495258Y-97618124D01*
X122891125Y-98222258D01*
X122874172Y-98236171D01*
X122866117Y-98245987D01*
X122713386Y-98093256D01*
X122509539Y-97957050D01*
X122283036Y-97863229D01*
X122042582Y-97815400D01*
X121797418Y-97815400D01*
X121556964Y-97863229D01*
X121330461Y-97957050D01*
X121126614Y-98093256D01*
X120953256Y-98266614D01*
X120932285Y-98298000D01*
X120367715Y-98298000D01*
X120346744Y-98266614D01*
X120173386Y-98093256D01*
X119969539Y-97957050D01*
X119743036Y-97863229D01*
X119502582Y-97815400D01*
X119257418Y-97815400D01*
X119016964Y-97863229D01*
X118790461Y-97957050D01*
X118586614Y-98093256D01*
X118413256Y-98266614D01*
X118392285Y-98298000D01*
X117827715Y-98298000D01*
X117806744Y-98266614D01*
X117633386Y-98093256D01*
X117429539Y-97957050D01*
X117203036Y-97863229D01*
X116962582Y-97815400D01*
X116717418Y-97815400D01*
X116476964Y-97863229D01*
X116250461Y-97957050D01*
X116046614Y-98093256D01*
X115893884Y-98245986D01*
X115885829Y-98236171D01*
X115868877Y-98222259D01*
X115137745Y-97491128D01*
X115123829Y-97474171D01*
X115056145Y-97418624D01*
X114978926Y-97377349D01*
X114895137Y-97351932D01*
X114829830Y-97345500D01*
X114829820Y-97345500D01*
X114808000Y-97343351D01*
X114786180Y-97345500D01*
X113813820Y-97345500D01*
X113792000Y-97343351D01*
X113792000Y-95059500D01*
X113908421Y-95059500D01*
X113992888Y-95143967D01*
X114104426Y-95218494D01*
X114228360Y-95269829D01*
X114359927Y-95296000D01*
X114494073Y-95296000D01*
X114625640Y-95269829D01*
X114749574Y-95218494D01*
X114861112Y-95143967D01*
X114955967Y-95049112D01*
X115030494Y-94937574D01*
X115081829Y-94813640D01*
X115108000Y-94682073D01*
X115108000Y-94547927D01*
X115081829Y-94416360D01*
X115030494Y-94292426D01*
X114955967Y-94180888D01*
X114861112Y-94086033D01*
X114749574Y-94011506D01*
X114625640Y-93960171D01*
X114494073Y-93934000D01*
X114359927Y-93934000D01*
X114228360Y-93960171D01*
X114104426Y-94011506D01*
X113992888Y-94086033D01*
X113908421Y-94170500D01*
X113792000Y-94170500D01*
X113792000Y-94048361D01*
X113854212Y-94042234D01*
X114036153Y-93987043D01*
X114203831Y-93897417D01*
X114350802Y-93776802D01*
X114381038Y-93739959D01*
X115777339Y-92343659D01*
X115803033Y-92382112D01*
X115897888Y-92476967D01*
X116009426Y-92551494D01*
X116133360Y-92602829D01*
X116264927Y-92629000D01*
X116399073Y-92629000D01*
X116437306Y-92621395D01*
X116498863Y-92640068D01*
X116564170Y-92646500D01*
X116564179Y-92646500D01*
X116585999Y-92648649D01*
X116607819Y-92646500D01*
X132693180Y-92646500D01*
X132715000Y-92648649D01*
X132736820Y-92646500D01*
X132736830Y-92646500D01*
X132802137Y-92640068D01*
X132885926Y-92614651D01*
X132963145Y-92573376D01*
X133030829Y-92517829D01*
X133044747Y-92500871D01*
X133343618Y-92202000D01*
X133483383Y-92202000D01*
X133305129Y-92380254D01*
G36*
X125285500Y-76051180D02*
G01*
X125283351Y-76073000D01*
X125285500Y-76094820D01*
X125285500Y-76094829D01*
X125291932Y-76160136D01*
X125317349Y-76243925D01*
X125358624Y-76321145D01*
X125384275Y-76352400D01*
X125414171Y-76388829D01*
X125431129Y-76402747D01*
X126416256Y-77387874D01*
X126430171Y-77404829D01*
X126447124Y-77418742D01*
X126447127Y-77418745D01*
X126497854Y-77460376D01*
X126555166Y-77491010D01*
X126575074Y-77501651D01*
X126658863Y-77527068D01*
X126724170Y-77533500D01*
X126724180Y-77533500D01*
X126746000Y-77535649D01*
X126767820Y-77533500D01*
X133212421Y-77533500D01*
X133252652Y-77573731D01*
X132924125Y-77902258D01*
X132907172Y-77916171D01*
X132893259Y-77933124D01*
X132893255Y-77933128D01*
X132851624Y-77983855D01*
X132810349Y-78061075D01*
X132784933Y-78144863D01*
X132776351Y-78232000D01*
X132778501Y-78253830D01*
X132778500Y-79988180D01*
X132776351Y-80010000D01*
X132778500Y-80031820D01*
X132778500Y-80031829D01*
X132784932Y-80097136D01*
X132806626Y-80168651D01*
X132810349Y-80180925D01*
X132851624Y-80258145D01*
X132882405Y-80295651D01*
X132907171Y-80325829D01*
X132924128Y-80339745D01*
X134302501Y-81718119D01*
X134302500Y-86937882D01*
X133686125Y-87554258D01*
X133669172Y-87568171D01*
X133655259Y-87585124D01*
X133655255Y-87585128D01*
X133613624Y-87635855D01*
X133572349Y-87713075D01*
X133546933Y-87796863D01*
X133538351Y-87884000D01*
X133540501Y-87905830D01*
X133540500Y-89513180D01*
X133538351Y-89535000D01*
X133540500Y-89556820D01*
X133540500Y-89556829D01*
X133546932Y-89622136D01*
X133568626Y-89693651D01*
X133572349Y-89705925D01*
X133599063Y-89755903D01*
X133532360Y-89769171D01*
X133408426Y-89820506D01*
X133296888Y-89895033D01*
X133202033Y-89989888D01*
X133127506Y-90101426D01*
X133076171Y-90225360D01*
X133050000Y-90356927D01*
X133050000Y-90476383D01*
X132924125Y-90602258D01*
X132907172Y-90616171D01*
X132893259Y-90633124D01*
X132893255Y-90633128D01*
X132851624Y-90683855D01*
X132810349Y-90761075D01*
X132807626Y-90770053D01*
X132784932Y-90844863D01*
X132778500Y-90910170D01*
X132778500Y-90910180D01*
X132776351Y-90932000D01*
X132778500Y-90953820D01*
X132778500Y-91128882D01*
X132403883Y-91503500D01*
X124078099Y-91503500D01*
X124142532Y-91347947D01*
X124180600Y-91156566D01*
X124180600Y-90961434D01*
X124142532Y-90770053D01*
X124067858Y-90589775D01*
X123959449Y-90427529D01*
X123821471Y-90289551D01*
X123698000Y-90207051D01*
X123698000Y-87722494D01*
X123748802Y-87680802D01*
X123790494Y-87630000D01*
X124710080Y-87630000D01*
X124844529Y-87764449D01*
X125006775Y-87872858D01*
X125187053Y-87947532D01*
X125378434Y-87985600D01*
X125573566Y-87985600D01*
X125764947Y-87947532D01*
X125945225Y-87872858D01*
X126107471Y-87764449D01*
X126245449Y-87626471D01*
X126353858Y-87464225D01*
X126428532Y-87283947D01*
X126466600Y-87092566D01*
X126466600Y-86897434D01*
X126428532Y-86706053D01*
X126353858Y-86525775D01*
X126245449Y-86363529D01*
X126107471Y-86225551D01*
X125945225Y-86117142D01*
X125764947Y-86042468D01*
X125573566Y-86004400D01*
X125378434Y-86004400D01*
X125187053Y-86042468D01*
X125006775Y-86117142D01*
X124844529Y-86225551D01*
X124710080Y-86360000D01*
X123790494Y-86360000D01*
X123748802Y-86309198D01*
X123698000Y-86267506D01*
X123698000Y-78108920D01*
X123832449Y-77974471D01*
X123940858Y-77812225D01*
X124015532Y-77631947D01*
X124053600Y-77440566D01*
X124053600Y-77245434D01*
X124015532Y-77054053D01*
X123940858Y-76873775D01*
X123832449Y-76711529D01*
X123698000Y-76577080D01*
X123698000Y-75701024D01*
X125129425Y-74269600D01*
X125285501Y-74269600D01*
X125285500Y-76051180D01*
G37*
X125285500Y-76051180D02*
X125283351Y-76073000D01*
X125285500Y-76094820D01*
X125285500Y-76094829D01*
X125291932Y-76160136D01*
X125317349Y-76243925D01*
X125358624Y-76321145D01*
X125384275Y-76352400D01*
X125414171Y-76388829D01*
X125431129Y-76402747D01*
X126416256Y-77387874D01*
X126430171Y-77404829D01*
X126447124Y-77418742D01*
X126447127Y-77418745D01*
X126497854Y-77460376D01*
X126555166Y-77491010D01*
X126575074Y-77501651D01*
X126658863Y-77527068D01*
X126724170Y-77533500D01*
X126724180Y-77533500D01*
X126746000Y-77535649D01*
X126767820Y-77533500D01*
X133212421Y-77533500D01*
X133252652Y-77573731D01*
X132924125Y-77902258D01*
X132907172Y-77916171D01*
X132893259Y-77933124D01*
X132893255Y-77933128D01*
X132851624Y-77983855D01*
X132810349Y-78061075D01*
X132784933Y-78144863D01*
X132776351Y-78232000D01*
X132778501Y-78253830D01*
X132778500Y-79988180D01*
X132776351Y-80010000D01*
X132778500Y-80031820D01*
X132778500Y-80031829D01*
X132784932Y-80097136D01*
X132806626Y-80168651D01*
X132810349Y-80180925D01*
X132851624Y-80258145D01*
X132882405Y-80295651D01*
X132907171Y-80325829D01*
X132924128Y-80339745D01*
X134302501Y-81718119D01*
X134302500Y-86937882D01*
X133686125Y-87554258D01*
X133669172Y-87568171D01*
X133655259Y-87585124D01*
X133655255Y-87585128D01*
X133613624Y-87635855D01*
X133572349Y-87713075D01*
X133546933Y-87796863D01*
X133538351Y-87884000D01*
X133540501Y-87905830D01*
X133540500Y-89513180D01*
X133538351Y-89535000D01*
X133540500Y-89556820D01*
X133540500Y-89556829D01*
X133546932Y-89622136D01*
X133568626Y-89693651D01*
X133572349Y-89705925D01*
X133599063Y-89755903D01*
X133532360Y-89769171D01*
X133408426Y-89820506D01*
X133296888Y-89895033D01*
X133202033Y-89989888D01*
X133127506Y-90101426D01*
X133076171Y-90225360D01*
X133050000Y-90356927D01*
X133050000Y-90476383D01*
X132924125Y-90602258D01*
X132907172Y-90616171D01*
X132893259Y-90633124D01*
X132893255Y-90633128D01*
X132851624Y-90683855D01*
X132810349Y-90761075D01*
X132807626Y-90770053D01*
X132784932Y-90844863D01*
X132778500Y-90910170D01*
X132778500Y-90910180D01*
X132776351Y-90932000D01*
X132778500Y-90953820D01*
X132778500Y-91128882D01*
X132403883Y-91503500D01*
X124078099Y-91503500D01*
X124142532Y-91347947D01*
X124180600Y-91156566D01*
X124180600Y-90961434D01*
X124142532Y-90770053D01*
X124067858Y-90589775D01*
X123959449Y-90427529D01*
X123821471Y-90289551D01*
X123698000Y-90207051D01*
X123698000Y-87722494D01*
X123748802Y-87680802D01*
X123790494Y-87630000D01*
X124710080Y-87630000D01*
X124844529Y-87764449D01*
X125006775Y-87872858D01*
X125187053Y-87947532D01*
X125378434Y-87985600D01*
X125573566Y-87985600D01*
X125764947Y-87947532D01*
X125945225Y-87872858D01*
X126107471Y-87764449D01*
X126245449Y-87626471D01*
X126353858Y-87464225D01*
X126428532Y-87283947D01*
X126466600Y-87092566D01*
X126466600Y-86897434D01*
X126428532Y-86706053D01*
X126353858Y-86525775D01*
X126245449Y-86363529D01*
X126107471Y-86225551D01*
X125945225Y-86117142D01*
X125764947Y-86042468D01*
X125573566Y-86004400D01*
X125378434Y-86004400D01*
X125187053Y-86042468D01*
X125006775Y-86117142D01*
X124844529Y-86225551D01*
X124710080Y-86360000D01*
X123790494Y-86360000D01*
X123748802Y-86309198D01*
X123698000Y-86267506D01*
X123698000Y-78108920D01*
X123832449Y-77974471D01*
X123940858Y-77812225D01*
X124015532Y-77631947D01*
X124053600Y-77440566D01*
X124053600Y-77245434D01*
X124015532Y-77054053D01*
X123940858Y-76873775D01*
X123832449Y-76711529D01*
X123698000Y-76577080D01*
X123698000Y-75701024D01*
X125129425Y-74269600D01*
X125285501Y-74269600D01*
X125285500Y-76051180D01*
G36*
X134701000Y-65912422D02*
G01*
X134701000Y-65980073D01*
X134727171Y-66111640D01*
X134778506Y-66235574D01*
X134853033Y-66347112D01*
X134947888Y-66441967D01*
X135059426Y-66516494D01*
X135183360Y-66567829D01*
X135314927Y-66594000D01*
X135434383Y-66594000D01*
X136080501Y-67240119D01*
X136080500Y-73723500D01*
X135276819Y-73723500D01*
X135254999Y-73721351D01*
X135233179Y-73723500D01*
X135233170Y-73723500D01*
X135167863Y-73729932D01*
X135084074Y-73755349D01*
X135006855Y-73796624D01*
X134939171Y-73852171D01*
X134925249Y-73869135D01*
X134702126Y-74092257D01*
X134685172Y-74106171D01*
X134671259Y-74123124D01*
X134671255Y-74123128D01*
X134629624Y-74173855D01*
X134588349Y-74251075D01*
X134562933Y-74334863D01*
X134554351Y-74422000D01*
X134556501Y-74443829D01*
X134556500Y-74908179D01*
X134554351Y-74930000D01*
X134556500Y-74951820D01*
X134556500Y-74951829D01*
X134562932Y-75017136D01*
X134573249Y-75051146D01*
X134588349Y-75100925D01*
X134629624Y-75178145D01*
X134660405Y-75215651D01*
X134685171Y-75245829D01*
X134702128Y-75259745D01*
X134810500Y-75368117D01*
X134810500Y-76140604D01*
X134768830Y-76136500D01*
X134768820Y-76136500D01*
X134747000Y-76134351D01*
X134725180Y-76136500D01*
X133498819Y-76136500D01*
X133476999Y-76134351D01*
X133455179Y-76136500D01*
X133455170Y-76136500D01*
X133389863Y-76142932D01*
X133306074Y-76168349D01*
X133228855Y-76209624D01*
X133161171Y-76265171D01*
X133147249Y-76282135D01*
X133038884Y-76390500D01*
X127057118Y-76390500D01*
X126428500Y-75761883D01*
X126428500Y-74225117D01*
X126663877Y-73989741D01*
X126680829Y-73975829D01*
X126713656Y-73935830D01*
X126736375Y-73908146D01*
X126736376Y-73908145D01*
X126777651Y-73830926D01*
X126803068Y-73747137D01*
X126809500Y-73681830D01*
X126809500Y-73681821D01*
X126811649Y-73660001D01*
X126809500Y-73638181D01*
X126809500Y-72919820D01*
X126811649Y-72898000D01*
X126809500Y-72876180D01*
X126809500Y-72876170D01*
X126803068Y-72810863D01*
X126777651Y-72727074D01*
X126757566Y-72689498D01*
X126736376Y-72649854D01*
X126694745Y-72599127D01*
X126694742Y-72599124D01*
X126680829Y-72582171D01*
X126663876Y-72568258D01*
X125932746Y-71837129D01*
X125918829Y-71820171D01*
X125851145Y-71764624D01*
X125773926Y-71723349D01*
X125690137Y-71697932D01*
X125624830Y-71691500D01*
X125624820Y-71691500D01*
X125603000Y-71689351D01*
X125581180Y-71691500D01*
X123501118Y-71691500D01*
X123253500Y-71443883D01*
X123253500Y-67828579D01*
X123337967Y-67744112D01*
X123412494Y-67632574D01*
X123463829Y-67508640D01*
X123490000Y-67377073D01*
X123490000Y-67242927D01*
X123463829Y-67111360D01*
X123412494Y-66987426D01*
X123337967Y-66875888D01*
X123243112Y-66781033D01*
X123190067Y-66745589D01*
X124063658Y-65871999D01*
X124117518Y-65871999D01*
X134701000Y-65912422D01*
G37*
X134701000Y-65912422D02*
X134701000Y-65980073D01*
X134727171Y-66111640D01*
X134778506Y-66235574D01*
X134853033Y-66347112D01*
X134947888Y-66441967D01*
X135059426Y-66516494D01*
X135183360Y-66567829D01*
X135314927Y-66594000D01*
X135434383Y-66594000D01*
X136080501Y-67240119D01*
X136080500Y-73723500D01*
X135276819Y-73723500D01*
X135254999Y-73721351D01*
X135233179Y-73723500D01*
X135233170Y-73723500D01*
X135167863Y-73729932D01*
X135084074Y-73755349D01*
X135006855Y-73796624D01*
X134939171Y-73852171D01*
X134925249Y-73869135D01*
X134702126Y-74092257D01*
X134685172Y-74106171D01*
X134671259Y-74123124D01*
X134671255Y-74123128D01*
X134629624Y-74173855D01*
X134588349Y-74251075D01*
X134562933Y-74334863D01*
X134554351Y-74422000D01*
X134556501Y-74443829D01*
X134556500Y-74908179D01*
X134554351Y-74930000D01*
X134556500Y-74951820D01*
X134556500Y-74951829D01*
X134562932Y-75017136D01*
X134573249Y-75051146D01*
X134588349Y-75100925D01*
X134629624Y-75178145D01*
X134660405Y-75215651D01*
X134685171Y-75245829D01*
X134702128Y-75259745D01*
X134810500Y-75368117D01*
X134810500Y-76140604D01*
X134768830Y-76136500D01*
X134768820Y-76136500D01*
X134747000Y-76134351D01*
X134725180Y-76136500D01*
X133498819Y-76136500D01*
X133476999Y-76134351D01*
X133455179Y-76136500D01*
X133455170Y-76136500D01*
X133389863Y-76142932D01*
X133306074Y-76168349D01*
X133228855Y-76209624D01*
X133161171Y-76265171D01*
X133147249Y-76282135D01*
X133038884Y-76390500D01*
X127057118Y-76390500D01*
X126428500Y-75761883D01*
X126428500Y-74225117D01*
X126663877Y-73989741D01*
X126680829Y-73975829D01*
X126713656Y-73935830D01*
X126736375Y-73908146D01*
X126736376Y-73908145D01*
X126777651Y-73830926D01*
X126803068Y-73747137D01*
X126809500Y-73681830D01*
X126809500Y-73681821D01*
X126811649Y-73660001D01*
X126809500Y-73638181D01*
X126809500Y-72919820D01*
X126811649Y-72898000D01*
X126809500Y-72876180D01*
X126809500Y-72876170D01*
X126803068Y-72810863D01*
X126777651Y-72727074D01*
X126757566Y-72689498D01*
X126736376Y-72649854D01*
X126694745Y-72599127D01*
X126694742Y-72599124D01*
X126680829Y-72582171D01*
X126663876Y-72568258D01*
X125932746Y-71837129D01*
X125918829Y-71820171D01*
X125851145Y-71764624D01*
X125773926Y-71723349D01*
X125690137Y-71697932D01*
X125624830Y-71691500D01*
X125624820Y-71691500D01*
X125603000Y-71689351D01*
X125581180Y-71691500D01*
X123501118Y-71691500D01*
X123253500Y-71443883D01*
X123253500Y-67828579D01*
X123337967Y-67744112D01*
X123412494Y-67632574D01*
X123463829Y-67508640D01*
X123490000Y-67377073D01*
X123490000Y-67242927D01*
X123463829Y-67111360D01*
X123412494Y-66987426D01*
X123337967Y-66875888D01*
X123243112Y-66781033D01*
X123190067Y-66745589D01*
X124063658Y-65871999D01*
X124117518Y-65871999D01*
X134701000Y-65912422D01*
G36*
X152507171Y-55951640D02*
G01*
X152558506Y-56075574D01*
X152633033Y-56187112D01*
X152727888Y-56281967D01*
X152839426Y-56356494D01*
X152963360Y-56407829D01*
X153094927Y-56434000D01*
X153229073Y-56434000D01*
X153360640Y-56407829D01*
X153484574Y-56356494D01*
X153543000Y-56317455D01*
X153601426Y-56356494D01*
X153725360Y-56407829D01*
X153856927Y-56434000D01*
X153976382Y-56434000D01*
X154102258Y-56559876D01*
X154116171Y-56576829D01*
X154133124Y-56590742D01*
X154133126Y-56590744D01*
X154183853Y-56632375D01*
X154183855Y-56632376D01*
X154261074Y-56673651D01*
X154344863Y-56699068D01*
X154410170Y-56705500D01*
X154410179Y-56705500D01*
X154431999Y-56707649D01*
X154453819Y-56705500D01*
X157549883Y-56705500D01*
X158178500Y-57334118D01*
X158178501Y-66865500D01*
X156612448Y-66865500D01*
X156610829Y-66857360D01*
X156559494Y-66733426D01*
X156520455Y-66675000D01*
X156559494Y-66616574D01*
X156610829Y-66492640D01*
X156637000Y-66361073D01*
X156637000Y-66226927D01*
X156610829Y-66095360D01*
X156559494Y-65971426D01*
X156484967Y-65859888D01*
X156390112Y-65765033D01*
X156278574Y-65690506D01*
X156154640Y-65639171D01*
X156023073Y-65613000D01*
X155888927Y-65613000D01*
X155757360Y-65639171D01*
X155633426Y-65690506D01*
X155521888Y-65765033D01*
X155427033Y-65859888D01*
X155352506Y-65971426D01*
X155311487Y-66070455D01*
X155244802Y-65989198D01*
X155207970Y-65958971D01*
X154562284Y-65313286D01*
X154565759Y-65278000D01*
X154538786Y-65004140D01*
X154491096Y-64846929D01*
X155620956Y-63717069D01*
X155645185Y-63697185D01*
X155691546Y-63640694D01*
X155724538Y-63600494D01*
X155783502Y-63490180D01*
X155786986Y-63478696D01*
X155819812Y-63370482D01*
X155829000Y-63277192D01*
X155829000Y-63277181D01*
X155832071Y-63246000D01*
X155829000Y-63214819D01*
X155829000Y-62233920D01*
X155963449Y-62099471D01*
X156071858Y-61937225D01*
X156146532Y-61756947D01*
X156184600Y-61565566D01*
X156184600Y-61370434D01*
X156146532Y-61179053D01*
X156071858Y-60998775D01*
X155963449Y-60836529D01*
X155825471Y-60698551D01*
X155663225Y-60590142D01*
X155482947Y-60515468D01*
X155291566Y-60477400D01*
X155096434Y-60477400D01*
X154905053Y-60515468D01*
X154724775Y-60590142D01*
X154562529Y-60698551D01*
X154424551Y-60836529D01*
X154316142Y-60998775D01*
X154241468Y-61179053D01*
X154203400Y-61370434D01*
X154203400Y-61565566D01*
X154241468Y-61756947D01*
X154316142Y-61937225D01*
X154424551Y-62099471D01*
X154559001Y-62233921D01*
X154559000Y-62982975D01*
X153700816Y-63841160D01*
X151848854Y-61989199D01*
X151805098Y-61935882D01*
X151592377Y-61761307D01*
X151349685Y-61631586D01*
X151086350Y-61551704D01*
X150881115Y-61531490D01*
X150812490Y-61524731D01*
X150743865Y-61531490D01*
X147219351Y-61531490D01*
X144773567Y-59085708D01*
X144729811Y-59032391D01*
X144517090Y-58857816D01*
X144274398Y-58728095D01*
X144011063Y-58648213D01*
X143805828Y-58627999D01*
X143737203Y-58621240D01*
X143668578Y-58627999D01*
X139414429Y-58627999D01*
X139345797Y-58621239D01*
X139071937Y-58648213D01*
X138808601Y-58728095D01*
X138593481Y-58843079D01*
X138565910Y-58857816D01*
X138480390Y-58928000D01*
X138296617Y-58928000D01*
X141281118Y-55943500D01*
X152505552Y-55943500D01*
X152507171Y-55951640D01*
G37*
X152507171Y-55951640D02*
X152558506Y-56075574D01*
X152633033Y-56187112D01*
X152727888Y-56281967D01*
X152839426Y-56356494D01*
X152963360Y-56407829D01*
X153094927Y-56434000D01*
X153229073Y-56434000D01*
X153360640Y-56407829D01*
X153484574Y-56356494D01*
X153543000Y-56317455D01*
X153601426Y-56356494D01*
X153725360Y-56407829D01*
X153856927Y-56434000D01*
X153976382Y-56434000D01*
X154102258Y-56559876D01*
X154116171Y-56576829D01*
X154133124Y-56590742D01*
X154133126Y-56590744D01*
X154183853Y-56632375D01*
X154183855Y-56632376D01*
X154261074Y-56673651D01*
X154344863Y-56699068D01*
X154410170Y-56705500D01*
X154410179Y-56705500D01*
X154431999Y-56707649D01*
X154453819Y-56705500D01*
X157549883Y-56705500D01*
X158178500Y-57334118D01*
X158178501Y-66865500D01*
X156612448Y-66865500D01*
X156610829Y-66857360D01*
X156559494Y-66733426D01*
X156520455Y-66675000D01*
X156559494Y-66616574D01*
X156610829Y-66492640D01*
X156637000Y-66361073D01*
X156637000Y-66226927D01*
X156610829Y-66095360D01*
X156559494Y-65971426D01*
X156484967Y-65859888D01*
X156390112Y-65765033D01*
X156278574Y-65690506D01*
X156154640Y-65639171D01*
X156023073Y-65613000D01*
X155888927Y-65613000D01*
X155757360Y-65639171D01*
X155633426Y-65690506D01*
X155521888Y-65765033D01*
X155427033Y-65859888D01*
X155352506Y-65971426D01*
X155311487Y-66070455D01*
X155244802Y-65989198D01*
X155207970Y-65958971D01*
X154562284Y-65313286D01*
X154565759Y-65278000D01*
X154538786Y-65004140D01*
X154491096Y-64846929D01*
X155620956Y-63717069D01*
X155645185Y-63697185D01*
X155691546Y-63640694D01*
X155724538Y-63600494D01*
X155783502Y-63490180D01*
X155786986Y-63478696D01*
X155819812Y-63370482D01*
X155829000Y-63277192D01*
X155829000Y-63277181D01*
X155832071Y-63246000D01*
X155829000Y-63214819D01*
X155829000Y-62233920D01*
X155963449Y-62099471D01*
X156071858Y-61937225D01*
X156146532Y-61756947D01*
X156184600Y-61565566D01*
X156184600Y-61370434D01*
X156146532Y-61179053D01*
X156071858Y-60998775D01*
X155963449Y-60836529D01*
X155825471Y-60698551D01*
X155663225Y-60590142D01*
X155482947Y-60515468D01*
X155291566Y-60477400D01*
X155096434Y-60477400D01*
X154905053Y-60515468D01*
X154724775Y-60590142D01*
X154562529Y-60698551D01*
X154424551Y-60836529D01*
X154316142Y-60998775D01*
X154241468Y-61179053D01*
X154203400Y-61370434D01*
X154203400Y-61565566D01*
X154241468Y-61756947D01*
X154316142Y-61937225D01*
X154424551Y-62099471D01*
X154559001Y-62233921D01*
X154559000Y-62982975D01*
X153700816Y-63841160D01*
X151848854Y-61989199D01*
X151805098Y-61935882D01*
X151592377Y-61761307D01*
X151349685Y-61631586D01*
X151086350Y-61551704D01*
X150881115Y-61531490D01*
X150812490Y-61524731D01*
X150743865Y-61531490D01*
X147219351Y-61531490D01*
X144773567Y-59085708D01*
X144729811Y-59032391D01*
X144517090Y-58857816D01*
X144274398Y-58728095D01*
X144011063Y-58648213D01*
X143805828Y-58627999D01*
X143737203Y-58621240D01*
X143668578Y-58627999D01*
X139414429Y-58627999D01*
X139345797Y-58621239D01*
X139071937Y-58648213D01*
X138808601Y-58728095D01*
X138593481Y-58843079D01*
X138565910Y-58857816D01*
X138480390Y-58928000D01*
X138296617Y-58928000D01*
X141281118Y-55943500D01*
X152505552Y-55943500D01*
X152507171Y-55951640D01*
M02*
