M48
; DRILL file {KiCad 5.1.5} date Mon Jul 27 09:16:45 2020
; FORMAT={3:3/ absolute / metric / suppress leading zeros}
; #@! TF.CreationDate,2020-07-27T09:16:45-04:00
; #@! TF.GenerationSoftware,Kicad,Pcbnew,5.1.5
FMAT,2
METRIC,TZ
T1C0.300
T2C0.600
T3C1.000
T4C1.016
T5C1.270
%
G90
G05
T1
X100965Y-96139
X101727Y-95377
X101727Y-96901
X101854Y-55245
X102489Y-96139
X102616Y-56007
X103251Y-95377
X103378Y-55245
X103378Y-56769
X104013Y-96139
X104140Y-56007
X104140Y-57531
X104140Y-62103
X104140Y-63627
X104140Y-83439
X104140Y-84963
X104140Y-86487
X104775Y-95377
X104902Y-55245
X104902Y-56769
X104902Y-58293
X104902Y-62865
X104902Y-64389
X104902Y-65913
X104902Y-67437
X104902Y-68961
X104902Y-70485
X104902Y-72009
X104902Y-73533
X104902Y-75057
X104902Y-76581
X104902Y-78105
X104902Y-79629
X104902Y-81153
X104902Y-82677
X104902Y-84201
X104902Y-85725
X104902Y-87249
X105537Y-94615
X105537Y-96139
X105664Y-56007
X105664Y-57531
X105664Y-59055
X105664Y-63627
X105664Y-65151
X105664Y-66675
X105664Y-68199
X105664Y-69723
X105664Y-71247
X105664Y-72771
X105664Y-74295
X105664Y-75819
X105664Y-77343
X105664Y-78867
X105664Y-80391
X105664Y-81915
X105664Y-83439
X105664Y-84963
X105664Y-86487
X105664Y-88011
X106299Y-93853
X106299Y-95377
X106363Y-73597
X106363Y-74930
X106363Y-76454
X106363Y-78486
X106363Y-80010
X106363Y-81407
X106426Y-55245
X106426Y-56769
X106426Y-58293
X106426Y-59817
X106426Y-64389
X106426Y-65913
X106426Y-67437
X106426Y-68961
X106426Y-70485
X106426Y-72009
X106426Y-82677
X106426Y-84201
X106426Y-85725
X106426Y-87249
X106426Y-88773
X107061Y-93091
X107061Y-94615
X107061Y-96139
X107188Y-56007
X107188Y-57531
X107188Y-59055
X107188Y-60579
X107188Y-65151
X107188Y-66675
X107188Y-68199
X107188Y-69723
X107188Y-71247
X107188Y-72771
X107823Y-92329
X107823Y-93853
X107823Y-95377
X107950Y-55245
X107950Y-56769
X107950Y-58293
X107950Y-59817
X107950Y-61341
X107950Y-64389
X107950Y-65913
X107950Y-67437
X107950Y-68961
X107950Y-70485
X107950Y-72009
X108014Y-75501
X108014Y-76200
X108014Y-78804
X108014Y-79502
X108077Y-73533
X108077Y-81407
X108458Y-77470
X108585Y-91567
X108585Y-93091
X108585Y-94615
X108585Y-96139
X108709Y-67628
X108712Y-56007
X108712Y-57531
X108712Y-59055
X108712Y-60579
X108712Y-62103
X108712Y-65151
X108712Y-66675
X108712Y-69533
X108712Y-71438
X108839Y-73343
X109347Y-77470
X109347Y-92329
X109347Y-93853
X109347Y-95377
X109474Y-55245
X109474Y-56769
X109474Y-58293
X109474Y-59817
X109474Y-61341
X110109Y-91567
X110109Y-93091
X110109Y-94615
X110109Y-96139
X110236Y-56007
X110236Y-57531
X110236Y-59055
X110236Y-60579
X110236Y-62103
X110236Y-77470
X110871Y-90805
X110871Y-92329
X110871Y-93853
X110871Y-95377
X110998Y-55245
X110998Y-56769
X110998Y-58293
X110998Y-59817
X110998Y-61341
X110998Y-77470
X111633Y-90043
X111633Y-91567
X111633Y-93091
X111633Y-94615
X111633Y-96139
X111760Y-77470
X112395Y-89281
X112395Y-90805
X112395Y-92329
X112395Y-93853
X112903Y-94615
X114427Y-94615
X115824Y-57658
X116332Y-84328
X116332Y-91948
X116713Y-58293
X116840Y-57023
X117602Y-83185
X117856Y-54610
X117856Y-57277
X117856Y-74803
X117856Y-83947
X117856Y-91694
X118364Y-75438
X118491Y-93853
X118491Y-95377
X118618Y-54991
X118618Y-57023
X118745Y-63500
X119253Y-93091
X119253Y-94615
X119253Y-96139
X119380Y-64008
X119888Y-58293
X119888Y-59817
X119888Y-62357
X120015Y-93853
X120015Y-95377
X120015Y-96901
X120523Y-61722
X120650Y-56007
X120650Y-57531
X120650Y-59055
X120650Y-60579
X120777Y-64262
X120777Y-65024
X120777Y-93091
X120777Y-94615
X120777Y-96139
X121539Y-93853
X121539Y-95377
X121539Y-96901
X122174Y-67945
X122301Y-96139
X122809Y-67310
X123063Y-96901
X123825Y-68707
X123825Y-70231
X123825Y-96139
X124587Y-69469
X124587Y-83185
X124587Y-96901
X125095Y-75946
X125222Y-57404
X125222Y-90297
X125349Y-68707
X125349Y-82423
X125349Y-96139
X126111Y-67945
X126111Y-69469
X126111Y-81661
X126111Y-83185
X126111Y-96901
X126746Y-57404
X126873Y-68707
X126873Y-82423
X126873Y-86995
X126873Y-96139
X127508Y-58166
X127635Y-67945
X127635Y-69469
X127635Y-72517
X127635Y-81661
X127635Y-83185
X127635Y-86233
X127635Y-96901
X128270Y-57404
X128270Y-58928
X128270Y-60452
X128397Y-67183
X128397Y-68707
X128397Y-73279
X128397Y-80899
X128397Y-82423
X128397Y-86995
X128397Y-88519
X128397Y-94615
X128397Y-96139
X129032Y-58166
X129032Y-59690
X129159Y-67945
X129159Y-69469
X129159Y-72517
X129159Y-74041
X129159Y-81661
X129159Y-83185
X129159Y-86233
X129159Y-87757
X129159Y-95377
X129794Y-57404
X129794Y-58928
X129794Y-60452
X129921Y-67183
X129921Y-68707
X129921Y-73279
X129921Y-80899
X129921Y-82423
X129921Y-86995
X129921Y-88519
X129921Y-94615
X129921Y-96139
X130556Y-58166
X130556Y-59690
X130683Y-67945
X130683Y-69469
X130683Y-72517
X130683Y-74041
X130683Y-81661
X130683Y-83185
X130683Y-86233
X130683Y-87757
X130683Y-95377
X131318Y-57404
X131318Y-58928
X131445Y-68707
X131445Y-82423
X131445Y-96139
X132080Y-58166
X132207Y-67945
X132207Y-69469
X132207Y-72517
X132207Y-83185
X132207Y-86233
X132842Y-57404
X132842Y-58928
X132969Y-68707
X132969Y-82423
X133604Y-58166
X133731Y-62992
X133731Y-67945
X133731Y-69469
X133731Y-72517
X133731Y-75819
X133731Y-77089
X133731Y-79756
X133731Y-90424
X133731Y-91186
X134112Y-92964
X134239Y-78359
X134366Y-57404
X134493Y-77089
X134493Y-79756
X135128Y-58166
X135255Y-69469
X135255Y-72517
X135382Y-65913
X135509Y-74676
X135509Y-78867
X135509Y-88646
X135509Y-91567
X135636Y-61087
X135763Y-60071
X135890Y-57404
X136144Y-92583
X136271Y-78359
X136652Y-58166
X136779Y-75311
X137033Y-78486
X137160Y-89662
X137160Y-92710
X137160Y-95631
X137414Y-57404
X137414Y-79121
X137541Y-74803
X137541Y-90297
X137541Y-93472
X137859Y-81788
X137859Y-89154
X138176Y-63627
X138303Y-64516
X138557Y-77597
X138557Y-78359
X138557Y-79121
X138557Y-90551
X138557Y-93599
X138938Y-63627
X138938Y-69596
X138938Y-72644
X139065Y-66040
X139129Y-94107
X139192Y-79502
X139446Y-76200
X139700Y-58166
X139700Y-65151
X139700Y-68834
X139700Y-73406
X139700Y-82550
X139700Y-87122
X139827Y-66167
X139954Y-91440
X140081Y-63627
X140081Y-92837
X140462Y-57404
X140462Y-68072
X140462Y-69596
X140462Y-72644
X140462Y-81788
X140462Y-86360
X140589Y-79121
X140843Y-62357
X141097Y-63119
X141224Y-56642
X141224Y-58166
X141224Y-68834
X141224Y-73406
X141224Y-82550
X141224Y-85598
X141224Y-87122
X141351Y-66294
X141351Y-78359
X141351Y-80264
X141351Y-94234
X141478Y-75692
X141732Y-63627
X141732Y-92202
X141859Y-62230
X141986Y-57404
X141986Y-69596
X142113Y-61468
X142367Y-91694
X142748Y-56642
X142748Y-68834
X142748Y-82550
X142748Y-85598
X142875Y-78359
X142875Y-89535
X142875Y-91059
X143002Y-63373
X143002Y-64389
X143129Y-61849
X143256Y-93091
X143510Y-57404
X143510Y-68072
X143510Y-69596
X143510Y-72644
X143510Y-86360
X144272Y-56642
X144272Y-58166
X144272Y-68834
X144272Y-82550
X144272Y-85598
X144272Y-87122
X144272Y-96266
X145034Y-57404
X145034Y-58928
X145034Y-68072
X145034Y-69596
X145034Y-72644
X145034Y-86360
X145034Y-97028
X145796Y-56642
X145796Y-58166
X145796Y-68834
X145796Y-73406
X145796Y-82550
X145796Y-85598
X145796Y-87122
X145796Y-96266
X146558Y-57404
X146558Y-58928
X146558Y-60452
X146558Y-66548
X146558Y-68072
X146558Y-69596
X146558Y-72644
X146558Y-74168
X146558Y-81788
X146558Y-86360
X146558Y-87884
X146558Y-95504
X146558Y-97028
X147320Y-56642
X147320Y-58166
X147320Y-59690
X147320Y-67310
X147320Y-68834
X147320Y-73406
X147320Y-81026
X147320Y-82550
X147320Y-85598
X147320Y-87122
X147320Y-94742
X147320Y-96266
X148082Y-57404
X148082Y-58928
X148082Y-60452
X148082Y-66548
X148082Y-68072
X148082Y-69596
X148082Y-72644
X148082Y-74168
X148082Y-81788
X148082Y-86360
X148082Y-87884
X148082Y-95504
X148082Y-97028
X148844Y-56642
X148844Y-58166
X148844Y-59690
X148844Y-68834
X148844Y-73406
X148844Y-82550
X148844Y-85598
X148844Y-87122
X148844Y-96266
X149606Y-57404
X149606Y-58928
X149606Y-68072
X149606Y-69596
X149606Y-72644
X149606Y-81788
X149606Y-86360
X149606Y-97028
X150368Y-56642
X150368Y-58166
X150368Y-68834
X150368Y-82550
X150368Y-85598
X150368Y-87122
X150368Y-96266
X151130Y-57404
X151130Y-58928
X151130Y-69596
X151130Y-72644
X151130Y-86360
X151130Y-97028
X151130Y-100330
X151892Y-58166
X151892Y-68834
X151892Y-85598
X151892Y-87122
X151892Y-92583
X152654Y-58928
X152654Y-69596
X152654Y-72644
X152654Y-78740
X152654Y-86360
X152654Y-97028
X152908Y-94234
X153162Y-55753
X153416Y-58166
X153416Y-67183
X153416Y-67945
X153416Y-68834
X153416Y-82550
X153416Y-85598
X153416Y-87122
X153416Y-96266
X153924Y-55753
X154178Y-58928
X154178Y-69596
X154178Y-72644
X154178Y-78740
X154178Y-86360
X154559Y-94488
X154686Y-55753
X154940Y-58166
X154940Y-59690
X154940Y-73406
X154940Y-74930
X154940Y-82550
X154940Y-85598
X154940Y-87122
X154940Y-88646
X155067Y-64643
X155448Y-93599
X155702Y-58928
X155702Y-72644
X155702Y-74168
X155702Y-86360
X155702Y-87884
X155956Y-66294
X155956Y-67056
X156464Y-58166
X156464Y-59690
X156464Y-61214
X156464Y-73406
X156464Y-74930
X156464Y-82550
X156464Y-87122
X156464Y-88646
X156718Y-90805
X157226Y-57404
X157226Y-58928
X157226Y-60452
X157226Y-65024
X157226Y-66548
X157226Y-83312
X157226Y-87884
X157988Y-64262
X157988Y-65786
X161290Y-68453
X161290Y-84709
X161544Y-67691
X163449Y-67183
X163576Y-83566
X164465Y-66675
X164465Y-76835
X164592Y-88265
X165735Y-60325
X165735Y-67310
X165735Y-76200
X165735Y-83058
X165989Y-88392
T2
X121920Y-63500
X123063Y-77343
X123190Y-91059
X125222Y-59563
X125222Y-73279
X125476Y-86995
X151892Y-81407
X152146Y-67056
X152273Y-95377
X155194Y-61468
X155321Y-76327
X155321Y-90297
T3
X93980Y-52070
X93980Y-54610
X93980Y-57150
X162560Y-53340
X162560Y-55880
X162560Y-58420
X162560Y-60960
X162560Y-63500
X162560Y-66040
X99060Y-52070
X99060Y-54610
X99060Y-57150
X160020Y-69850
X160020Y-72390
X160020Y-74930
X160020Y-77470
X160020Y-80010
X160020Y-82550
X93980Y-95250
X93980Y-97790
X93980Y-100330
X91440Y-95250
X91440Y-97790
X91440Y-100330
X91440Y-52070
X91440Y-54610
X91440Y-57150
X162560Y-86360
X162560Y-88900
X162560Y-91440
X162560Y-93980
X162560Y-96520
X162560Y-99060
X99060Y-95250
X99060Y-97790
X99060Y-100330
X96520Y-52070
X96520Y-54610
X96520Y-57150
X160020Y-53340
X160020Y-55880
X160020Y-58420
X160020Y-60960
X160020Y-63500
X160020Y-66040
X160020Y-86360
X160020Y-88900
X160020Y-91440
X160020Y-93980
X160020Y-96520
X160020Y-99060
X96520Y-95250
X96520Y-97790
X96520Y-100330
X162560Y-69850
X162560Y-72390
X162560Y-74930
X162560Y-77470
X162560Y-80010
X162560Y-82550
T4
X101600Y-99060
X101600Y-101600
X104140Y-99060
X104140Y-101600
X106680Y-99060
X106680Y-101600
X109220Y-99060
X109220Y-101600
X111760Y-99060
X111760Y-101600
X114300Y-99060
X114300Y-101600
X116840Y-99060
X116840Y-101600
X119380Y-99060
X119380Y-101600
X121920Y-99060
X121920Y-101600
X124460Y-99060
X124460Y-101600
X127000Y-99060
X127000Y-101600
X129540Y-99060
X129540Y-101600
X132080Y-99060
X132080Y-101600
X134620Y-99060
X134620Y-101600
X137160Y-99060
X137160Y-101600
X139700Y-99060
X139700Y-101600
X142240Y-99060
X142240Y-101600
X144780Y-99060
X144780Y-101600
X147320Y-99060
X147320Y-101600
X149860Y-99060
X149860Y-101600
X152400Y-99060
X152400Y-101600
X154940Y-99060
X154940Y-101600
X157480Y-99060
X157480Y-101600
X101600Y-50800
X101600Y-53340
X104140Y-50800
X104140Y-53340
X106680Y-50800
X106680Y-53340
X109220Y-50800
X109220Y-53340
X111760Y-50800
X111760Y-53340
X114300Y-50800
X114300Y-53340
X116840Y-50800
X116840Y-53340
X119380Y-50800
X119380Y-53340
X121920Y-50800
X121920Y-53340
X124460Y-50800
X124460Y-53340
X127000Y-50800
X127000Y-53340
X129540Y-50800
X129540Y-53340
X132080Y-50800
X132080Y-53340
X134620Y-50800
X134620Y-53340
X137160Y-50800
X137160Y-53340
X139700Y-50800
X139700Y-53340
X142240Y-50800
X142240Y-53340
X144780Y-50800
X144780Y-53340
X147320Y-50800
X147320Y-53340
X149860Y-50800
X149860Y-53340
X152400Y-50800
X152400Y-53340
X154940Y-50800
X154940Y-53340
X157480Y-50800
X157480Y-53340
T5
G00X83820Y-85370
M15
G01X83820Y-89330
M16
G05
G00X83820Y-93270
M15
G01X83820Y-97230
M16
G05
T0
M30
